<?xml version="1.0" encoding="UTF-8" standalone="no"?>
<!DOCTYPE svg PUBLIC "-//W3C//DTD SVG 1.1//EN"
 "http://www.w3.org/Graphics/SVG/1.1/DTD/svg11.dtd">
<!-- Generated by graphviz version 12.2.1 (20241206.2353)
 -->
<!-- Title: algo_interface.h Pages: 1 -->
<svg width="225pt" height="140pt"
 viewBox="0.00 0.00 224.50 140.00" xmlns="http://www.w3.org/2000/svg" xmlns:xlink="http://www.w3.org/1999/xlink">
<g id="graph0" class="graph" transform="scale(1 1) rotate(0) translate(4 136)">
<title>algo_interface.h</title>
<!-- Node1 -->
<g id="Node000001" class="node">
<title>Node1</title>
<g id="a_Node000001"><a xlink:title=" ">
<polygon fill="#999999" stroke="#666666" points="151.62,-132 66.62,-132 66.62,-112 151.62,-112 151.62,-132"/>
<text text-anchor="middle" x="109.12" y="-118.5" font-family="Helvetica,sans-Serif" font-size="10.00">algo_interface.h</text>
</a>
</g>
</g>
<!-- Node2 -->
<g id="Node000002" class="node">
<title>Node2</title>
<g id="a_Node000002"><a xlink:href="binary__tree_8h.html" target="_top" xlink:title=" ">
<polygon fill="white" stroke="#666666" points="72.25,-76 0,-76 0,-56 72.25,-56 72.25,-76"/>
<text text-anchor="middle" x="36.12" y="-62.5" font-family="Helvetica,sans-Serif" font-size="10.00">binary_tree.h</text>
</a>
</g>
</g>
<!-- Node1&#45;&gt;Node2 -->
<g id="edge1_Node000001_Node000002" class="edge">
<title>Node1&#45;&gt;Node2</title>
<g id="a_edge1_Node000001_Node000002"><a xlink:title=" ">
<path fill="none" stroke="#63b8ff" d="M87.43,-104.95C74.81,-95.61 59.33,-84.16 48.69,-76.3"/>
<polygon fill="#63b8ff" stroke="#63b8ff" points="85.07,-107.56 95.19,-110.69 89.23,-101.93 85.07,-107.56"/>
</a>
</g>
</g>
<!-- Node4 -->
<g id="Node000004" class="node">
<title>Node4</title>
<g id="a_Node000004"><a xlink:href="dfs_8h.html" target="_top" xlink:title=" ">
<polygon fill="white" stroke="#666666" points="128,-76 90.25,-76 90.25,-56 128,-56 128,-76"/>
<text text-anchor="middle" x="109.12" y="-62.5" font-family="Helvetica,sans-Serif" font-size="10.00">dfs.h</text>
</a>
</g>
</g>
<!-- Node1&#45;&gt;Node4 -->
<g id="edge3_Node000001_Node000004" class="edge">
<title>Node1&#45;&gt;Node4</title>
<g id="a_edge3_Node000001_Node000004"><a xlink:title=" ">
<path fill="none" stroke="#63b8ff" d="M109.12,-100.13C109.12,-91.9 109.12,-82.85 109.12,-76.3"/>
<polygon fill="#63b8ff" stroke="#63b8ff" points="105.63,-100.08 109.13,-110.08 112.63,-100.08 105.63,-100.08"/>
</a>
</g>
</g>
<!-- Node5 -->
<g id="Node000005" class="node">
<title>Node5</title>
<g id="a_Node000005"><a xlink:href="sidewinder_8h.html" target="_top" xlink:title=" ">
<polygon fill="white" stroke="#666666" points="216.5,-76 145.75,-76 145.75,-56 216.5,-56 216.5,-76"/>
<text text-anchor="middle" x="181.12" y="-62.5" font-family="Helvetica,sans-Serif" font-size="10.00">sidewinder.h</text>
</a>
</g>
</g>
<!-- Node1&#45;&gt;Node5 -->
<g id="edge5_Node000001_Node000005" class="edge">
<title>Node1&#45;&gt;Node5</title>
<g id="a_edge5_Node000001_Node000005"><a xlink:title=" ">
<path fill="none" stroke="#63b8ff" d="M130.52,-104.95C142.97,-95.61 158.24,-84.16 168.73,-76.3"/>
<polygon fill="#63b8ff" stroke="#63b8ff" points="128.78,-101.89 122.88,-110.69 132.98,-107.49 128.78,-101.89"/>
</a>
</g>
</g>
<!-- Node3 -->
<g id="Node000003" class="node">
<title>Node3</title>
<g id="a_Node000003"><a xlink:href="maze__builder_8h.html" target="_top" xlink:title="This file includes all the headers in the maze builder library.">
<polygon fill="white" stroke="#666666" points="150.12,-20 68.12,-20 68.12,0 150.12,0 150.12,-20"/>
<text text-anchor="middle" x="109.12" y="-6.5" font-family="Helvetica,sans-Serif" font-size="10.00">maze_builder.h</text>
</a>
</g>
</g>
<!-- Node2&#45;&gt;Node3 -->
<g id="edge2_Node000002_Node000003" class="edge">
<title>Node2&#45;&gt;Node3</title>
<g id="a_edge2_Node000002_Node000003"><a xlink:title=" ">
<path fill="none" stroke="#63b8ff" d="M57.82,-48.95C70.44,-39.61 85.92,-28.16 96.56,-20.3"/>
<polygon fill="#63b8ff" stroke="#63b8ff" points="56.02,-45.93 50.06,-54.69 60.18,-51.56 56.02,-45.93"/>
</a>
</g>
</g>
<!-- Node4&#45;&gt;Node3 -->
<g id="edge4_Node000004_Node000003" class="edge">
<title>Node4&#45;&gt;Node3</title>
<g id="a_edge4_Node000004_Node000003"><a xlink:title=" ">
<path fill="none" stroke="#63b8ff" d="M109.12,-44.13C109.12,-35.9 109.12,-26.85 109.12,-20.3"/>
<polygon fill="#63b8ff" stroke="#63b8ff" points="105.63,-44.08 109.13,-54.08 112.63,-44.08 105.63,-44.08"/>
</a>
</g>
</g>
<!-- Node5&#45;&gt;Node3 -->
<g id="edge6_Node000005_Node000003" class="edge">
<title>Node5&#45;&gt;Node3</title>
<g id="a_edge6_Node000005_Node000003"><a xlink:title=" ">
<path fill="none" stroke="#63b8ff" d="M159.73,-48.95C147.28,-39.61 132.01,-28.16 121.52,-20.3"/>
<polygon fill="#63b8ff" stroke="#63b8ff" points="157.27,-51.49 167.37,-54.69 161.47,-45.89 157.27,-51.49"/>
</a>
</g>
</g>
</g>
</svg>
