<?xml version="1.0" encoding="UTF-8" standalone="no"?>
<!DOCTYPE svg PUBLIC "-//W3C//DTD SVG 1.1//EN"
 "http://www.w3.org/Graphics/SVG/1.1/DTD/svg11.dtd">
<!-- Generated by graphviz version 12.2.1 (20241206.2353)
 -->
<!-- Title: args.h Pages: 1 -->
<svg width="347pt" height="84pt"
 viewBox="0.00 0.00 346.88 84.00" xmlns="http://www.w3.org/2000/svg" xmlns:xlink="http://www.w3.org/1999/xlink">
<g id="graph0" class="graph" transform="scale(1 1) rotate(0) translate(4 80)">
<title>args.h</title>
<!-- Node1 -->
<g id="Node000001" class="node">
<title>Node1</title>
<g id="a_Node000001"><a xlink:title=" ">
<polygon fill="#999999" stroke="#666666" points="201.5,-76 158.5,-76 158.5,-56 201.5,-56 201.5,-76"/>
<text text-anchor="middle" x="180" y="-62.5" font-family="Helvetica,sans-Serif" font-size="10.00">args.h</text>
</a>
</g>
</g>
<!-- Node2 -->
<g id="Node000002" class="node">
<title>Node2</title>
<g id="a_Node000002"><a xlink:title=" ">
<polygon fill="#e0e0e0" stroke="#999999" points="40,-20 0,-20 0,0 40,0 40,-20"/>
<text text-anchor="middle" x="20" y="-6.5" font-family="Helvetica,sans-Serif" font-size="10.00">string</text>
</a>
</g>
</g>
<!-- Node1&#45;&gt;Node2 -->
<g id="edge1_Node000001_Node000002" class="edge">
<title>Node1&#45;&gt;Node2</title>
<g id="a_edge1_Node000001_Node000002"><a xlink:title=" ">
<path fill="none" stroke="#63b8ff" d="M158.09,-57.6C130.34,-48.24 82.37,-32.05 50.91,-21.43"/>
<polygon fill="#63b8ff" stroke="#63b8ff" points="52.16,-18.16 41.57,-18.28 49.92,-24.79 52.16,-18.16"/>
</a>
</g>
</g>
<!-- Node3 -->
<g id="Node000003" class="node">
<title>Node3</title>
<g id="a_Node000003"><a xlink:title=" ">
<polygon fill="#e0e0e0" stroke="#999999" points="140.38,-20 57.62,-20 57.62,0 140.38,0 140.38,-20"/>
<text text-anchor="middle" x="99" y="-6.5" font-family="Helvetica,sans-Serif" font-size="10.00">unordered_map</text>
</a>
</g>
</g>
<!-- Node1&#45;&gt;Node3 -->
<g id="edge2_Node000001_Node000003" class="edge">
<title>Node1&#45;&gt;Node3</title>
<g id="a_edge2_Node000001_Node000003"><a xlink:title=" ">
<path fill="none" stroke="#63b8ff" d="M165.89,-55.59C154,-47.67 136.73,-36.16 122.72,-26.82"/>
<polygon fill="#63b8ff" stroke="#63b8ff" points="124.74,-23.95 114.48,-21.32 120.86,-29.78 124.74,-23.95"/>
</a>
</g>
</g>
<!-- Node4 -->
<g id="Node000004" class="node">
<title>Node4</title>
<g id="a_Node000004"><a xlink:title=" ">
<polygon fill="#e0e0e0" stroke="#999999" points="201.5,-20 158.5,-20 158.5,0 201.5,0 201.5,-20"/>
<text text-anchor="middle" x="180" y="-6.5" font-family="Helvetica,sans-Serif" font-size="10.00">vector</text>
</a>
</g>
</g>
<!-- Node1&#45;&gt;Node4 -->
<g id="edge3_Node000001_Node000004" class="edge">
<title>Node1&#45;&gt;Node4</title>
<g id="a_edge3_Node000001_Node000004"><a xlink:title=" ">
<path fill="none" stroke="#63b8ff" d="M180,-55.59C180,-49.01 180,-39.96 180,-31.73"/>
<polygon fill="#63b8ff" stroke="#63b8ff" points="183.5,-31.81 180,-21.81 176.5,-31.81 183.5,-31.81"/>
</a>
</g>
</g>
<!-- Node5 -->
<g id="Node000005" class="node">
<title>Node5</title>
<g id="a_Node000005"><a xlink:title=" ">
<polygon fill="#e0e0e0" stroke="#999999" points="270.62,-20 219.38,-20 219.38,0 270.62,0 270.62,-20"/>
<text text-anchor="middle" x="245" y="-6.5" font-family="Helvetica,sans-Serif" font-size="10.00">ostream</text>
</a>
</g>
</g>
<!-- Node1&#45;&gt;Node5 -->
<g id="edge4_Node000001_Node000005" class="edge">
<title>Node1&#45;&gt;Node5</title>
<g id="a_edge4_Node000001_Node000005"><a xlink:title=" ">
<path fill="none" stroke="#63b8ff" d="M191.32,-55.59C200.64,-47.85 214.08,-36.69 225.18,-27.47"/>
<polygon fill="#63b8ff" stroke="#63b8ff" points="227.19,-30.35 232.64,-21.27 222.71,-24.96 227.19,-30.35"/>
</a>
</g>
</g>
<!-- Node6 -->
<g id="Node000006" class="node">
<title>Node6</title>
<g id="a_Node000006"><a xlink:title=" ">
<polygon fill="#e0e0e0" stroke="#999999" points="338.88,-20 289.12,-20 289.12,0 338.88,0 338.88,-20"/>
<text text-anchor="middle" x="314" y="-6.5" font-family="Helvetica,sans-Serif" font-size="10.00">optional</text>
</a>
</g>
</g>
<!-- Node1&#45;&gt;Node6 -->
<g id="edge5_Node000001_Node000006" class="edge">
<title>Node1&#45;&gt;Node6</title>
<g id="a_edge5_Node000001_Node000006"><a xlink:title=" ">
<path fill="none" stroke="#63b8ff" d="M201.83,-56.2C223.05,-47.65 255.59,-34.54 280.17,-24.63"/>
<polygon fill="#63b8ff" stroke="#63b8ff" points="281.46,-27.89 289.43,-20.9 278.84,-21.39 281.46,-27.89"/>
</a>
</g>
</g>
</g>
</svg>
