<?xml version="1.0" encoding="UTF-8" standalone="no"?>
<!DOCTYPE svg PUBLIC "-//W3C//DTD SVG 1.1//EN"
 "http://www.w3.org/Graphics/SVG/1.1/DTD/svg11.dtd">
<!-- Generated by graphviz version 12.2.1 (20241206.2353)
 -->
<!-- Title: base64_helper.h Pages: 1 -->
<svg width="118pt" height="84pt"
 viewBox="0.00 0.00 117.62 84.00" xmlns="http://www.w3.org/2000/svg" xmlns:xlink="http://www.w3.org/1999/xlink">
<g id="graph0" class="graph" transform="scale(1 1) rotate(0) translate(4 80)">
<title>base64_helper.h</title>
<!-- Node1 -->
<g id="Node000001" class="node">
<title>Node1</title>
<g id="a_Node000001"><a xlink:title=" ">
<polygon fill="#999999" stroke="#666666" points="101.25,-76 14,-76 14,-56 101.25,-56 101.25,-76"/>
<text text-anchor="middle" x="57.62" y="-62.5" font-family="Helvetica,sans-Serif" font-size="10.00">base64_helper.h</text>
</a>
</g>
</g>
<!-- Node2 -->
<g id="Node000002" class="node">
<title>Node2</title>
<g id="a_Node000002"><a xlink:title=" ">
<polygon fill="#e0e0e0" stroke="#999999" points="51.25,-20 0,-20 0,0 51.25,0 51.25,-20"/>
<text text-anchor="middle" x="25.62" y="-6.5" font-family="Helvetica,sans-Serif" font-size="10.00">memory</text>
</a>
</g>
</g>
<!-- Node1&#45;&gt;Node2 -->
<g id="edge1_Node000001_Node000002" class="edge">
<title>Node1&#45;&gt;Node2</title>
<g id="a_edge1_Node000001_Node000002"><a xlink:title=" ">
<path fill="none" stroke="#63b8ff" d="M52.05,-55.59C47.88,-48.55 42.02,-38.67 36.88,-30"/>
<polygon fill="#63b8ff" stroke="#63b8ff" points="40.02,-28.42 31.91,-21.6 33.99,-31.99 40.02,-28.42"/>
</a>
</g>
</g>
<!-- Node3 -->
<g id="Node000003" class="node">
<title>Node3</title>
<g id="a_Node000003"><a xlink:title=" ">
<polygon fill="#e0e0e0" stroke="#999999" points="109.62,-20 69.62,-20 69.62,0 109.62,0 109.62,-20"/>
<text text-anchor="middle" x="89.62" y="-6.5" font-family="Helvetica,sans-Serif" font-size="10.00">string</text>
</a>
</g>
</g>
<!-- Node1&#45;&gt;Node3 -->
<g id="edge2_Node000001_Node000003" class="edge">
<title>Node1&#45;&gt;Node3</title>
<g id="a_edge2_Node000001_Node000003"><a xlink:title=" ">
<path fill="none" stroke="#63b8ff" d="M63.2,-55.59C67.37,-48.55 73.23,-38.67 78.37,-30"/>
<polygon fill="#63b8ff" stroke="#63b8ff" points="81.26,-31.99 83.34,-21.6 75.23,-28.42 81.26,-31.99"/>
</a>
</g>
</g>
</g>
</svg>
