<?xml version="1.0" encoding="UTF-8" standalone="no"?>
<!DOCTYPE svg PUBLIC "-//W3C//DTD SVG 1.1//EN"
 "http://www.w3.org/Graphics/SVG/1.1/DTD/svg11.dtd">
<!-- Generated by graphviz version 12.2.1 (20241206.2353)
 -->
<!-- Title: binary_tree.h Pages: 1 -->
<svg width="231pt" height="140pt"
 viewBox="0.00 0.00 230.62 140.00" xmlns="http://www.w3.org/2000/svg" xmlns:xlink="http://www.w3.org/1999/xlink">
<g id="graph0" class="graph" transform="scale(1 1) rotate(0) translate(4 136)">
<title>binary_tree.h</title>
<!-- Node1 -->
<g id="Node000001" class="node">
<title>Node1</title>
<g id="a_Node000001"><a xlink:title=" ">
<polygon fill="#999999" stroke="#666666" points="144.75,-132 72.5,-132 72.5,-112 144.75,-112 144.75,-132"/>
<text text-anchor="middle" x="108.62" y="-118.5" font-family="Helvetica,sans-Serif" font-size="10.00">binary_tree.h</text>
</a>
</g>
</g>
<!-- Node2 -->
<g id="Node000002" class="node">
<title>Node2</title>
<g id="a_Node000002"><a xlink:href="algo__interface_8h.html" target="_top" xlink:title=" ">
<polygon fill="white" stroke="#666666" points="179.62,-76 37.62,-76 37.62,-56 179.62,-56 179.62,-76"/>
<text text-anchor="middle" x="108.62" y="-62.5" font-family="Helvetica,sans-Serif" font-size="10.00">MazeBuilder/algo_interface.h</text>
</a>
</g>
</g>
<!-- Node1&#45;&gt;Node2 -->
<g id="edge1_Node000001_Node000002" class="edge">
<title>Node1&#45;&gt;Node2</title>
<g id="a_edge1_Node000001_Node000002"><a xlink:title=" ">
<path fill="none" stroke="#63b8ff" d="M108.62,-111.59C108.62,-105.01 108.62,-95.96 108.62,-87.73"/>
<polygon fill="#63b8ff" stroke="#63b8ff" points="112.13,-87.81 108.63,-77.81 105.13,-87.81 112.13,-87.81"/>
</a>
</g>
</g>
<!-- Node3 -->
<g id="Node000003" class="node">
<title>Node3</title>
<g id="a_Node000003"><a xlink:title=" ">
<polygon fill="#e0e0e0" stroke="#999999" points="51.25,-20 0,-20 0,0 51.25,0 51.25,-20"/>
<text text-anchor="middle" x="25.62" y="-6.5" font-family="Helvetica,sans-Serif" font-size="10.00">memory</text>
</a>
</g>
</g>
<!-- Node1&#45;&gt;Node3 -->
<g id="edge6_Node000001_Node000003" class="edge">
<title>Node1&#45;&gt;Node3</title>
<g id="a_edge6_Node000001_Node000003"><a xlink:title=" ">
<path fill="none" stroke="#63b8ff" d="M76.65,-111.52C59.33,-104.62 39.33,-93.37 28.62,-76 20.46,-62.75 20.21,-44.93 21.73,-31.3"/>
<polygon fill="#63b8ff" stroke="#63b8ff" points="25.14,-32.12 23.21,-21.7 18.23,-31.05 25.14,-32.12"/>
</a>
</g>
</g>
<!-- Node4 -->
<g id="Node000004" class="node">
<title>Node4</title>
<g id="a_Node000004"><a xlink:title=" ">
<polygon fill="#e0e0e0" stroke="#999999" points="222.62,-20 164.62,-20 164.62,0 222.62,0 222.62,-20"/>
<text text-anchor="middle" x="193.62" y="-6.5" font-family="Helvetica,sans-Serif" font-size="10.00">functional</text>
</a>
</g>
</g>
<!-- Node1&#45;&gt;Node4 -->
<g id="edge5_Node000001_Node000004" class="edge">
<title>Node1&#45;&gt;Node4</title>
<g id="a_edge5_Node000001_Node000004"><a xlink:title=" ">
<path fill="none" stroke="#63b8ff" d="M140,-111.56C157.35,-104.62 177.57,-93.33 188.62,-76 197.01,-62.85 197.82,-45.02 196.77,-31.36"/>
<polygon fill="#63b8ff" stroke="#63b8ff" points="200.29,-31.27 195.64,-21.75 193.34,-32.09 200.29,-31.27"/>
</a>
</g>
</g>
<!-- Node2&#45;&gt;Node3 -->
<g id="edge2_Node000002_Node000003" class="edge">
<title>Node2&#45;&gt;Node3</title>
<g id="a_edge2_Node000002_Node000003"><a xlink:title=" ">
<path fill="none" stroke="#63b8ff" d="M94.17,-55.59C81.87,-47.59 63.95,-35.93 49.52,-26.54"/>
<polygon fill="#63b8ff" stroke="#63b8ff" points="51.75,-23.82 41.46,-21.3 47.94,-29.69 51.75,-23.82"/>
</a>
</g>
</g>
<!-- Node2&#45;&gt;Node4 -->
<g id="edge3_Node000002_Node000004" class="edge">
<title>Node2&#45;&gt;Node4</title>
<g id="a_edge3_Node000002_Node000004"><a xlink:title=" ">
<path fill="none" stroke="#63b8ff" d="M123.43,-55.59C136.03,-47.59 154.38,-35.93 169.16,-26.54"/>
<polygon fill="#63b8ff" stroke="#63b8ff" points="170.86,-29.61 177.43,-21.29 167.11,-23.7 170.86,-29.61"/>
</a>
</g>
</g>
<!-- Node5 -->
<g id="Node000005" class="node">
<title>Node5</title>
<g id="a_Node000005"><a xlink:title=" ">
<polygon fill="#e0e0e0" stroke="#999999" points="132.75,-20 84.5,-20 84.5,0 132.75,0 132.75,-20"/>
<text text-anchor="middle" x="108.62" y="-6.5" font-family="Helvetica,sans-Serif" font-size="10.00">random</text>
</a>
</g>
</g>
<!-- Node2&#45;&gt;Node5 -->
<g id="edge4_Node000002_Node000005" class="edge">
<title>Node2&#45;&gt;Node5</title>
<g id="a_edge4_Node000002_Node000005"><a xlink:title=" ">
<path fill="none" stroke="#63b8ff" d="M108.62,-55.59C108.62,-49.01 108.62,-39.96 108.62,-31.73"/>
<polygon fill="#63b8ff" stroke="#63b8ff" points="112.13,-31.81 108.63,-21.81 105.13,-31.81 112.13,-31.81"/>
</a>
</g>
</g>
</g>
</svg>
