<?xml version="1.0" encoding="UTF-8" standalone="no"?>
<!DOCTYPE svg PUBLIC "-//W3C//DTD SVG 1.1//EN"
 "http://www.w3.org/Graphics/SVG/1.1/DTD/svg11.dtd">
<!-- Generated by graphviz version 12.2.1 (20241206.2353)
 -->
<!-- Title: binary_tree.h Pages: 1 -->
<svg width="248pt" height="140pt"
 viewBox="0.00 0.00 247.75 140.00" xmlns="http://www.w3.org/2000/svg" xmlns:xlink="http://www.w3.org/1999/xlink">
<g id="graph0" class="graph" transform="scale(1 1) rotate(0) translate(4 136)">
<title>binary_tree.h</title>
<!-- Node1 -->
<g id="Node000001" class="node">
<title>Node1</title>
<g id="a_Node000001"><a xlink:title=" ">
<polygon fill="#999999" stroke="#666666" points="180.75,-132 108.5,-132 108.5,-112 180.75,-112 180.75,-132"/>
<text text-anchor="middle" x="144.62" y="-118.5" font-family="Helvetica,sans-Serif" font-size="10.00">binary_tree.h</text>
</a>
</g>
</g>
<!-- Node2 -->
<g id="Node000002" class="node">
<title>Node2</title>
<g id="a_Node000002"><a xlink:href="algo__interface_8h.html" target="_top" xlink:title=" ">
<polygon fill="white" stroke="#666666" points="166.62,-76 24.62,-76 24.62,-56 166.62,-56 166.62,-76"/>
<text text-anchor="middle" x="95.62" y="-62.5" font-family="Helvetica,sans-Serif" font-size="10.00">MazeBuilder/algo_interface.h</text>
</a>
</g>
</g>
<!-- Node1&#45;&gt;Node2 -->
<g id="edge1_Node000001_Node000002" class="edge">
<title>Node1&#45;&gt;Node2</title>
<g id="a_edge1_Node000001_Node000002"><a xlink:title=" ">
<path fill="none" stroke="#63b8ff" d="M136.09,-111.59C129.34,-104.16 119.74,-93.58 111.58,-84.58"/>
<polygon fill="#63b8ff" stroke="#63b8ff" points="114.39,-82.47 105.08,-77.42 109.21,-87.18 114.39,-82.47"/>
</a>
</g>
</g>
<!-- Node3 -->
<g id="Node000003" class="node">
<title>Node3</title>
<g id="a_Node000003"><a xlink:title=" ">
<polygon fill="#e0e0e0" stroke="#999999" points="51.25,-20 0,-20 0,0 51.25,0 51.25,-20"/>
<text text-anchor="middle" x="25.62" y="-6.5" font-family="Helvetica,sans-Serif" font-size="10.00">memory</text>
</a>
</g>
</g>
<!-- Node1&#45;&gt;Node3 -->
<g id="edge6_Node000001_Node000003" class="edge">
<title>Node1&#45;&gt;Node3</title>
<g id="a_edge6_Node000001_Node000003"><a xlink:title=" ">
<path fill="none" stroke="#63b8ff" d="M108.09,-119.27C77.79,-115.68 36.43,-105.3 15.62,-76 6.33,-62.91 10.26,-44.59 15.7,-30.73"/>
<polygon fill="#63b8ff" stroke="#63b8ff" points="18.83,-32.29 19.74,-21.74 12.45,-29.42 18.83,-32.29"/>
</a>
</g>
</g>
<!-- Node4 -->
<g id="Node000004" class="node">
<title>Node4</title>
<g id="a_Node000004"><a xlink:title=" ">
<polygon fill="#e0e0e0" stroke="#999999" points="140.62,-20 82.62,-20 82.62,0 140.62,0 140.62,-20"/>
<text text-anchor="middle" x="111.62" y="-6.5" font-family="Helvetica,sans-Serif" font-size="10.00">functional</text>
</a>
</g>
</g>
<!-- Node1&#45;&gt;Node4 -->
<g id="edge5_Node000001_Node000004" class="edge">
<title>Node1&#45;&gt;Node4</title>
<g id="a_edge5_Node000001_Node000004"><a xlink:title=" ">
<path fill="none" stroke="#63b8ff" d="M154.79,-111.65C167.31,-98.93 185.77,-75.53 175.62,-56 168.92,-43.1 156.64,-33.12 144.61,-25.87"/>
<polygon fill="#63b8ff" stroke="#63b8ff" points="146.47,-22.9 136.02,-21.15 143.1,-29.04 146.47,-22.9"/>
</a>
</g>
</g>
<!-- Node5 -->
<g id="Node000005" class="node">
<title>Node5</title>
<g id="a_Node000005"><a xlink:title=" ">
<polygon fill="#e0e0e0" stroke="#999999" points="239.75,-20 191.5,-20 191.5,0 239.75,0 239.75,-20"/>
<text text-anchor="middle" x="215.62" y="-6.5" font-family="Helvetica,sans-Serif" font-size="10.00">random</text>
</a>
</g>
</g>
<!-- Node1&#45;&gt;Node5 -->
<g id="edge7_Node000001_Node000005" class="edge">
<title>Node1&#45;&gt;Node5</title>
<g id="a_edge7_Node000001_Node000005"><a xlink:title=" ">
<path fill="none" stroke="#63b8ff" d="M156.61,-111.78C166.83,-103.39 181.29,-90.19 190.62,-76 199.68,-62.23 206.18,-44.7 210.28,-31.32"/>
<polygon fill="#63b8ff" stroke="#63b8ff" points="213.59,-32.45 212.96,-21.87 206.86,-30.54 213.59,-32.45"/>
</a>
</g>
</g>
<!-- Node2&#45;&gt;Node3 -->
<g id="edge2_Node000002_Node000003" class="edge">
<title>Node2&#45;&gt;Node3</title>
<g id="a_edge2_Node000002_Node000003"><a xlink:title=" ">
<path fill="none" stroke="#63b8ff" d="M83.43,-55.59C73.29,-47.77 58.63,-36.46 46.61,-27.19"/>
<polygon fill="#63b8ff" stroke="#63b8ff" points="48.93,-24.56 38.88,-21.22 44.66,-30.1 48.93,-24.56"/>
</a>
</g>
</g>
<!-- Node2&#45;&gt;Node4 -->
<g id="edge3_Node000002_Node000004" class="edge">
<title>Node2&#45;&gt;Node4</title>
<g id="a_edge3_Node000002_Node000004"><a xlink:title=" ">
<path fill="none" stroke="#63b8ff" d="M98.41,-55.59C100.41,-48.86 103.17,-39.53 105.65,-31.15"/>
<polygon fill="#63b8ff" stroke="#63b8ff" points="108.95,-32.33 108.44,-21.75 102.24,-30.34 108.95,-32.33"/>
</a>
</g>
</g>
<!-- Node2&#45;&gt;Node5 -->
<g id="edge4_Node000002_Node000005" class="edge">
<title>Node2&#45;&gt;Node5</title>
<g id="a_edge4_Node000002_Node000005"><a xlink:title=" ">
<path fill="none" stroke="#63b8ff" d="M116.53,-55.59C135.25,-47.17 162.98,-34.69 184.35,-25.07"/>
<polygon fill="#63b8ff" stroke="#63b8ff" points="185.5,-28.4 193.18,-21.1 182.62,-22.01 185.5,-28.4"/>
</a>
</g>
</g>
</g>
</svg>
