<?xml version="1.0" encoding="UTF-8" standalone="no"?>
<!DOCTYPE svg PUBLIC "-//W3C//DTD SVG 1.1//EN"
 "http://www.w3.org/Graphics/SVG/1.1/DTD/svg11.dtd">
<!-- Generated by graphviz version 12.2.1 (20241206.2353)
 -->
<!-- Title: cell.h Pages: 1 -->
<svg width="242pt" height="252pt"
 viewBox="0.00 0.00 242.43 252.00" xmlns="http://www.w3.org/2000/svg" xmlns:xlink="http://www.w3.org/1999/xlink">
<g id="graph0" class="graph" transform="scale(1 1) rotate(0) translate(4 248)">
<title>cell.h</title>
<!-- Node1 -->
<g id="Node000001" class="node">
<title>Node1</title>
<g id="a_Node000001"><a xlink:title=" ">
<polygon fill="#999999" stroke="#666666" points="193,-244 153.75,-244 153.75,-224 193,-224 193,-244"/>
<text text-anchor="middle" x="173.38" y="-230.5" font-family="Helvetica,sans-Serif" font-size="10.00">cell.h</text>
</a>
</g>
</g>
<!-- Node2 -->
<g id="Node000002" class="node">
<title>Node2</title>
<g id="a_Node000002"><a xlink:href="grid__interface_8h.html" target="_top" xlink:title=" ">
<polygon fill="white" stroke="#666666" points="180.75,-188 98,-188 98,-168 180.75,-168 180.75,-188"/>
<text text-anchor="middle" x="139.38" y="-174.5" font-family="Helvetica,sans-Serif" font-size="10.00">grid_interface.h</text>
</a>
</g>
</g>
<!-- Node1&#45;&gt;Node2 -->
<g id="edge1_Node000001_Node000002" class="edge">
<title>Node1&#45;&gt;Node2</title>
<g id="a_edge1_Node000001_Node000002"><a xlink:title=" ">
<path fill="none" stroke="#63b8ff" d="M161.33,-213.87C155.86,-205.19 149.65,-195.32 145.23,-188.3"/>
<polygon fill="#63b8ff" stroke="#63b8ff" points="158.36,-215.72 166.65,-222.31 164.28,-211.99 158.36,-215.72"/>
</a>
</g>
</g>
<!-- Node5 -->
<g id="Node000005" class="node">
<title>Node5</title>
<g id="a_Node000005"><a xlink:href="maze__builder_8h.html" target="_top" xlink:title="This file includes all the headers in the maze builder library.">
<polygon fill="white" stroke="#666666" points="179.38,-20 97.38,-20 97.38,0 179.38,0 179.38,-20"/>
<text text-anchor="middle" x="138.38" y="-6.5" font-family="Helvetica,sans-Serif" font-size="10.00">maze_builder.h</text>
</a>
</g>
</g>
<!-- Node1&#45;&gt;Node5 -->
<g id="edge8_Node000001_Node000005" class="edge">
<title>Node1&#45;&gt;Node5</title>
<g id="a_edge8_Node000001_Node000005"><a xlink:title=" ">
<path fill="none" stroke="#63b8ff" d="M187.41,-214.78C211.42,-181.23 254.87,-108.31 223.38,-56 212.7,-38.26 192.42,-27.15 174.35,-20.41"/>
<polygon fill="#63b8ff" stroke="#63b8ff" points="184.72,-212.53 181.59,-222.65 190.35,-216.69 184.72,-212.53"/>
</a>
</g>
</g>
<!-- Node3 -->
<g id="Node000003" class="node">
<title>Node3</title>
<g id="a_Node000003"><a xlink:href="grid_8h.html" target="_top" xlink:title=" ">
<polygon fill="white" stroke="#666666" points="141.38,-132 101.38,-132 101.38,-112 141.38,-112 141.38,-132"/>
<text text-anchor="middle" x="121.38" y="-118.5" font-family="Helvetica,sans-Serif" font-size="10.00">grid.h</text>
</a>
</g>
</g>
<!-- Node2&#45;&gt;Node3 -->
<g id="edge2_Node000002_Node000003" class="edge">
<title>Node2&#45;&gt;Node3</title>
<g id="a_edge2_Node000002_Node000003"><a xlink:title=" ">
<path fill="none" stroke="#63b8ff" d="M132.61,-156.71C129.82,-148.32 126.71,-139.01 124.47,-132.3"/>
<polygon fill="#63b8ff" stroke="#63b8ff" points="129.28,-157.78 135.76,-166.16 135.92,-155.56 129.28,-157.78"/>
</a>
</g>
</g>
<!-- Node4 -->
<g id="Node000004" class="node">
<title>Node4</title>
<g id="a_Node000004"><a xlink:href="colored__grid_8h.html" target="_top" xlink:title=" ">
<polygon fill="white" stroke="#666666" points="76.75,-76 0,-76 0,-56 76.75,-56 76.75,-76"/>
<text text-anchor="middle" x="38.38" y="-62.5" font-family="Helvetica,sans-Serif" font-size="10.00">colored_grid.h</text>
</a>
</g>
</g>
<!-- Node3&#45;&gt;Node4 -->
<g id="edge3_Node000003_Node000004" class="edge">
<title>Node3&#45;&gt;Node4</title>
<g id="a_edge3_Node000003_Node000004"><a xlink:title=" ">
<path fill="none" stroke="#63b8ff" d="M97.62,-105.54C83.21,-96.17 65.28,-84.51 52.95,-76.48"/>
<polygon fill="#63b8ff" stroke="#63b8ff" points="95.36,-108.25 105.65,-110.77 99.18,-102.38 95.36,-108.25"/>
</a>
</g>
</g>
<!-- Node3&#45;&gt;Node5 -->
<g id="edge7_Node000003_Node000005" class="edge">
<title>Node3&#45;&gt;Node5</title>
<g id="a_edge7_Node000003_Node000005"><a xlink:title=" ">
<path fill="none" stroke="#63b8ff" d="M120.49,-100.35C120.31,-87.49 120.76,-70.67 123.38,-56 125.63,-43.35 130.7,-29.41 134.33,-20.45"/>
<polygon fill="#63b8ff" stroke="#63b8ff" points="116.98,-100.25 120.77,-110.14 123.98,-100.04 116.98,-100.25"/>
</a>
</g>
</g>
<!-- Node6 -->
<g id="Node000006" class="node">
<title>Node6</title>
<g id="a_Node000006"><a xlink:href="distance__grid_8h.html" target="_top" xlink:title=" ">
<polygon fill="white" stroke="#666666" points="214.38,-76 132.38,-76 132.38,-56 214.38,-56 214.38,-76"/>
<text text-anchor="middle" x="173.38" y="-62.5" font-family="Helvetica,sans-Serif" font-size="10.00">distance_grid.h</text>
</a>
</g>
</g>
<!-- Node3&#45;&gt;Node6 -->
<g id="edge5_Node000003_Node000006" class="edge">
<title>Node3&#45;&gt;Node6</title>
<g id="a_edge5_Node000003_Node000006"><a xlink:title=" ">
<path fill="none" stroke="#63b8ff" d="M138.16,-103.57C146.89,-94.5 157.22,-83.78 164.42,-76.3"/>
<polygon fill="#63b8ff" stroke="#63b8ff" points="135.9,-100.87 131.48,-110.5 140.94,-105.73 135.9,-100.87"/>
</a>
</g>
</g>
<!-- Node4&#45;&gt;Node5 -->
<g id="edge4_Node000004_Node000005" class="edge">
<title>Node4&#45;&gt;Node5</title>
<g id="a_edge4_Node000004_Node000005"><a xlink:title=" ">
<path fill="none" stroke="#63b8ff" d="M65.51,-50.35C83.11,-40.84 105.53,-28.74 120.82,-20.48"/>
<polygon fill="#63b8ff" stroke="#63b8ff" points="64.26,-47.04 57.13,-54.87 67.59,-53.2 64.26,-47.04"/>
</a>
</g>
</g>
<!-- Node6&#45;&gt;Node5 -->
<g id="edge6_Node000006_Node000005" class="edge">
<title>Node6&#45;&gt;Node5</title>
<g id="a_edge6_Node000006_Node000005"><a xlink:title=" ">
<path fill="none" stroke="#63b8ff" d="M161.16,-46.15C155.49,-37.4 149,-27.39 144.4,-20.3"/>
<polygon fill="#63b8ff" stroke="#63b8ff" points="158.08,-47.84 166.46,-54.32 163.95,-44.03 158.08,-47.84"/>
</a>
</g>
</g>
</g>
</svg>
