<?xml version="1.0" encoding="UTF-8" standalone="no"?>
<!DOCTYPE svg PUBLIC "-//W3C//DTD SVG 1.1//EN"
 "http://www.w3.org/Graphics/SVG/1.1/DTD/svg11.dtd">
<!-- Generated by graphviz version 12.2.1 (20241206.2353)
 -->
<!-- Title: cell.h Pages: 1 -->
<svg width="188pt" height="308pt"
 viewBox="0.00 0.00 188.38 308.00" xmlns="http://www.w3.org/2000/svg" xmlns:xlink="http://www.w3.org/1999/xlink">
<g id="graph0" class="graph" transform="scale(1 1) rotate(0) translate(4 304)">
<title>cell.h</title>
<!-- Node1 -->
<g id="Node000001" class="node">
<title>Node1</title>
<g id="a_Node000001"><a xlink:title=" ">
<polygon fill="#999999" stroke="#666666" points="165,-300 125.75,-300 125.75,-280 165,-280 165,-300"/>
<text text-anchor="middle" x="145.38" y="-286.5" font-family="Helvetica,sans-Serif" font-size="10.00">cell.h</text>
</a>
</g>
</g>
<!-- Node2 -->
<g id="Node000002" class="node">
<title>Node2</title>
<g id="a_Node000002"><a xlink:href="grid__interface_8h.html" target="_top" xlink:title=" ">
<polygon fill="white" stroke="#666666" points="152.75,-244 70,-244 70,-224 152.75,-224 152.75,-244"/>
<text text-anchor="middle" x="111.38" y="-230.5" font-family="Helvetica,sans-Serif" font-size="10.00">grid_interface.h</text>
</a>
</g>
</g>
<!-- Node1&#45;&gt;Node2 -->
<g id="edge1_Node000001_Node000002" class="edge">
<title>Node1&#45;&gt;Node2</title>
<g id="a_edge1_Node000001_Node000002"><a xlink:title=" ">
<path fill="none" stroke="#63b8ff" d="M133.33,-269.87C127.86,-261.19 121.65,-251.32 117.23,-244.3"/>
<polygon fill="#63b8ff" stroke="#63b8ff" points="130.36,-271.72 138.65,-278.31 136.28,-267.99 130.36,-271.72"/>
</a>
</g>
</g>
<!-- Node6 -->
<g id="Node000006" class="node">
<title>Node6</title>
<g id="a_Node000006"><a xlink:href="maze__builder_8h.html" target="_top" xlink:title="This file includes all the headers in the maze builder library.">
<polygon fill="white" stroke="#666666" points="164.38,-20 82.38,-20 82.38,0 164.38,0 164.38,-20"/>
<text text-anchor="middle" x="123.38" y="-6.5" font-family="Helvetica,sans-Serif" font-size="10.00">maze_builder.h</text>
</a>
</g>
</g>
<!-- Node1&#45;&gt;Node6 -->
<g id="edge8_Node000001_Node000006" class="edge">
<title>Node1&#45;&gt;Node6</title>
<g id="a_edge8_Node000001_Node000006"><a xlink:title=" ">
<path fill="none" stroke="#63b8ff" d="M155.6,-269.5C165.93,-247.96 180.38,-211.96 180.38,-179 180.38,-179 180.38,-179 180.38,-121 180.38,-79.7 148.31,-38.48 132.28,-20.44"/>
<polygon fill="#63b8ff" stroke="#63b8ff" points="152.57,-267.75 151.22,-278.26 158.82,-270.88 152.57,-267.75"/>
</a>
</g>
</g>
<!-- Node3 -->
<g id="Node000003" class="node">
<title>Node3</title>
<g id="a_Node000003"><a xlink:href="grid_8h.html" target="_top" xlink:title=" ">
<polygon fill="white" stroke="#666666" points="131.38,-188 91.38,-188 91.38,-168 131.38,-168 131.38,-188"/>
<text text-anchor="middle" x="111.38" y="-174.5" font-family="Helvetica,sans-Serif" font-size="10.00">grid.h</text>
</a>
</g>
</g>
<!-- Node2&#45;&gt;Node3 -->
<g id="edge2_Node000002_Node000003" class="edge">
<title>Node2&#45;&gt;Node3</title>
<g id="a_edge2_Node000002_Node000003"><a xlink:title=" ">
<path fill="none" stroke="#63b8ff" d="M111.38,-212.13C111.38,-203.9 111.38,-194.85 111.38,-188.3"/>
<polygon fill="#63b8ff" stroke="#63b8ff" points="107.88,-212.08 111.38,-222.08 114.88,-212.08 107.88,-212.08"/>
</a>
</g>
</g>
<!-- Node4 -->
<g id="Node000004" class="node">
<title>Node4</title>
<g id="a_Node000004"><a xlink:href="distance__grid_8h.html" target="_top" xlink:title=" ">
<polygon fill="white" stroke="#666666" points="114.38,-132 32.38,-132 32.38,-112 114.38,-112 114.38,-132"/>
<text text-anchor="middle" x="73.38" y="-118.5" font-family="Helvetica,sans-Serif" font-size="10.00">distance_grid.h</text>
</a>
</g>
</g>
<!-- Node3&#45;&gt;Node4 -->
<g id="edge3_Node000003_Node000004" class="edge">
<title>Node3&#45;&gt;Node4</title>
<g id="a_edge3_Node000003_Node000004"><a xlink:title=" ">
<path fill="none" stroke="#63b8ff" d="M98.31,-158.44C92.11,-149.62 84.96,-139.47 79.92,-132.3"/>
<polygon fill="#63b8ff" stroke="#63b8ff" points="95.27,-160.19 103.88,-166.36 100.99,-156.16 95.27,-160.19"/>
</a>
</g>
</g>
<!-- Node3&#45;&gt;Node6 -->
<g id="edge7_Node000003_Node000006" class="edge">
<title>Node3&#45;&gt;Node6</title>
<g id="a_edge7_Node000003_Node000006"><a xlink:title=" ">
<path fill="none" stroke="#63b8ff" d="M117.91,-156.99C120.11,-149.27 122.29,-140.31 123.38,-132 128.78,-90.76 125.82,-40.93 124.21,-20.47"/>
<polygon fill="#63b8ff" stroke="#63b8ff" points="114.61,-155.8 115.02,-166.39 121.3,-157.86 114.61,-155.8"/>
</a>
</g>
</g>
<!-- Node5 -->
<g id="Node000005" class="node">
<title>Node5</title>
<g id="a_Node000005"><a xlink:href="colored__grid_8h.html" target="_top" xlink:title=" ">
<polygon fill="white" stroke="#666666" points="76.75,-76 0,-76 0,-56 76.75,-56 76.75,-76"/>
<text text-anchor="middle" x="38.38" y="-62.5" font-family="Helvetica,sans-Serif" font-size="10.00">colored_grid.h</text>
</a>
</g>
</g>
<!-- Node4&#45;&gt;Node5 -->
<g id="edge4_Node000004_Node000005" class="edge">
<title>Node4&#45;&gt;Node5</title>
<g id="a_edge4_Node000004_Node000005"><a xlink:title=" ">
<path fill="none" stroke="#63b8ff" d="M61.16,-102.15C55.49,-93.4 49,-83.39 44.4,-76.3"/>
<polygon fill="#63b8ff" stroke="#63b8ff" points="58.08,-103.84 66.46,-110.32 63.95,-100.03 58.08,-103.84"/>
</a>
</g>
</g>
<!-- Node4&#45;&gt;Node6 -->
<g id="edge6_Node000004_Node000006" class="edge">
<title>Node4&#45;&gt;Node6</title>
<g id="a_edge6_Node000004_Node000006"><a xlink:title=" ">
<path fill="none" stroke="#63b8ff" d="M82.33,-101.3C93.18,-77.43 111.01,-38.2 119.12,-20.35"/>
<polygon fill="#63b8ff" stroke="#63b8ff" points="79.22,-99.69 78.26,-110.24 85.59,-102.59 79.22,-99.69"/>
</a>
</g>
</g>
<!-- Node5&#45;&gt;Node6 -->
<g id="edge5_Node000005_Node000006" class="edge">
<title>Node5&#45;&gt;Node6</title>
<g id="a_edge5_Node000005_Node000006"><a xlink:title=" ">
<path fill="none" stroke="#63b8ff" d="M62.71,-49.54C77.46,-40.17 95.82,-28.51 108.45,-20.48"/>
<polygon fill="#63b8ff" stroke="#63b8ff" points="61.02,-46.47 54.46,-54.78 64.78,-52.37 61.02,-46.47"/>
</a>
</g>
</g>
</g>
</svg>
