<?xml version="1.0" encoding="UTF-8" standalone="no"?>
<!DOCTYPE svg PUBLIC "-//W3C//DTD SVG 1.1//EN"
 "http://www.w3.org/Graphics/SVG/1.1/DTD/svg11.dtd">
<!-- Generated by graphviz version 12.2.1 (20241206.2353)
 -->
<!-- Title: cell.h Pages: 1 -->
<svg width="508pt" height="140pt"
 viewBox="0.00 0.00 508.25 140.00" xmlns="http://www.w3.org/2000/svg" xmlns:xlink="http://www.w3.org/1999/xlink">
<g id="graph0" class="graph" transform="scale(1 1) rotate(0) translate(4 136)">
<title>cell.h</title>
<!-- Node1 -->
<g id="Node000001" class="node">
<title>Node1</title>
<g id="a_Node000001"><a xlink:title=" ">
<polygon fill="#999999" stroke="#666666" points="209.25,-132 170,-132 170,-112 209.25,-112 209.25,-132"/>
<text text-anchor="middle" x="189.62" y="-118.5" font-family="Helvetica,sans-Serif" font-size="10.00">cell.h</text>
</a>
</g>
</g>
<!-- Node2 -->
<g id="Node000002" class="node">
<title>Node2</title>
<g id="a_Node000002"><a xlink:title=" ">
<polygon fill="#e0e0e0" stroke="#999999" points="45.25,-76 0,-76 0,-56 45.25,-56 45.25,-76"/>
<text text-anchor="middle" x="22.62" y="-62.5" font-family="Helvetica,sans-Serif" font-size="10.00">cstdint</text>
</a>
</g>
</g>
<!-- Node1&#45;&gt;Node2 -->
<g id="edge1_Node000001_Node000002" class="edge">
<title>Node1&#45;&gt;Node2</title>
<g id="a_edge1_Node000001_Node000002"><a xlink:title=" ">
<path fill="none" stroke="#63b8ff" d="M169.81,-114.59C141.87,-105.56 90.49,-88.94 56.44,-77.93"/>
<polygon fill="#63b8ff" stroke="#63b8ff" points="57.65,-74.65 47.06,-74.9 55.49,-81.31 57.65,-74.65"/>
</a>
</g>
</g>
<!-- Node3 -->
<g id="Node000003" class="node">
<title>Node3</title>
<g id="a_Node000003"><a xlink:title=" ">
<polygon fill="#e0e0e0" stroke="#999999" points="205.25,-20 154,-20 154,0 205.25,0 205.25,-20"/>
<text text-anchor="middle" x="179.62" y="-6.5" font-family="Helvetica,sans-Serif" font-size="10.00">memory</text>
</a>
</g>
</g>
<!-- Node1&#45;&gt;Node3 -->
<g id="edge2_Node000001_Node000003" class="edge">
<title>Node1&#45;&gt;Node3</title>
<g id="a_edge2_Node000001_Node000003"><a xlink:title=" ">
<path fill="none" stroke="#63b8ff" d="M169.89,-118.18C146.81,-113.72 109.61,-102.6 92.62,-76 76.81,-51.23 112.5,-32.53 142.84,-21.69"/>
<polygon fill="#63b8ff" stroke="#63b8ff" points="143.87,-25.03 152.24,-18.53 141.65,-18.4 143.87,-25.03"/>
</a>
</g>
</g>
<!-- Node4 -->
<g id="Node000004" class="node">
<title>Node4</title>
<g id="a_Node000004"><a xlink:title=" ">
<polygon fill="#e0e0e0" stroke="#999999" points="179.38,-76 101.88,-76 101.88,-56 179.38,-56 179.38,-76"/>
<text text-anchor="middle" x="140.62" y="-62.5" font-family="Helvetica,sans-Serif" font-size="10.00">shared_mutex</text>
</a>
</g>
</g>
<!-- Node1&#45;&gt;Node4 -->
<g id="edge3_Node000001_Node000004" class="edge">
<title>Node1&#45;&gt;Node4</title>
<g id="a_edge3_Node000001_Node000004"><a xlink:title=" ">
<path fill="none" stroke="#63b8ff" d="M181.09,-111.59C174.34,-104.16 164.74,-93.58 156.58,-84.58"/>
<polygon fill="#63b8ff" stroke="#63b8ff" points="159.39,-82.47 150.08,-77.42 154.21,-87.18 159.39,-82.47"/>
</a>
</g>
</g>
<!-- Node5 -->
<g id="Node000005" class="node">
<title>Node5</title>
<g id="a_Node000005"><a xlink:title=" ">
<polygon fill="#e0e0e0" stroke="#999999" points="280,-76 197.25,-76 197.25,-56 280,-56 280,-76"/>
<text text-anchor="middle" x="238.62" y="-62.5" font-family="Helvetica,sans-Serif" font-size="10.00">unordered_map</text>
</a>
</g>
</g>
<!-- Node1&#45;&gt;Node5 -->
<g id="edge4_Node000001_Node000005" class="edge">
<title>Node1&#45;&gt;Node5</title>
<g id="a_edge4_Node000001_Node000005"><a xlink:title=" ">
<path fill="none" stroke="#63b8ff" d="M198.16,-111.59C204.91,-104.16 214.51,-93.58 222.67,-84.58"/>
<polygon fill="#63b8ff" stroke="#63b8ff" points="225.04,-87.18 229.17,-77.42 219.86,-82.47 225.04,-87.18"/>
</a>
</g>
</g>
<!-- Node6 -->
<g id="Node000006" class="node">
<title>Node6</title>
<g id="a_Node000006"><a xlink:title=" ">
<polygon fill="#e0e0e0" stroke="#999999" points="341.12,-76 298.12,-76 298.12,-56 341.12,-56 341.12,-76"/>
<text text-anchor="middle" x="319.62" y="-62.5" font-family="Helvetica,sans-Serif" font-size="10.00">vector</text>
</a>
</g>
</g>
<!-- Node1&#45;&gt;Node6 -->
<g id="edge5_Node000001_Node000006" class="edge">
<title>Node1&#45;&gt;Node6</title>
<g id="a_edge5_Node000001_Node000006"><a xlink:title=" ">
<path fill="none" stroke="#63b8ff" d="M209.65,-112.68C230.41,-104.06 263.15,-90.46 287.52,-80.33"/>
<polygon fill="#63b8ff" stroke="#63b8ff" points="288.77,-83.61 296.66,-76.54 286.08,-77.14 288.77,-83.61"/>
</a>
</g>
</g>
<!-- Node7 -->
<g id="Node000007" class="node">
<title>Node7</title>
<g id="a_Node000007"><a xlink:href="hash__funcs_8h.html" target="_top" xlink:title=" ">
<polygon fill="white" stroke="#666666" points="490.38,-76 358.88,-76 358.88,-56 490.38,-56 490.38,-76"/>
<text text-anchor="middle" x="424.62" y="-62.5" font-family="Helvetica,sans-Serif" font-size="10.00">MazeBuilder/hash_funcs.h</text>
</a>
</g>
</g>
<!-- Node1&#45;&gt;Node7 -->
<g id="edge6_Node000001_Node000007" class="edge">
<title>Node1&#45;&gt;Node7</title>
<g id="a_edge6_Node000001_Node000007"><a xlink:title=" ">
<path fill="none" stroke="#63b8ff" d="M209.66,-116.4C245.37,-108.19 321.06,-90.8 372.4,-79"/>
<polygon fill="#63b8ff" stroke="#63b8ff" points="373.16,-82.42 382.12,-76.77 371.59,-75.59 373.16,-82.42"/>
</a>
</g>
</g>
<!-- Node7&#45;&gt;Node3 -->
<g id="edge8_Node000007_Node000003" class="edge">
<title>Node7&#45;&gt;Node3</title>
<g id="a_edge8_Node000007_Node000003"><a xlink:title=" ">
<path fill="none" stroke="#63b8ff" d="M381.67,-55.53C334.93,-45.23 260.98,-28.93 216.69,-19.17"/>
<polygon fill="#63b8ff" stroke="#63b8ff" points="217.57,-15.78 207.05,-17.04 216.06,-22.61 217.57,-15.78"/>
</a>
</g>
</g>
<!-- Node8 -->
<g id="Node000008" class="node">
<title>Node8</title>
<g id="a_Node000008"><a xlink:title=" ">
<polygon fill="#e0e0e0" stroke="#999999" points="387.62,-20 329.62,-20 329.62,0 387.62,0 387.62,-20"/>
<text text-anchor="middle" x="358.62" y="-6.5" font-family="Helvetica,sans-Serif" font-size="10.00">functional</text>
</a>
</g>
</g>
<!-- Node7&#45;&gt;Node8 -->
<g id="edge7_Node000007_Node000008" class="edge">
<title>Node7&#45;&gt;Node8</title>
<g id="a_edge7_Node000007_Node000008"><a xlink:title=" ">
<path fill="none" stroke="#63b8ff" d="M413.13,-55.59C403.66,-47.85 390.02,-36.69 378.75,-27.47"/>
<polygon fill="#63b8ff" stroke="#63b8ff" points="381.12,-24.88 371.16,-21.26 376.68,-30.3 381.12,-24.88"/>
</a>
</g>
</g>
<!-- Node9 -->
<g id="Node000009" class="node">
<title>Node9</title>
<g id="a_Node000009"><a xlink:title=" ">
<polygon fill="#e0e0e0" stroke="#999999" points="443.12,-20 406.12,-20 406.12,0 443.12,0 443.12,-20"/>
<text text-anchor="middle" x="424.62" y="-6.5" font-family="Helvetica,sans-Serif" font-size="10.00">tuple</text>
</a>
</g>
</g>
<!-- Node7&#45;&gt;Node9 -->
<g id="edge9_Node000007_Node000009" class="edge">
<title>Node7&#45;&gt;Node9</title>
<g id="a_edge9_Node000007_Node000009"><a xlink:title=" ">
<path fill="none" stroke="#63b8ff" d="M424.62,-55.59C424.62,-49.01 424.62,-39.96 424.62,-31.73"/>
<polygon fill="#63b8ff" stroke="#63b8ff" points="428.13,-31.81 424.63,-21.81 421.13,-31.81 428.13,-31.81"/>
</a>
</g>
</g>
<!-- Node10 -->
<g id="Node000010" class="node">
<title>Node10</title>
<g id="a_Node000010"><a xlink:title=" ">
<polygon fill="#e0e0e0" stroke="#999999" points="500.25,-20 461,-20 461,0 500.25,0 500.25,-20"/>
<text text-anchor="middle" x="480.62" y="-6.5" font-family="Helvetica,sans-Serif" font-size="10.00">utility</text>
</a>
</g>
</g>
<!-- Node7&#45;&gt;Node10 -->
<g id="edge10_Node000007_Node000010" class="edge">
<title>Node7&#45;&gt;Node10</title>
<g id="a_edge10_Node000007_Node000010"><a xlink:title=" ">
<path fill="none" stroke="#63b8ff" d="M434.38,-55.59C442.25,-48.01 453.52,-37.13 462.97,-28.02"/>
<polygon fill="#63b8ff" stroke="#63b8ff" points="465.12,-30.81 469.89,-21.35 460.26,-25.77 465.12,-30.81"/>
</a>
</g>
</g>
</g>
</svg>
