<?xml version="1.0" encoding="UTF-8" standalone="no"?>
<!DOCTYPE svg PUBLIC "-//W3C//DTD SVG 1.1//EN"
 "http://www.w3.org/Graphics/SVG/1.1/DTD/svg11.dtd">
<!-- Generated by graphviz version 12.2.1 (20241206.2353)
 -->
<!-- Title: mazes::grid_interface Pages: 1 -->
<svg width="323pt" height="84pt"
 viewBox="0.00 0.00 323.38 84.00" xmlns="http://www.w3.org/2000/svg" xmlns:xlink="http://www.w3.org/1999/xlink">
<g id="graph0" class="graph" transform="scale(1 1) rotate(0) translate(4 80)">
<title>mazes::grid_interface</title>
<!-- Node1 -->
<g id="Node000001" class="node">
<title>Node1</title>
<g id="a_Node000001"><a xlink:title=" ">
<polygon fill="#999999" stroke="#666666" points="230.75,-76 121,-76 121,-56 230.75,-56 230.75,-76"/>
<text text-anchor="middle" x="175.88" y="-62.5" font-family="Helvetica,sans-Serif" font-size="10.00">mazes::grid_interface</text>
</a>
</g>
</g>
<!-- Node2 -->
<g id="Node000002" class="node">
<title>Node2</title>
<g id="a_Node000002"><a xlink:href="classmazes_1_1colored__grid.html" target="_top" xlink:title=" ">
<polygon fill="white" stroke="#bfbfbf" points="103.75,-20 0,-20 0,0 103.75,0 103.75,-20"/>
<text text-anchor="middle" x="51.88" y="-6.5" font-family="Helvetica,sans-Serif" font-size="10.00">mazes::colored_grid</text>
</a>
</g>
</g>
<!-- Node1&#45;&gt;Node2 -->
<g id="edge1_Node000001_Node000002" class="edge">
<title>Node1&#45;&gt;Node2</title>
<g id="a_edge1_Node000001_Node000002"><a xlink:title=" ">
<path fill="none" stroke="#63b8ff" d="M143.75,-51.01C121.71,-41.41 93.05,-28.93 73.64,-20.48"/>
<polygon fill="#63b8ff" stroke="#63b8ff" points="142.32,-54.21 152.89,-54.99 145.12,-47.79 142.32,-54.21"/>
</a>
</g>
</g>
<!-- Node3 -->
<g id="Node000003" class="node">
<title>Node3</title>
<g id="a_Node000003"><a xlink:href="classmazes_1_1distance__grid.html" target="_top" xlink:title=" ">
<polygon fill="white" stroke="#bfbfbf" points="230.38,-20 121.38,-20 121.38,0 230.38,0 230.38,-20"/>
<text text-anchor="middle" x="175.88" y="-6.5" font-family="Helvetica,sans-Serif" font-size="10.00">mazes::distance_grid</text>
</a>
</g>
</g>
<!-- Node1&#45;&gt;Node3 -->
<g id="edge2_Node000001_Node000003" class="edge">
<title>Node1&#45;&gt;Node3</title>
<g id="a_edge2_Node000001_Node000003"><a xlink:title=" ">
<path fill="none" stroke="#63b8ff" d="M175.88,-44.13C175.88,-35.9 175.88,-26.85 175.88,-20.3"/>
<polygon fill="#63b8ff" stroke="#63b8ff" points="172.38,-44.08 175.88,-54.08 179.38,-44.08 172.38,-44.08"/>
</a>
</g>
</g>
<!-- Node4 -->
<g id="Node000004" class="node">
<title>Node4</title>
<g id="a_Node000004"><a xlink:href="classmazes_1_1grid.html" target="_top" xlink:title=" ">
<polygon fill="white" stroke="#bfbfbf" points="315.38,-20 248.38,-20 248.38,0 315.38,0 315.38,-20"/>
<text text-anchor="middle" x="281.88" y="-6.5" font-family="Helvetica,sans-Serif" font-size="10.00">mazes::grid</text>
</a>
</g>
</g>
<!-- Node1&#45;&gt;Node4 -->
<g id="edge3_Node000001_Node000004" class="edge">
<title>Node1&#45;&gt;Node4</title>
<g id="a_edge3_Node000001_Node000004"><a xlink:title=" ">
<path fill="none" stroke="#63b8ff" d="M204.38,-50.48C223.07,-40.96 246.98,-28.78 263.27,-20.48"/>
<polygon fill="#63b8ff" stroke="#63b8ff" points="203.01,-47.25 195.69,-54.91 206.19,-53.49 203.01,-47.25"/>
</a>
</g>
</g>
</g>
</svg>
