<?xml version="1.0" encoding="UTF-8" standalone="no"?>
<!DOCTYPE svg PUBLIC "-//W3C//DTD SVG 1.1//EN"
 "http://www.w3.org/Graphics/SVG/1.1/DTD/svg11.dtd">
<!-- Generated by graphviz version 12.2.1 (20241206.2353)
 -->
<!-- Title: mazes::maze_algo_interface Pages: 1 -->
<svg width="306pt" height="84pt"
 viewBox="0.00 0.00 305.50 84.00" xmlns="http://www.w3.org/2000/svg" xmlns:xlink="http://www.w3.org/1999/xlink">
<g id="graph0" class="graph" transform="scale(1 1) rotate(0) translate(4 80)">
<title>mazes::maze_algo_interface</title>
<!-- Node1 -->
<g id="Node000001" class="node">
<title>Node1</title>
<g id="a_Node000001"><a xlink:title=" ">
<polygon fill="#999999" stroke="#666666" points="220.25,-76 79,-76 79,-56 220.25,-56 220.25,-76"/>
<text text-anchor="middle" x="149.62" y="-62.5" font-family="Helvetica,sans-Serif" font-size="10.00">mazes::maze_algo_interface</text>
</a>
</g>
</g>
<!-- Node2 -->
<g id="Node000002" class="node">
<title>Node2</title>
<g id="a_Node000002"><a xlink:href="classmazes_1_1binary__tree.html" target="_top" xlink:title=" ">
<polygon fill="white" stroke="#bfbfbf" points="99.25,-20 0,-20 0,0 99.25,0 99.25,-20"/>
<text text-anchor="middle" x="49.62" y="-6.5" font-family="Helvetica,sans-Serif" font-size="10.00">mazes::binary_tree</text>
</a>
</g>
</g>
<!-- Node1&#45;&gt;Node2 -->
<g id="edge1_Node000001_Node000002" class="edge">
<title>Node1&#45;&gt;Node2</title>
<g id="a_edge1_Node000001_Node000002"><a xlink:title=" ">
<path fill="none" stroke="#63b8ff" d="M122.49,-50.35C104.89,-40.84 82.47,-28.74 67.18,-20.48"/>
<polygon fill="#63b8ff" stroke="#63b8ff" points="120.41,-53.2 130.87,-54.87 123.74,-47.04 120.41,-53.2"/>
</a>
</g>
</g>
<!-- Node3 -->
<g id="Node000003" class="node">
<title>Node3</title>
<g id="a_Node000003"><a xlink:href="classmazes_1_1dfs.html" target="_top" xlink:title=" ">
<polygon fill="white" stroke="#bfbfbf" points="182,-20 117.25,-20 117.25,0 182,0 182,-20"/>
<text text-anchor="middle" x="149.62" y="-6.5" font-family="Helvetica,sans-Serif" font-size="10.00">mazes::dfs</text>
</a>
</g>
</g>
<!-- Node1&#45;&gt;Node3 -->
<g id="edge2_Node000001_Node000003" class="edge">
<title>Node1&#45;&gt;Node3</title>
<g id="a_edge2_Node000001_Node000003"><a xlink:title=" ">
<path fill="none" stroke="#63b8ff" d="M149.62,-44.13C149.62,-35.9 149.62,-26.85 149.62,-20.3"/>
<polygon fill="#63b8ff" stroke="#63b8ff" points="146.13,-44.08 149.63,-54.08 153.13,-44.08 146.13,-44.08"/>
</a>
</g>
</g>
<!-- Node4 -->
<g id="Node000004" class="node">
<title>Node4</title>
<g id="a_Node000004"><a xlink:href="classmazes_1_1sidewinder.html" target="_top" xlink:title=" ">
<polygon fill="white" stroke="#bfbfbf" points="297.5,-20 199.75,-20 199.75,0 297.5,0 297.5,-20"/>
<text text-anchor="middle" x="248.62" y="-6.5" font-family="Helvetica,sans-Serif" font-size="10.00">mazes::sidewinder</text>
</a>
</g>
</g>
<!-- Node1&#45;&gt;Node4 -->
<g id="edge3_Node000001_Node000004" class="edge">
<title>Node1&#45;&gt;Node4</title>
<g id="a_edge3_Node000001_Node000004"><a xlink:title=" ">
<path fill="none" stroke="#63b8ff" d="M176.49,-50.35C193.91,-40.84 216.11,-28.74 231.25,-20.48"/>
<polygon fill="#63b8ff" stroke="#63b8ff" points="175.3,-47.01 168.2,-54.87 178.65,-53.15 175.3,-47.01"/>
</a>
</g>
</g>
</g>
</svg>
