<?xml version="1.0" encoding="UTF-8" standalone="no"?>
<!DOCTYPE svg PUBLIC "-//W3C//DTD SVG 1.1//EN"
 "http://www.w3.org/Graphics/SVG/1.1/DTD/svg11.dtd">
<!-- Generated by graphviz version 12.2.1 (20241206.2353)
 -->
<!-- Title: mazes::grid Pages: 1 -->
<svg width="118pt" height="196pt"
 viewBox="0.00 0.00 117.75 196.00" xmlns="http://www.w3.org/2000/svg" xmlns:xlink="http://www.w3.org/1999/xlink">
<g id="graph0" class="graph" transform="scale(1 1) rotate(0) translate(4 192)">
<title>mazes::grid</title>
<!-- Node1 -->
<g id="Node000001" class="node">
<title>Node1</title>
<g id="a_Node000001"><a xlink:title="General purpose grid class for maze generation.">
<polygon fill="#999999" stroke="#666666" points="88.38,-132 21.38,-132 21.38,-112 88.38,-112 88.38,-132"/>
<text text-anchor="middle" x="54.88" y="-118.5" font-family="Helvetica,sans-Serif" font-size="10.00">mazes::grid</text>
</a>
</g>
</g>
<!-- Node3 -->
<g id="Node000003" class="node">
<title>Node3</title>
<g id="a_Node000003"><a xlink:href="classmazes_1_1distance__grid.html" target="_top" xlink:title="A grid that can calculate distances between cells.">
<polygon fill="white" stroke="#666666" points="109.38,-76 0.38,-76 0.38,-56 109.38,-56 109.38,-76"/>
<text text-anchor="middle" x="54.88" y="-62.5" font-family="Helvetica,sans-Serif" font-size="10.00">mazes::distance_grid</text>
</a>
</g>
</g>
<!-- Node1&#45;&gt;Node3 -->
<g id="edge2_Node000001_Node000003" class="edge">
<title>Node1&#45;&gt;Node3</title>
<g id="a_edge2_Node000001_Node000003"><a xlink:title=" ">
<path fill="none" stroke="#63b8ff" d="M54.88,-100.13C54.88,-91.9 54.88,-82.85 54.88,-76.3"/>
<polygon fill="#63b8ff" stroke="#63b8ff" points="51.38,-100.08 54.88,-110.08 58.38,-100.08 51.38,-100.08"/>
</a>
</g>
</g>
<!-- Node2 -->
<g id="Node000002" class="node">
<title>Node2</title>
<g id="a_Node000002"><a xlink:href="classmazes_1_1grid__interface.html" target="_top" xlink:title="Interface for the grid class.">
<polygon fill="white" stroke="#666666" points="109.75,-188 0,-188 0,-168 109.75,-168 109.75,-188"/>
<text text-anchor="middle" x="54.88" y="-174.5" font-family="Helvetica,sans-Serif" font-size="10.00">mazes::grid_interface</text>
</a>
</g>
</g>
<!-- Node2&#45;&gt;Node1 -->
<g id="edge1_Node000001_Node000002" class="edge">
<title>Node2&#45;&gt;Node1</title>
<g id="a_edge1_Node000001_Node000002"><a xlink:title=" ">
<path fill="none" stroke="#63b8ff" d="M54.88,-156.13C54.88,-147.9 54.88,-138.85 54.88,-132.3"/>
<polygon fill="#63b8ff" stroke="#63b8ff" points="51.38,-156.08 54.88,-166.08 58.38,-156.08 51.38,-156.08"/>
</a>
</g>
</g>
<!-- Node4 -->
<g id="Node000004" class="node">
<title>Node4</title>
<g id="a_Node000004"><a xlink:href="classmazes_1_1colored__grid.html" target="_top" xlink:title="Extension of the grid class to include color information.">
<polygon fill="white" stroke="#666666" points="106.75,-20 3,-20 3,0 106.75,0 106.75,-20"/>
<text text-anchor="middle" x="54.88" y="-6.5" font-family="Helvetica,sans-Serif" font-size="10.00">mazes::colored_grid</text>
</a>
</g>
</g>
<!-- Node3&#45;&gt;Node4 -->
<g id="edge3_Node000003_Node000004" class="edge">
<title>Node3&#45;&gt;Node4</title>
<g id="a_edge3_Node000003_Node000004"><a xlink:title=" ">
<path fill="none" stroke="#63b8ff" d="M54.88,-44.13C54.88,-35.9 54.88,-26.85 54.88,-20.3"/>
<polygon fill="#63b8ff" stroke="#63b8ff" points="51.38,-44.08 54.88,-54.08 58.38,-44.08 51.38,-44.08"/>
</a>
</g>
</g>
</g>
</svg>
