<?xml version="1.0" encoding="UTF-8" standalone="no"?>
<!DOCTYPE svg PUBLIC "-//W3C//DTD SVG 1.1//EN"
 "http://www.w3.org/Graphics/SVG/1.1/DTD/svg11.dtd">
<!-- Generated by graphviz version 12.2.1 (20241206.2353)
 -->
<!-- Title: mazes::grid_interface Pages: 1 -->
<svg width="238pt" height="140pt"
 viewBox="0.00 0.00 238.38 140.00" xmlns="http://www.w3.org/2000/svg" xmlns:xlink="http://www.w3.org/1999/xlink">
<g id="graph0" class="graph" transform="scale(1 1) rotate(0) translate(4 136)">
<title>mazes::grid_interface</title>
<!-- Node1 -->
<g id="Node000001" class="node">
<title>Node1</title>
<g id="a_Node000001"><a xlink:title="Interface for the grid class.">
<polygon fill="#999999" stroke="#666666" points="168.75,-132 59,-132 59,-112 168.75,-112 168.75,-132"/>
<text text-anchor="middle" x="113.88" y="-118.5" font-family="Helvetica,sans-Serif" font-size="10.00">mazes::grid_interface</text>
</a>
</g>
</g>
<!-- Node2 -->
<g id="Node000002" class="node">
<title>Node2</title>
<g id="a_Node000002"><a xlink:href="classmazes_1_1grid.html" target="_top" xlink:title="General purpose grid class for 2D maze generation.">
<polygon fill="white" stroke="#666666" points="147.38,-76 80.38,-76 80.38,-56 147.38,-56 147.38,-76"/>
<text text-anchor="middle" x="113.88" y="-62.5" font-family="Helvetica,sans-Serif" font-size="10.00">mazes::grid</text>
</a>
</g>
</g>
<!-- Node1&#45;&gt;Node2 -->
<g id="edge1_Node000001_Node000002" class="edge">
<title>Node1&#45;&gt;Node2</title>
<g id="a_edge1_Node000001_Node000002"><a xlink:title=" ">
<path fill="none" stroke="#63b8ff" d="M113.88,-100.13C113.88,-91.9 113.88,-82.85 113.88,-76.3"/>
<polygon fill="#63b8ff" stroke="#63b8ff" points="110.38,-100.08 113.88,-110.08 117.38,-100.08 110.38,-100.08"/>
</a>
</g>
</g>
<!-- Node3 -->
<g id="Node000003" class="node">
<title>Node3</title>
<g id="a_Node000003"><a xlink:href="classmazes_1_1colored__grid.html" target="_top" xlink:title="Extension of the grid class to include color information.">
<polygon fill="white" stroke="#666666" points="103.75,-20 0,-20 0,0 103.75,0 103.75,-20"/>
<text text-anchor="middle" x="51.88" y="-6.5" font-family="Helvetica,sans-Serif" font-size="10.00">mazes::colored_grid</text>
</a>
</g>
</g>
<!-- Node2&#45;&gt;Node3 -->
<g id="edge2_Node000002_Node000003" class="edge">
<title>Node2&#45;&gt;Node3</title>
<g id="a_edge2_Node000002_Node000003"><a xlink:title=" ">
<path fill="none" stroke="#63b8ff" d="M94.5,-48.13C83.96,-38.94 71.32,-27.93 62.55,-20.3"/>
<polygon fill="#63b8ff" stroke="#63b8ff" points="92.09,-50.67 101.93,-54.6 96.69,-45.39 92.09,-50.67"/>
</a>
</g>
</g>
<!-- Node4 -->
<g id="Node000004" class="node">
<title>Node4</title>
<g id="a_Node000004"><a xlink:href="classmazes_1_1distance__grid.html" target="_top" xlink:title="A grid that can calculate distances between cells.">
<polygon fill="white" stroke="#666666" points="230.38,-20 121.38,-20 121.38,0 230.38,0 230.38,-20"/>
<text text-anchor="middle" x="175.88" y="-6.5" font-family="Helvetica,sans-Serif" font-size="10.00">mazes::distance_grid</text>
</a>
</g>
</g>
<!-- Node2&#45;&gt;Node4 -->
<g id="edge3_Node000002_Node000004" class="edge">
<title>Node2&#45;&gt;Node4</title>
<g id="a_edge3_Node000002_Node000004"><a xlink:title=" ">
<path fill="none" stroke="#63b8ff" d="M133.25,-48.13C143.79,-38.94 156.43,-27.93 165.2,-20.3"/>
<polygon fill="#63b8ff" stroke="#63b8ff" points="131.06,-45.39 125.82,-54.6 135.66,-50.67 131.06,-45.39"/>
</a>
</g>
</g>
</g>
</svg>
