<?xml version="1.0" encoding="UTF-8" standalone="no"?>
<!DOCTYPE svg PUBLIC "-//W3C//DTD SVG 1.1//EN"
 "http://www.w3.org/Graphics/SVG/1.1/DTD/svg11.dtd">
<!-- Generated by graphviz version 12.2.1 (20241206.2353)
 -->
<!-- Title: colored_grid.h Pages: 1 -->
<svg width="817pt" height="252pt"
 viewBox="0.00 0.00 817.25 252.00" xmlns="http://www.w3.org/2000/svg" xmlns:xlink="http://www.w3.org/1999/xlink">
<g id="graph0" class="graph" transform="scale(1 1) rotate(0) translate(4 248)">
<title>colored_grid.h</title>
<!-- Node1 -->
<g id="Node000001" class="node">
<title>Node1</title>
<g id="a_Node000001"><a xlink:title=" ">
<polygon fill="#999999" stroke="#666666" points="773.88,-244 697.12,-244 697.12,-224 773.88,-224 773.88,-244"/>
<text text-anchor="middle" x="735.5" y="-230.5" font-family="Helvetica,sans-Serif" font-size="10.00">colored_grid.h</text>
</a>
</g>
</g>
<!-- Node2 -->
<g id="Node000002" class="node">
<title>Node2</title>
<g id="a_Node000002"><a xlink:title=" ">
<polygon fill="#e0e0e0" stroke="#999999" points="708.12,-20 656.88,-20 656.88,0 708.12,0 708.12,-20"/>
<text text-anchor="middle" x="682.5" y="-6.5" font-family="Helvetica,sans-Serif" font-size="10.00">memory</text>
</a>
</g>
</g>
<!-- Node1&#45;&gt;Node2 -->
<g id="edge1_Node000001_Node000002" class="edge">
<title>Node1&#45;&gt;Node2</title>
<g id="a_edge1_Node000001_Node000002"><a xlink:title=" ">
<path fill="none" stroke="#63b8ff" d="M752.8,-223.51C765.01,-215.75 780.4,-203.53 787.5,-188 811.89,-134.64 819.8,-104.98 787.5,-56 772.49,-33.23 743.31,-21.94 719.52,-16.37"/>
<polygon fill="#63b8ff" stroke="#63b8ff" points="720.34,-12.96 709.84,-14.37 718.92,-19.82 720.34,-12.96"/>
</a>
</g>
</g>
<!-- Node3 -->
<g id="Node000003" class="node">
<title>Node3</title>
<g id="a_Node000003"><a xlink:title=" ">
<polygon fill="#e0e0e0" stroke="#999999" points="547.12,-20 501.88,-20 501.88,0 547.12,0 547.12,-20"/>
<text text-anchor="middle" x="524.5" y="-6.5" font-family="Helvetica,sans-Serif" font-size="10.00">cstdint</text>
</a>
</g>
</g>
<!-- Node1&#45;&gt;Node3 -->
<g id="edge2_Node000001_Node000003" class="edge">
<title>Node1&#45;&gt;Node3</title>
<g id="a_edge2_Node000001_Node000003"><a xlink:title=" ">
<path fill="none" stroke="#63b8ff" d="M737.83,-223.81C744.58,-194.85 760.95,-104.56 716.5,-56 695.57,-33.14 608.19,-20.1 558.84,-14.43"/>
<polygon fill="#63b8ff" stroke="#63b8ff" points="559.29,-10.96 548.97,-13.34 558.52,-17.92 559.29,-10.96"/>
</a>
</g>
</g>
<!-- Node4 -->
<g id="Node000004" class="node">
<title>Node4</title>
<g id="a_Node000004"><a xlink:title=" ">
<polygon fill="#e0e0e0" stroke="#999999" points="43,-20 0,-20 0,0 43,0 43,-20"/>
<text text-anchor="middle" x="21.5" y="-6.5" font-family="Helvetica,sans-Serif" font-size="10.00">vector</text>
</a>
</g>
</g>
<!-- Node1&#45;&gt;Node4 -->
<g id="edge3_Node000001_Node000004" class="edge">
<title>Node1&#45;&gt;Node4</title>
<g id="a_edge3_Node000001_Node000004"><a xlink:title=" ">
<path fill="none" stroke="#63b8ff" d="M696.85,-230.14C577.03,-220.76 213.8,-188.24 111.5,-132 79.82,-114.58 73.75,-105.25 52.5,-76 42.38,-62.07 34.18,-44.33 28.76,-30.9"/>
<polygon fill="#63b8ff" stroke="#63b8ff" points="32.13,-29.91 25.28,-21.82 25.6,-32.41 32.13,-29.91"/>
</a>
</g>
</g>
<!-- Node5 -->
<g id="Node000005" class="node">
<title>Node5</title>
<g id="a_Node000005"><a xlink:title=" ">
<polygon fill="#e0e0e0" stroke="#999999" points="707.38,-76 657.62,-76 657.62,-56 707.38,-56 707.38,-76"/>
<text text-anchor="middle" x="682.5" y="-62.5" font-family="Helvetica,sans-Serif" font-size="10.00">optional</text>
</a>
</g>
</g>
<!-- Node1&#45;&gt;Node5 -->
<g id="edge4_Node000001_Node000005" class="edge">
<title>Node1&#45;&gt;Node5</title>
<g id="a_edge4_Node000001_Node000005"><a xlink:title=" ">
<path fill="none" stroke="#63b8ff" d="M732.5,-223.6C724.12,-197.35 700.33,-122.84 688.85,-86.89"/>
<polygon fill="#63b8ff" stroke="#63b8ff" points="692.3,-86.2 685.93,-77.74 685.64,-88.33 692.3,-86.2"/>
</a>
</g>
</g>
<!-- Node6 -->
<g id="Node000006" class="node">
<title>Node6</title>
<g id="a_Node000006"><a xlink:href="grid_8h.html" target="_top" xlink:title=" ">
<polygon fill="white" stroke="#666666" points="440,-188 343,-188 343,-168 440,-168 440,-188"/>
<text text-anchor="middle" x="391.5" y="-174.5" font-family="Helvetica,sans-Serif" font-size="10.00">MazeBuilder/grid.h</text>
</a>
</g>
</g>
<!-- Node1&#45;&gt;Node6 -->
<g id="edge5_Node000001_Node000006" class="edge">
<title>Node1&#45;&gt;Node6</title>
<g id="a_edge5_Node000001_Node000006"><a xlink:title=" ">
<path fill="none" stroke="#63b8ff" d="M696.71,-226.91C637.04,-217.54 522.25,-199.53 451.72,-188.45"/>
<polygon fill="#63b8ff" stroke="#63b8ff" points="452.28,-185 441.86,-186.91 451.2,-191.91 452.28,-185"/>
</a>
</g>
</g>
<!-- Node6&#45;&gt;Node2 -->
<g id="edge7_Node000006_Node000002" class="edge">
<title>Node6&#45;&gt;Node2</title>
<g id="a_edge7_Node000006_Node000002"><a xlink:title=" ">
<path fill="none" stroke="#63b8ff" d="M440.38,-169.21C523.02,-154.9 684.51,-121.67 716.5,-76 727.17,-60.77 714.61,-41.77 701.84,-28.25"/>
<polygon fill="#63b8ff" stroke="#63b8ff" points="704.35,-25.8 694.75,-21.31 699.45,-30.81 704.35,-25.8"/>
</a>
</g>
</g>
<!-- Node6&#45;&gt;Node4 -->
<g id="edge6_Node000006_Node000004" class="edge">
<title>Node6&#45;&gt;Node4</title>
<g id="a_edge6_Node000006_Node000004"><a xlink:title=" ">
<path fill="none" stroke="#63b8ff" d="M342.64,-174.98C291.82,-171.32 210.97,-161 147.5,-132 97.13,-108.99 54.52,-57.25 34.22,-29.47"/>
<polygon fill="#63b8ff" stroke="#63b8ff" points="37.3,-27.77 28.65,-21.65 31.6,-31.83 37.3,-27.77"/>
</a>
</g>
</g>
<!-- Node6&#45;&gt;Node5 -->
<g id="edge11_Node000006_Node000005" class="edge">
<title>Node6&#45;&gt;Node5</title>
<g id="a_edge11_Node000006_Node000005"><a xlink:title=" ">
<path fill="none" stroke="#63b8ff" d="M421.27,-167.53C448.36,-158.77 489.34,-145.16 524.5,-132 568.48,-115.53 618.5,-94.57 650.26,-80.97"/>
<polygon fill="#63b8ff" stroke="#63b8ff" points="651.5,-84.25 659.3,-77.09 648.73,-77.82 651.5,-84.25"/>
</a>
</g>
</g>
<!-- Node7 -->
<g id="Node000007" class="node">
<title>Node7</title>
<g id="a_Node000007"><a xlink:title=" ">
<polygon fill="#e0e0e0" stroke="#999999" points="136.5,-20 96.5,-20 96.5,0 136.5,0 136.5,-20"/>
<text text-anchor="middle" x="116.5" y="-6.5" font-family="Helvetica,sans-Serif" font-size="10.00">string</text>
</a>
</g>
</g>
<!-- Node6&#45;&gt;Node7 -->
<g id="edge8_Node000006_Node000007" class="edge">
<title>Node6&#45;&gt;Node7</title>
<g id="a_edge8_Node000006_Node000007"><a xlink:title=" ">
<path fill="none" stroke="#63b8ff" d="M342.57,-175.5C277.96,-170.52 166.75,-150.87 118.5,-76 110.07,-62.92 110.14,-45.09 112,-31.41"/>
<polygon fill="#63b8ff" stroke="#63b8ff" points="115.41,-32.22 113.74,-21.76 108.52,-30.97 115.41,-32.22"/>
</a>
</g>
</g>
<!-- Node8 -->
<g id="Node000008" class="node">
<title>Node8</title>
<g id="a_Node000008"><a xlink:title=" ">
<polygon fill="#e0e0e0" stroke="#999999" points="299.5,-132 241.5,-132 241.5,-112 299.5,-112 299.5,-132"/>
<text text-anchor="middle" x="270.5" y="-118.5" font-family="Helvetica,sans-Serif" font-size="10.00">functional</text>
</a>
</g>
</g>
<!-- Node6&#45;&gt;Node8 -->
<g id="edge9_Node000006_Node000008" class="edge">
<title>Node6&#45;&gt;Node8</title>
<g id="a_edge9_Node000006_Node000008"><a xlink:title=" ">
<path fill="none" stroke="#63b8ff" d="M370.42,-167.59C351.54,-159.17 323.58,-146.69 302.04,-137.07"/>
<polygon fill="#63b8ff" stroke="#63b8ff" points="303.68,-133.98 293.12,-133.1 300.83,-140.37 303.68,-133.98"/>
</a>
</g>
</g>
<!-- Node9 -->
<g id="Node000009" class="node">
<title>Node9</title>
<g id="a_Node000009"><a xlink:title=" ">
<polygon fill="#e0e0e0" stroke="#999999" points="357.12,-132 317.88,-132 317.88,-112 357.12,-112 357.12,-132"/>
<text text-anchor="middle" x="337.5" y="-118.5" font-family="Helvetica,sans-Serif" font-size="10.00">utility</text>
</a>
</g>
</g>
<!-- Node6&#45;&gt;Node9 -->
<g id="edge10_Node000006_Node000009" class="edge">
<title>Node6&#45;&gt;Node9</title>
<g id="a_edge10_Node000006_Node000009"><a xlink:title=" ">
<path fill="none" stroke="#63b8ff" d="M382.09,-167.59C374.58,-160.08 363.85,-149.35 354.8,-140.3"/>
<polygon fill="#63b8ff" stroke="#63b8ff" points="357.41,-137.96 347.87,-133.37 352.46,-142.91 357.41,-137.96"/>
</a>
</g>
</g>
<!-- Node10 -->
<g id="Node000010" class="node">
<title>Node10</title>
<g id="a_Node000010"><a xlink:href="grid__interface_8h.html" target="_top" xlink:title=" ">
<polygon fill="white" stroke="#666666" points="515.38,-132 375.62,-132 375.62,-112 515.38,-112 515.38,-132"/>
<text text-anchor="middle" x="445.5" y="-118.5" font-family="Helvetica,sans-Serif" font-size="10.00">MazeBuilder/grid_interface.h</text>
</a>
</g>
</g>
<!-- Node6&#45;&gt;Node10 -->
<g id="edge12_Node000006_Node000010" class="edge">
<title>Node6&#45;&gt;Node10</title>
<g id="a_edge12_Node000006_Node000010"><a xlink:title=" ">
<path fill="none" stroke="#63b8ff" d="M400.91,-167.59C408.42,-160.08 419.15,-149.35 428.2,-140.3"/>
<polygon fill="#63b8ff" stroke="#63b8ff" points="430.54,-142.91 435.13,-133.37 425.59,-137.96 430.54,-142.91"/>
</a>
</g>
</g>
<!-- Node10&#45;&gt;Node2 -->
<g id="edge17_Node000010_Node000002" class="edge">
<title>Node10&#45;&gt;Node2</title>
<g id="a_edge17_Node000010_Node000002"><a xlink:title=" ">
<path fill="none" stroke="#63b8ff" d="M506.1,-111.53C538.47,-104.77 578.19,-93.66 610.5,-76 632.77,-63.82 653.77,-43.46 667.28,-28.76"/>
<polygon fill="#63b8ff" stroke="#63b8ff" points="669.63,-31.39 673.66,-21.6 664.4,-26.74 669.63,-31.39"/>
</a>
</g>
</g>
<!-- Node10&#45;&gt;Node3 -->
<g id="edge18_Node000010_Node000003" class="edge">
<title>Node10&#45;&gt;Node3</title>
<g id="a_edge18_Node000010_Node000003"><a xlink:title=" ">
<path fill="none" stroke="#63b8ff" d="M462.15,-111.55C474.84,-103.56 491.89,-91.04 502.5,-76 511.97,-62.58 517.62,-44.78 520.81,-31.19"/>
<polygon fill="#63b8ff" stroke="#63b8ff" points="524.19,-32.14 522.8,-21.63 517.34,-30.72 524.19,-32.14"/>
</a>
</g>
</g>
<!-- Node10&#45;&gt;Node4 -->
<g id="edge13_Node000010_Node000004" class="edge">
<title>Node10&#45;&gt;Node4</title>
<g id="a_edge13_Node000010_Node000004"><a xlink:title=" ">
<path fill="none" stroke="#63b8ff" d="M375.47,-112.18C282.99,-100.41 130.38,-80.52 118.5,-76 88.81,-64.7 59.13,-42.89 40.56,-27.66"/>
<polygon fill="#63b8ff" stroke="#63b8ff" points="42.99,-25.12 33.09,-21.36 38.48,-30.48 42.99,-25.12"/>
</a>
</g>
</g>
<!-- Node10&#45;&gt;Node5 -->
<g id="edge19_Node000010_Node000005" class="edge">
<title>Node10&#45;&gt;Node5</title>
<g id="a_edge19_Node000010_Node000005"><a xlink:title=" ">
<path fill="none" stroke="#63b8ff" d="M487.23,-111.56C527.3,-102.48 589.55,-88.36 643.5,-76 644.48,-75.78 645.47,-75.55 646.47,-75.32"/>
<polygon fill="#63b8ff" stroke="#63b8ff" points="646.89,-78.81 655.85,-73.16 645.32,-71.99 646.89,-78.81"/>
</a>
</g>
</g>
<!-- Node10&#45;&gt;Node7 -->
<g id="edge14_Node000010_Node000007" class="edge">
<title>Node10&#45;&gt;Node7</title>
<g id="a_edge14_Node000010_Node000007"><a xlink:title=" ">
<path fill="none" stroke="#63b8ff" d="M375.49,-112.77C286.86,-102.07 144.51,-83.82 135.5,-76 122.87,-65.03 118.41,-46.17 116.94,-31.58"/>
<polygon fill="#63b8ff" stroke="#63b8ff" points="120.44,-31.46 116.37,-21.68 113.45,-31.86 120.44,-31.46"/>
</a>
</g>
</g>
<!-- Node11 -->
<g id="Node000011" class="node">
<title>Node11</title>
<g id="a_Node000011"><a xlink:title=" ">
<polygon fill="#e0e0e0" stroke="#999999" points="601.12,-76 549.88,-76 549.88,-56 601.12,-56 601.12,-76"/>
<text text-anchor="middle" x="575.5" y="-62.5" font-family="Helvetica,sans-Serif" font-size="10.00">ostream</text>
</a>
</g>
</g>
<!-- Node10&#45;&gt;Node11 -->
<g id="edge15_Node000010_Node000011" class="edge">
<title>Node10&#45;&gt;Node11</title>
<g id="a_edge15_Node000010_Node000011"><a xlink:title=" ">
<path fill="none" stroke="#63b8ff" d="M468.14,-111.59C488.62,-103.09 519.02,-90.46 542.25,-80.81"/>
<polygon fill="#63b8ff" stroke="#63b8ff" points="543.39,-84.13 551.28,-77.06 540.7,-77.66 543.39,-84.13"/>
</a>
</g>
</g>
<!-- Node12 -->
<g id="Node000012" class="node">
<title>Node12</title>
<g id="a_Node000012"><a xlink:title=" ">
<polygon fill="#e0e0e0" stroke="#999999" points="196.12,-76 144.88,-76 144.88,-56 196.12,-56 196.12,-76"/>
<text text-anchor="middle" x="170.5" y="-62.5" font-family="Helvetica,sans-Serif" font-size="10.00">sstream</text>
</a>
</g>
</g>
<!-- Node10&#45;&gt;Node12 -->
<g id="edge16_Node000010_Node000012" class="edge">
<title>Node10&#45;&gt;Node12</title>
<g id="a_edge16_Node000010_Node000012"><a xlink:title=" ">
<path fill="none" stroke="#63b8ff" d="M389.03,-111.5C342.74,-103.47 275.27,-91.2 207.35,-76.29"/>
<polygon fill="#63b8ff" stroke="#63b8ff" points="208.45,-72.95 197.93,-74.2 206.93,-79.78 208.45,-72.95"/>
</a>
</g>
</g>
<!-- Node13 -->
<g id="Node000013" class="node">
<title>Node13</title>
<g id="a_Node000013"><a xlink:title=" ">
<polygon fill="#e0e0e0" stroke="#999999" points="251,-76 214,-76 214,-56 251,-56 251,-76"/>
<text text-anchor="middle" x="232.5" y="-62.5" font-family="Helvetica,sans-Serif" font-size="10.00">tuple</text>
</a>
</g>
</g>
<!-- Node10&#45;&gt;Node13 -->
<g id="edge20_Node000010_Node000013" class="edge">
<title>Node10&#45;&gt;Node13</title>
<g id="a_edge20_Node000010_Node000013"><a xlink:title=" ">
<path fill="none" stroke="#63b8ff" d="M402.65,-111.5C367.36,-103.48 315.8,-91.28 262.17,-76.32"/>
<polygon fill="#63b8ff" stroke="#63b8ff" points="263.45,-73.04 252.88,-73.7 261.55,-79.78 263.45,-73.04"/>
</a>
</g>
</g>
<!-- Node14 -->
<g id="Node000014" class="node">
<title>Node14</title>
<g id="a_Node000014"><a xlink:href="enums_8h.html" target="_top" xlink:title="Enumerations for the maze builder program.">
<polygon fill="white" stroke="#666666" points="379.75,-76 269.25,-76 269.25,-56 379.75,-56 379.75,-76"/>
<text text-anchor="middle" x="324.5" y="-62.5" font-family="Helvetica,sans-Serif" font-size="10.00">MazeBuilder/enums.h</text>
</a>
</g>
</g>
<!-- Node10&#45;&gt;Node14 -->
<g id="edge21_Node000010_Node000014" class="edge">
<title>Node10&#45;&gt;Node14</title>
<g id="a_edge21_Node000010_Node000014"><a xlink:title=" ">
<path fill="none" stroke="#63b8ff" d="M424.42,-111.59C405.54,-103.17 377.58,-90.69 356.04,-81.07"/>
<polygon fill="#63b8ff" stroke="#63b8ff" points="357.68,-77.98 347.12,-77.1 354.83,-84.37 357.68,-77.98"/>
</a>
</g>
</g>
<!-- Node16 -->
<g id="Node000016" class="node">
<title>Node16</title>
<g id="a_Node000016"><a xlink:href="cell_8h.html" target="_top" xlink:title=" ">
<polygon fill="white" stroke="#666666" points="493.62,-76 397.38,-76 397.38,-56 493.62,-56 493.62,-76"/>
<text text-anchor="middle" x="445.5" y="-62.5" font-family="Helvetica,sans-Serif" font-size="10.00">MazeBuilder/cell.h</text>
</a>
</g>
</g>
<!-- Node10&#45;&gt;Node16 -->
<g id="edge24_Node000010_Node000016" class="edge">
<title>Node10&#45;&gt;Node16</title>
<g id="a_edge24_Node000010_Node000016"><a xlink:title=" ">
<path fill="none" stroke="#63b8ff" d="M445.5,-111.59C445.5,-105.01 445.5,-95.96 445.5,-87.73"/>
<polygon fill="#63b8ff" stroke="#63b8ff" points="449,-87.81 445.5,-77.81 442,-87.81 449,-87.81"/>
</a>
</g>
</g>
<!-- Node14&#45;&gt;Node7 -->
<g id="edge22_Node000014_Node000007" class="edge">
<title>Node14&#45;&gt;Node7</title>
<g id="a_edge22_Node000014_Node000007"><a xlink:title=" ">
<path fill="none" stroke="#63b8ff" d="M288.27,-55.59C248.5,-45.27 185.32,-28.87 147.68,-19.1"/>
<polygon fill="#63b8ff" stroke="#63b8ff" points="148.9,-15.8 138.34,-16.67 147.14,-22.57 148.9,-15.8"/>
</a>
</g>
</g>
<!-- Node15 -->
<g id="Node000015" class="node">
<title>Node15</title>
<g id="a_Node000015"><a xlink:title=" ">
<polygon fill="#e0e0e0" stroke="#999999" points="353.88,-20 295.12,-20 295.12,0 353.88,0 353.88,-20"/>
<text text-anchor="middle" x="324.5" y="-6.5" font-family="Helvetica,sans-Serif" font-size="10.00">stdexcept</text>
</a>
</g>
</g>
<!-- Node14&#45;&gt;Node15 -->
<g id="edge23_Node000014_Node000015" class="edge">
<title>Node14&#45;&gt;Node15</title>
<g id="a_edge23_Node000014_Node000015"><a xlink:title=" ">
<path fill="none" stroke="#63b8ff" d="M324.5,-55.59C324.5,-49.01 324.5,-39.96 324.5,-31.73"/>
<polygon fill="#63b8ff" stroke="#63b8ff" points="328,-31.81 324.5,-21.81 321,-31.81 328,-31.81"/>
</a>
</g>
</g>
<!-- Node16&#45;&gt;Node2 -->
<g id="edge25_Node000016_Node000002" class="edge">
<title>Node16&#45;&gt;Node2</title>
<g id="a_edge25_Node000016_Node000002"><a xlink:title=" ">
<path fill="none" stroke="#63b8ff" d="M487.05,-55.53C531.8,-45.34 602.35,-29.26 645.32,-19.47"/>
<polygon fill="#63b8ff" stroke="#63b8ff" points="645.96,-22.92 654.93,-17.28 644.41,-16.09 645.96,-22.92"/>
</a>
</g>
</g>
<!-- Node16&#45;&gt;Node3 -->
<g id="edge28_Node000016_Node000003" class="edge">
<title>Node16&#45;&gt;Node3</title>
<g id="a_edge28_Node000016_Node000003"><a xlink:title=" ">
<path fill="none" stroke="#63b8ff" d="M459.26,-55.59C470.86,-47.67 487.7,-36.16 501.36,-26.82"/>
<polygon fill="#63b8ff" stroke="#63b8ff" points="503.1,-29.87 509.38,-21.33 499.15,-24.09 503.1,-29.87"/>
</a>
</g>
</g>
<!-- Node16&#45;&gt;Node4 -->
<g id="edge26_Node000016_Node000004" class="edge">
<title>Node16&#45;&gt;Node4</title>
<g id="a_edge26_Node000016_Node000004"><a xlink:title=" ">
<path fill="none" stroke="#63b8ff" d="M397.01,-57.22C394.13,-56.79 391.28,-56.39 388.5,-56 255.05,-37.49 221.14,-37.1 87.5,-20 76.83,-18.63 65.2,-17.07 54.72,-15.64"/>
<polygon fill="#63b8ff" stroke="#63b8ff" points="55.37,-12.2 44.99,-14.3 54.42,-19.13 55.37,-12.2"/>
</a>
</g>
</g>
<!-- Node17 -->
<g id="Node000017" class="node">
<title>Node17</title>
<g id="a_Node000017"><a xlink:title=" ">
<polygon fill="#e0e0e0" stroke="#999999" points="483.88,-20 401.12,-20 401.12,0 483.88,0 483.88,-20"/>
<text text-anchor="middle" x="442.5" y="-6.5" font-family="Helvetica,sans-Serif" font-size="10.00">unordered_map</text>
</a>
</g>
</g>
<!-- Node16&#45;&gt;Node17 -->
<g id="edge27_Node000016_Node000017" class="edge">
<title>Node16&#45;&gt;Node17</title>
<g id="a_edge27_Node000016_Node000017"><a xlink:title=" ">
<path fill="none" stroke="#63b8ff" d="M444.98,-55.59C444.61,-49.01 444.11,-39.96 443.65,-31.73"/>
<polygon fill="#63b8ff" stroke="#63b8ff" points="447.15,-31.6 443.1,-21.81 440.16,-31.99 447.15,-31.6"/>
</a>
</g>
</g>
</g>
</svg>
