<?xml version="1.0" encoding="UTF-8" standalone="no"?>
<!DOCTYPE svg PUBLIC "-//W3C//DTD SVG 1.1//EN"
 "http://www.w3.org/Graphics/SVG/1.1/DTD/svg11.dtd">
<!-- Generated by graphviz version 12.2.1 (20241206.2353)
 -->
<!-- Title: colored_grid.h Pages: 1 -->
<svg width="1009pt" height="320pt"
 viewBox="0.00 0.00 1009.38 320.00" xmlns="http://www.w3.org/2000/svg" xmlns:xlink="http://www.w3.org/1999/xlink">
<g id="graph0" class="graph" transform="scale(1 1) rotate(0) translate(4 316)">
<title>colored_grid.h</title>
<!-- Node1 -->
<g id="Node000001" class="node">
<title>Node1</title>
<g id="a_Node000001"><a xlink:title=" ">
<polygon fill="#999999" stroke="#666666" points="155.75,-312 79,-312 79,-292 155.75,-292 155.75,-312"/>
<text text-anchor="middle" x="117.38" y="-298.5" font-family="Helvetica,sans-Serif" font-size="10.00">colored_grid.h</text>
</a>
</g>
</g>
<!-- Node2 -->
<g id="Node000002" class="node">
<title>Node2</title>
<g id="a_Node000002"><a xlink:title=" ">
<polygon fill="#e0e0e0" stroke="#999999" points="913,-20 861.75,-20 861.75,0 913,0 913,-20"/>
<text text-anchor="middle" x="887.38" y="-6.5" font-family="Helvetica,sans-Serif" font-size="10.00">memory</text>
</a>
</g>
</g>
<!-- Node1&#45;&gt;Node2 -->
<g id="edge1_Node000001_Node000002" class="edge">
<title>Node1&#45;&gt;Node2</title>
<g id="a_edge1_Node000001_Node000002"><a xlink:title=" ">
<path fill="none" stroke="#63b8ff" d="M156.21,-299.8C326.83,-294 1001.38,-265.61 1001.38,-179 1001.38,-179 1001.38,-179 1001.38,-121 1001.38,-75.39 953.53,-42.71 919.83,-25.35"/>
<polygon fill="#63b8ff" stroke="#63b8ff" points="921.77,-22.4 911.26,-21.12 918.68,-28.68 921.77,-22.4"/>
</a>
</g>
</g>
<!-- Node3 -->
<g id="Node000003" class="node">
<title>Node3</title>
<g id="a_Node000003"><a xlink:title=" ">
<polygon fill="#e0e0e0" stroke="#999999" points="360,-20 314.75,-20 314.75,0 360,0 360,-20"/>
<text text-anchor="middle" x="337.38" y="-6.5" font-family="Helvetica,sans-Serif" font-size="10.00">cstdint</text>
</a>
</g>
</g>
<!-- Node1&#45;&gt;Node3 -->
<g id="edge2_Node000001_Node000003" class="edge">
<title>Node1&#45;&gt;Node3</title>
<g id="a_edge2_Node000001_Node000003"><a xlink:title=" ">
<path fill="none" stroke="#63b8ff" d="M117.38,-291.51C117.38,-270.98 117.38,-220.94 117.38,-179 117.38,-179 117.38,-179 117.38,-121 117.38,-38.93 241.37,-18.09 303.18,-12.8"/>
<polygon fill="#63b8ff" stroke="#63b8ff" points="303.44,-16.29 313.15,-12.05 302.92,-9.31 303.44,-16.29"/>
</a>
</g>
</g>
<!-- Node4 -->
<g id="Node000004" class="node">
<title>Node4</title>
<g id="a_Node000004"><a xlink:title=" ">
<polygon fill="#e0e0e0" stroke="#999999" points="229.88,-20 186.88,-20 186.88,0 229.88,0 229.88,-20"/>
<text text-anchor="middle" x="208.38" y="-6.5" font-family="Helvetica,sans-Serif" font-size="10.00">vector</text>
</a>
</g>
</g>
<!-- Node1&#45;&gt;Node4 -->
<g id="edge3_Node000001_Node000004" class="edge">
<title>Node1&#45;&gt;Node4</title>
<g id="a_edge3_Node000001_Node000004"><a xlink:title=" ">
<path fill="none" stroke="#63b8ff" d="M111.33,-291.82C105.93,-283.04 98.43,-269.22 95.38,-256 75.32,-169.33 51.79,-128.47 103.38,-56 119.98,-32.67 151.25,-21.34 175.37,-15.9"/>
<polygon fill="#63b8ff" stroke="#63b8ff" points="175.93,-19.36 185.05,-13.97 174.56,-12.49 175.93,-19.36"/>
</a>
</g>
</g>
<!-- Node5 -->
<g id="Node000005" class="node">
<title>Node5</title>
<g id="a_Node000005"><a xlink:title=" ">
<polygon fill="#e0e0e0" stroke="#999999" points="233.25,-76 183.5,-76 183.5,-56 233.25,-56 233.25,-76"/>
<text text-anchor="middle" x="208.38" y="-62.5" font-family="Helvetica,sans-Serif" font-size="10.00">optional</text>
</a>
</g>
</g>
<!-- Node1&#45;&gt;Node5 -->
<g id="edge4_Node000001_Node000005" class="edge">
<title>Node1&#45;&gt;Node5</title>
<g id="a_edge4_Node000001_Node000005"><a xlink:title=" ">
<path fill="none" stroke="#63b8ff" d="M113.51,-291.54C110.07,-282.57 105.29,-268.62 103.38,-256 93.51,-191.09 96.67,-164.3 136.38,-112 146.25,-99 161.06,-88.82 174.68,-81.46"/>
<polygon fill="#63b8ff" stroke="#63b8ff" points="176.06,-84.69 183.42,-77.06 172.91,-78.43 176.06,-84.69"/>
</a>
</g>
</g>
<!-- Node6 -->
<g id="Node000006" class="node">
<title>Node6</title>
<g id="a_Node000006"><a xlink:href="distance__grid_8h.html" target="_top" xlink:title=" ">
<polygon fill="white" stroke="#666666" points="358.25,-256 248.5,-256 248.5,-224 358.25,-224 358.25,-256"/>
<text text-anchor="start" x="256.5" y="-242.5" font-family="Helvetica,sans-Serif" font-size="10.00">MazeBuilder/distance</text>
<text text-anchor="middle" x="303.38" y="-230.5" font-family="Helvetica,sans-Serif" font-size="10.00">_grid.h</text>
</a>
</g>
</g>
<!-- Node1&#45;&gt;Node6 -->
<g id="edge5_Node000001_Node000006" class="edge">
<title>Node1&#45;&gt;Node6</title>
<g id="a_edge5_Node000001_Node000006"><a xlink:title=" ">
<path fill="none" stroke="#63b8ff" d="M146.44,-291.62C172.6,-283.19 211.84,-270.53 244.54,-259.98"/>
<polygon fill="#63b8ff" stroke="#63b8ff" points="245.47,-263.36 253.91,-256.96 243.32,-256.69 245.47,-263.36"/>
</a>
</g>
</g>
<!-- Node6&#45;&gt;Node2 -->
<g id="edge7_Node000006_Node000002" class="edge">
<title>Node6&#45;&gt;Node2</title>
<g id="a_edge7_Node000006_Node000002"><a xlink:title=" ">
<path fill="none" stroke="#63b8ff" d="M358.47,-236.47C469.73,-230.85 717.4,-215.59 797.38,-188 841.55,-172.76 863.61,-172.82 886.38,-132 903.97,-100.45 898.38,-56.69 892.81,-31.36"/>
<polygon fill="#63b8ff" stroke="#63b8ff" points="896.23,-30.61 890.46,-21.72 889.43,-32.26 896.23,-30.61"/>
</a>
</g>
</g>
<!-- Node7 -->
<g id="Node000007" class="node">
<title>Node7</title>
<g id="a_Node000007"><a xlink:title=" ">
<polygon fill="#e0e0e0" stroke="#999999" points="185.75,-132 145,-132 145,-112 185.75,-112 185.75,-132"/>
<text text-anchor="middle" x="165.38" y="-118.5" font-family="Helvetica,sans-Serif" font-size="10.00">future</text>
</a>
</g>
</g>
<!-- Node6&#45;&gt;Node7 -->
<g id="edge6_Node000006_Node000007" class="edge">
<title>Node6&#45;&gt;Node7</title>
<g id="a_edge6_Node000006_Node000007"><a xlink:title=" ">
<path fill="none" stroke="#63b8ff" d="M285.05,-223.6C259.08,-201.76 211.76,-161.99 185.06,-139.55"/>
<polygon fill="#63b8ff" stroke="#63b8ff" points="187.61,-137.12 177.71,-133.37 183.11,-142.48 187.61,-137.12"/>
</a>
</g>
</g>
<!-- Node8 -->
<g id="Node000008" class="node">
<title>Node8</title>
<g id="a_Node000008"><a xlink:title=" ">
<polygon fill="#e0e0e0" stroke="#999999" points="812.38,-20 772.38,-20 772.38,0 812.38,0 812.38,-20"/>
<text text-anchor="middle" x="792.38" y="-6.5" font-family="Helvetica,sans-Serif" font-size="10.00">string</text>
</a>
</g>
</g>
<!-- Node6&#45;&gt;Node8 -->
<g id="edge8_Node000006_Node000008" class="edge">
<title>Node6&#45;&gt;Node8</title>
<g id="a_edge8_Node000006_Node000008"><a xlink:title=" ">
<path fill="none" stroke="#63b8ff" d="M358.64,-237.13C487.9,-231.49 803.89,-209.84 868.38,-132 897.06,-97.37 847.03,-51.13 815.37,-27.07"/>
<polygon fill="#63b8ff" stroke="#63b8ff" points="817.59,-24.36 807.46,-21.25 813.44,-29.99 817.59,-24.36"/>
</a>
</g>
</g>
<!-- Node9 -->
<g id="Node000009" class="node">
<title>Node9</title>
<g id="a_Node000009"><a xlink:title=" ">
<polygon fill="#e0e0e0" stroke="#999999" points="82.75,-20 0,-20 0,0 82.75,0 82.75,-20"/>
<text text-anchor="middle" x="41.38" y="-6.5" font-family="Helvetica,sans-Serif" font-size="10.00">unordered_map</text>
</a>
</g>
</g>
<!-- Node6&#45;&gt;Node9 -->
<g id="edge9_Node000006_Node000009" class="edge">
<title>Node6&#45;&gt;Node9</title>
<g id="a_edge9_Node000006_Node000009"><a xlink:title=" ">
<path fill="none" stroke="#63b8ff" d="M276.71,-223.54C259.84,-213.63 237.65,-200.35 218.38,-188 181.22,-164.19 168.6,-162.15 136.38,-132 102.08,-99.91 70.07,-54.8 53.39,-29.71"/>
<polygon fill="#63b8ff" stroke="#63b8ff" points="56.45,-28 48.05,-21.54 50.59,-31.83 56.45,-28"/>
</a>
</g>
</g>
<!-- Node10 -->
<g id="Node000010" class="node">
<title>Node10</title>
<g id="a_Node000010"><a xlink:href="grid_8h.html" target="_top" xlink:title=" ">
<polygon fill="white" stroke="#666666" points="517.88,-188 420.88,-188 420.88,-168 517.88,-168 517.88,-188"/>
<text text-anchor="middle" x="469.38" y="-174.5" font-family="Helvetica,sans-Serif" font-size="10.00">MazeBuilder/grid.h</text>
</a>
</g>
</g>
<!-- Node6&#45;&gt;Node10 -->
<g id="edge10_Node000006_Node000010" class="edge">
<title>Node6&#45;&gt;Node10</title>
<g id="a_edge10_Node000006_Node000010"><a xlink:title=" ">
<path fill="none" stroke="#63b8ff" d="M346.12,-223.55C372.9,-213.87 407.05,-201.53 432.62,-192.29"/>
<polygon fill="#63b8ff" stroke="#63b8ff" points="433.71,-195.61 441.92,-188.92 431.33,-189.03 433.71,-195.61"/>
</a>
</g>
</g>
<!-- Node10&#45;&gt;Node2 -->
<g id="edge14_Node000010_Node000002" class="edge">
<title>Node10&#45;&gt;Node2</title>
<g id="a_edge14_Node000010_Node000002"><a xlink:title=" ">
<path fill="none" stroke="#63b8ff" d="M518.08,-174.77C618.97,-169.7 843.48,-155.83 868.38,-132 895.42,-106.1 894.25,-58.57 890.88,-31.43"/>
<polygon fill="#63b8ff" stroke="#63b8ff" points="894.37,-31.11 889.44,-21.73 887.45,-32.14 894.37,-31.11"/>
</a>
</g>
</g>
<!-- Node10&#45;&gt;Node4 -->
<g id="edge18_Node000010_Node000004" class="edge">
<title>Node10&#45;&gt;Node4</title>
<g id="a_edge18_Node000010_Node000004"><a xlink:title=" ">
<path fill="none" stroke="#63b8ff" d="M431.66,-167.52C399.42,-159.11 351.95,-146.02 311.38,-132 280.29,-121.26 192.71,-103.3 174.38,-76 164.01,-60.56 176.53,-41.59 189.2,-28.14"/>
<polygon fill="#63b8ff" stroke="#63b8ff" points="191.54,-30.74 196.23,-21.24 186.64,-25.75 191.54,-30.74"/>
</a>
</g>
</g>
<!-- Node10&#45;&gt;Node5 -->
<g id="edge15_Node000010_Node000005" class="edge">
<title>Node10&#45;&gt;Node5</title>
<g id="a_edge15_Node000010_Node000005"><a xlink:title=" ">
<path fill="none" stroke="#63b8ff" d="M447.12,-167.62C400.99,-148.18 294.75,-103.4 240.92,-80.71"/>
<polygon fill="#63b8ff" stroke="#63b8ff" points="242.54,-77.6 231.97,-76.94 239.82,-84.05 242.54,-77.6"/>
</a>
</g>
</g>
<!-- Node10&#45;&gt;Node7 -->
<g id="edge12_Node000010_Node000007" class="edge">
<title>Node10&#45;&gt;Node7</title>
<g id="a_edge12_Node000010_Node000007"><a xlink:title=" ">
<path fill="none" stroke="#63b8ff" d="M420.83,-170.31C366.58,-162.51 276.26,-148.55 199.38,-132 198.7,-131.86 198.03,-131.71 197.34,-131.55"/>
<polygon fill="#63b8ff" stroke="#63b8ff" points="198.17,-128.15 187.63,-129.19 196.52,-134.95 198.17,-128.15"/>
</a>
</g>
</g>
<!-- Node10&#45;&gt;Node8 -->
<g id="edge16_Node000010_Node000008" class="edge">
<title>Node10&#45;&gt;Node8</title>
<g id="a_edge16_Node000010_Node000008"><a xlink:title=" ">
<path fill="none" stroke="#63b8ff" d="M518.16,-176.65C587.98,-173.25 714.86,-155.7 777.38,-76 787.23,-63.44 790.82,-45.57 792.03,-31.74"/>
<polygon fill="#63b8ff" stroke="#63b8ff" points="795.52,-32.12 792.52,-21.96 788.53,-31.77 795.52,-32.12"/>
</a>
</g>
</g>
<!-- Node10&#45;&gt;Node9 -->
<g id="edge19_Node000010_Node000009" class="edge">
<title>Node10&#45;&gt;Node9</title>
<g id="a_edge19_Node000010_Node000009"><a xlink:title=" ">
<path fill="none" stroke="#63b8ff" d="M420.41,-172.33C373.28,-166.69 300.63,-154.95 241.38,-132 170.81,-104.67 96.93,-52.96 62.01,-26.88"/>
<polygon fill="#63b8ff" stroke="#63b8ff" points="64.52,-24.39 54.43,-21.16 60.3,-29.98 64.52,-24.39"/>
</a>
</g>
</g>
<!-- Node11 -->
<g id="Node000011" class="node">
<title>Node11</title>
<g id="a_Node000011"><a xlink:title=" ">
<polygon fill="#e0e0e0" stroke="#999999" points="859.38,-132 801.38,-132 801.38,-112 859.38,-112 859.38,-132"/>
<text text-anchor="middle" x="830.38" y="-118.5" font-family="Helvetica,sans-Serif" font-size="10.00">functional</text>
</a>
</g>
</g>
<!-- Node10&#45;&gt;Node11 -->
<g id="edge11_Node000010_Node000011" class="edge">
<title>Node10&#45;&gt;Node11</title>
<g id="a_edge11_Node000010_Node000011"><a xlink:title=" ">
<path fill="none" stroke="#63b8ff" d="M518.29,-171.09C580.86,-163.3 692.5,-148.62 787.38,-132 788.36,-131.83 789.36,-131.65 790.37,-131.46"/>
<polygon fill="#63b8ff" stroke="#63b8ff" points="790.64,-134.98 799.79,-129.65 789.31,-128.1 790.64,-134.98"/>
</a>
</g>
</g>
<!-- Node12 -->
<g id="Node000012" class="node">
<title>Node12</title>
<g id="a_Node000012"><a xlink:title=" ">
<polygon fill="#e0e0e0" stroke="#999999" points="599.88,-132 556.88,-132 556.88,-112 599.88,-112 599.88,-132"/>
<text text-anchor="middle" x="578.38" y="-118.5" font-family="Helvetica,sans-Serif" font-size="10.00">mutex</text>
</a>
</g>
</g>
<!-- Node10&#45;&gt;Node12 -->
<g id="edge13_Node000010_Node000012" class="edge">
<title>Node10&#45;&gt;Node12</title>
<g id="a_edge13_Node000010_Node000012"><a xlink:title=" ">
<path fill="none" stroke="#63b8ff" d="M488.36,-167.59C505.14,-159.28 529.87,-147.03 549.16,-137.47"/>
<polygon fill="#63b8ff" stroke="#63b8ff" points="550.48,-140.73 557.88,-133.15 547.37,-134.45 550.48,-140.73"/>
</a>
</g>
</g>
<!-- Node13 -->
<g id="Node000013" class="node">
<title>Node13</title>
<g id="a_Node000013"><a xlink:title=" ">
<polygon fill="#e0e0e0" stroke="#999999" points="657,-132 617.75,-132 617.75,-112 657,-112 657,-132"/>
<text text-anchor="middle" x="637.38" y="-118.5" font-family="Helvetica,sans-Serif" font-size="10.00">utility</text>
</a>
</g>
</g>
<!-- Node10&#45;&gt;Node13 -->
<g id="edge17_Node000010_Node000013" class="edge">
<title>Node10&#45;&gt;Node13</title>
<g id="a_edge17_Node000010_Node000013"><a xlink:title=" ">
<path fill="none" stroke="#63b8ff" d="M498.64,-167.59C528.81,-157.89 575.68,-142.83 606.46,-132.94"/>
<polygon fill="#63b8ff" stroke="#63b8ff" points="607.5,-136.28 615.95,-129.89 605.36,-129.61 607.5,-136.28"/>
</a>
</g>
</g>
<!-- Node14 -->
<g id="Node000014" class="node">
<title>Node14</title>
<g id="a_Node000014"><a xlink:href="grid__interface_8h.html" target="_top" xlink:title=" ">
<polygon fill="white" stroke="#666666" points="539.25,-132 399.5,-132 399.5,-112 539.25,-112 539.25,-132"/>
<text text-anchor="middle" x="469.38" y="-118.5" font-family="Helvetica,sans-Serif" font-size="10.00">MazeBuilder/grid_interface.h</text>
</a>
</g>
</g>
<!-- Node10&#45;&gt;Node14 -->
<g id="edge20_Node000010_Node000014" class="edge">
<title>Node10&#45;&gt;Node14</title>
<g id="a_edge20_Node000010_Node000014"><a xlink:title=" ">
<path fill="none" stroke="#63b8ff" d="M469.38,-167.59C469.38,-161.01 469.38,-151.96 469.38,-143.73"/>
<polygon fill="#63b8ff" stroke="#63b8ff" points="472.88,-143.81 469.38,-133.81 465.88,-143.81 472.88,-143.81"/>
</a>
</g>
</g>
<!-- Node14&#45;&gt;Node2 -->
<g id="edge25_Node000014_Node000002" class="edge">
<title>Node14&#45;&gt;Node2</title>
<g id="a_edge25_Node000014_Node000002"><a xlink:title=" ">
<path fill="none" stroke="#63b8ff" d="M539.65,-112.19C623.58,-101.44 755.43,-83.75 777.38,-76 810.6,-64.27 844.94,-42.07 866.23,-26.91"/>
<polygon fill="#63b8ff" stroke="#63b8ff" points="868.05,-29.91 874.08,-21.2 863.93,-24.25 868.05,-29.91"/>
</a>
</g>
</g>
<!-- Node14&#45;&gt;Node3 -->
<g id="edge26_Node000014_Node000003" class="edge">
<title>Node14&#45;&gt;Node3</title>
<g id="a_edge26_Node000014_Node000003"><a xlink:title=" ">
<path fill="none" stroke="#63b8ff" d="M458.83,-111.59C444.43,-98.8 417.74,-75.33 394.38,-56 382.77,-46.4 369.59,-35.96 358.83,-27.56"/>
<polygon fill="#63b8ff" stroke="#63b8ff" points="360.97,-24.8 350.93,-21.42 356.68,-30.32 360.97,-24.8"/>
</a>
</g>
</g>
<!-- Node14&#45;&gt;Node4 -->
<g id="edge21_Node000014_Node000004" class="edge">
<title>Node14&#45;&gt;Node4</title>
<g id="a_edge21_Node000014_Node000004"><a xlink:title=" ">
<path fill="none" stroke="#63b8ff" d="M399.08,-112.82C362.16,-106.45 317.1,-95.31 280.38,-76 257.66,-64.06 236.48,-43.3 223.05,-28.46"/>
<polygon fill="#63b8ff" stroke="#63b8ff" points="225.96,-26.47 216.75,-21.25 220.7,-31.08 225.96,-26.47"/>
</a>
</g>
</g>
<!-- Node14&#45;&gt;Node5 -->
<g id="edge27_Node000014_Node000005" class="edge">
<title>Node14&#45;&gt;Node5</title>
<g id="a_edge27_Node000014_Node000005"><a xlink:title=" ">
<path fill="none" stroke="#63b8ff" d="M420.79,-111.54C375.76,-102.68 306.95,-88.91 247.38,-76 246.39,-75.79 245.4,-75.57 244.4,-75.35"/>
<polygon fill="#63b8ff" stroke="#63b8ff" points="245.53,-72.02 235,-73.24 243.99,-78.85 245.53,-72.02"/>
</a>
</g>
</g>
<!-- Node14&#45;&gt;Node8 -->
<g id="edge22_Node000014_Node000008" class="edge">
<title>Node14&#45;&gt;Node8</title>
<g id="a_edge22_Node000014_Node000008"><a xlink:title=" ">
<path fill="none" stroke="#63b8ff" d="M539.13,-111.51C620.61,-100.19 745.51,-82.06 754.38,-76 770.05,-65.3 780.17,-45.83 785.99,-30.98"/>
<polygon fill="#63b8ff" stroke="#63b8ff" points="789.22,-32.34 789.26,-21.74 782.62,-30 789.22,-32.34"/>
</a>
</g>
</g>
<!-- Node15 -->
<g id="Node000015" class="node">
<title>Node15</title>
<g id="a_Node000015"><a xlink:title=" ">
<polygon fill="#e0e0e0" stroke="#999999" points="745,-76 693.75,-76 693.75,-56 745,-56 745,-76"/>
<text text-anchor="middle" x="719.38" y="-62.5" font-family="Helvetica,sans-Serif" font-size="10.00">ostream</text>
</a>
</g>
</g>
<!-- Node14&#45;&gt;Node15 -->
<g id="edge23_Node000014_Node000015" class="edge">
<title>Node14&#45;&gt;Node15</title>
<g id="a_edge23_Node000014_Node000015"><a xlink:title=" ">
<path fill="none" stroke="#63b8ff" d="M518.44,-111.55C559.84,-103.41 620.93,-90.99 682.36,-76.63"/>
<polygon fill="#63b8ff" stroke="#63b8ff" points="683.02,-80.07 691.95,-74.37 681.41,-73.26 683.02,-80.07"/>
</a>
</g>
</g>
<!-- Node16 -->
<g id="Node000016" class="node">
<title>Node16</title>
<g id="a_Node000016"><a xlink:title=" ">
<polygon fill="#e0e0e0" stroke="#999999" points="621,-76 569.75,-76 569.75,-56 621,-56 621,-76"/>
<text text-anchor="middle" x="595.38" y="-62.5" font-family="Helvetica,sans-Serif" font-size="10.00">sstream</text>
</a>
</g>
</g>
<!-- Node14&#45;&gt;Node16 -->
<g id="edge24_Node000014_Node000016" class="edge">
<title>Node14&#45;&gt;Node16</title>
<g id="a_edge24_Node000014_Node000016"><a xlink:title=" ">
<path fill="none" stroke="#63b8ff" d="M491.32,-111.59C511.08,-103.13 540.37,-90.58 562.84,-80.94"/>
<polygon fill="#63b8ff" stroke="#63b8ff" points="564.05,-84.23 571.87,-77.08 561.29,-77.8 564.05,-84.23"/>
</a>
</g>
</g>
<!-- Node17 -->
<g id="Node000017" class="node">
<title>Node17</title>
<g id="a_Node000017"><a xlink:title=" ">
<polygon fill="#e0e0e0" stroke="#999999" points="675.88,-76 638.88,-76 638.88,-56 675.88,-56 675.88,-76"/>
<text text-anchor="middle" x="657.38" y="-62.5" font-family="Helvetica,sans-Serif" font-size="10.00">tuple</text>
</a>
</g>
</g>
<!-- Node14&#45;&gt;Node17 -->
<g id="edge28_Node000014_Node000017" class="edge">
<title>Node14&#45;&gt;Node17</title>
<g id="a_edge28_Node000014_Node000017"><a xlink:title=" ">
<path fill="none" stroke="#63b8ff" d="M505.01,-111.58C535.43,-103.42 580.59,-91.03 627.79,-76.7"/>
<polygon fill="#63b8ff" stroke="#63b8ff" points="628.54,-80.13 637.08,-73.86 626.5,-73.43 628.54,-80.13"/>
</a>
</g>
</g>
<!-- Node18 -->
<g id="Node000018" class="node">
<title>Node18</title>
<g id="a_Node000018"><a xlink:href="enums_8h.html" target="_top" xlink:title="Enumerations for the maze builder program.">
<polygon fill="white" stroke="#666666" points="551.62,-76 441.12,-76 441.12,-56 551.62,-56 551.62,-76"/>
<text text-anchor="middle" x="496.38" y="-62.5" font-family="Helvetica,sans-Serif" font-size="10.00">MazeBuilder/enums.h</text>
</a>
</g>
</g>
<!-- Node14&#45;&gt;Node18 -->
<g id="edge29_Node000014_Node000018" class="edge">
<title>Node14&#45;&gt;Node18</title>
<g id="a_edge29_Node000014_Node000018"><a xlink:title=" ">
<path fill="none" stroke="#63b8ff" d="M474.08,-111.59C477.52,-104.7 482.32,-95.1 486.59,-86.57"/>
<polygon fill="#63b8ff" stroke="#63b8ff" points="489.71,-88.16 491.05,-77.65 483.45,-85.03 489.71,-88.16"/>
</a>
</g>
</g>
<!-- Node20 -->
<g id="Node000020" class="node">
<title>Node20</title>
<g id="a_Node000020"><a xlink:href="cell_8h.html" target="_top" xlink:title=" ">
<polygon fill="white" stroke="#666666" points="385.5,-76 289.25,-76 289.25,-56 385.5,-56 385.5,-76"/>
<text text-anchor="middle" x="337.38" y="-62.5" font-family="Helvetica,sans-Serif" font-size="10.00">MazeBuilder/cell.h</text>
</a>
</g>
</g>
<!-- Node14&#45;&gt;Node20 -->
<g id="edge32_Node000014_Node000020" class="edge">
<title>Node14&#45;&gt;Node20</title>
<g id="a_edge32_Node000014_Node000020"><a xlink:title=" ">
<path fill="none" stroke="#63b8ff" d="M446.38,-111.59C425.59,-103.09 394.72,-90.46 371.14,-80.81"/>
<polygon fill="#63b8ff" stroke="#63b8ff" points="372.53,-77.6 361.95,-77.05 369.88,-84.08 372.53,-77.6"/>
</a>
</g>
</g>
<!-- Node18&#45;&gt;Node8 -->
<g id="edge30_Node000018_Node000008" class="edge">
<title>Node18&#45;&gt;Node8</title>
<g id="a_edge30_Node000018_Node000008"><a xlink:title=" ">
<path fill="none" stroke="#63b8ff" d="M548.27,-55.53C609.67,-44.33 709.95,-26.04 760.75,-16.77"/>
<polygon fill="#63b8ff" stroke="#63b8ff" points="761.27,-20.23 770.48,-15 760.01,-13.35 761.27,-20.23"/>
</a>
</g>
</g>
<!-- Node19 -->
<g id="Node000019" class="node">
<title>Node19</title>
<g id="a_Node000019"><a xlink:title=" ">
<polygon fill="#e0e0e0" stroke="#999999" points="525.75,-20 467,-20 467,0 525.75,0 525.75,-20"/>
<text text-anchor="middle" x="496.38" y="-6.5" font-family="Helvetica,sans-Serif" font-size="10.00">stdexcept</text>
</a>
</g>
</g>
<!-- Node18&#45;&gt;Node19 -->
<g id="edge31_Node000018_Node000019" class="edge">
<title>Node18&#45;&gt;Node19</title>
<g id="a_edge31_Node000018_Node000019"><a xlink:title=" ">
<path fill="none" stroke="#63b8ff" d="M496.38,-55.59C496.38,-49.01 496.38,-39.96 496.38,-31.73"/>
<polygon fill="#63b8ff" stroke="#63b8ff" points="499.88,-31.81 496.38,-21.81 492.88,-31.81 499.88,-31.81"/>
</a>
</g>
</g>
<!-- Node20&#45;&gt;Node2 -->
<g id="edge33_Node000020_Node000002" class="edge">
<title>Node20&#45;&gt;Node2</title>
<g id="a_edge33_Node000020_Node000002"><a xlink:title=" ">
<path fill="none" stroke="#63b8ff" d="M385.7,-60.4C400.66,-58.98 417.2,-57.42 432.38,-56 605.25,-39.81 648.87,-39.73 821.38,-20 830.67,-18.94 840.67,-17.65 850.01,-16.38"/>
<polygon fill="#63b8ff" stroke="#63b8ff" points="850.46,-19.85 859.89,-15.01 849.51,-12.92 850.46,-19.85"/>
</a>
</g>
</g>
<!-- Node20&#45;&gt;Node3 -->
<g id="edge36_Node000020_Node000003" class="edge">
<title>Node20&#45;&gt;Node3</title>
<g id="a_edge36_Node000020_Node000003"><a xlink:title=" ">
<path fill="none" stroke="#63b8ff" d="M337.38,-55.59C337.38,-49.01 337.38,-39.96 337.38,-31.73"/>
<polygon fill="#63b8ff" stroke="#63b8ff" points="340.88,-31.81 337.38,-21.81 333.88,-31.81 340.88,-31.81"/>
</a>
</g>
</g>
<!-- Node20&#45;&gt;Node4 -->
<g id="edge34_Node000020_Node000004" class="edge">
<title>Node20&#45;&gt;Node4</title>
<g id="a_edge34_Node000020_Node000004"><a xlink:title=" ">
<path fill="none" stroke="#63b8ff" d="M314.9,-55.59C294.34,-46.99 263.68,-34.15 240.52,-24.46"/>
<polygon fill="#63b8ff" stroke="#63b8ff" points="242.13,-21.34 231.55,-20.7 239.43,-27.79 242.13,-21.34"/>
</a>
</g>
</g>
<!-- Node20&#45;&gt;Node9 -->
<g id="edge35_Node000020_Node000009" class="edge">
<title>Node20&#45;&gt;Node9</title>
<g id="a_edge35_Node000020_Node000009"><a xlink:title=" ">
<path fill="none" stroke="#63b8ff" d="M288.83,-56.14C235.39,-46.39 149.75,-30.77 94.54,-20.7"/>
<polygon fill="#63b8ff" stroke="#63b8ff" points="95.2,-17.26 84.73,-18.91 93.94,-24.15 95.2,-17.26"/>
</a>
</g>
</g>
</g>
</svg>
