<?xml version="1.0" encoding="UTF-8" standalone="no"?>
<!DOCTYPE svg PUBLIC "-//W3C//DTD SVG 1.1//EN"
 "http://www.w3.org/Graphics/SVG/1.1/DTD/svg11.dtd">
<!-- Generated by graphviz version 12.2.1 (20241206.2353)
 -->
<!-- Title: colored_grid.h Pages: 1 -->
<svg width="1059pt" height="308pt"
 viewBox="0.00 0.00 1058.94 308.00" xmlns="http://www.w3.org/2000/svg" xmlns:xlink="http://www.w3.org/1999/xlink">
<g id="graph0" class="graph" transform="scale(1 1) rotate(0) translate(4 304)">
<title>colored_grid.h</title>
<!-- Node1 -->
<g id="Node000001" class="node">
<title>Node1</title>
<g id="a_Node000001"><a xlink:title=" ">
<polygon fill="#999999" stroke="#666666" points="489.38,-300 412.62,-300 412.62,-280 489.38,-280 489.38,-300"/>
<text text-anchor="middle" x="451" y="-286.5" font-family="Helvetica,sans-Serif" font-size="10.00">colored_grid.h</text>
</a>
</g>
</g>
<!-- Node2 -->
<g id="Node000002" class="node">
<title>Node2</title>
<g id="a_Node000002"><a xlink:title=" ">
<polygon fill="#e0e0e0" stroke="#999999" points="133.62,-76 88.38,-76 88.38,-56 133.62,-56 133.62,-76"/>
<text text-anchor="middle" x="111" y="-62.5" font-family="Helvetica,sans-Serif" font-size="10.00">cstdint</text>
</a>
</g>
</g>
<!-- Node1&#45;&gt;Node2 -->
<g id="edge1_Node000001_Node000002" class="edge">
<title>Node1&#45;&gt;Node2</title>
<g id="a_edge1_Node000001_Node000002"><a xlink:title=" ">
<path fill="none" stroke="#63b8ff" d="M412.33,-287C346.39,-281.61 211.45,-261.68 130,-188 103.73,-164.24 104.04,-147.37 106,-112 106.45,-103.96 107.34,-95.15 108.24,-87.47"/>
<polygon fill="#63b8ff" stroke="#63b8ff" points="111.68,-88.15 109.47,-77.78 104.74,-87.26 111.68,-88.15"/>
</a>
</g>
</g>
<!-- Node3 -->
<g id="Node000003" class="node">
<title>Node3</title>
<g id="a_Node000003"><a xlink:title=" ">
<polygon fill="#e0e0e0" stroke="#999999" points="459.62,-20 408.38,-20 408.38,0 459.62,0 459.62,-20"/>
<text text-anchor="middle" x="434" y="-6.5" font-family="Helvetica,sans-Serif" font-size="10.00">memory</text>
</a>
</g>
</g>
<!-- Node1&#45;&gt;Node3 -->
<g id="edge2_Node000001_Node000003" class="edge">
<title>Node1&#45;&gt;Node3</title>
<g id="a_edge2_Node000001_Node000003"><a xlink:title=" ">
<path fill="none" stroke="#63b8ff" d="M412.16,-287.8C302.76,-283.38 0,-263.52 0,-179 0,-179 0,-179 0,-121 0,-75.53 37.25,-74.01 79,-56 135.56,-31.6 317.54,-18 396.67,-13.11"/>
<polygon fill="#63b8ff" stroke="#63b8ff" points="396.73,-16.61 406.5,-12.51 396.31,-9.62 396.73,-16.61"/>
</a>
</g>
</g>
<!-- Node4 -->
<g id="Node000004" class="node">
<title>Node4</title>
<g id="a_Node000004"><a xlink:title=" ">
<polygon fill="#e0e0e0" stroke="#999999" points="1028.88,-188 979.12,-188 979.12,-168 1028.88,-168 1028.88,-188"/>
<text text-anchor="middle" x="1004" y="-174.5" font-family="Helvetica,sans-Serif" font-size="10.00">optional</text>
</a>
</g>
</g>
<!-- Node1&#45;&gt;Node4 -->
<g id="edge3_Node000001_Node000004" class="edge">
<title>Node1&#45;&gt;Node4</title>
<g id="a_edge3_Node000001_Node000004"><a xlink:title=" ">
<path fill="none" stroke="#63b8ff" d="M489.78,-281.83C575.6,-265.86 788.02,-225.8 965,-188 965.98,-187.79 966.98,-187.58 967.98,-187.36"/>
<polygon fill="#63b8ff" stroke="#63b8ff" points="968.38,-190.85 977.37,-185.26 966.85,-184.02 968.38,-190.85"/>
</a>
</g>
</g>
<!-- Node5 -->
<g id="Node000005" class="node">
<title>Node5</title>
<g id="a_Node000005"><a xlink:title=" ">
<polygon fill="#e0e0e0" stroke="#999999" points="788.5,-76 745.5,-76 745.5,-56 788.5,-56 788.5,-76"/>
<text text-anchor="middle" x="767" y="-62.5" font-family="Helvetica,sans-Serif" font-size="10.00">vector</text>
</a>
</g>
</g>
<!-- Node1&#45;&gt;Node5 -->
<g id="edge4_Node000001_Node000005" class="edge">
<title>Node1&#45;&gt;Node5</title>
<g id="a_edge4_Node000001_Node000005"><a xlink:title=" ">
<path fill="none" stroke="#63b8ff" d="M489.62,-288.6C608.98,-286.47 968.15,-272.97 1038,-188 1105.81,-105.51 886.21,-77.28 800.11,-69.52"/>
<polygon fill="#63b8ff" stroke="#63b8ff" points="800.67,-66.05 790.4,-68.68 800.07,-73.03 800.67,-66.05"/>
</a>
</g>
</g>
<!-- Node6 -->
<g id="Node000006" class="node">
<title>Node6</title>
<g id="a_Node000006"><a xlink:href="grid_8h.html" target="_top" xlink:title=" ">
<polygon fill="white" stroke="#666666" points="499.5,-244 402.5,-244 402.5,-224 499.5,-224 499.5,-244"/>
<text text-anchor="middle" x="451" y="-230.5" font-family="Helvetica,sans-Serif" font-size="10.00">MazeBuilder/grid.h</text>
</a>
</g>
</g>
<!-- Node1&#45;&gt;Node6 -->
<g id="edge5_Node000001_Node000006" class="edge">
<title>Node1&#45;&gt;Node6</title>
<g id="a_edge5_Node000001_Node000006"><a xlink:title=" ">
<path fill="none" stroke="#63b8ff" d="M451,-279.59C451,-273.01 451,-263.96 451,-255.73"/>
<polygon fill="#63b8ff" stroke="#63b8ff" points="454.5,-255.81 451,-245.81 447.5,-255.81 454.5,-255.81"/>
</a>
</g>
</g>
<!-- Node6&#45;&gt;Node2 -->
<g id="edge32_Node000006_Node000002" class="edge">
<title>Node6&#45;&gt;Node2</title>
<g id="a_edge32_Node000006_Node000002"><a xlink:title=" ">
<path fill="none" stroke="#63b8ff" d="M402.11,-229.63C330.5,-223.99 201.21,-210.95 161,-188 133.02,-172.04 126.78,-161.98 115,-132 109.42,-117.81 108.61,-100.52 109.09,-87.35"/>
<polygon fill="#63b8ff" stroke="#63b8ff" points="112.56,-87.93 109.74,-77.72 105.58,-87.46 112.56,-87.93"/>
</a>
</g>
</g>
<!-- Node6&#45;&gt;Node3 -->
<g id="edge34_Node000006_Node000003" class="edge">
<title>Node6&#45;&gt;Node3</title>
<g id="a_edge34_Node000006_Node000003"><a xlink:title=" ">
<path fill="none" stroke="#63b8ff" d="M438.37,-223.78C409.72,-201.97 340.33,-143.92 315,-76 301.15,-38.86 357,-22.46 396.85,-15.58"/>
<polygon fill="#63b8ff" stroke="#63b8ff" points="397.28,-19.06 406.61,-14.04 396.19,-12.14 397.28,-19.06"/>
</a>
</g>
</g>
<!-- Node6&#45;&gt;Node4 -->
<g id="edge36_Node000006_Node000004" class="edge">
<title>Node6&#45;&gt;Node4</title>
<g id="a_edge36_Node000006_Node000004"><a xlink:title=" ">
<path fill="none" stroke="#63b8ff" d="M499.82,-231C591.47,-226.73 795.35,-214.87 965,-188 965.99,-187.84 966.99,-187.68 968,-187.5"/>
<polygon fill="#63b8ff" stroke="#63b8ff" points="968.31,-191.01 977.44,-185.62 966.95,-184.14 968.31,-191.01"/>
</a>
</g>
</g>
<!-- Node6&#45;&gt;Node5 -->
<g id="edge40_Node000006_Node000005" class="edge">
<title>Node6&#45;&gt;Node5</title>
<g id="a_edge40_Node000006_Node000005"><a xlink:title=" ">
<path fill="none" stroke="#63b8ff" d="M499.89,-228.73C563.71,-220.64 675.15,-197.49 742,-132 754.16,-120.09 760.5,-101.62 763.75,-87.41"/>
<polygon fill="#63b8ff" stroke="#63b8ff" points="767.16,-88.26 765.6,-77.78 760.28,-86.94 767.16,-88.26"/>
</a>
</g>
</g>
<!-- Node7 -->
<g id="Node000007" class="node">
<title>Node7</title>
<g id="a_Node000007"><a xlink:href="enums_8h.html" target="_top" xlink:title="Enumerations for the maze builder program.">
<polygon fill="white" stroke="#666666" points="252.25,-132 141.75,-132 141.75,-112 252.25,-112 252.25,-132"/>
<text text-anchor="middle" x="197" y="-118.5" font-family="Helvetica,sans-Serif" font-size="10.00">MazeBuilder/enums.h</text>
</a>
</g>
</g>
<!-- Node6&#45;&gt;Node7 -->
<g id="edge6_Node000006_Node000007" class="edge">
<title>Node6&#45;&gt;Node7</title>
<g id="a_edge6_Node000006_Node000007"><a xlink:title=" ">
<path fill="none" stroke="#63b8ff" d="M402.17,-228.07C363.37,-222.57 308.71,-211.17 266,-188 244.17,-176.15 224.09,-155.68 211.29,-140.87"/>
<polygon fill="#63b8ff" stroke="#63b8ff" points="214.05,-138.71 204.96,-133.27 208.67,-143.19 214.05,-138.71"/>
</a>
</g>
</g>
<!-- Node8 -->
<g id="Node000008" class="node">
<title>Node8</title>
<g id="a_Node000008"><a xlink:title=" ">
<polygon fill="#e0e0e0" stroke="#999999" points="268,-76 228,-76 228,-56 268,-56 268,-76"/>
<text text-anchor="middle" x="248" y="-62.5" font-family="Helvetica,sans-Serif" font-size="10.00">string</text>
</a>
</g>
</g>
<!-- Node6&#45;&gt;Node8 -->
<g id="edge37_Node000006_Node000008" class="edge">
<title>Node6&#45;&gt;Node8</title>
<g id="a_edge37_Node000006_Node000008"><a xlink:title=" ">
<path fill="none" stroke="#63b8ff" d="M415.7,-223.57C393.1,-216.35 363.99,-204.75 342,-188 304.41,-159.37 273.73,-112.22 258.47,-86.03"/>
<polygon fill="#63b8ff" stroke="#63b8ff" points="261.62,-84.49 253.64,-77.52 255.53,-87.95 261.62,-84.49"/>
</a>
</g>
</g>
<!-- Node10 -->
<g id="Node000010" class="node">
<title>Node10</title>
<g id="a_Node000010"><a xlink:href="grid__interface_8h.html" target="_top" xlink:title=" ">
<polygon fill="white" stroke="#666666" points="577.88,-188 438.12,-188 438.12,-168 577.88,-168 577.88,-188"/>
<text text-anchor="middle" x="508" y="-174.5" font-family="Helvetica,sans-Serif" font-size="10.00">MazeBuilder/grid_interface.h</text>
</a>
</g>
</g>
<!-- Node6&#45;&gt;Node10 -->
<g id="edge10_Node000006_Node000010" class="edge">
<title>Node6&#45;&gt;Node10</title>
<g id="a_edge10_Node000006_Node000010"><a xlink:title=" ">
<path fill="none" stroke="#63b8ff" d="M460.93,-223.59C468.94,-216.01 480.42,-205.13 490.03,-196.02"/>
<polygon fill="#63b8ff" stroke="#63b8ff" points="492.23,-198.76 497.09,-189.34 487.42,-193.68 492.23,-198.76"/>
</a>
</g>
</g>
<!-- Node11 -->
<g id="Node000011" class="node">
<title>Node11</title>
<g id="a_Node000011"><a xlink:title=" ">
<polygon fill="#e0e0e0" stroke="#999999" points="846,-20 788,-20 788,0 846,0 846,-20"/>
<text text-anchor="middle" x="817" y="-6.5" font-family="Helvetica,sans-Serif" font-size="10.00">functional</text>
</a>
</g>
</g>
<!-- Node6&#45;&gt;Node11 -->
<g id="edge33_Node000006_Node000011" class="edge">
<title>Node6&#45;&gt;Node11</title>
<g id="a_edge33_Node000006_Node000011"><a xlink:title=" ">
<path fill="none" stroke="#63b8ff" d="M499.65,-230.19C548.94,-225.89 626.47,-215.07 688,-188 757.19,-157.56 787.5,-146.01 816,-76 821.74,-61.9 821.71,-44.61 820.39,-31.41"/>
<polygon fill="#63b8ff" stroke="#63b8ff" points="823.9,-31.19 819.09,-21.74 816.96,-32.12 823.9,-31.19"/>
</a>
</g>
</g>
<!-- Node14 -->
<g id="Node000014" class="node">
<title>Node14</title>
<g id="a_Node000014"><a xlink:title=" ">
<polygon fill="#e0e0e0" stroke="#999999" points="911.5,-20 874.5,-20 874.5,0 911.5,0 911.5,-20"/>
<text text-anchor="middle" x="893" y="-6.5" font-family="Helvetica,sans-Serif" font-size="10.00">tuple</text>
</a>
</g>
</g>
<!-- Node6&#45;&gt;Node14 -->
<g id="edge38_Node000006_Node000014" class="edge">
<title>Node6&#45;&gt;Node14</title>
<g id="a_edge38_Node000006_Node000014"><a xlink:title=" ">
<path fill="none" stroke="#63b8ff" d="M499.81,-230.19C619.25,-223.09 917.56,-203.85 932,-188 973.08,-142.9 929.57,-64.6 906.04,-29.25"/>
<polygon fill="#63b8ff" stroke="#63b8ff" points="909.16,-27.61 900.61,-21.36 903.39,-31.58 909.16,-27.61"/>
</a>
</g>
</g>
<!-- Node17 -->
<g id="Node000017" class="node">
<title>Node17</title>
<g id="a_Node000017"><a xlink:title=" ">
<polygon fill="#e0e0e0" stroke="#999999" points="406.38,-76 323.62,-76 323.62,-56 406.38,-56 406.38,-76"/>
<text text-anchor="middle" x="365" y="-62.5" font-family="Helvetica,sans-Serif" font-size="10.00">unordered_map</text>
</a>
</g>
</g>
<!-- Node6&#45;&gt;Node17 -->
<g id="edge39_Node000006_Node000017" class="edge">
<title>Node6&#45;&gt;Node17</title>
<g id="a_edge39_Node000006_Node000017"><a xlink:title=" ">
<path fill="none" stroke="#63b8ff" d="M446.13,-223.6C432.47,-197.23 393.59,-122.19 375.06,-86.42"/>
<polygon fill="#63b8ff" stroke="#63b8ff" points="378.22,-84.91 370.51,-77.64 372.01,-88.13 378.22,-84.91"/>
</a>
</g>
</g>
<!-- Node20 -->
<g id="Node000020" class="node">
<title>Node20</title>
<g id="a_Node000020"><a xlink:title=" ">
<polygon fill="#e0e0e0" stroke="#999999" points="922.62,-188 877.38,-188 877.38,-168 922.62,-168 922.62,-188"/>
<text text-anchor="middle" x="900" y="-174.5" font-family="Helvetica,sans-Serif" font-size="10.00">atomic</text>
</a>
</g>
</g>
<!-- Node6&#45;&gt;Node20 -->
<g id="edge31_Node000006_Node000020" class="edge">
<title>Node6&#45;&gt;Node20</title>
<g id="a_edge31_Node000006_Node000020"><a xlink:title=" ">
<path fill="none" stroke="#63b8ff" d="M499.81,-229.73C577.23,-224.08 732.78,-210.85 863,-188 864,-187.83 865.01,-187.64 866.03,-187.44"/>
<polygon fill="#63b8ff" stroke="#63b8ff" points="866.48,-190.92 875.53,-185.4 865.01,-184.08 866.48,-190.92"/>
</a>
</g>
</g>
<!-- Node21 -->
<g id="Node000021" class="node">
<title>Node21</title>
<g id="a_Node000021"><a xlink:title=" ">
<polygon fill="#e0e0e0" stroke="#999999" points="213.5,-188 170.5,-188 170.5,-168 213.5,-168 213.5,-188"/>
<text text-anchor="middle" x="192" y="-174.5" font-family="Helvetica,sans-Serif" font-size="10.00">mutex</text>
</a>
</g>
</g>
<!-- Node6&#45;&gt;Node21 -->
<g id="edge35_Node000006_Node000021" class="edge">
<title>Node6&#45;&gt;Node21</title>
<g id="a_edge35_Node000006_Node000021"><a xlink:title=" ">
<path fill="none" stroke="#63b8ff" d="M402.14,-223.81C356.87,-215.13 287.72,-201.48 228,-188 226.84,-187.74 225.65,-187.47 224.46,-187.19"/>
<polygon fill="#63b8ff" stroke="#63b8ff" points="225.68,-183.88 215.14,-184.94 224.04,-190.69 225.68,-183.88"/>
</a>
</g>
</g>
<!-- Node7&#45;&gt;Node2 -->
<g id="edge7_Node000007_Node000002" class="edge">
<title>Node7&#45;&gt;Node2</title>
<g id="a_edge7_Node000007_Node000002"><a xlink:title=" ">
<path fill="none" stroke="#63b8ff" d="M182.02,-111.59C169.27,-103.59 150.71,-91.93 135.76,-82.54"/>
<polygon fill="#63b8ff" stroke="#63b8ff" points="137.71,-79.64 127.38,-77.28 133.99,-85.57 137.71,-79.64"/>
</a>
</g>
</g>
<!-- Node7&#45;&gt;Node8 -->
<g id="edge8_Node000007_Node000008" class="edge">
<title>Node7&#45;&gt;Node8</title>
<g id="a_edge8_Node000007_Node000008"><a xlink:title=" ">
<path fill="none" stroke="#63b8ff" d="M205.88,-111.59C212.9,-104.16 222.9,-93.58 231.39,-84.58"/>
<polygon fill="#63b8ff" stroke="#63b8ff" points="233.86,-87.07 238.18,-77.4 228.77,-82.27 233.86,-87.07"/>
</a>
</g>
</g>
<!-- Node9 -->
<g id="Node000009" class="node">
<title>Node9</title>
<g id="a_Node000009"><a xlink:title=" ">
<polygon fill="#e0e0e0" stroke="#999999" points="210.38,-76 151.62,-76 151.62,-56 210.38,-56 210.38,-76"/>
<text text-anchor="middle" x="181" y="-62.5" font-family="Helvetica,sans-Serif" font-size="10.00">stdexcept</text>
</a>
</g>
</g>
<!-- Node7&#45;&gt;Node9 -->
<g id="edge9_Node000007_Node000009" class="edge">
<title>Node7&#45;&gt;Node9</title>
<g id="a_edge9_Node000007_Node000009"><a xlink:title=" ">
<path fill="none" stroke="#63b8ff" d="M194.21,-111.59C192.22,-104.86 189.45,-95.53 186.97,-87.15"/>
<polygon fill="#63b8ff" stroke="#63b8ff" points="190.38,-86.34 184.19,-77.75 183.67,-88.33 190.38,-86.34"/>
</a>
</g>
</g>
<!-- Node10&#45;&gt;Node2 -->
<g id="edge11_Node000010_Node000002" class="edge">
<title>Node10&#45;&gt;Node2</title>
<g id="a_edge11_Node000010_Node000002"><a xlink:title=" ">
<path fill="none" stroke="#63b8ff" d="M437.8,-177.26C342.37,-176.19 178.37,-168.83 133,-132 119.7,-121.21 114.4,-102.04 112.31,-87.31"/>
<polygon fill="#63b8ff" stroke="#63b8ff" points="115.83,-87.36 111.35,-77.76 108.87,-88.06 115.83,-87.36"/>
</a>
</g>
</g>
<!-- Node10&#45;&gt;Node3 -->
<g id="edge13_Node000010_Node000003" class="edge">
<title>Node10&#45;&gt;Node3</title>
<g id="a_edge13_Node000010_Node000003"><a xlink:title=" ">
<path fill="none" stroke="#63b8ff" d="M489.73,-167.58C476.71,-159.85 459.97,-147.64 451,-132 432.93,-100.51 431.42,-57.04 432.41,-31.68"/>
<polygon fill="#63b8ff" stroke="#63b8ff" points="435.9,-31.93 432.99,-21.75 428.91,-31.52 435.9,-31.93"/>
</a>
</g>
</g>
<!-- Node10&#45;&gt;Node5 -->
<g id="edge18_Node000010_Node000005" class="edge">
<title>Node10&#45;&gt;Node5</title>
<g id="a_edge18_Node000010_Node000005"><a xlink:title=" ">
<path fill="none" stroke="#63b8ff" d="M518.94,-167.66C535.88,-153.64 569.96,-127.2 603,-112 655.85,-87.68 675.45,-92.21 734.07,-76.68"/>
<polygon fill="#63b8ff" stroke="#63b8ff" points="734.89,-80.09 743.61,-74.06 733.04,-73.34 734.89,-80.09"/>
</a>
</g>
</g>
<!-- Node10&#45;&gt;Node7 -->
<g id="edge19_Node000010_Node000007" class="edge">
<title>Node10&#45;&gt;Node7</title>
<g id="a_edge19_Node000010_Node000007"><a xlink:title=" ">
<path fill="none" stroke="#63b8ff" d="M453.47,-167.53C400.23,-158.29 319.17,-144.21 262.47,-134.37"/>
<polygon fill="#63b8ff" stroke="#63b8ff" points="263.41,-130.98 252.96,-132.72 262.21,-137.88 263.41,-130.98"/>
</a>
</g>
</g>
<!-- Node10&#45;&gt;Node8 -->
<g id="edge16_Node000010_Node000008" class="edge">
<title>Node10&#45;&gt;Node8</title>
<g id="a_edge16_Node000010_Node000008"><a xlink:title=" ">
<path fill="none" stroke="#63b8ff" d="M485.83,-167.62C439.4,-147.98 331.84,-102.47 278.76,-80.01"/>
<polygon fill="#63b8ff" stroke="#63b8ff" points="280.27,-76.85 269.7,-76.18 277.54,-83.3 280.27,-76.85"/>
</a>
</g>
</g>
<!-- Node10&#45;&gt;Node11 -->
<g id="edge12_Node000010_Node000011" class="edge">
<title>Node10&#45;&gt;Node11</title>
<g id="a_edge12_Node000010_Node000011"><a xlink:title=" ">
<path fill="none" stroke="#63b8ff" d="M578.12,-174.28C626.58,-169.9 691.2,-158.95 742,-132 773.09,-115.51 780.06,-106.28 798,-76 806.08,-62.36 810.92,-45.04 813.69,-31.72"/>
<polygon fill="#63b8ff" stroke="#63b8ff" points="817.13,-32.37 815.48,-21.9 810.25,-31.11 817.13,-32.37"/>
</a>
</g>
</g>
<!-- Node12 -->
<g id="Node000012" class="node">
<title>Node12</title>
<g id="a_Node000012"><a xlink:title=" ">
<polygon fill="#e0e0e0" stroke="#999999" points="663.62,-132 612.38,-132 612.38,-112 663.62,-112 663.62,-132"/>
<text text-anchor="middle" x="638" y="-118.5" font-family="Helvetica,sans-Serif" font-size="10.00">ostream</text>
</a>
</g>
</g>
<!-- Node10&#45;&gt;Node12 -->
<g id="edge14_Node000010_Node000012" class="edge">
<title>Node10&#45;&gt;Node12</title>
<g id="a_edge14_Node000010_Node000012"><a xlink:title=" ">
<path fill="none" stroke="#63b8ff" d="M530.64,-167.59C551.12,-159.09 581.52,-146.46 604.75,-136.81"/>
<polygon fill="#63b8ff" stroke="#63b8ff" points="605.89,-140.13 613.78,-133.06 603.2,-133.66 605.89,-140.13"/>
</a>
</g>
</g>
<!-- Node13 -->
<g id="Node000013" class="node">
<title>Node13</title>
<g id="a_Node000013"><a xlink:title=" ">
<polygon fill="#e0e0e0" stroke="#999999" points="732.62,-132 681.38,-132 681.38,-112 732.62,-112 732.62,-132"/>
<text text-anchor="middle" x="707" y="-118.5" font-family="Helvetica,sans-Serif" font-size="10.00">sstream</text>
</a>
</g>
</g>
<!-- Node10&#45;&gt;Node13 -->
<g id="edge15_Node000010_Node000013" class="edge">
<title>Node10&#45;&gt;Node13</title>
<g id="a_edge15_Node000010_Node000013"><a xlink:title=" ">
<path fill="none" stroke="#63b8ff" d="M542.66,-167.59C578.39,-157.9 633.86,-142.85 670.31,-132.96"/>
<polygon fill="#63b8ff" stroke="#63b8ff" points="670.78,-136.46 679.51,-130.46 668.94,-129.7 670.78,-136.46"/>
</a>
</g>
</g>
<!-- Node10&#45;&gt;Node14 -->
<g id="edge17_Node000010_Node000014" class="edge">
<title>Node10&#45;&gt;Node14</title>
<g id="a_edge17_Node000010_Node000014"><a xlink:title=" ">
<path fill="none" stroke="#63b8ff" d="M578.35,-176.38C633.52,-173.27 710.76,-163.01 771,-132 819.21,-107.18 860.47,-56.6 880.34,-29.36"/>
<polygon fill="#63b8ff" stroke="#63b8ff" points="883.06,-31.57 886,-21.39 877.35,-27.52 883.06,-31.57"/>
</a>
</g>
</g>
<!-- Node15 -->
<g id="Node000015" class="node">
<title>Node15</title>
<g id="a_Node000015"><a xlink:href="cell_8h.html" target="_top" xlink:title=" ">
<polygon fill="white" stroke="#666666" points="556.12,-132 459.88,-132 459.88,-112 556.12,-112 556.12,-132"/>
<text text-anchor="middle" x="508" y="-118.5" font-family="Helvetica,sans-Serif" font-size="10.00">MazeBuilder/cell.h</text>
</a>
</g>
</g>
<!-- Node10&#45;&gt;Node15 -->
<g id="edge20_Node000010_Node000015" class="edge">
<title>Node10&#45;&gt;Node15</title>
<g id="a_edge20_Node000010_Node000015"><a xlink:title=" ">
<path fill="none" stroke="#63b8ff" d="M508,-167.59C508,-161.01 508,-151.96 508,-143.73"/>
<polygon fill="#63b8ff" stroke="#63b8ff" points="511.5,-143.81 508,-133.81 504.5,-143.81 511.5,-143.81"/>
</a>
</g>
</g>
<!-- Node15&#45;&gt;Node2 -->
<g id="edge21_Node000015_Node000002" class="edge">
<title>Node15&#45;&gt;Node2</title>
<g id="a_edge21_Node000015_Node000002"><a xlink:title=" ">
<path fill="none" stroke="#63b8ff" d="M459.5,-117.37C391.35,-111.76 263.26,-99.34 145.01,-76.12"/>
<polygon fill="#63b8ff" stroke="#63b8ff" points="145.95,-72.73 135.45,-74.21 144.58,-79.6 145.95,-72.73"/>
</a>
</g>
</g>
<!-- Node15&#45;&gt;Node3 -->
<g id="edge22_Node000015_Node000003" class="edge">
<title>Node15&#45;&gt;Node3</title>
<g id="a_edge22_Node000015_Node000003"><a xlink:title=" ">
<path fill="none" stroke="#63b8ff" d="M501.69,-111.62C489.51,-93.52 462.56,-53.45 446.58,-29.7"/>
<polygon fill="#63b8ff" stroke="#63b8ff" points="449.62,-27.95 441.14,-21.61 443.82,-31.86 449.62,-27.95"/>
</a>
</g>
</g>
<!-- Node15&#45;&gt;Node5 -->
<g id="edge25_Node000015_Node000005" class="edge">
<title>Node15&#45;&gt;Node5</title>
<g id="a_edge25_Node000015_Node000005"><a xlink:title=" ">
<path fill="none" stroke="#63b8ff" d="M556.55,-112.88C600.66,-105.18 667.72,-92.7 734.05,-76.56"/>
<polygon fill="#63b8ff" stroke="#63b8ff" points="734.77,-79.99 743.64,-74.2 733.1,-73.19 734.77,-79.99"/>
</a>
</g>
</g>
<!-- Node16 -->
<g id="Node000016" class="node">
<title>Node16</title>
<g id="a_Node000016"><a xlink:title=" ">
<polygon fill="#e0e0e0" stroke="#999999" points="727.75,-76 650.25,-76 650.25,-56 727.75,-56 727.75,-76"/>
<text text-anchor="middle" x="689" y="-62.5" font-family="Helvetica,sans-Serif" font-size="10.00">shared_mutex</text>
</a>
</g>
</g>
<!-- Node15&#45;&gt;Node16 -->
<g id="edge23_Node000015_Node000016" class="edge">
<title>Node15&#45;&gt;Node16</title>
<g id="a_edge23_Node000015_Node000016"><a xlink:title=" ">
<path fill="none" stroke="#63b8ff" d="M539.53,-111.59C569.19,-102.74 613.83,-89.43 646.61,-79.65"/>
<polygon fill="#63b8ff" stroke="#63b8ff" points="647.19,-83.13 655.78,-76.91 645.19,-76.42 647.19,-83.13"/>
</a>
</g>
</g>
<!-- Node15&#45;&gt;Node17 -->
<g id="edge24_Node000015_Node000017" class="edge">
<title>Node15&#45;&gt;Node17</title>
<g id="a_edge24_Node000015_Node000017"><a xlink:title=" ">
<path fill="none" stroke="#63b8ff" d="M483.09,-111.59C460.27,-102.97 426.22,-90.12 400.54,-80.42"/>
<polygon fill="#63b8ff" stroke="#63b8ff" points="402.11,-77.27 391.52,-77.01 399.64,-83.82 402.11,-77.27"/>
</a>
</g>
</g>
<!-- Node18 -->
<g id="Node000018" class="node">
<title>Node18</title>
<g id="a_Node000018"><a xlink:href="hash__funcs_8h.html" target="_top" xlink:title=" ">
<polygon fill="white" stroke="#666666" points="631.75,-76 500.25,-76 500.25,-56 631.75,-56 631.75,-76"/>
<text text-anchor="middle" x="566" y="-62.5" font-family="Helvetica,sans-Serif" font-size="10.00">MazeBuilder/hash_funcs.h</text>
</a>
</g>
</g>
<!-- Node15&#45;&gt;Node18 -->
<g id="edge26_Node000015_Node000018" class="edge">
<title>Node15&#45;&gt;Node18</title>
<g id="a_edge26_Node000015_Node000018"><a xlink:title=" ">
<path fill="none" stroke="#63b8ff" d="M518.1,-111.59C526.25,-104.01 537.93,-93.13 547.72,-84.02"/>
<polygon fill="#63b8ff" stroke="#63b8ff" points="549.97,-86.71 554.91,-77.33 545.2,-81.58 549.97,-86.71"/>
</a>
</g>
</g>
<!-- Node18&#45;&gt;Node3 -->
<g id="edge28_Node000018_Node000003" class="edge">
<title>Node18&#45;&gt;Node3</title>
<g id="a_edge28_Node000018_Node000003"><a xlink:title=" ">
<path fill="none" stroke="#63b8ff" d="M543.01,-55.59C522.22,-47.09 491.35,-34.46 467.76,-24.81"/>
<polygon fill="#63b8ff" stroke="#63b8ff" points="469.15,-21.6 458.57,-21.05 466.5,-28.08 469.15,-21.6"/>
</a>
</g>
</g>
<!-- Node18&#45;&gt;Node11 -->
<g id="edge27_Node000018_Node000011" class="edge">
<title>Node18&#45;&gt;Node11</title>
<g id="a_edge27_Node000018_Node000011"><a xlink:title=" ">
<path fill="none" stroke="#63b8ff" d="M610.01,-55.53C656.96,-45.43 730.72,-29.56 776.34,-19.75"/>
<polygon fill="#63b8ff" stroke="#63b8ff" points="777.06,-23.17 786.1,-17.65 775.59,-16.33 777.06,-23.17"/>
</a>
</g>
</g>
<!-- Node18&#45;&gt;Node14 -->
<g id="edge29_Node000018_Node000014" class="edge">
<title>Node18&#45;&gt;Node14</title>
<g id="a_edge29_Node000018_Node000014"><a xlink:title=" ">
<path fill="none" stroke="#63b8ff" d="M631.97,-56.22C690.71,-48.05 778.88,-34.92 855,-20 857.64,-19.48 860.37,-18.91 863.11,-18.31"/>
<polygon fill="#63b8ff" stroke="#63b8ff" points="863.68,-21.77 872.65,-16.12 862.12,-14.95 863.68,-21.77"/>
</a>
</g>
</g>
<!-- Node19 -->
<g id="Node000019" class="node">
<title>Node19</title>
<g id="a_Node000019"><a xlink:title=" ">
<polygon fill="#e0e0e0" stroke="#999999" points="585.62,-20 546.38,-20 546.38,0 585.62,0 585.62,-20"/>
<text text-anchor="middle" x="566" y="-6.5" font-family="Helvetica,sans-Serif" font-size="10.00">utility</text>
</a>
</g>
</g>
<!-- Node18&#45;&gt;Node19 -->
<g id="edge30_Node000018_Node000019" class="edge">
<title>Node18&#45;&gt;Node19</title>
<g id="a_edge30_Node000018_Node000019"><a xlink:title=" ">
<path fill="none" stroke="#63b8ff" d="M566,-55.59C566,-49.01 566,-39.96 566,-31.73"/>
<polygon fill="#63b8ff" stroke="#63b8ff" points="569.5,-31.81 566,-21.81 562.5,-31.81 569.5,-31.81"/>
</a>
</g>
</g>
</g>
</svg>
