<?xml version="1.0" encoding="UTF-8" standalone="no"?>
<!DOCTYPE svg PUBLIC "-//W3C//DTD SVG 1.1//EN"
 "http://www.w3.org/Graphics/SVG/1.1/DTD/svg11.dtd">
<!-- Generated by graphviz version 12.2.1 (20241206.2353)
 -->
<!-- Title: configurator.h Pages: 1 -->
<svg width="193pt" height="140pt"
 viewBox="0.00 0.00 193.38 140.00" xmlns="http://www.w3.org/2000/svg" xmlns:xlink="http://www.w3.org/1999/xlink">
<g id="graph0" class="graph" transform="scale(1 1) rotate(0) translate(4 136)">
<title>configurator.h</title>
<!-- Node1 -->
<g id="Node000001" class="node">
<title>Node1</title>
<g id="a_Node000001"><a xlink:title=" ">
<polygon fill="#999999" stroke="#666666" points="87.62,-132 12.38,-132 12.38,-112 87.62,-112 87.62,-132"/>
<text text-anchor="middle" x="50" y="-118.5" font-family="Helvetica,sans-Serif" font-size="10.00">configurator.h</text>
</a>
</g>
</g>
<!-- Node2 -->
<g id="Node000002" class="node">
<title>Node2</title>
<g id="a_Node000002"><a xlink:title=" ">
<polygon fill="#e0e0e0" stroke="#999999" points="40,-20 0,-20 0,0 40,0 40,-20"/>
<text text-anchor="middle" x="20" y="-6.5" font-family="Helvetica,sans-Serif" font-size="10.00">string</text>
</a>
</g>
</g>
<!-- Node1&#45;&gt;Node2 -->
<g id="edge1_Node000001_Node000002" class="edge">
<title>Node1&#45;&gt;Node2</title>
<g id="a_edge1_Node000001_Node000002"><a xlink:title=" ">
<path fill="none" stroke="#63b8ff" d="M44.32,-111.72C39.19,-102.87 31.86,-89.01 28,-76 23.73,-61.61 21.74,-44.78 20.81,-31.85"/>
<polygon fill="#63b8ff" stroke="#63b8ff" points="24.31,-31.76 20.27,-21.97 17.32,-32.14 24.31,-31.76"/>
</a>
</g>
</g>
<!-- Node3 -->
<g id="Node000003" class="node">
<title>Node3</title>
<g id="a_Node000003"><a xlink:href="enums_8h.html" target="_top" xlink:title="Enumerations for the maze builder program.">
<polygon fill="white" stroke="#666666" points="147.25,-76 36.75,-76 36.75,-56 147.25,-56 147.25,-76"/>
<text text-anchor="middle" x="92" y="-62.5" font-family="Helvetica,sans-Serif" font-size="10.00">MazeBuilder/enums.h</text>
</a>
</g>
</g>
<!-- Node1&#45;&gt;Node3 -->
<g id="edge2_Node000001_Node000003" class="edge">
<title>Node1&#45;&gt;Node3</title>
<g id="a_edge2_Node000001_Node000003"><a xlink:title=" ">
<path fill="none" stroke="#63b8ff" d="M57.32,-111.59C62.98,-104.32 70.99,-94.02 77.89,-85.15"/>
<polygon fill="#63b8ff" stroke="#63b8ff" points="80.46,-87.54 83.84,-77.49 74.94,-83.24 80.46,-87.54"/>
</a>
</g>
</g>
<!-- Node3&#45;&gt;Node2 -->
<g id="edge4_Node000003_Node000002" class="edge">
<title>Node3&#45;&gt;Node2</title>
<g id="a_edge4_Node000003_Node000002"><a xlink:title=" ">
<path fill="none" stroke="#63b8ff" d="M79.46,-55.59C69.03,-47.77 53.95,-36.46 41.59,-27.19"/>
<polygon fill="#63b8ff" stroke="#63b8ff" points="43.71,-24.41 33.61,-21.21 39.51,-30.01 43.71,-24.41"/>
</a>
</g>
</g>
<!-- Node4 -->
<g id="Node000004" class="node">
<title>Node4</title>
<g id="a_Node000004"><a xlink:title=" ">
<polygon fill="#e0e0e0" stroke="#999999" points="108.62,-20 63.38,-20 63.38,0 108.62,0 108.62,-20"/>
<text text-anchor="middle" x="86" y="-6.5" font-family="Helvetica,sans-Serif" font-size="10.00">cstdint</text>
</a>
</g>
</g>
<!-- Node3&#45;&gt;Node4 -->
<g id="edge3_Node000003_Node000004" class="edge">
<title>Node3&#45;&gt;Node4</title>
<g id="a_edge3_Node000003_Node000004"><a xlink:title=" ">
<path fill="none" stroke="#63b8ff" d="M90.95,-55.59C90.22,-49.01 89.22,-39.96 88.3,-31.73"/>
<polygon fill="#63b8ff" stroke="#63b8ff" points="91.78,-31.35 87.2,-21.8 84.83,-32.13 91.78,-31.35"/>
</a>
</g>
</g>
<!-- Node5 -->
<g id="Node000005" class="node">
<title>Node5</title>
<g id="a_Node000005"><a xlink:title=" ">
<polygon fill="#e0e0e0" stroke="#999999" points="185.38,-20 126.62,-20 126.62,0 185.38,0 185.38,-20"/>
<text text-anchor="middle" x="156" y="-6.5" font-family="Helvetica,sans-Serif" font-size="10.00">stdexcept</text>
</a>
</g>
</g>
<!-- Node3&#45;&gt;Node5 -->
<g id="edge5_Node000003_Node000005" class="edge">
<title>Node3&#45;&gt;Node5</title>
<g id="a_edge5_Node000003_Node000005"><a xlink:title=" ">
<path fill="none" stroke="#63b8ff" d="M103.15,-55.59C112.33,-47.85 125.55,-36.69 136.48,-27.47"/>
<polygon fill="#63b8ff" stroke="#63b8ff" points="138.44,-30.4 143.82,-21.27 133.92,-25.05 138.44,-30.4"/>
</a>
</g>
</g>
</g>
</svg>
