<?xml version="1.0" encoding="UTF-8" standalone="no"?>
<!DOCTYPE svg PUBLIC "-//W3C//DTD SVG 1.1//EN"
 "http://www.w3.org/Graphics/SVG/1.1/DTD/svg11.dtd">
<!-- Generated by graphviz version 12.2.1 (20241206.2353)
 -->
<!-- Title: dfs.h Pages: 1 -->
<svg width="309pt" height="140pt"
 viewBox="0.00 0.00 309.12 140.00" xmlns="http://www.w3.org/2000/svg" xmlns:xlink="http://www.w3.org/1999/xlink">
<g id="graph0" class="graph" transform="scale(1 1) rotate(0) translate(4 136)">
<title>dfs.h</title>
<!-- Node1 -->
<g id="Node000001" class="node">
<title>Node1</title>
<g id="a_Node000001"><a xlink:title=" ">
<polygon fill="#999999" stroke="#666666" points="149.5,-132 111.75,-132 111.75,-112 149.5,-112 149.5,-132"/>
<text text-anchor="middle" x="130.62" y="-118.5" font-family="Helvetica,sans-Serif" font-size="10.00">dfs.h</text>
</a>
</g>
</g>
<!-- Node2 -->
<g id="Node000002" class="node">
<title>Node2</title>
<g id="a_Node000002"><a xlink:href="algo__interface_8h.html" target="_top" xlink:title=" ">
<polygon fill="white" stroke="#666666" points="201.62,-76 59.62,-76 59.62,-56 201.62,-56 201.62,-76"/>
<text text-anchor="middle" x="130.62" y="-62.5" font-family="Helvetica,sans-Serif" font-size="10.00">MazeBuilder/algo_interface.h</text>
</a>
</g>
</g>
<!-- Node1&#45;&gt;Node2 -->
<g id="edge1_Node000001_Node000002" class="edge">
<title>Node1&#45;&gt;Node2</title>
<g id="a_edge1_Node000001_Node000002"><a xlink:title=" ">
<path fill="none" stroke="#63b8ff" d="M130.62,-111.59C130.62,-105.01 130.62,-95.96 130.62,-87.73"/>
<polygon fill="#63b8ff" stroke="#63b8ff" points="134.13,-87.81 130.63,-77.81 127.13,-87.81 134.13,-87.81"/>
</a>
</g>
</g>
<!-- Node3 -->
<g id="Node000003" class="node">
<title>Node3</title>
<g id="a_Node000003"><a xlink:title=" ">
<polygon fill="#e0e0e0" stroke="#999999" points="51.25,-20 0,-20 0,0 51.25,0 51.25,-20"/>
<text text-anchor="middle" x="25.62" y="-6.5" font-family="Helvetica,sans-Serif" font-size="10.00">memory</text>
</a>
</g>
</g>
<!-- Node1&#45;&gt;Node3 -->
<g id="edge6_Node000001_Node000003" class="edge">
<title>Node1&#45;&gt;Node3</title>
<g id="a_edge6_Node000001_Node000003"><a xlink:title=" ">
<path fill="none" stroke="#63b8ff" d="M111.44,-116.02C91.59,-109.88 61.09,-97.52 43.62,-76 33.46,-63.47 29.02,-45.59 27.09,-31.76"/>
<polygon fill="#63b8ff" stroke="#63b8ff" points="30.59,-31.55 26.08,-21.96 23.62,-32.27 30.59,-31.55"/>
</a>
</g>
</g>
<!-- Node4 -->
<g id="Node000004" class="node">
<title>Node4</title>
<g id="a_Node000004"><a xlink:title=" ">
<polygon fill="#e0e0e0" stroke="#999999" points="143.62,-20 85.62,-20 85.62,0 143.62,0 143.62,-20"/>
<text text-anchor="middle" x="114.62" y="-6.5" font-family="Helvetica,sans-Serif" font-size="10.00">functional</text>
</a>
</g>
</g>
<!-- Node1&#45;&gt;Node4 -->
<g id="edge5_Node000001_Node000004" class="edge">
<title>Node1&#45;&gt;Node4</title>
<g id="a_edge5_Node000001_Node000004"><a xlink:title=" ">
<path fill="none" stroke="#63b8ff" d="M111.46,-116.27C92.23,-110.39 63.66,-98.28 50.62,-76 38.96,-56.06 61.38,-37.73 82.82,-25.66"/>
<polygon fill="#63b8ff" stroke="#63b8ff" points="84.23,-28.87 91.45,-21.12 80.97,-22.68 84.23,-28.87"/>
</a>
</g>
</g>
<!-- Node5 -->
<g id="Node000005" class="node">
<title>Node5</title>
<g id="a_Node000005"><a xlink:title=" ">
<polygon fill="#e0e0e0" stroke="#999999" points="231.75,-20 183.5,-20 183.5,0 231.75,0 231.75,-20"/>
<text text-anchor="middle" x="207.62" y="-6.5" font-family="Helvetica,sans-Serif" font-size="10.00">random</text>
</a>
</g>
</g>
<!-- Node1&#45;&gt;Node5 -->
<g id="edge7_Node000001_Node000005" class="edge">
<title>Node1&#45;&gt;Node5</title>
<g id="a_edge7_Node000001_Node000005"><a xlink:title=" ">
<path fill="none" stroke="#63b8ff" d="M149.79,-116.27C169.02,-110.39 197.59,-98.28 210.62,-76 218.48,-62.56 217.01,-44.75 213.98,-31.18"/>
<polygon fill="#63b8ff" stroke="#63b8ff" points="217.38,-30.33 211.37,-21.6 210.62,-32.17 217.38,-30.33"/>
</a>
</g>
</g>
<!-- Node6 -->
<g id="Node000006" class="node">
<title>Node6</title>
<g id="a_Node000006"><a xlink:title=" ">
<polygon fill="#e0e0e0" stroke="#999999" points="301.12,-76 258.12,-76 258.12,-56 301.12,-56 301.12,-76"/>
<text text-anchor="middle" x="279.62" y="-62.5" font-family="Helvetica,sans-Serif" font-size="10.00">vector</text>
</a>
</g>
</g>
<!-- Node1&#45;&gt;Node6 -->
<g id="edge8_Node000001_Node000006" class="edge">
<title>Node1&#45;&gt;Node6</title>
<g id="a_edge8_Node000001_Node000006"><a xlink:title=" ">
<path fill="none" stroke="#63b8ff" d="M149.8,-114.05C174.47,-105.11 217.69,-89.45 247.44,-78.66"/>
<polygon fill="#63b8ff" stroke="#63b8ff" points="248.48,-82.01 256.69,-75.31 246.1,-75.43 248.48,-82.01"/>
</a>
</g>
</g>
<!-- Node2&#45;&gt;Node3 -->
<g id="edge2_Node000002_Node000003" class="edge">
<title>Node2&#45;&gt;Node3</title>
<g id="a_edge2_Node000002_Node000003"><a xlink:title=" ">
<path fill="none" stroke="#63b8ff" d="M112.34,-55.59C96.32,-47.36 72.79,-35.26 54.28,-25.74"/>
<polygon fill="#63b8ff" stroke="#63b8ff" points="55.9,-22.63 45.4,-21.17 52.7,-28.86 55.9,-22.63"/>
</a>
</g>
</g>
<!-- Node2&#45;&gt;Node4 -->
<g id="edge3_Node000002_Node000004" class="edge">
<title>Node2&#45;&gt;Node4</title>
<g id="a_edge3_Node000002_Node000004"><a xlink:title=" ">
<path fill="none" stroke="#63b8ff" d="M127.84,-55.59C125.84,-48.86 123.08,-39.53 120.6,-31.15"/>
<polygon fill="#63b8ff" stroke="#63b8ff" points="124.01,-30.34 117.81,-21.75 117.3,-32.33 124.01,-30.34"/>
</a>
</g>
</g>
<!-- Node2&#45;&gt;Node5 -->
<g id="edge4_Node000002_Node000005" class="edge">
<title>Node2&#45;&gt;Node5</title>
<g id="a_edge4_Node000002_Node000005"><a xlink:title=" ">
<path fill="none" stroke="#63b8ff" d="M144.04,-55.59C155.23,-47.74 171.44,-36.38 184.68,-27.09"/>
<polygon fill="#63b8ff" stroke="#63b8ff" points="186.69,-29.96 192.87,-21.35 182.67,-24.22 186.69,-29.96"/>
</a>
</g>
</g>
</g>
</svg>
