<?xml version="1.0" encoding="UTF-8" standalone="no"?>
<!DOCTYPE svg PUBLIC "-//W3C//DTD SVG 1.1//EN"
 "http://www.w3.org/Graphics/SVG/1.1/DTD/svg11.dtd">
<!-- Generated by graphviz version 12.2.1 (20241206.2353)
 -->
<!-- Title: distances.h Pages: 1 -->
<svg width="295pt" height="84pt"
 viewBox="0.00 0.00 295.00 84.00" xmlns="http://www.w3.org/2000/svg" xmlns:xlink="http://www.w3.org/1999/xlink">
<g id="graph0" class="graph" transform="scale(1 1) rotate(0) translate(4 80)">
<title>distances.h</title>
<!-- Node1 -->
<g id="Node000001" class="node">
<title>Node1</title>
<g id="a_Node000001"><a xlink:title=" ">
<polygon fill="#999999" stroke="#666666" points="188.5,-76 122.25,-76 122.25,-56 188.5,-56 188.5,-76"/>
<text text-anchor="middle" x="155.38" y="-62.5" font-family="Helvetica,sans-Serif" font-size="10.00">distances.h</text>
</a>
</g>
</g>
<!-- Node2 -->
<g id="Node000002" class="node">
<title>Node2</title>
<g id="a_Node000002"><a xlink:title=" ">
<polygon fill="#e0e0e0" stroke="#999999" points="82.75,-20 0,-20 0,0 82.75,0 82.75,-20"/>
<text text-anchor="middle" x="41.38" y="-6.5" font-family="Helvetica,sans-Serif" font-size="10.00">unordered_map</text>
</a>
</g>
</g>
<!-- Node1&#45;&gt;Node2 -->
<g id="edge1_Node000001_Node000002" class="edge">
<title>Node1&#45;&gt;Node2</title>
<g id="a_edge1_Node000001_Node000002"><a xlink:title=" ">
<path fill="none" stroke="#63b8ff" d="M135.52,-55.59C117.89,-47.24 91.87,-34.92 71.65,-25.34"/>
<polygon fill="#63b8ff" stroke="#63b8ff" points="73.29,-22.25 62.76,-21.13 70.29,-28.57 73.29,-22.25"/>
</a>
</g>
</g>
<!-- Node3 -->
<g id="Node000003" class="node">
<title>Node3</title>
<g id="a_Node000003"><a xlink:title=" ">
<polygon fill="#e0e0e0" stroke="#999999" points="143.88,-20 100.88,-20 100.88,0 143.88,0 143.88,-20"/>
<text text-anchor="middle" x="122.38" y="-6.5" font-family="Helvetica,sans-Serif" font-size="10.00">vector</text>
</a>
</g>
</g>
<!-- Node1&#45;&gt;Node3 -->
<g id="edge2_Node000001_Node000003" class="edge">
<title>Node1&#45;&gt;Node3</title>
<g id="a_edge2_Node000001_Node000003"><a xlink:title=" ">
<path fill="none" stroke="#63b8ff" d="M149.63,-55.59C145.32,-48.55 139.28,-38.67 133.99,-30"/>
<polygon fill="#63b8ff" stroke="#63b8ff" points="137.05,-28.3 128.85,-21.59 131.07,-31.95 137.05,-28.3"/>
</a>
</g>
</g>
<!-- Node4 -->
<g id="Node000004" class="node">
<title>Node4</title>
<g id="a_Node000004"><a xlink:title=" ">
<polygon fill="#e0e0e0" stroke="#999999" points="217.25,-20 161.5,-20 161.5,0 217.25,0 217.25,-20"/>
<text text-anchor="middle" x="189.38" y="-6.5" font-family="Helvetica,sans-Serif" font-size="10.00">algorithm</text>
</a>
</g>
</g>
<!-- Node1&#45;&gt;Node4 -->
<g id="edge3_Node000001_Node000004" class="edge">
<title>Node1&#45;&gt;Node4</title>
<g id="a_edge3_Node000001_Node000004"><a xlink:title=" ">
<path fill="none" stroke="#63b8ff" d="M161.3,-55.59C165.73,-48.55 171.95,-38.67 177.41,-30"/>
<polygon fill="#63b8ff" stroke="#63b8ff" points="180.35,-31.91 182.71,-21.58 174.42,-28.18 180.35,-31.91"/>
</a>
</g>
</g>
<!-- Node5 -->
<g id="Node000005" class="node">
<title>Node5</title>
<g id="a_Node000005"><a xlink:title=" ">
<polygon fill="#e0e0e0" stroke="#999999" points="287,-20 235.75,-20 235.75,0 287,0 287,-20"/>
<text text-anchor="middle" x="261.38" y="-6.5" font-family="Helvetica,sans-Serif" font-size="10.00">memory</text>
</a>
</g>
</g>
<!-- Node1&#45;&gt;Node5 -->
<g id="edge4_Node000001_Node000005" class="edge">
<title>Node1&#45;&gt;Node5</title>
<g id="a_edge4_Node000001_Node000005"><a xlink:title=" ">
<path fill="none" stroke="#63b8ff" d="M173.84,-55.59C190.08,-47.32 213.98,-35.14 232.71,-25.6"/>
<polygon fill="#63b8ff" stroke="#63b8ff" points="234.1,-28.82 241.42,-21.17 230.92,-22.59 234.1,-28.82"/>
</a>
</g>
</g>
</g>
</svg>
