<?xml version="1.0" encoding="UTF-8" standalone="no"?>
<!DOCTYPE svg PUBLIC "-//W3C//DTD SVG 1.1//EN"
 "http://www.w3.org/Graphics/SVG/1.1/DTD/svg11.dtd">
<!-- Generated by graphviz version 12.2.1 (20241206.2353)
 -->
<!-- Title: distance_grid.h Pages: 1 -->
<svg width="894pt" height="252pt"
 viewBox="0.00 0.00 893.63 252.00" xmlns="http://www.w3.org/2000/svg" xmlns:xlink="http://www.w3.org/1999/xlink">
<g id="graph0" class="graph" transform="scale(1 1) rotate(0) translate(4 248)">
<title>distance_grid.h</title>
<!-- Node1 -->
<g id="Node000001" class="node">
<title>Node1</title>
<g id="a_Node000001"><a xlink:title=" ">
<polygon fill="#999999" stroke="#666666" points="286.63,-244 204.63,-244 204.63,-224 286.63,-224 286.63,-244"/>
<text text-anchor="middle" x="245.63" y="-230.5" font-family="Helvetica,sans-Serif" font-size="10.00">distance_grid.h</text>
</a>
</g>
</g>
<!-- Node2 -->
<g id="Node000002" class="node">
<title>Node2</title>
<g id="a_Node000002"><a xlink:title=" ">
<polygon fill="#e0e0e0" stroke="#999999" points="56,-132 15.25,-132 15.25,-112 56,-112 56,-132"/>
<text text-anchor="middle" x="35.63" y="-118.5" font-family="Helvetica,sans-Serif" font-size="10.00">future</text>
</a>
</g>
</g>
<!-- Node1&#45;&gt;Node2 -->
<g id="edge1_Node000001_Node000002" class="edge">
<title>Node1&#45;&gt;Node2</title>
<g id="a_edge1_Node000001_Node000002"><a xlink:title=" ">
<path fill="none" stroke="#63b8ff" d="M227.72,-223.62C191.07,-204.42 107.26,-160.52 63.46,-137.58"/>
<polygon fill="#63b8ff" stroke="#63b8ff" points="65.31,-134.6 54.83,-133.06 62.06,-140.8 65.31,-134.6"/>
</a>
</g>
</g>
<!-- Node3 -->
<g id="Node000003" class="node">
<title>Node3</title>
<g id="a_Node000003"><a xlink:title=" ">
<polygon fill="#e0e0e0" stroke="#999999" points="579.25,-20 528,-20 528,0 579.25,0 579.25,-20"/>
<text text-anchor="middle" x="553.63" y="-6.5" font-family="Helvetica,sans-Serif" font-size="10.00">memory</text>
</a>
</g>
</g>
<!-- Node1&#45;&gt;Node3 -->
<g id="edge2_Node000001_Node000003" class="edge">
<title>Node1&#45;&gt;Node3</title>
<g id="a_edge2_Node000001_Node000003"><a xlink:title=" ">
<path fill="none" stroke="#63b8ff" d="M286.8,-229.33C382.47,-219.85 615.17,-191.08 661.63,-132 677.51,-111.79 654.84,-72.94 639.63,-56 626.42,-41.29 607.26,-30.61 590.38,-23.36"/>
<polygon fill="#63b8ff" stroke="#63b8ff" points="591.68,-20.11 581.1,-19.64 589.08,-26.61 591.68,-20.11"/>
</a>
</g>
</g>
<!-- Node4 -->
<g id="Node000004" class="node">
<title>Node4</title>
<g id="a_Node000004"><a xlink:title=" ">
<polygon fill="#e0e0e0" stroke="#999999" points="885.63,-20 845.63,-20 845.63,0 885.63,0 885.63,-20"/>
<text text-anchor="middle" x="865.63" y="-6.5" font-family="Helvetica,sans-Serif" font-size="10.00">string</text>
</a>
</g>
</g>
<!-- Node1&#45;&gt;Node4 -->
<g id="edge3_Node000001_Node000004" class="edge">
<title>Node1&#45;&gt;Node4</title>
<g id="a_edge3_Node000001_Node000004"><a xlink:title=" ">
<path fill="none" stroke="#63b8ff" d="M286.94,-230.4C351.75,-225.69 480.95,-213.74 587.63,-188 659.65,-170.63 675.84,-159.51 744.63,-132 801.53,-109.25 837.23,-127.38 870.63,-76 879.21,-62.79 876.98,-44.72 873.16,-30.99"/>
<polygon fill="#63b8ff" stroke="#63b8ff" points="876.55,-30.11 870.1,-21.71 869.91,-32.3 876.55,-30.11"/>
</a>
</g>
</g>
<!-- Node5 -->
<g id="Node000005" class="node">
<title>Node5</title>
<g id="a_Node000005"><a xlink:title=" ">
<polygon fill="#e0e0e0" stroke="#999999" points="117,-20 34.25,-20 34.25,0 117,0 117,-20"/>
<text text-anchor="middle" x="75.63" y="-6.5" font-family="Helvetica,sans-Serif" font-size="10.00">unordered_map</text>
</a>
</g>
</g>
<!-- Node1&#45;&gt;Node5 -->
<g id="edge4_Node000001_Node000005" class="edge">
<title>Node1&#45;&gt;Node5</title>
<g id="a_edge4_Node000001_Node000005"><a xlink:title=" ">
<path fill="none" stroke="#63b8ff" d="M204.29,-229.6C147.79,-222.44 48.66,-200.28 6.63,-132 -16.04,-95.18 26.61,-50.77 54.4,-27.33"/>
<polygon fill="#63b8ff" stroke="#63b8ff" points="56.41,-30.21 61.96,-21.18 51.99,-24.78 56.41,-30.21"/>
</a>
</g>
</g>
<!-- Node6 -->
<g id="Node000006" class="node">
<title>Node6</title>
<g id="a_Node000006"><a xlink:href="grid_8h.html" target="_top" xlink:title=" ">
<polygon fill="white" stroke="#666666" points="294.13,-188 197.13,-188 197.13,-168 294.13,-168 294.13,-188"/>
<text text-anchor="middle" x="245.63" y="-174.5" font-family="Helvetica,sans-Serif" font-size="10.00">MazeBuilder/grid.h</text>
</a>
</g>
</g>
<!-- Node1&#45;&gt;Node6 -->
<g id="edge5_Node000001_Node000006" class="edge">
<title>Node1&#45;&gt;Node6</title>
<g id="a_edge5_Node000001_Node000006"><a xlink:title=" ">
<path fill="none" stroke="#63b8ff" d="M245.63,-223.59C245.63,-217.01 245.63,-207.96 245.63,-199.73"/>
<polygon fill="#63b8ff" stroke="#63b8ff" points="249.13,-199.81 245.63,-189.81 242.13,-199.81 249.13,-199.81"/>
</a>
</g>
</g>
<!-- Node6&#45;&gt;Node2 -->
<g id="edge7_Node000006_Node000002" class="edge">
<title>Node6&#45;&gt;Node2</title>
<g id="a_edge7_Node000006_Node000002"><a xlink:title=" ">
<path fill="none" stroke="#63b8ff" d="M208.18,-167.52C172.53,-158.48 117.39,-144.43 69.63,-132 68.96,-131.83 68.29,-131.65 67.61,-131.48"/>
<polygon fill="#63b8ff" stroke="#63b8ff" points="68.5,-128.09 57.94,-128.93 66.72,-134.86 68.5,-128.09"/>
</a>
</g>
</g>
<!-- Node6&#45;&gt;Node3 -->
<g id="edge9_Node000006_Node000003" class="edge">
<title>Node6&#45;&gt;Node3</title>
<g id="a_edge9_Node000006_Node000003"><a xlink:title=" ">
<path fill="none" stroke="#63b8ff" d="M294.36,-171.9C388.13,-160.91 587.63,-131.39 623.63,-76 636.85,-55.65 612.08,-37.32 588.43,-25.36"/>
<polygon fill="#63b8ff" stroke="#63b8ff" points="590.04,-22.25 579.5,-21.13 587.04,-28.57 590.04,-22.25"/>
</a>
</g>
</g>
<!-- Node6&#45;&gt;Node4 -->
<g id="edge11_Node000006_Node000004" class="edge">
<title>Node6&#45;&gt;Node4</title>
<g id="a_edge11_Node000006_Node000004"><a xlink:title=" ">
<path fill="none" stroke="#63b8ff" d="M294.42,-174.58C372.57,-170.06 530.39,-158.32 661.63,-132 747.53,-114.77 790.6,-139.82 850.63,-76 861.8,-64.12 865.22,-45.66 866.04,-31.44"/>
<polygon fill="#63b8ff" stroke="#63b8ff" points="869.53,-31.87 866.19,-21.82 862.53,-31.76 869.53,-31.87"/>
</a>
</g>
</g>
<!-- Node6&#45;&gt;Node5 -->
<g id="edge14_Node000006_Node000005" class="edge">
<title>Node6&#45;&gt;Node5</title>
<g id="a_edge14_Node000006_Node000005"><a xlink:title=" ">
<path fill="none" stroke="#63b8ff" d="M200.72,-167.52C176.96,-160.74 148.48,-149.61 127.63,-132 96.86,-106.02 83.82,-58.52 78.67,-31.41"/>
<polygon fill="#63b8ff" stroke="#63b8ff" points="82.15,-30.99 77.03,-21.72 75.25,-32.16 82.15,-30.99"/>
</a>
</g>
</g>
<!-- Node7 -->
<g id="Node000007" class="node">
<title>Node7</title>
<g id="a_Node000007"><a xlink:title=" ">
<polygon fill="#e0e0e0" stroke="#999999" points="652.63,-132 594.63,-132 594.63,-112 652.63,-112 652.63,-132"/>
<text text-anchor="middle" x="623.63" y="-118.5" font-family="Helvetica,sans-Serif" font-size="10.00">functional</text>
</a>
</g>
</g>
<!-- Node6&#45;&gt;Node7 -->
<g id="edge6_Node000006_Node000007" class="edge">
<title>Node6&#45;&gt;Node7</title>
<g id="a_edge6_Node000006_Node000007"><a xlink:title=" ">
<path fill="none" stroke="#63b8ff" d="M294.62,-171.55C360.03,-164.02 479.41,-149.37 580.63,-132 581.61,-131.83 582.61,-131.66 583.62,-131.47"/>
<polygon fill="#63b8ff" stroke="#63b8ff" points="583.89,-134.99 593.05,-129.67 582.57,-128.11 583.89,-134.99"/>
</a>
</g>
</g>
<!-- Node8 -->
<g id="Node000008" class="node">
<title>Node8</title>
<g id="a_Node000008"><a xlink:title=" ">
<polygon fill="#e0e0e0" stroke="#999999" points="193.13,-132 150.13,-132 150.13,-112 193.13,-112 193.13,-132"/>
<text text-anchor="middle" x="171.63" y="-118.5" font-family="Helvetica,sans-Serif" font-size="10.00">mutex</text>
</a>
</g>
</g>
<!-- Node6&#45;&gt;Node8 -->
<g id="edge8_Node000006_Node000008" class="edge">
<title>Node6&#45;&gt;Node8</title>
<g id="a_edge8_Node000006_Node000008"><a xlink:title=" ">
<path fill="none" stroke="#63b8ff" d="M232.74,-167.59C221.91,-159.7 206.22,-148.24 193.44,-138.92"/>
<polygon fill="#63b8ff" stroke="#63b8ff" points="195.73,-136.26 185.59,-133.19 191.61,-141.91 195.73,-136.26"/>
</a>
</g>
</g>
<!-- Node9 -->
<g id="Node000009" class="node">
<title>Node9</title>
<g id="a_Node000009"><a xlink:title=" ">
<polygon fill="#e0e0e0" stroke="#999999" points="153.5,-76 103.75,-76 103.75,-56 153.5,-56 153.5,-76"/>
<text text-anchor="middle" x="128.63" y="-62.5" font-family="Helvetica,sans-Serif" font-size="10.00">optional</text>
</a>
</g>
</g>
<!-- Node6&#45;&gt;Node9 -->
<g id="edge10_Node000006_Node000009" class="edge">
<title>Node6&#45;&gt;Node9</title>
<g id="a_edge10_Node000006_Node000009"><a xlink:title=" ">
<path fill="none" stroke="#63b8ff" d="M200.01,-167.52C179.26,-160.93 156.16,-149.98 141.63,-132 131.55,-119.53 128.59,-101.38 127.98,-87.42"/>
<polygon fill="#63b8ff" stroke="#63b8ff" points="131.49,-87.58 127.96,-77.58 124.49,-87.59 131.49,-87.58"/>
</a>
</g>
</g>
<!-- Node10 -->
<g id="Node000010" class="node">
<title>Node10</title>
<g id="a_Node000010"><a xlink:title=" ">
<polygon fill="#e0e0e0" stroke="#999999" points="289.25,-132 250,-132 250,-112 289.25,-112 289.25,-132"/>
<text text-anchor="middle" x="269.63" y="-118.5" font-family="Helvetica,sans-Serif" font-size="10.00">utility</text>
</a>
</g>
</g>
<!-- Node6&#45;&gt;Node10 -->
<g id="edge12_Node000006_Node000010" class="edge">
<title>Node6&#45;&gt;Node10</title>
<g id="a_edge12_Node000006_Node000010"><a xlink:title=" ">
<path fill="none" stroke="#63b8ff" d="M249.81,-167.59C252.87,-160.7 257.14,-151.1 260.93,-142.57"/>
<polygon fill="#63b8ff" stroke="#63b8ff" points="264.02,-144.24 264.88,-133.68 257.62,-141.4 264.02,-144.24"/>
</a>
</g>
</g>
<!-- Node11 -->
<g id="Node000011" class="node">
<title>Node11</title>
<g id="a_Node000011"><a xlink:title=" ">
<polygon fill="#e0e0e0" stroke="#999999" points="317.13,-20 274.13,-20 274.13,0 317.13,0 317.13,-20"/>
<text text-anchor="middle" x="295.63" y="-6.5" font-family="Helvetica,sans-Serif" font-size="10.00">vector</text>
</a>
</g>
</g>
<!-- Node6&#45;&gt;Node11 -->
<g id="edge13_Node000006_Node000011" class="edge">
<title>Node6&#45;&gt;Node11</title>
<g id="a_edge13_Node000006_Node000011"><a xlink:title=" ">
<path fill="none" stroke="#63b8ff" d="M242.13,-167.6C234.87,-146.42 220.27,-93.87 238.63,-56 244.56,-43.75 255.63,-33.83 266.44,-26.45"/>
<polygon fill="#63b8ff" stroke="#63b8ff" points="268.23,-29.46 274.86,-21.2 264.53,-23.52 268.23,-29.46"/>
</a>
</g>
</g>
<!-- Node12 -->
<g id="Node000012" class="node">
<title>Node12</title>
<g id="a_Node000012"><a xlink:href="grid__interface_8h.html" target="_top" xlink:title=" ">
<polygon fill="white" stroke="#666666" points="488.5,-132 348.75,-132 348.75,-112 488.5,-112 488.5,-132"/>
<text text-anchor="middle" x="418.63" y="-118.5" font-family="Helvetica,sans-Serif" font-size="10.00">MazeBuilder/grid_interface.h</text>
</a>
</g>
</g>
<!-- Node6&#45;&gt;Node12 -->
<g id="edge15_Node000006_Node000012" class="edge">
<title>Node6&#45;&gt;Node12</title>
<g id="a_edge15_Node000006_Node000012"><a xlink:title=" ">
<path fill="none" stroke="#63b8ff" d="M275.76,-167.59C303.87,-158.82 346.04,-145.66 377.29,-135.9"/>
<polygon fill="#63b8ff" stroke="#63b8ff" points="378.31,-139.25 386.81,-132.93 376.22,-132.57 378.31,-139.25"/>
</a>
</g>
</g>
<!-- Node12&#45;&gt;Node3 -->
<g id="edge20_Node000012_Node000003" class="edge">
<title>Node12&#45;&gt;Node3</title>
<g id="a_edge20_Node000012_Node000003"><a xlink:title=" ">
<path fill="none" stroke="#63b8ff" d="M427.06,-111.57C439.13,-98.36 462.33,-73.95 484.63,-56 498.12,-45.14 514.29,-34.48 527.59,-26.26"/>
<polygon fill="#63b8ff" stroke="#63b8ff" points="529.07,-29.46 535.81,-21.28 525.44,-23.47 529.07,-29.46"/>
</a>
</g>
</g>
<!-- Node12&#45;&gt;Node4 -->
<g id="edge17_Node000012_Node000004" class="edge">
<title>Node12&#45;&gt;Node4</title>
<g id="a_edge17_Node000012_Node000004"><a xlink:title=" ">
<path fill="none" stroke="#63b8ff" d="M488.72,-116.72C598.12,-109.52 799.88,-94.01 827.63,-76 843.55,-65.67 853.63,-46.15 859.38,-31.19"/>
<polygon fill="#63b8ff" stroke="#63b8ff" points="862.65,-32.45 862.6,-21.86 856.03,-30.17 862.65,-32.45"/>
</a>
</g>
</g>
<!-- Node12&#45;&gt;Node9 -->
<g id="edge22_Node000012_Node000009" class="edge">
<title>Node12&#45;&gt;Node9</title>
<g id="a_edge22_Node000012_Node000009"><a xlink:title=" ">
<path fill="none" stroke="#63b8ff" d="M367.78,-111.53C309.76,-100.73 216.3,-83.33 165.09,-73.79"/>
<polygon fill="#63b8ff" stroke="#63b8ff" points="165.89,-70.38 155.42,-71.99 164.61,-77.26 165.89,-70.38"/>
</a>
</g>
</g>
<!-- Node12&#45;&gt;Node11 -->
<g id="edge16_Node000012_Node000011" class="edge">
<title>Node12&#45;&gt;Node11</title>
<g id="a_edge16_Node000012_Node000011"><a xlink:title=" ">
<path fill="none" stroke="#63b8ff" d="M409.96,-111.85C397.62,-98.97 374.09,-74.94 352.63,-56 341.22,-45.93 327.9,-35.36 317.01,-26.99"/>
<polygon fill="#63b8ff" stroke="#63b8ff" points="319.46,-24.46 309.38,-21.19 315.22,-30.03 319.46,-24.46"/>
</a>
</g>
</g>
<!-- Node13 -->
<g id="Node000013" class="node">
<title>Node13</title>
<g id="a_Node000013"><a xlink:title=" ">
<polygon fill="#e0e0e0" stroke="#999999" points="545.25,-76 494,-76 494,-56 545.25,-56 545.25,-76"/>
<text text-anchor="middle" x="519.63" y="-62.5" font-family="Helvetica,sans-Serif" font-size="10.00">ostream</text>
</a>
</g>
</g>
<!-- Node12&#45;&gt;Node13 -->
<g id="edge18_Node000012_Node000013" class="edge">
<title>Node12&#45;&gt;Node13</title>
<g id="a_edge18_Node000012_Node000013"><a xlink:title=" ">
<path fill="none" stroke="#63b8ff" d="M436.22,-111.59C451.55,-103.4 474.05,-91.37 491.81,-81.87"/>
<polygon fill="#63b8ff" stroke="#63b8ff" points="493.39,-84.99 500.56,-77.19 490.09,-78.82 493.39,-84.99"/>
</a>
</g>
</g>
<!-- Node14 -->
<g id="Node000014" class="node">
<title>Node14</title>
<g id="a_Node000014"><a xlink:title=" ">
<polygon fill="#e0e0e0" stroke="#999999" points="614.25,-76 563,-76 563,-56 614.25,-56 614.25,-76"/>
<text text-anchor="middle" x="588.63" y="-62.5" font-family="Helvetica,sans-Serif" font-size="10.00">sstream</text>
</a>
</g>
</g>
<!-- Node12&#45;&gt;Node14 -->
<g id="edge19_Node000012_Node000014" class="edge">
<title>Node12&#45;&gt;Node14</title>
<g id="a_edge19_Node000012_Node000014"><a xlink:title=" ">
<path fill="none" stroke="#63b8ff" d="M448.24,-111.59C477.05,-102.44 520.88,-88.52 551.9,-78.67"/>
<polygon fill="#63b8ff" stroke="#63b8ff" points="552.78,-82.06 561.25,-75.7 550.66,-75.39 552.78,-82.06"/>
</a>
</g>
</g>
<!-- Node15 -->
<g id="Node000015" class="node">
<title>Node15</title>
<g id="a_Node000015"><a xlink:title=" ">
<polygon fill="#e0e0e0" stroke="#999999" points="249.25,-20 204,-20 204,0 249.25,0 249.25,-20"/>
<text text-anchor="middle" x="226.63" y="-6.5" font-family="Helvetica,sans-Serif" font-size="10.00">cstdint</text>
</a>
</g>
</g>
<!-- Node12&#45;&gt;Node15 -->
<g id="edge21_Node000012_Node000015" class="edge">
<title>Node12&#45;&gt;Node15</title>
<g id="a_edge21_Node000012_Node000015"><a xlink:title=" ">
<path fill="none" stroke="#63b8ff" d="M349.33,-111.54C305.33,-104.1 253.9,-92.26 238.63,-76 227.57,-64.23 225.04,-45.75 225.01,-31.5"/>
<polygon fill="#63b8ff" stroke="#63b8ff" points="228.49,-31.99 225.41,-21.85 221.5,-31.7 228.49,-31.99"/>
</a>
</g>
</g>
<!-- Node16 -->
<g id="Node000016" class="node">
<title>Node16</title>
<g id="a_Node000016"><a xlink:title=" ">
<polygon fill="#e0e0e0" stroke="#999999" points="437.13,-76 400.13,-76 400.13,-56 437.13,-56 437.13,-76"/>
<text text-anchor="middle" x="418.63" y="-62.5" font-family="Helvetica,sans-Serif" font-size="10.00">tuple</text>
</a>
</g>
</g>
<!-- Node12&#45;&gt;Node16 -->
<g id="edge23_Node000012_Node000016" class="edge">
<title>Node12&#45;&gt;Node16</title>
<g id="a_edge23_Node000012_Node000016"><a xlink:title=" ">
<path fill="none" stroke="#63b8ff" d="M418.63,-111.59C418.63,-105.01 418.63,-95.96 418.63,-87.73"/>
<polygon fill="#63b8ff" stroke="#63b8ff" points="422.13,-87.81 418.63,-77.81 415.13,-87.81 422.13,-87.81"/>
</a>
</g>
</g>
<!-- Node17 -->
<g id="Node000017" class="node">
<title>Node17</title>
<g id="a_Node000017"><a xlink:href="enums_8h.html" target="_top" xlink:title="Enumerations for the maze builder program.">
<polygon fill="white" stroke="#666666" points="818.88,-76 708.38,-76 708.38,-56 818.88,-56 818.88,-76"/>
<text text-anchor="middle" x="763.63" y="-62.5" font-family="Helvetica,sans-Serif" font-size="10.00">MazeBuilder/enums.h</text>
</a>
</g>
</g>
<!-- Node12&#45;&gt;Node17 -->
<g id="edge24_Node000012_Node000017" class="edge">
<title>Node12&#45;&gt;Node17</title>
<g id="a_edge24_Node000012_Node000017"><a xlink:title=" ">
<path fill="none" stroke="#63b8ff" d="M479.12,-111.53C540.1,-101.99 633.98,-87.29 697.05,-77.42"/>
<polygon fill="#63b8ff" stroke="#63b8ff" points="697.23,-80.94 706.57,-75.93 696.14,-74.02 697.23,-80.94"/>
</a>
</g>
</g>
<!-- Node19 -->
<g id="Node000019" class="node">
<title>Node19</title>
<g id="a_Node000019"><a xlink:href="cell_8h.html" target="_top" xlink:title=" ">
<polygon fill="white" stroke="#666666" points="343.75,-76 247.5,-76 247.5,-56 343.75,-56 343.75,-76"/>
<text text-anchor="middle" x="295.63" y="-62.5" font-family="Helvetica,sans-Serif" font-size="10.00">MazeBuilder/cell.h</text>
</a>
</g>
</g>
<!-- Node12&#45;&gt;Node19 -->
<g id="edge27_Node000012_Node000019" class="edge">
<title>Node12&#45;&gt;Node19</title>
<g id="a_edge27_Node000012_Node000019"><a xlink:title=" ">
<path fill="none" stroke="#63b8ff" d="M397.2,-111.59C378.01,-103.17 349.59,-90.69 327.69,-81.07"/>
<polygon fill="#63b8ff" stroke="#63b8ff" points="329.17,-77.9 318.61,-77.09 326.35,-84.31 329.17,-77.9"/>
</a>
</g>
</g>
<!-- Node17&#45;&gt;Node4 -->
<g id="edge25_Node000017_Node000004" class="edge">
<title>Node17&#45;&gt;Node4</title>
<g id="a_edge25_Node000017_Node000004"><a xlink:title=" ">
<path fill="none" stroke="#63b8ff" d="M781.39,-55.59C796.95,-47.36 819.81,-35.26 837.79,-25.74"/>
<polygon fill="#63b8ff" stroke="#63b8ff" points="839.18,-28.96 846.38,-21.19 835.91,-22.77 839.18,-28.96"/>
</a>
</g>
</g>
<!-- Node18 -->
<g id="Node000018" class="node">
<title>Node18</title>
<g id="a_Node000018"><a xlink:title=" ">
<polygon fill="#e0e0e0" stroke="#999999" points="793,-20 734.25,-20 734.25,0 793,0 793,-20"/>
<text text-anchor="middle" x="763.63" y="-6.5" font-family="Helvetica,sans-Serif" font-size="10.00">stdexcept</text>
</a>
</g>
</g>
<!-- Node17&#45;&gt;Node18 -->
<g id="edge26_Node000017_Node000018" class="edge">
<title>Node17&#45;&gt;Node18</title>
<g id="a_edge26_Node000017_Node000018"><a xlink:title=" ">
<path fill="none" stroke="#63b8ff" d="M763.63,-55.59C763.63,-49.01 763.63,-39.96 763.63,-31.73"/>
<polygon fill="#63b8ff" stroke="#63b8ff" points="767.13,-31.81 763.63,-21.81 760.13,-31.81 767.13,-31.81"/>
</a>
</g>
</g>
<!-- Node19&#45;&gt;Node3 -->
<g id="edge28_Node000019_Node000003" class="edge">
<title>Node19&#45;&gt;Node3</title>
<g id="a_edge28_Node000019_Node000003"><a xlink:title=" ">
<path fill="none" stroke="#63b8ff" d="M340.86,-55.53C390.82,-45.08 470.32,-28.44 516.68,-18.73"/>
<polygon fill="#63b8ff" stroke="#63b8ff" points="517.17,-22.21 526.24,-16.73 515.73,-15.36 517.17,-22.21"/>
</a>
</g>
</g>
<!-- Node19&#45;&gt;Node5 -->
<g id="edge30_Node000019_Node000005" class="edge">
<title>Node19&#45;&gt;Node5</title>
<g id="a_edge30_Node000019_Node000005"><a xlink:title=" ">
<path fill="none" stroke="#63b8ff" d="M257.05,-55.53C220.41,-46.54 165.14,-32.97 125.23,-23.18"/>
<polygon fill="#63b8ff" stroke="#63b8ff" points="126.17,-19.8 115.63,-20.82 124.5,-26.6 126.17,-19.8"/>
</a>
</g>
</g>
<!-- Node19&#45;&gt;Node11 -->
<g id="edge29_Node000019_Node000011" class="edge">
<title>Node19&#45;&gt;Node11</title>
<g id="a_edge29_Node000019_Node000011"><a xlink:title=" ">
<path fill="none" stroke="#63b8ff" d="M295.63,-55.59C295.63,-49.01 295.63,-39.96 295.63,-31.73"/>
<polygon fill="#63b8ff" stroke="#63b8ff" points="299.13,-31.81 295.63,-21.81 292.13,-31.81 299.13,-31.81"/>
</a>
</g>
</g>
<!-- Node19&#45;&gt;Node15 -->
<g id="edge31_Node000019_Node000015" class="edge">
<title>Node19&#45;&gt;Node15</title>
<g id="a_edge31_Node000019_Node000015"><a xlink:title=" ">
<path fill="none" stroke="#63b8ff" d="M283.61,-55.59C273.62,-47.77 259.17,-36.46 247.32,-27.19"/>
<polygon fill="#63b8ff" stroke="#63b8ff" points="249.73,-24.64 239.7,-21.23 245.42,-30.15 249.73,-24.64"/>
</a>
</g>
</g>
</g>
</svg>
