<?xml version="1.0" encoding="UTF-8" standalone="no"?>
<!DOCTYPE svg PUBLIC "-//W3C//DTD SVG 1.1//EN"
 "http://www.w3.org/Graphics/SVG/1.1/DTD/svg11.dtd">
<!-- Generated by graphviz version 12.2.1 (20241206.2353)
 -->
<!-- Title: distance_grid.h Pages: 1 -->
<svg width="833pt" height="252pt"
 viewBox="0.00 0.00 833.38 252.00" xmlns="http://www.w3.org/2000/svg" xmlns:xlink="http://www.w3.org/1999/xlink">
<g id="graph0" class="graph" transform="scale(1 1) rotate(0) translate(4 248)">
<title>distance_grid.h</title>
<!-- Node1 -->
<g id="Node000001" class="node">
<title>Node1</title>
<g id="a_Node000001"><a xlink:title=" ">
<polygon fill="#999999" stroke="#666666" points="726,-244 644,-244 644,-224 726,-224 726,-244"/>
<text text-anchor="middle" x="685" y="-230.5" font-family="Helvetica,sans-Serif" font-size="10.00">distance_grid.h</text>
</a>
</g>
</g>
<!-- Node2 -->
<g id="Node000002" class="node">
<title>Node2</title>
<g id="a_Node000002"><a xlink:title=" ">
<polygon fill="#e0e0e0" stroke="#999999" points="40,-20 0,-20 0,0 40,0 40,-20"/>
<text text-anchor="middle" x="20" y="-6.5" font-family="Helvetica,sans-Serif" font-size="10.00">string</text>
</a>
</g>
</g>
<!-- Node1&#45;&gt;Node2 -->
<g id="edge1_Node000001_Node000002" class="edge">
<title>Node1&#45;&gt;Node2</title>
<g id="a_edge1_Node000001_Node000002"><a xlink:title=" ">
<path fill="none" stroke="#63b8ff" d="M643.82,-231.47C546.79,-226.68 297.56,-207.39 106,-132 63.56,-115.3 41.74,-116.1 20,-76 12.59,-62.33 13.16,-44.54 15.26,-31.03"/>
<polygon fill="#63b8ff" stroke="#63b8ff" points="18.63,-32.04 17.15,-21.55 11.76,-30.67 18.63,-32.04"/>
</a>
</g>
</g>
<!-- Node3 -->
<g id="Node000003" class="node">
<title>Node3</title>
<g id="a_Node000003"><a xlink:title=" ">
<polygon fill="#e0e0e0" stroke="#999999" points="825.38,-20 742.62,-20 742.62,0 825.38,0 825.38,-20"/>
<text text-anchor="middle" x="784" y="-6.5" font-family="Helvetica,sans-Serif" font-size="10.00">unordered_map</text>
</a>
</g>
</g>
<!-- Node1&#45;&gt;Node3 -->
<g id="edge2_Node000001_Node000003" class="edge">
<title>Node1&#45;&gt;Node3</title>
<g id="a_edge2_Node000001_Node000003"><a xlink:title=" ">
<path fill="none" stroke="#63b8ff" d="M704.67,-223.58C718.87,-215.85 737.49,-203.64 749,-188 784.06,-140.37 786.44,-66.71 785.28,-31.33"/>
<polygon fill="#63b8ff" stroke="#63b8ff" points="788.79,-31.48 784.81,-21.66 781.8,-31.82 788.79,-31.48"/>
</a>
</g>
</g>
<!-- Node4 -->
<g id="Node000004" class="node">
<title>Node4</title>
<g id="a_Node000004"><a xlink:title=" ">
<polygon fill="#e0e0e0" stroke="#999999" points="676.62,-20 625.38,-20 625.38,0 676.62,0 676.62,-20"/>
<text text-anchor="middle" x="651" y="-6.5" font-family="Helvetica,sans-Serif" font-size="10.00">memory</text>
</a>
</g>
</g>
<!-- Node1&#45;&gt;Node4 -->
<g id="edge3_Node000001_Node000004" class="edge">
<title>Node1&#45;&gt;Node4</title>
<g id="a_edge3_Node000001_Node000004"><a xlink:title=" ">
<path fill="none" stroke="#63b8ff" d="M696.08,-223.5C717.28,-204.13 760.71,-158.01 752,-112 747.02,-85.73 747.5,-76.21 730,-56 718.41,-42.62 701.82,-32.33 686.83,-24.99"/>
<polygon fill="#63b8ff" stroke="#63b8ff" points="688.72,-22 678.17,-21 685.79,-28.36 688.72,-22"/>
</a>
</g>
</g>
<!-- Node5 -->
<g id="Node000005" class="node">
<title>Node5</title>
<g id="a_Node000005"><a xlink:href="grid_8h.html" target="_top" xlink:title=" ">
<polygon fill="white" stroke="#666666" points="628.5,-188 531.5,-188 531.5,-168 628.5,-168 628.5,-188"/>
<text text-anchor="middle" x="580" y="-174.5" font-family="Helvetica,sans-Serif" font-size="10.00">MazeBuilder/grid.h</text>
</a>
</g>
</g>
<!-- Node1&#45;&gt;Node5 -->
<g id="edge4_Node000001_Node000005" class="edge">
<title>Node1&#45;&gt;Node5</title>
<g id="a_edge4_Node000001_Node000005"><a xlink:title=" ">
<path fill="none" stroke="#63b8ff" d="M666.71,-223.59C650.7,-215.36 627.17,-203.26 608.66,-193.74"/>
<polygon fill="#63b8ff" stroke="#63b8ff" points="610.27,-190.63 599.78,-189.17 607.07,-196.86 610.27,-190.63"/>
</a>
</g>
</g>
<!-- Node5&#45;&gt;Node2 -->
<g id="edge7_Node000005_Node000002" class="edge">
<title>Node5&#45;&gt;Node2</title>
<g id="a_edge7_Node000005_Node000002"><a xlink:title=" ">
<path fill="none" stroke="#63b8ff" d="M531.35,-174.71C411.43,-168.04 106.32,-144.57 36,-76 24.29,-64.58 20.62,-46.07 19.69,-31.71"/>
<polygon fill="#63b8ff" stroke="#63b8ff" points="23.19,-31.89 19.47,-21.97 16.19,-32.04 23.19,-31.89"/>
</a>
</g>
</g>
<!-- Node5&#45;&gt;Node4 -->
<g id="edge6_Node000005_Node000004" class="edge">
<title>Node5&#45;&gt;Node4</title>
<g id="a_edge6_Node000005_Node000004"><a xlink:title=" ">
<path fill="none" stroke="#63b8ff" d="M583.13,-167.69C588.28,-153.72 599.81,-127.33 618,-112 652.84,-82.63 688.04,-113.45 714,-76 727.21,-56.93 704.24,-38.24 682.42,-25.83"/>
<polygon fill="#63b8ff" stroke="#63b8ff" points="684.09,-22.76 673.62,-21.15 680.8,-28.94 684.09,-22.76"/>
</a>
</g>
</g>
<!-- Node6 -->
<g id="Node000006" class="node">
<title>Node6</title>
<g id="a_Node000006"><a xlink:title=" ">
<polygon fill="#e0e0e0" stroke="#999999" points="264.5,-20 221.5,-20 221.5,0 264.5,0 264.5,-20"/>
<text text-anchor="middle" x="243" y="-6.5" font-family="Helvetica,sans-Serif" font-size="10.00">vector</text>
</a>
</g>
</g>
<!-- Node5&#45;&gt;Node6 -->
<g id="edge5_Node000005_Node000006" class="edge">
<title>Node5&#45;&gt;Node6</title>
<g id="a_edge5_Node000005_Node000006"><a xlink:title=" ">
<path fill="none" stroke="#63b8ff" d="M531.24,-176.86C477.81,-174.84 390.94,-165.96 325,-132 293.43,-115.74 287.48,-105.69 268,-76 258.96,-62.22 252.46,-44.69 248.36,-31.31"/>
<polygon fill="#63b8ff" stroke="#63b8ff" points="251.77,-30.53 245.67,-21.87 245.04,-32.45 251.77,-30.53"/>
</a>
</g>
</g>
<!-- Node7 -->
<g id="Node000007" class="node">
<title>Node7</title>
<g id="a_Node000007"><a xlink:title=" ">
<polygon fill="#e0e0e0" stroke="#999999" points="685,-132 627,-132 627,-112 685,-112 685,-132"/>
<text text-anchor="middle" x="656" y="-118.5" font-family="Helvetica,sans-Serif" font-size="10.00">functional</text>
</a>
</g>
</g>
<!-- Node5&#45;&gt;Node7 -->
<g id="edge8_Node000005_Node000007" class="edge">
<title>Node5&#45;&gt;Node7</title>
<g id="a_edge8_Node000005_Node000007"><a xlink:title=" ">
<path fill="none" stroke="#63b8ff" d="M593.24,-167.59C604.29,-159.74 620.28,-148.38 633.36,-139.09"/>
<polygon fill="#63b8ff" stroke="#63b8ff" points="635.3,-142 641.42,-133.36 631.25,-136.3 635.3,-142"/>
</a>
</g>
</g>
<!-- Node8 -->
<g id="Node000008" class="node">
<title>Node8</title>
<g id="a_Node000008"><a xlink:title=" ">
<polygon fill="#e0e0e0" stroke="#999999" points="742.62,-132 703.38,-132 703.38,-112 742.62,-112 742.62,-132"/>
<text text-anchor="middle" x="723" y="-118.5" font-family="Helvetica,sans-Serif" font-size="10.00">utility</text>
</a>
</g>
</g>
<!-- Node5&#45;&gt;Node8 -->
<g id="edge9_Node000005_Node000008" class="edge">
<title>Node5&#45;&gt;Node8</title>
<g id="a_edge9_Node000005_Node000008"><a xlink:title=" ">
<path fill="none" stroke="#63b8ff" d="M604.91,-167.59C629.27,-158.39 666.43,-144.36 692.54,-134.5"/>
<polygon fill="#63b8ff" stroke="#63b8ff" points="693.45,-137.9 701.57,-131.09 690.98,-131.35 693.45,-137.9"/>
</a>
</g>
</g>
<!-- Node9 -->
<g id="Node000009" class="node">
<title>Node9</title>
<g id="a_Node000009"><a xlink:title=" ">
<polygon fill="#e0e0e0" stroke="#999999" points="704.88,-76 655.12,-76 655.12,-56 704.88,-56 704.88,-76"/>
<text text-anchor="middle" x="680" y="-62.5" font-family="Helvetica,sans-Serif" font-size="10.00">optional</text>
</a>
</g>
</g>
<!-- Node5&#45;&gt;Node9 -->
<g id="edge10_Node000005_Node000009" class="edge">
<title>Node5&#45;&gt;Node9</title>
<g id="a_edge10_Node000005_Node000009"><a xlink:title=" ">
<path fill="none" stroke="#63b8ff" d="M578.01,-167.65C575.67,-154.1 573.45,-128.78 585,-112 592.31,-101.37 620.51,-88.76 644.3,-79.6"/>
<polygon fill="#63b8ff" stroke="#63b8ff" points="645.28,-82.97 653.42,-76.18 642.83,-76.42 645.28,-82.97"/>
</a>
</g>
</g>
<!-- Node10 -->
<g id="Node000010" class="node">
<title>Node10</title>
<g id="a_Node000010"><a xlink:href="grid__interface_8h.html" target="_top" xlink:title=" ">
<polygon fill="white" stroke="#666666" points="473.88,-132 334.12,-132 334.12,-112 473.88,-112 473.88,-132"/>
<text text-anchor="middle" x="404" y="-118.5" font-family="Helvetica,sans-Serif" font-size="10.00">MazeBuilder/grid_interface.h</text>
</a>
</g>
</g>
<!-- Node5&#45;&gt;Node10 -->
<g id="edge11_Node000005_Node000010" class="edge">
<title>Node5&#45;&gt;Node10</title>
<g id="a_edge11_Node000005_Node000010"><a xlink:title=" ">
<path fill="none" stroke="#63b8ff" d="M549.34,-167.59C520.62,-158.78 477.47,-145.54 445.64,-135.78"/>
<polygon fill="#63b8ff" stroke="#63b8ff" points="446.93,-132.51 436.34,-132.92 444.88,-139.2 446.93,-132.51"/>
</a>
</g>
</g>
<!-- Node10&#45;&gt;Node2 -->
<g id="edge13_Node000010_Node000002" class="edge">
<title>Node10&#45;&gt;Node2</title>
<g id="a_edge13_Node000010_Node000002"><a xlink:title=" ">
<path fill="none" stroke="#63b8ff" d="M333.76,-119.07C245.98,-115.45 101.92,-105.13 58,-76 42.18,-65.51 32.08,-46.01 26.31,-31.1"/>
<polygon fill="#63b8ff" stroke="#63b8ff" points="29.66,-30.1 23.07,-21.81 23.05,-32.4 29.66,-30.1"/>
</a>
</g>
</g>
<!-- Node10&#45;&gt;Node4 -->
<g id="edge16_Node000010_Node000004" class="edge">
<title>Node10&#45;&gt;Node4</title>
<g id="a_edge16_Node000010_Node000004"><a xlink:title=" ">
<path fill="none" stroke="#63b8ff" d="M473.92,-118.58C515.93,-114.13 568.68,-103 608,-76 624.35,-64.77 636.08,-45.08 643.12,-30.31"/>
<polygon fill="#63b8ff" stroke="#63b8ff" points="646.13,-32.14 646.97,-21.57 639.73,-29.31 646.13,-32.14"/>
</a>
</g>
</g>
<!-- Node10&#45;&gt;Node6 -->
<g id="edge12_Node000010_Node000006" class="edge">
<title>Node10&#45;&gt;Node6</title>
<g id="a_edge12_Node000010_Node000006"><a xlink:title=" ">
<path fill="none" stroke="#63b8ff" d="M365.68,-111.53C342.43,-104.45 313.07,-93.02 291,-76 274.89,-63.58 261.63,-44.37 253.16,-30.05"/>
<polygon fill="#63b8ff" stroke="#63b8ff" points="256.34,-28.57 248.39,-21.57 250.24,-32 256.34,-28.57"/>
</a>
</g>
</g>
<!-- Node10&#45;&gt;Node9 -->
<g id="edge18_Node000010_Node000009" class="edge">
<title>Node10&#45;&gt;Node9</title>
<g id="a_edge18_Node000010_Node000009"><a xlink:title=" ">
<path fill="none" stroke="#63b8ff" d="M456.83,-111.58C504.94,-102.86 577.88,-89.27 641,-76 641.98,-75.79 642.98,-75.58 643.98,-75.37"/>
<polygon fill="#63b8ff" stroke="#63b8ff" points="644.37,-78.86 653.38,-73.28 642.86,-72.03 644.37,-78.86"/>
</a>
</g>
</g>
<!-- Node11 -->
<g id="Node000011" class="node">
<title>Node11</title>
<g id="a_Node000011"><a xlink:title=" ">
<polygon fill="#e0e0e0" stroke="#999999" points="360.62,-76 309.38,-76 309.38,-56 360.62,-56 360.62,-76"/>
<text text-anchor="middle" x="335" y="-62.5" font-family="Helvetica,sans-Serif" font-size="10.00">ostream</text>
</a>
</g>
</g>
<!-- Node10&#45;&gt;Node11 -->
<g id="edge14_Node000010_Node000011" class="edge">
<title>Node10&#45;&gt;Node11</title>
<g id="a_edge14_Node000010_Node000011"><a xlink:title=" ">
<path fill="none" stroke="#63b8ff" d="M391.98,-111.59C381.99,-103.77 367.54,-92.46 355.69,-83.19"/>
<polygon fill="#63b8ff" stroke="#63b8ff" points="358.11,-80.64 348.07,-77.23 353.79,-86.15 358.11,-80.64"/>
</a>
</g>
</g>
<!-- Node12 -->
<g id="Node000012" class="node">
<title>Node12</title>
<g id="a_Node000012"><a xlink:title=" ">
<polygon fill="#e0e0e0" stroke="#999999" points="429.62,-76 378.38,-76 378.38,-56 429.62,-56 429.62,-76"/>
<text text-anchor="middle" x="404" y="-62.5" font-family="Helvetica,sans-Serif" font-size="10.00">sstream</text>
</a>
</g>
</g>
<!-- Node10&#45;&gt;Node12 -->
<g id="edge15_Node000010_Node000012" class="edge">
<title>Node10&#45;&gt;Node12</title>
<g id="a_edge15_Node000010_Node000012"><a xlink:title=" ">
<path fill="none" stroke="#63b8ff" d="M404,-111.59C404,-105.01 404,-95.96 404,-87.73"/>
<polygon fill="#63b8ff" stroke="#63b8ff" points="407.5,-87.81 404,-77.81 400.5,-87.81 407.5,-87.81"/>
</a>
</g>
</g>
<!-- Node13 -->
<g id="Node000013" class="node">
<title>Node13</title>
<g id="a_Node000013"><a xlink:title=" ">
<polygon fill="#e0e0e0" stroke="#999999" points="450.62,-20 405.38,-20 405.38,0 450.62,0 450.62,-20"/>
<text text-anchor="middle" x="428" y="-6.5" font-family="Helvetica,sans-Serif" font-size="10.00">cstdint</text>
</a>
</g>
</g>
<!-- Node10&#45;&gt;Node13 -->
<g id="edge17_Node000010_Node000013" class="edge">
<title>Node10&#45;&gt;Node13</title>
<g id="a_edge17_Node000010_Node000013"><a xlink:title=" ">
<path fill="none" stroke="#63b8ff" d="M360.7,-111.59C324.17,-101.54 280.68,-83.28 300,-56 321.1,-26.22 363.54,-16 393.77,-12.58"/>
<polygon fill="#63b8ff" stroke="#63b8ff" points="393.93,-16.08 403.57,-11.68 393.29,-9.11 393.93,-16.08"/>
</a>
</g>
</g>
<!-- Node14 -->
<g id="Node000014" class="node">
<title>Node14</title>
<g id="a_Node000014"><a xlink:title=" ">
<polygon fill="#e0e0e0" stroke="#999999" points="484.5,-76 447.5,-76 447.5,-56 484.5,-56 484.5,-76"/>
<text text-anchor="middle" x="466" y="-62.5" font-family="Helvetica,sans-Serif" font-size="10.00">tuple</text>
</a>
</g>
</g>
<!-- Node10&#45;&gt;Node14 -->
<g id="edge19_Node000010_Node000014" class="edge">
<title>Node10&#45;&gt;Node14</title>
<g id="a_edge19_Node000010_Node000014"><a xlink:title=" ">
<path fill="none" stroke="#63b8ff" d="M414.8,-111.59C423.6,-103.93 436.25,-92.91 446.77,-83.75"/>
<polygon fill="#63b8ff" stroke="#63b8ff" points="448.94,-86.5 454.18,-77.29 444.34,-81.22 448.94,-86.5"/>
</a>
</g>
</g>
<!-- Node15 -->
<g id="Node000015" class="node">
<title>Node15</title>
<g id="a_Node000015"><a xlink:href="enums_8h.html" target="_top" xlink:title="Enumerations for the maze builder program.">
<polygon fill="white" stroke="#666666" points="177.25,-76 66.75,-76 66.75,-56 177.25,-56 177.25,-76"/>
<text text-anchor="middle" x="122" y="-62.5" font-family="Helvetica,sans-Serif" font-size="10.00">MazeBuilder/enums.h</text>
</a>
</g>
</g>
<!-- Node10&#45;&gt;Node15 -->
<g id="edge20_Node000010_Node000015" class="edge">
<title>Node10&#45;&gt;Node15</title>
<g id="a_edge20_Node000010_Node000015"><a xlink:title=" ">
<path fill="none" stroke="#63b8ff" d="M354.56,-111.53C306.68,-102.36 234,-88.45 182.65,-78.61"/>
<polygon fill="#63b8ff" stroke="#63b8ff" points="183.35,-75.18 172.87,-76.74 182.04,-82.06 183.35,-75.18"/>
</a>
</g>
</g>
<!-- Node17 -->
<g id="Node000017" class="node">
<title>Node17</title>
<g id="a_Node000017"><a xlink:href="cell_8h.html" target="_top" xlink:title=" ">
<polygon fill="white" stroke="#666666" points="599.12,-76 502.88,-76 502.88,-56 599.12,-56 599.12,-76"/>
<text text-anchor="middle" x="551" y="-62.5" font-family="Helvetica,sans-Serif" font-size="10.00">MazeBuilder/cell.h</text>
</a>
</g>
</g>
<!-- Node10&#45;&gt;Node17 -->
<g id="edge23_Node000010_Node000017" class="edge">
<title>Node10&#45;&gt;Node17</title>
<g id="a_edge23_Node000010_Node000017"><a xlink:title=" ">
<path fill="none" stroke="#63b8ff" d="M429.61,-111.59C453.07,-102.97 488.07,-90.12 514.47,-80.42"/>
<polygon fill="#63b8ff" stroke="#63b8ff" points="515.59,-83.73 523.77,-77 513.18,-77.16 515.59,-83.73"/>
</a>
</g>
</g>
<!-- Node15&#45;&gt;Node2 -->
<g id="edge21_Node000015_Node000002" class="edge">
<title>Node15&#45;&gt;Node2</title>
<g id="a_edge21_Node000015_Node000002"><a xlink:title=" ">
<path fill="none" stroke="#63b8ff" d="M104.23,-55.59C88.68,-47.36 65.82,-35.26 47.84,-25.74"/>
<polygon fill="#63b8ff" stroke="#63b8ff" points="49.72,-22.77 39.24,-21.19 46.44,-28.96 49.72,-22.77"/>
</a>
</g>
</g>
<!-- Node16 -->
<g id="Node000016" class="node">
<title>Node16</title>
<g id="a_Node000016"><a xlink:title=" ">
<polygon fill="#e0e0e0" stroke="#999999" points="151.38,-20 92.62,-20 92.62,0 151.38,0 151.38,-20"/>
<text text-anchor="middle" x="122" y="-6.5" font-family="Helvetica,sans-Serif" font-size="10.00">stdexcept</text>
</a>
</g>
</g>
<!-- Node15&#45;&gt;Node16 -->
<g id="edge22_Node000015_Node000016" class="edge">
<title>Node15&#45;&gt;Node16</title>
<g id="a_edge22_Node000015_Node000016"><a xlink:title=" ">
<path fill="none" stroke="#63b8ff" d="M122,-55.59C122,-49.01 122,-39.96 122,-31.73"/>
<polygon fill="#63b8ff" stroke="#63b8ff" points="125.5,-31.81 122,-21.81 118.5,-31.81 125.5,-31.81"/>
</a>
</g>
</g>
<!-- Node17&#45;&gt;Node3 -->
<g id="edge26_Node000017_Node000003" class="edge">
<title>Node17&#45;&gt;Node3</title>
<g id="a_edge26_Node000017_Node000003"><a xlink:title=" ">
<path fill="none" stroke="#63b8ff" d="M591.85,-55.53C630.83,-46.5 689.7,-32.85 732.01,-23.05"/>
<polygon fill="#63b8ff" stroke="#63b8ff" points="732.77,-26.47 741.72,-20.8 731.19,-19.65 732.77,-26.47"/>
</a>
</g>
</g>
<!-- Node17&#45;&gt;Node4 -->
<g id="edge24_Node000017_Node000004" class="edge">
<title>Node17&#45;&gt;Node4</title>
<g id="a_edge24_Node000017_Node000004"><a xlink:title=" ">
<path fill="none" stroke="#63b8ff" d="M568.42,-55.59C583.67,-47.36 606.08,-35.26 623.71,-25.74"/>
<polygon fill="#63b8ff" stroke="#63b8ff" points="624.98,-29.03 632.11,-21.2 621.65,-22.87 624.98,-29.03"/>
</a>
</g>
</g>
<!-- Node17&#45;&gt;Node6 -->
<g id="edge25_Node000017_Node000006" class="edge">
<title>Node17&#45;&gt;Node6</title>
<g id="a_edge25_Node000017_Node000006"><a xlink:title=" ">
<path fill="none" stroke="#63b8ff" d="M502.54,-56.5C439.25,-45.41 330.14,-26.28 275.77,-16.75"/>
<polygon fill="#63b8ff" stroke="#63b8ff" points="276.67,-13.35 266.22,-15.07 275.46,-20.25 276.67,-13.35"/>
</a>
</g>
</g>
<!-- Node17&#45;&gt;Node13 -->
<g id="edge27_Node000017_Node000013" class="edge">
<title>Node17&#45;&gt;Node13</title>
<g id="a_edge27_Node000017_Node000013"><a xlink:title=" ">
<path fill="none" stroke="#63b8ff" d="M529.58,-55.59C510.38,-47.17 481.96,-34.69 460.06,-25.07"/>
<polygon fill="#63b8ff" stroke="#63b8ff" points="461.54,-21.9 450.98,-21.09 458.73,-28.31 461.54,-21.9"/>
</a>
</g>
</g>
</g>
</svg>
