<?xml version="1.0" encoding="UTF-8" standalone="no"?>
<!DOCTYPE svg PUBLIC "-//W3C//DTD SVG 1.1//EN"
 "http://www.w3.org/Graphics/SVG/1.1/DTD/svg11.dtd">
<!-- Generated by graphviz version 12.2.1 (20241206.2353)
 -->
<!-- Title: distance_grid.h Pages: 1 -->
<svg width="120pt" height="140pt"
 viewBox="0.00 0.00 120.38 140.00" xmlns="http://www.w3.org/2000/svg" xmlns:xlink="http://www.w3.org/1999/xlink">
<g id="graph0" class="graph" transform="scale(1 1) rotate(0) translate(4 136)">
<title>distance_grid.h</title>
<!-- Node1 -->
<g id="Node000001" class="node">
<title>Node1</title>
<g id="a_Node000001"><a xlink:title=" ">
<polygon fill="#999999" stroke="#666666" points="112.38,-132 30.38,-132 30.38,-112 112.38,-112 112.38,-132"/>
<text text-anchor="middle" x="71.38" y="-118.5" font-family="Helvetica,sans-Serif" font-size="10.00">distance_grid.h</text>
</a>
</g>
</g>
<!-- Node2 -->
<g id="Node000002" class="node">
<title>Node2</title>
<g id="a_Node000002"><a xlink:href="colored__grid_8h.html" target="_top" xlink:title=" ">
<polygon fill="white" stroke="#666666" points="76.75,-76 0,-76 0,-56 76.75,-56 76.75,-76"/>
<text text-anchor="middle" x="38.38" y="-62.5" font-family="Helvetica,sans-Serif" font-size="10.00">colored_grid.h</text>
</a>
</g>
</g>
<!-- Node1&#45;&gt;Node2 -->
<g id="edge1_Node000001_Node000002" class="edge">
<title>Node1&#45;&gt;Node2</title>
<g id="a_edge1_Node000001_Node000002"><a xlink:title=" ">
<path fill="none" stroke="#63b8ff" d="M59.68,-101.87C54.38,-93.19 48.35,-83.32 44.06,-76.3"/>
<polygon fill="#63b8ff" stroke="#63b8ff" points="56.64,-103.59 64.84,-110.3 62.61,-99.94 56.64,-103.59"/>
</a>
</g>
</g>
<!-- Node3 -->
<g id="Node000003" class="node">
<title>Node3</title>
<g id="a_Node000003"><a xlink:href="maze__builder_8h.html" target="_top" xlink:title="This file includes all the headers in the maze builder library.">
<polygon fill="white" stroke="#666666" points="112.38,-20 30.38,-20 30.38,0 112.38,0 112.38,-20"/>
<text text-anchor="middle" x="71.38" y="-6.5" font-family="Helvetica,sans-Serif" font-size="10.00">maze_builder.h</text>
</a>
</g>
</g>
<!-- Node1&#45;&gt;Node3 -->
<g id="edge3_Node000001_Node000003" class="edge">
<title>Node1&#45;&gt;Node3</title>
<g id="a_edge3_Node000001_Node000003"><a xlink:title=" ">
<path fill="none" stroke="#63b8ff" d="M79.53,-101.02C83.79,-88.23 87.69,-71.22 85.38,-56 83.46,-43.38 78.68,-29.43 75.24,-20.46"/>
<polygon fill="#63b8ff" stroke="#63b8ff" points="76.25,-99.8 76.04,-110.39 82.81,-102.24 76.25,-99.8"/>
</a>
</g>
</g>
<!-- Node2&#45;&gt;Node3 -->
<g id="edge2_Node000002_Node000003" class="edge">
<title>Node2&#45;&gt;Node3</title>
<g id="a_edge2_Node000002_Node000003"><a xlink:title=" ">
<path fill="none" stroke="#63b8ff" d="M50.07,-45.87C55.37,-37.19 61.4,-27.32 65.69,-20.3"/>
<polygon fill="#63b8ff" stroke="#63b8ff" points="47.14,-43.94 44.91,-54.3 53.11,-47.59 47.14,-43.94"/>
</a>
</g>
</g>
</g>
</svg>
