<?xml version="1.0" encoding="UTF-8" standalone="no"?>
<!DOCTYPE svg PUBLIC "-//W3C//DTD SVG 1.1//EN"
 "http://www.w3.org/Graphics/SVG/1.1/DTD/svg11.dtd">
<!-- Generated by graphviz version 12.2.1 (20241206.2353)
 -->
<!-- Title: distance_grid.h Pages: 1 -->
<svg width="945pt" height="308pt"
 viewBox="0.00 0.00 944.80 308.00" xmlns="http://www.w3.org/2000/svg" xmlns:xlink="http://www.w3.org/1999/xlink">
<g id="graph0" class="graph" transform="scale(1 1) rotate(0) translate(4 304)">
<title>distance_grid.h</title>
<!-- Node1 -->
<g id="Node000001" class="node">
<title>Node1</title>
<g id="a_Node000001"><a xlink:title=" ">
<polygon fill="#999999" stroke="#666666" points="185.38,-300 103.38,-300 103.38,-280 185.38,-280 185.38,-300"/>
<text text-anchor="middle" x="144.38" y="-286.5" font-family="Helvetica,sans-Serif" font-size="10.00">distance_grid.h</text>
</a>
</g>
</g>
<!-- Node2 -->
<g id="Node000002" class="node">
<title>Node2</title>
<g id="a_Node000002"><a xlink:title=" ">
<polygon fill="#e0e0e0" stroke="#999999" points="40.75,-244 0,-244 0,-224 40.75,-224 40.75,-244"/>
<text text-anchor="middle" x="20.38" y="-230.5" font-family="Helvetica,sans-Serif" font-size="10.00">future</text>
</a>
</g>
</g>
<!-- Node1&#45;&gt;Node2 -->
<g id="edge1_Node000001_Node000002" class="edge">
<title>Node1&#45;&gt;Node2</title>
<g id="a_edge1_Node000001_Node000002"><a xlink:title=" ">
<path fill="none" stroke="#63b8ff" d="M122.78,-279.59C102.98,-270.97 73.45,-258.11 51.18,-248.41"/>
<polygon fill="#63b8ff" stroke="#63b8ff" points="52.86,-245.33 42.29,-244.54 50.06,-251.75 52.86,-245.33"/>
</a>
</g>
</g>
<!-- Node3 -->
<g id="Node000003" class="node">
<title>Node3</title>
<g id="a_Node000003"><a xlink:title=" ">
<polygon fill="#e0e0e0" stroke="#999999" points="270,-20 218.75,-20 218.75,0 270,0 270,-20"/>
<text text-anchor="middle" x="244.38" y="-6.5" font-family="Helvetica,sans-Serif" font-size="10.00">memory</text>
</a>
</g>
</g>
<!-- Node1&#45;&gt;Node3 -->
<g id="edge2_Node000001_Node000003" class="edge">
<title>Node1&#45;&gt;Node3</title>
<g id="a_edge2_Node000001_Node000003"><a xlink:title=" ">
<path fill="none" stroke="#63b8ff" d="M131.83,-279.63C110.24,-262.33 68.38,-223.1 68.38,-179 68.38,-179 68.38,-179 68.38,-121 68.38,-56.01 155.73,-28 207.36,-17.11"/>
<polygon fill="#63b8ff" stroke="#63b8ff" points="207.79,-20.6 216.92,-15.22 206.43,-13.73 207.79,-20.6"/>
</a>
</g>
</g>
<!-- Node4 -->
<g id="Node000004" class="node">
<title>Node4</title>
<g id="a_Node000004"><a xlink:title=" ">
<polygon fill="#e0e0e0" stroke="#999999" points="902.38,-76 862.38,-76 862.38,-56 902.38,-56 902.38,-76"/>
<text text-anchor="middle" x="882.38" y="-62.5" font-family="Helvetica,sans-Serif" font-size="10.00">string</text>
</a>
</g>
</g>
<!-- Node1&#45;&gt;Node4 -->
<g id="edge3_Node000001_Node000004" class="edge">
<title>Node1&#45;&gt;Node4</title>
<g id="a_edge3_Node000001_Node000004"><a xlink:title=" ">
<path fill="none" stroke="#63b8ff" d="M185.83,-288.75C291.77,-286.83 579.54,-273.49 799.38,-188 843.64,-170.79 867.21,-173.46 890.38,-132 898.1,-118.18 895.05,-100.17 890.67,-86.61"/>
<polygon fill="#63b8ff" stroke="#63b8ff" points="894.03,-85.61 887.24,-77.48 887.48,-88.07 894.03,-85.61"/>
</a>
</g>
</g>
<!-- Node5 -->
<g id="Node000005" class="node">
<title>Node5</title>
<g id="a_Node000005"><a xlink:title=" ">
<polygon fill="#e0e0e0" stroke="#999999" points="216.75,-76 134,-76 134,-56 216.75,-56 216.75,-76"/>
<text text-anchor="middle" x="175.38" y="-62.5" font-family="Helvetica,sans-Serif" font-size="10.00">unordered_map</text>
</a>
</g>
</g>
<!-- Node1&#45;&gt;Node5 -->
<g id="edge4_Node000001_Node000005" class="edge">
<title>Node1&#45;&gt;Node5</title>
<g id="a_edge4_Node000001_Node000005"><a xlink:title=" ">
<path fill="none" stroke="#63b8ff" d="M145.67,-279.74C150.28,-246.74 165.98,-134.31 172.5,-87.61"/>
<polygon fill="#63b8ff" stroke="#63b8ff" points="175.95,-88.18 173.87,-77.79 169.02,-87.21 175.95,-88.18"/>
</a>
</g>
</g>
<!-- Node6 -->
<g id="Node000006" class="node">
<title>Node6</title>
<g id="a_Node000006"><a xlink:href="grid_8h.html" target="_top" xlink:title=" ">
<polygon fill="white" stroke="#666666" points="498.88,-244 401.88,-244 401.88,-224 498.88,-224 498.88,-244"/>
<text text-anchor="middle" x="450.38" y="-230.5" font-family="Helvetica,sans-Serif" font-size="10.00">MazeBuilder/grid.h</text>
</a>
</g>
</g>
<!-- Node1&#45;&gt;Node6 -->
<g id="edge5_Node000001_Node000006" class="edge">
<title>Node1&#45;&gt;Node6</title>
<g id="a_edge5_Node000001_Node000006"><a xlink:title=" ">
<path fill="none" stroke="#63b8ff" d="M185.64,-281.72C238.29,-272.43 329.74,-256.29 390.16,-245.63"/>
<polygon fill="#63b8ff" stroke="#63b8ff" points="390.71,-249.08 399.95,-243.9 389.49,-242.19 390.71,-249.08"/>
</a>
</g>
</g>
<!-- Node6&#45;&gt;Node3 -->
<g id="edge34_Node000006_Node000003" class="edge">
<title>Node6&#45;&gt;Node3</title>
<g id="a_edge34_Node000006_Node000003"><a xlink:title=" ">
<path fill="none" stroke="#63b8ff" d="M401.67,-231.82C354.34,-228.76 281.84,-218.87 227.38,-188 168.8,-154.8 149.68,-138.79 125.38,-76 111.07,-39.04 167.06,-22.58 207.07,-15.64"/>
<polygon fill="#63b8ff" stroke="#63b8ff" points="207.54,-19.11 216.87,-14.09 206.45,-12.2 207.54,-19.11"/>
</a>
</g>
</g>
<!-- Node6&#45;&gt;Node4 -->
<g id="edge37_Node000006_Node000004" class="edge">
<title>Node6&#45;&gt;Node4</title>
<g id="a_edge37_Node000006_Node000004"><a xlink:title=" ">
<path fill="none" stroke="#63b8ff" d="M499.35,-229.47C558.4,-224.31 660.22,-212.53 744.38,-188 803.6,-170.74 833.48,-180.67 871.38,-132 881.07,-119.55 883.51,-101.67 883.7,-87.81"/>
<polygon fill="#63b8ff" stroke="#63b8ff" points="887.21,-87.9 883.43,-78 880.21,-88.09 887.21,-87.9"/>
</a>
</g>
</g>
<!-- Node6&#45;&gt;Node5 -->
<g id="edge39_Node000006_Node000005" class="edge">
<title>Node6&#45;&gt;Node5</title>
<g id="a_edge39_Node000006_Node000005"><a xlink:title=" ">
<path fill="none" stroke="#63b8ff" d="M450.51,-223.92C450.19,-209.77 447.37,-182.56 431.38,-168 368.78,-111.04 319.72,-170.55 244.38,-132 222.26,-120.69 202.24,-100.12 189.53,-85.14"/>
<polygon fill="#63b8ff" stroke="#63b8ff" points="192.27,-82.97 183.24,-77.43 186.85,-87.39 192.27,-82.97"/>
</a>
</g>
</g>
<!-- Node7 -->
<g id="Node000007" class="node">
<title>Node7</title>
<g id="a_Node000007"><a xlink:href="enums_8h.html" target="_top" xlink:title="Enumerations for the maze builder program.">
<polygon fill="white" stroke="#666666" points="840.62,-132 730.12,-132 730.12,-112 840.62,-112 840.62,-132"/>
<text text-anchor="middle" x="785.38" y="-118.5" font-family="Helvetica,sans-Serif" font-size="10.00">MazeBuilder/enums.h</text>
</a>
</g>
</g>
<!-- Node6&#45;&gt;Node7 -->
<g id="edge6_Node000006_Node000007" class="edge">
<title>Node6&#45;&gt;Node7</title>
<g id="a_edge6_Node000006_Node000007"><a xlink:title=" ">
<path fill="none" stroke="#63b8ff" d="M499.08,-233.1C554.48,-231.37 646.34,-222.83 716.38,-188 738.62,-176.94 758.62,-156.32 771.29,-141.27"/>
<polygon fill="#63b8ff" stroke="#63b8ff" points="773.99,-143.49 777.55,-133.51 768.55,-139.09 773.99,-143.49"/>
</a>
</g>
</g>
<!-- Node8 -->
<g id="Node000008" class="node">
<title>Node8</title>
<g id="a_Node000008"><a xlink:title=" ">
<polygon fill="#e0e0e0" stroke="#999999" points="740,-76 694.75,-76 694.75,-56 740,-56 740,-76"/>
<text text-anchor="middle" x="717.38" y="-62.5" font-family="Helvetica,sans-Serif" font-size="10.00">cstdint</text>
</a>
</g>
</g>
<!-- Node6&#45;&gt;Node8 -->
<g id="edge32_Node000006_Node000008" class="edge">
<title>Node6&#45;&gt;Node8</title>
<g id="a_edge32_Node000006_Node000008"><a xlink:title=" ">
<path fill="none" stroke="#63b8ff" d="M499.03,-229.48C536.75,-224.77 588.91,-213.76 627.38,-188 666.2,-162 694.64,-113.43 708.3,-86.4"/>
<polygon fill="#63b8ff" stroke="#63b8ff" points="711.34,-88.15 712.57,-77.63 705.05,-85.09 711.34,-88.15"/>
</a>
</g>
</g>
<!-- Node10 -->
<g id="Node000010" class="node">
<title>Node10</title>
<g id="a_Node000010"><a xlink:href="grid__interface_8h.html" target="_top" xlink:title=" ">
<polygon fill="white" stroke="#666666" points="618.25,-188 478.5,-188 478.5,-168 618.25,-168 618.25,-188"/>
<text text-anchor="middle" x="548.38" y="-174.5" font-family="Helvetica,sans-Serif" font-size="10.00">MazeBuilder/grid_interface.h</text>
</a>
</g>
</g>
<!-- Node6&#45;&gt;Node10 -->
<g id="edge10_Node000006_Node000010" class="edge">
<title>Node6&#45;&gt;Node10</title>
<g id="a_edge10_Node000006_Node000010"><a xlink:title=" ">
<path fill="none" stroke="#63b8ff" d="M467.45,-223.59C482.25,-215.44 503.94,-203.48 521.14,-194"/>
<polygon fill="#63b8ff" stroke="#63b8ff" points="522.78,-197.1 529.85,-189.21 519.4,-190.97 522.78,-197.1"/>
</a>
</g>
</g>
<!-- Node11 -->
<g id="Node000011" class="node">
<title>Node11</title>
<g id="a_Node000011"><a xlink:title=" ">
<polygon fill="#e0e0e0" stroke="#999999" points="709.38,-20 651.38,-20 651.38,0 709.38,0 709.38,-20"/>
<text text-anchor="middle" x="680.38" y="-6.5" font-family="Helvetica,sans-Serif" font-size="10.00">functional</text>
</a>
</g>
</g>
<!-- Node6&#45;&gt;Node11 -->
<g id="edge33_Node000006_Node000011" class="edge">
<title>Node6&#45;&gt;Node11</title>
<g id="a_edge33_Node000006_Node000011"><a xlink:title=" ">
<path fill="none" stroke="#63b8ff" d="M499.22,-230.6C589.15,-225.64 777.2,-212.62 837.38,-188 874.9,-172.65 886.41,-165.41 909.38,-132 928.98,-103.48 948.54,-82.59 926.38,-56 900.71,-25.22 784.14,-15.43 721.12,-12.37"/>
<polygon fill="#63b8ff" stroke="#63b8ff" points="721.3,-8.87 711.15,-11.92 720.98,-15.86 721.3,-8.87"/>
</a>
</g>
</g>
<!-- Node14 -->
<g id="Node000014" class="node">
<title>Node14</title>
<g id="a_Node000014"><a xlink:title=" ">
<polygon fill="#e0e0e0" stroke="#999999" points="632.88,-20 595.88,-20 595.88,0 632.88,0 632.88,-20"/>
<text text-anchor="middle" x="614.38" y="-6.5" font-family="Helvetica,sans-Serif" font-size="10.00">tuple</text>
</a>
</g>
</g>
<!-- Node6&#45;&gt;Node14 -->
<g id="edge38_Node000006_Node000014" class="edge">
<title>Node6&#45;&gt;Node14</title>
<g id="a_edge38_Node000006_Node000014"><a xlink:title=" ">
<path fill="none" stroke="#63b8ff" d="M499.28,-233.11C568.17,-231.85 696.85,-224.26 799.38,-188 865.74,-164.53 898.81,-145.27 911.38,-76 912.96,-67.25 917.23,-62.69 911.38,-56 873.67,-12.92 718.18,-31.15 644.34,-19.67"/>
<polygon fill="#63b8ff" stroke="#63b8ff" points="645.19,-16.27 634.71,-17.84 643.88,-23.15 645.19,-16.27"/>
</a>
</g>
</g>
<!-- Node15 -->
<g id="Node000015" class="node">
<title>Node15</title>
<g id="a_Node000015"><a xlink:title=" ">
<polygon fill="#e0e0e0" stroke="#999999" points="315.88,-76 272.88,-76 272.88,-56 315.88,-56 315.88,-76"/>
<text text-anchor="middle" x="294.38" y="-62.5" font-family="Helvetica,sans-Serif" font-size="10.00">vector</text>
</a>
</g>
</g>
<!-- Node6&#45;&gt;Node15 -->
<g id="edge40_Node000006_Node000015" class="edge">
<title>Node6&#45;&gt;Node15</title>
<g id="a_edge40_Node000006_Node000015"><a xlink:title=" ">
<path fill="none" stroke="#63b8ff" d="M401.72,-229.56C345.88,-224.47 259.4,-212.75 239.38,-188 213.28,-155.75 250.97,-109.11 275.72,-84.21"/>
<polygon fill="#63b8ff" stroke="#63b8ff" points="277.98,-86.89 282.72,-77.42 273.11,-81.86 277.98,-86.89"/>
</a>
</g>
</g>
<!-- Node20 -->
<g id="Node000020" class="node">
<title>Node20</title>
<g id="a_Node000020"><a xlink:title=" ">
<polygon fill="#e0e0e0" stroke="#999999" points="294,-188 248.75,-188 248.75,-168 294,-168 294,-188"/>
<text text-anchor="middle" x="271.38" y="-174.5" font-family="Helvetica,sans-Serif" font-size="10.00">atomic</text>
</a>
</g>
</g>
<!-- Node6&#45;&gt;Node20 -->
<g id="edge31_Node000006_Node000020" class="edge">
<title>Node6&#45;&gt;Node20</title>
<g id="a_edge31_Node000006_Node000020"><a xlink:title=" ">
<path fill="none" stroke="#63b8ff" d="M419.2,-223.59C387.3,-213.97 337.89,-199.07 305.1,-189.17"/>
<polygon fill="#63b8ff" stroke="#63b8ff" points="306.28,-185.88 295.7,-186.34 304.26,-192.58 306.28,-185.88"/>
</a>
</g>
</g>
<!-- Node21 -->
<g id="Node000021" class="node">
<title>Node21</title>
<g id="a_Node000021"><a xlink:title=" ">
<polygon fill="#e0e0e0" stroke="#999999" points="354.88,-188 311.88,-188 311.88,-168 354.88,-168 354.88,-188"/>
<text text-anchor="middle" x="333.38" y="-174.5" font-family="Helvetica,sans-Serif" font-size="10.00">mutex</text>
</a>
</g>
</g>
<!-- Node6&#45;&gt;Node21 -->
<g id="edge35_Node000006_Node000021" class="edge">
<title>Node6&#45;&gt;Node21</title>
<g id="a_edge35_Node000006_Node000021"><a xlink:title=" ">
<path fill="none" stroke="#63b8ff" d="M430,-223.59C411.82,-215.21 384.95,-202.8 364.16,-193.21"/>
<polygon fill="#63b8ff" stroke="#63b8ff" points="365.83,-190.13 355.29,-189.11 362.9,-196.48 365.83,-190.13"/>
</a>
</g>
</g>
<!-- Node22 -->
<g id="Node000022" class="node">
<title>Node22</title>
<g id="a_Node000022"><a xlink:title=" ">
<polygon fill="#e0e0e0" stroke="#999999" points="422.25,-188 372.5,-188 372.5,-168 422.25,-168 422.25,-188"/>
<text text-anchor="middle" x="397.38" y="-174.5" font-family="Helvetica,sans-Serif" font-size="10.00">optional</text>
</a>
</g>
</g>
<!-- Node6&#45;&gt;Node22 -->
<g id="edge36_Node000006_Node000022" class="edge">
<title>Node6&#45;&gt;Node22</title>
<g id="a_edge36_Node000006_Node000022"><a xlink:title=" ">
<path fill="none" stroke="#63b8ff" d="M441.14,-223.59C433.77,-216.08 423.24,-205.35 414.36,-196.3"/>
<polygon fill="#63b8ff" stroke="#63b8ff" points="417.06,-194.06 407.56,-189.38 412.07,-198.97 417.06,-194.06"/>
</a>
</g>
</g>
<!-- Node7&#45;&gt;Node4 -->
<g id="edge8_Node000007_Node000004" class="edge">
<title>Node7&#45;&gt;Node4</title>
<g id="a_edge8_Node000007_Node000004"><a xlink:title=" ">
<path fill="none" stroke="#63b8ff" d="M802.27,-111.59C816.92,-103.44 838.4,-91.48 855.42,-82"/>
<polygon fill="#63b8ff" stroke="#63b8ff" points="856.99,-85.14 864.02,-77.22 853.58,-79.02 856.99,-85.14"/>
</a>
</g>
</g>
<!-- Node7&#45;&gt;Node8 -->
<g id="edge7_Node000007_Node000008" class="edge">
<title>Node7&#45;&gt;Node8</title>
<g id="a_edge7_Node000007_Node000008"><a xlink:title=" ">
<path fill="none" stroke="#63b8ff" d="M773.53,-111.59C763.68,-103.77 749.44,-92.46 737.77,-83.19"/>
<polygon fill="#63b8ff" stroke="#63b8ff" points="740.28,-80.72 730.27,-77.24 735.92,-86.2 740.28,-80.72"/>
</a>
</g>
</g>
<!-- Node9 -->
<g id="Node000009" class="node">
<title>Node9</title>
<g id="a_Node000009"><a xlink:title=" ">
<polygon fill="#e0e0e0" stroke="#999999" points="816.75,-76 758,-76 758,-56 816.75,-56 816.75,-76"/>
<text text-anchor="middle" x="787.38" y="-62.5" font-family="Helvetica,sans-Serif" font-size="10.00">stdexcept</text>
</a>
</g>
</g>
<!-- Node7&#45;&gt;Node9 -->
<g id="edge9_Node000007_Node000009" class="edge">
<title>Node7&#45;&gt;Node9</title>
<g id="a_edge9_Node000007_Node000009"><a xlink:title=" ">
<path fill="none" stroke="#63b8ff" d="M785.72,-111.59C785.97,-105.01 786.3,-95.96 786.61,-87.73"/>
<polygon fill="#63b8ff" stroke="#63b8ff" points="790.1,-87.93 786.97,-77.81 783.11,-87.67 790.1,-87.93"/>
</a>
</g>
</g>
<!-- Node10&#45;&gt;Node3 -->
<g id="edge13_Node000010_Node000003" class="edge">
<title>Node10&#45;&gt;Node3</title>
<g id="a_edge13_Node000010_Node000003"><a xlink:title=" ">
<path fill="none" stroke="#63b8ff" d="M478.24,-170.84C414.76,-164.12 326.96,-151.62 298.38,-132 264.66,-108.85 251.73,-59.5 246.98,-31.51"/>
<polygon fill="#63b8ff" stroke="#63b8ff" points="250.47,-31.19 245.54,-21.81 243.54,-32.22 250.47,-31.19"/>
</a>
</g>
</g>
<!-- Node10&#45;&gt;Node4 -->
<g id="edge16_Node000010_Node000004" class="edge">
<title>Node10&#45;&gt;Node4</title>
<g id="a_edge16_Node000010_Node000004"><a xlink:title=" ">
<path fill="none" stroke="#63b8ff" d="M618.55,-173.86C695.7,-169.16 813.48,-157.88 849.38,-132 864.13,-121.36 872.72,-102.17 877.42,-87.39"/>
<polygon fill="#63b8ff" stroke="#63b8ff" points="880.79,-88.33 880.09,-77.76 874.04,-86.46 880.79,-88.33"/>
</a>
</g>
</g>
<!-- Node10&#45;&gt;Node7 -->
<g id="edge19_Node000010_Node000007" class="edge">
<title>Node10&#45;&gt;Node7</title>
<g id="a_edge19_Node000010_Node000007"><a xlink:title=" ">
<path fill="none" stroke="#63b8ff" d="M589.93,-167.53C629.66,-158.48 689.71,-144.8 732.76,-134.99"/>
<polygon fill="#63b8ff" stroke="#63b8ff" points="733.42,-138.43 742.39,-132.79 731.87,-131.6 733.42,-138.43"/>
</a>
</g>
</g>
<!-- Node10&#45;&gt;Node8 -->
<g id="edge11_Node000010_Node000008" class="edge">
<title>Node10&#45;&gt;Node8</title>
<g id="a_edge11_Node000010_Node000008"><a xlink:title=" ">
<path fill="none" stroke="#63b8ff" d="M571.53,-167.57C590.66,-159.34 618.19,-146.47 640.38,-132 662.22,-117.75 684.73,-98.06 699.73,-84.09"/>
<polygon fill="#63b8ff" stroke="#63b8ff" points="702.07,-86.7 706.92,-77.28 697.25,-81.61 702.07,-86.7"/>
</a>
</g>
</g>
<!-- Node10&#45;&gt;Node11 -->
<g id="edge12_Node000010_Node000011" class="edge">
<title>Node10&#45;&gt;Node11</title>
<g id="a_edge12_Node000010_Node000011"><a xlink:title=" ">
<path fill="none" stroke="#63b8ff" d="M561.5,-167.57C572.83,-159.05 589.24,-145.76 601.38,-132 630.15,-99.36 656.2,-55.41 670,-30.45"/>
<polygon fill="#63b8ff" stroke="#63b8ff" points="673.03,-32.22 674.73,-21.76 666.88,-28.88 673.03,-32.22"/>
</a>
</g>
</g>
<!-- Node12 -->
<g id="Node000012" class="node">
<title>Node12</title>
<g id="a_Node000012"><a xlink:title=" ">
<polygon fill="#e0e0e0" stroke="#999999" points="376,-132 324.75,-132 324.75,-112 376,-112 376,-132"/>
<text text-anchor="middle" x="350.38" y="-118.5" font-family="Helvetica,sans-Serif" font-size="10.00">ostream</text>
</a>
</g>
</g>
<!-- Node10&#45;&gt;Node12 -->
<g id="edge14_Node000010_Node000012" class="edge">
<title>Node10&#45;&gt;Node12</title>
<g id="a_edge14_Node000010_Node000012"><a xlink:title=" ">
<path fill="none" stroke="#63b8ff" d="M513.89,-167.59C478.49,-157.94 423.62,-142.98 387.35,-133.08"/>
<polygon fill="#63b8ff" stroke="#63b8ff" points="388.3,-129.72 377.73,-130.46 386.46,-136.47 388.3,-129.72"/>
</a>
</g>
</g>
<!-- Node13 -->
<g id="Node000013" class="node">
<title>Node13</title>
<g id="a_Node000013"><a xlink:title=" ">
<polygon fill="#e0e0e0" stroke="#999999" points="560,-132 508.75,-132 508.75,-112 560,-112 560,-132"/>
<text text-anchor="middle" x="534.38" y="-118.5" font-family="Helvetica,sans-Serif" font-size="10.00">sstream</text>
</a>
</g>
</g>
<!-- Node10&#45;&gt;Node13 -->
<g id="edge15_Node000010_Node000013" class="edge">
<title>Node10&#45;&gt;Node13</title>
<g id="a_edge15_Node000010_Node000013"><a xlink:title=" ">
<path fill="none" stroke="#63b8ff" d="M545.94,-167.59C544.21,-160.93 541.83,-151.75 539.67,-143.44"/>
<polygon fill="#63b8ff" stroke="#63b8ff" points="543.06,-142.56 537.17,-133.76 536.29,-144.32 543.06,-142.56"/>
</a>
</g>
</g>
<!-- Node10&#45;&gt;Node14 -->
<g id="edge17_Node000010_Node000014" class="edge">
<title>Node10&#45;&gt;Node14</title>
<g id="a_edge17_Node000010_Node000014"><a xlink:title=" ">
<path fill="none" stroke="#63b8ff" d="M556.08,-167.71C569.65,-150.75 597.5,-113.07 609.38,-76 613.99,-61.61 615.15,-44.55 615.2,-31.52"/>
<polygon fill="#63b8ff" stroke="#63b8ff" points="618.7,-31.52 615.01,-21.6 611.7,-31.66 618.7,-31.52"/>
</a>
</g>
</g>
<!-- Node10&#45;&gt;Node15 -->
<g id="edge18_Node000010_Node000015" class="edge">
<title>Node10&#45;&gt;Node15</title>
<g id="a_edge18_Node000010_Node000015"><a xlink:title=" ">
<path fill="none" stroke="#63b8ff" d="M480.76,-167.5C416.47,-157.91 327.77,-142.97 315.38,-132 302.74,-120.81 297.66,-101.98 295.64,-87.45"/>
<polygon fill="#63b8ff" stroke="#63b8ff" points="299.14,-87.22 294.69,-77.61 292.17,-87.9 299.14,-87.22"/>
</a>
</g>
</g>
<!-- Node16 -->
<g id="Node000016" class="node">
<title>Node16</title>
<g id="a_Node000016"><a xlink:href="cell_8h.html" target="_top" xlink:title=" ">
<polygon fill="white" stroke="#666666" points="490.5,-132 394.25,-132 394.25,-112 490.5,-112 490.5,-132"/>
<text text-anchor="middle" x="442.38" y="-118.5" font-family="Helvetica,sans-Serif" font-size="10.00">MazeBuilder/cell.h</text>
</a>
</g>
</g>
<!-- Node10&#45;&gt;Node16 -->
<g id="edge20_Node000010_Node000016" class="edge">
<title>Node10&#45;&gt;Node16</title>
<g id="a_edge20_Node000010_Node000016"><a xlink:title=" ">
<path fill="none" stroke="#63b8ff" d="M529.91,-167.59C513.67,-159.32 489.77,-147.14 471.04,-137.6"/>
<polygon fill="#63b8ff" stroke="#63b8ff" points="472.83,-134.59 462.33,-133.17 469.65,-140.82 472.83,-134.59"/>
</a>
</g>
</g>
<!-- Node16&#45;&gt;Node3 -->
<g id="edge22_Node000016_Node000003" class="edge">
<title>Node16&#45;&gt;Node3</title>
<g id="a_edge22_Node000016_Node000003"><a xlink:title=" ">
<path fill="none" stroke="#63b8ff" d="M425.49,-111.62C391.08,-92.5 312.58,-48.89 271.14,-25.87"/>
<polygon fill="#63b8ff" stroke="#63b8ff" points="272.98,-22.89 262.54,-21.09 269.58,-29.01 272.98,-22.89"/>
</a>
</g>
</g>
<!-- Node16&#45;&gt;Node5 -->
<g id="edge24_Node000016_Node000005" class="edge">
<title>Node16&#45;&gt;Node5</title>
<g id="a_edge24_Node000016_Node000005"><a xlink:title=" ">
<path fill="none" stroke="#63b8ff" d="M395.56,-111.53C348.76,-102.07 276.92,-87.54 228.13,-77.67"/>
<polygon fill="#63b8ff" stroke="#63b8ff" points="228.84,-74.24 218.35,-75.69 227.46,-81.1 228.84,-74.24"/>
</a>
</g>
</g>
<!-- Node16&#45;&gt;Node8 -->
<g id="edge21_Node000016_Node000008" class="edge">
<title>Node16&#45;&gt;Node8</title>
<g id="a_edge21_Node000016_Node000008"><a xlink:title=" ">
<path fill="none" stroke="#63b8ff" d="M490.59,-111.53C545.81,-100.69 634.86,-83.2 683.31,-73.69"/>
<polygon fill="#63b8ff" stroke="#63b8ff" points="683.81,-77.16 692.94,-71.8 682.46,-70.29 683.81,-77.16"/>
</a>
</g>
</g>
<!-- Node16&#45;&gt;Node15 -->
<g id="edge25_Node000016_Node000015" class="edge">
<title>Node16&#45;&gt;Node15</title>
<g id="a_edge25_Node000016_Node000015"><a xlink:title=" ">
<path fill="none" stroke="#63b8ff" d="M416.6,-111.59C391.56,-102.46 353.47,-88.56 326.48,-78.71"/>
<polygon fill="#63b8ff" stroke="#63b8ff" points="328.03,-75.55 317.44,-75.41 325.63,-82.13 328.03,-75.55"/>
</a>
</g>
</g>
<!-- Node17 -->
<g id="Node000017" class="node">
<title>Node17</title>
<g id="a_Node000017"><a xlink:title=" ">
<polygon fill="#e0e0e0" stroke="#999999" points="450.12,-76 372.62,-76 372.62,-56 450.12,-56 450.12,-76"/>
<text text-anchor="middle" x="411.38" y="-62.5" font-family="Helvetica,sans-Serif" font-size="10.00">shared_mutex</text>
</a>
</g>
</g>
<!-- Node16&#45;&gt;Node17 -->
<g id="edge23_Node000016_Node000017" class="edge">
<title>Node16&#45;&gt;Node17</title>
<g id="a_edge23_Node000016_Node000017"><a xlink:title=" ">
<path fill="none" stroke="#63b8ff" d="M436.98,-111.59C432.93,-104.55 427.26,-94.67 422.28,-86"/>
<polygon fill="#63b8ff" stroke="#63b8ff" points="425.48,-84.54 417.47,-77.61 419.41,-88.03 425.48,-84.54"/>
</a>
</g>
</g>
<!-- Node18 -->
<g id="Node000018" class="node">
<title>Node18</title>
<g id="a_Node000018"><a xlink:href="hash__funcs_8h.html" target="_top" xlink:title=" ">
<polygon fill="white" stroke="#666666" points="600.12,-76 468.62,-76 468.62,-56 600.12,-56 600.12,-76"/>
<text text-anchor="middle" x="534.38" y="-62.5" font-family="Helvetica,sans-Serif" font-size="10.00">MazeBuilder/hash_funcs.h</text>
</a>
</g>
</g>
<!-- Node16&#45;&gt;Node18 -->
<g id="edge26_Node000016_Node000018" class="edge">
<title>Node16&#45;&gt;Node18</title>
<g id="a_edge26_Node000016_Node000018"><a xlink:title=" ">
<path fill="none" stroke="#63b8ff" d="M458.4,-111.59C472.17,-103.51 492.28,-91.71 508.35,-82.27"/>
<polygon fill="#63b8ff" stroke="#63b8ff" points="510.07,-85.33 516.92,-77.25 506.52,-79.29 510.07,-85.33"/>
</a>
</g>
</g>
<!-- Node18&#45;&gt;Node3 -->
<g id="edge28_Node000018_Node000003" class="edge">
<title>Node18&#45;&gt;Node3</title>
<g id="a_edge28_Node000018_Node000003"><a xlink:title=" ">
<path fill="none" stroke="#63b8ff" d="M483.53,-55.53C425.81,-44.78 333.02,-27.51 281.64,-17.94"/>
<polygon fill="#63b8ff" stroke="#63b8ff" points="282.38,-14.52 271.91,-16.13 281.1,-21.4 282.38,-14.52"/>
</a>
</g>
</g>
<!-- Node18&#45;&gt;Node11 -->
<g id="edge27_Node000018_Node000011" class="edge">
<title>Node18&#45;&gt;Node11</title>
<g id="a_edge27_Node000018_Node000011"><a xlink:title=" ">
<path fill="none" stroke="#63b8ff" d="M559.81,-55.59C583.11,-46.97 617.87,-34.12 644.09,-24.42"/>
<polygon fill="#63b8ff" stroke="#63b8ff" points="645.16,-27.76 653.33,-21 642.73,-21.19 645.16,-27.76"/>
</a>
</g>
</g>
<!-- Node18&#45;&gt;Node14 -->
<g id="edge29_Node000018_Node000014" class="edge">
<title>Node18&#45;&gt;Node14</title>
<g id="a_edge29_Node000018_Node000014"><a xlink:title=" ">
<path fill="none" stroke="#63b8ff" d="M548.31,-55.59C560.05,-47.67 577.11,-36.16 590.94,-26.82"/>
<polygon fill="#63b8ff" stroke="#63b8ff" points="592.75,-29.82 599.08,-21.33 588.83,-24.02 592.75,-29.82"/>
</a>
</g>
</g>
<!-- Node19 -->
<g id="Node000019" class="node">
<title>Node19</title>
<g id="a_Node000019"><a xlink:title=" ">
<polygon fill="#e0e0e0" stroke="#999999" points="554,-20 514.75,-20 514.75,0 554,0 554,-20"/>
<text text-anchor="middle" x="534.38" y="-6.5" font-family="Helvetica,sans-Serif" font-size="10.00">utility</text>
</a>
</g>
</g>
<!-- Node18&#45;&gt;Node19 -->
<g id="edge30_Node000018_Node000019" class="edge">
<title>Node18&#45;&gt;Node19</title>
<g id="a_edge30_Node000018_Node000019"><a xlink:title=" ">
<path fill="none" stroke="#63b8ff" d="M534.38,-55.59C534.38,-49.01 534.38,-39.96 534.38,-31.73"/>
<polygon fill="#63b8ff" stroke="#63b8ff" points="537.88,-31.81 534.38,-21.81 530.88,-31.81 537.88,-31.81"/>
</a>
</g>
</g>
</g>
</svg>
