<?xml version="1.0" encoding="UTF-8" standalone="no"?>
<!DOCTYPE svg PUBLIC "-//W3C//DTD SVG 1.1//EN"
 "http://www.w3.org/Graphics/SVG/1.1/DTD/svg11.dtd">
<!-- Generated by graphviz version 12.2.1 (20241206.2353)
 -->
<!-- Title: C:/Users/zachm/Desktop/zmertens&#45;MazeBuilder/include/MazeBuilder/distances.h Pages: 1 -->
<svg width="295pt" height="108pt"
 viewBox="0.00 0.00 295.00 108.00" xmlns="http://www.w3.org/2000/svg" xmlns:xlink="http://www.w3.org/1999/xlink">
<g id="graph0" class="graph" transform="scale(1 1) rotate(0) translate(4 104)">
<title>C:/Users/zachm/Desktop/zmertens&#45;MazeBuilder/include/MazeBuilder/distances.h</title>
<!-- Node1 -->
<g id="Node000001" class="node">
<title>Node1</title>
<g id="a_Node000001"><a xlink:title="Distances class header file &#45; Computes distances between cells in a maze.">
<polygon fill="#999999" stroke="#666666" points="235.38,-100 75.38,-100 75.38,-56 235.38,-56 235.38,-100"/>
<text text-anchor="start" x="83.38" y="-86.5" font-family="Helvetica,sans-Serif" font-size="10.00">C:/Users/zachm/Desktop</text>
<text text-anchor="start" x="83.38" y="-74.5" font-family="Helvetica,sans-Serif" font-size="10.00">/zmertens&#45;MazeBuilder</text>
<text text-anchor="middle" x="155.38" y="-62.5" font-family="Helvetica,sans-Serif" font-size="10.00">/include/MazeBuilder/distances.h</text>
</a>
</g>
</g>
<!-- Node2 -->
<g id="Node000002" class="node">
<title>Node2</title>
<g id="a_Node000002"><a xlink:title=" ">
<polygon fill="#e0e0e0" stroke="#999999" points="82.75,-20 0,-20 0,0 82.75,0 82.75,-20"/>
<text text-anchor="middle" x="41.38" y="-6.5" font-family="Helvetica,sans-Serif" font-size="10.00">unordered_map</text>
</a>
</g>
</g>
<!-- Node1&#45;&gt;Node2 -->
<g id="edge1_Node000001_Node000002" class="edge">
<title>Node1&#45;&gt;Node2</title>
<g id="a_edge1_Node000001_Node000002"><a xlink:title=" ">
<path fill="none" stroke="#63b8ff" d="M118.36,-55.57C101.67,-45.91 82.36,-34.73 67.25,-25.98"/>
<polygon fill="#63b8ff" stroke="#63b8ff" points="69.27,-23.11 58.86,-21.12 65.76,-29.16 69.27,-23.11"/>
</a>
</g>
</g>
<!-- Node3 -->
<g id="Node000003" class="node">
<title>Node3</title>
<g id="a_Node000003"><a xlink:title=" ">
<polygon fill="#e0e0e0" stroke="#999999" points="143.88,-20 100.88,-20 100.88,0 143.88,0 143.88,-20"/>
<text text-anchor="middle" x="122.38" y="-6.5" font-family="Helvetica,sans-Serif" font-size="10.00">vector</text>
</a>
</g>
</g>
<!-- Node1&#45;&gt;Node3 -->
<g id="edge2_Node000001_Node000003" class="edge">
<title>Node1&#45;&gt;Node3</title>
<g id="a_edge2_Node000001_Node000003"><a xlink:title=" ">
<path fill="none" stroke="#63b8ff" d="M144.75,-55.75C140.71,-47.66 136.12,-38.48 132.15,-30.55"/>
<polygon fill="#63b8ff" stroke="#63b8ff" points="135.36,-29.15 127.76,-21.77 129.1,-32.28 135.36,-29.15"/>
</a>
</g>
</g>
<!-- Node4 -->
<g id="Node000004" class="node">
<title>Node4</title>
<g id="a_Node000004"><a xlink:title=" ">
<polygon fill="#e0e0e0" stroke="#999999" points="217.25,-20 161.5,-20 161.5,0 217.25,0 217.25,-20"/>
<text text-anchor="middle" x="189.38" y="-6.5" font-family="Helvetica,sans-Serif" font-size="10.00">algorithm</text>
</a>
</g>
</g>
<!-- Node1&#45;&gt;Node4 -->
<g id="edge3_Node000001_Node000004" class="edge">
<title>Node1&#45;&gt;Node4</title>
<g id="a_edge3_Node000001_Node000004"><a xlink:title=" ">
<path fill="none" stroke="#63b8ff" d="M166.32,-55.75C170.49,-47.66 175.22,-38.48 179.3,-30.55"/>
<polygon fill="#63b8ff" stroke="#63b8ff" points="182.36,-32.26 183.83,-21.76 176.14,-29.05 182.36,-32.26"/>
</a>
</g>
</g>
<!-- Node5 -->
<g id="Node000005" class="node">
<title>Node5</title>
<g id="a_Node000005"><a xlink:title=" ">
<polygon fill="#e0e0e0" stroke="#999999" points="287,-20 235.75,-20 235.75,0 287,0 287,-20"/>
<text text-anchor="middle" x="261.38" y="-6.5" font-family="Helvetica,sans-Serif" font-size="10.00">memory</text>
</a>
</g>
</g>
<!-- Node1&#45;&gt;Node5 -->
<g id="edge4_Node000001_Node000005" class="edge">
<title>Node1&#45;&gt;Node5</title>
<g id="a_edge4_Node000001_Node000005"><a xlink:title=" ">
<path fill="none" stroke="#63b8ff" d="M189.79,-55.57C205.16,-46 222.92,-34.94 236.91,-26.24"/>
<polygon fill="#63b8ff" stroke="#63b8ff" points="238.41,-29.42 245.05,-21.17 234.71,-23.48 238.41,-29.42"/>
</a>
</g>
</g>
</g>
</svg>
