<?xml version="1.0" encoding="UTF-8" standalone="no"?>
<!DOCTYPE svg PUBLIC "-//W3C//DTD SVG 1.1//EN"
 "http://www.w3.org/Graphics/SVG/1.1/DTD/svg11.dtd">
<!-- Generated by graphviz version 12.2.1 (20241206.2353)
 -->
<!-- Title: enums.h Pages: 1 -->
<svg width="406pt" height="252pt"
 viewBox="0.00 0.00 405.97 252.00" xmlns="http://www.w3.org/2000/svg" xmlns:xlink="http://www.w3.org/1999/xlink">
<g id="graph0" class="graph" transform="scale(1 1) rotate(0) translate(4 248)">
<title>enums.h</title>
<!-- Node1 -->
<g id="Node000001" class="node">
<title>Node1</title>
<g id="a_Node000001"><a xlink:title="Enumerations for the maze builder program.">
<polygon fill="#999999" stroke="#666666" points="168.38,-244 114.88,-244 114.88,-224 168.38,-224 168.38,-244"/>
<text text-anchor="middle" x="141.62" y="-230.5" font-family="Helvetica,sans-Serif" font-size="10.00">enums.h</text>
</a>
</g>
</g>
<!-- Node2 -->
<g id="Node000002" class="node">
<title>Node2</title>
<g id="a_Node000002"><a xlink:href="configurator_8h.html" target="_top" xlink:title=" ">
<polygon fill="white" stroke="#666666" points="75.25,-188 0,-188 0,-168 75.25,-168 75.25,-188"/>
<text text-anchor="middle" x="37.62" y="-174.5" font-family="Helvetica,sans-Serif" font-size="10.00">configurator.h</text>
</a>
</g>
</g>
<!-- Node1&#45;&gt;Node2 -->
<g id="edge1_Node000001_Node000002" class="edge">
<title>Node1&#45;&gt;Node2</title>
<g id="a_edge1_Node000001_Node000002"><a xlink:title=" ">
<path fill="none" stroke="#63b8ff" d="M113.4,-218.35C95.1,-208.84 71.79,-196.74 55.88,-188.48"/>
<polygon fill="#63b8ff" stroke="#63b8ff" points="111.68,-221.39 122.17,-222.9 114.9,-215.18 111.68,-221.39"/>
</a>
</g>
</g>
<!-- Node3 -->
<g id="Node000003" class="node">
<title>Node3</title>
<g id="a_Node000003"><a xlink:href="factory_8h.html" target="_top" xlink:title=" ">
<polygon fill="white" stroke="#666666" points="113.38,-132 59.88,-132 59.88,-112 113.38,-112 113.38,-132"/>
<text text-anchor="middle" x="86.62" y="-118.5" font-family="Helvetica,sans-Serif" font-size="10.00">factory.h</text>
</a>
</g>
</g>
<!-- Node1&#45;&gt;Node3 -->
<g id="edge4_Node000001_Node000003" class="edge">
<title>Node1&#45;&gt;Node3</title>
<g id="a_edge4_Node000001_Node000003"><a xlink:title=" ">
<path fill="none" stroke="#63b8ff" d="M131.94,-213.62C120.02,-189.78 100.26,-150.28 91.3,-132.35"/>
<polygon fill="#63b8ff" stroke="#63b8ff" points="128.66,-214.89 136.26,-222.27 134.92,-211.76 128.66,-214.89"/>
</a>
</g>
</g>
<!-- Node4 -->
<g id="Node000004" class="node">
<title>Node4</title>
<g id="a_Node000004"><a xlink:href="maze__builder_8h.html" target="_top" xlink:title="This file includes all the headers in the maze builder library.">
<polygon fill="white" stroke="#666666" points="253.62,-20 171.62,-20 171.62,0 253.62,0 253.62,-20"/>
<text text-anchor="middle" x="212.62" y="-6.5" font-family="Helvetica,sans-Serif" font-size="10.00">maze_builder.h</text>
</a>
</g>
</g>
<!-- Node1&#45;&gt;Node4 -->
<g id="edge15_Node000001_Node000004" class="edge">
<title>Node1&#45;&gt;Node4</title>
<g id="a_edge15_Node000001_Node000004"><a xlink:title=" ">
<path fill="none" stroke="#63b8ff" d="M146.5,-212.71C154.7,-179.51 172.34,-111.68 192.62,-56 197.19,-43.47 203.62,-29.5 207.94,-20.5"/>
<polygon fill="#63b8ff" stroke="#63b8ff" points="143.16,-211.63 144.2,-222.17 149.96,-213.28 143.16,-211.63"/>
</a>
</g>
</g>
<!-- Node5 -->
<g id="Node000005" class="node">
<title>Node5</title>
<g id="a_Node000005"><a xlink:href="grid__interface_8h.html" target="_top" xlink:title=" ">
<polygon fill="white" stroke="#666666" points="269,-188 186.25,-188 186.25,-168 269,-168 269,-188"/>
<text text-anchor="middle" x="227.62" y="-174.5" font-family="Helvetica,sans-Serif" font-size="10.00">grid_interface.h</text>
</a>
</g>
</g>
<!-- Node1&#45;&gt;Node5 -->
<g id="edge5_Node000001_Node000005" class="edge">
<title>Node1&#45;&gt;Node5</title>
<g id="a_edge5_Node000001_Node000005"><a xlink:title=" ">
<path fill="none" stroke="#63b8ff" d="M166.24,-217.54C181.17,-208.17 199.75,-196.51 212.53,-188.48"/>
<polygon fill="#63b8ff" stroke="#63b8ff" points="164.49,-214.51 157.89,-222.79 168.22,-220.44 164.49,-214.51"/>
</a>
</g>
</g>
<!-- Node9 -->
<g id="Node000009" class="node">
<title>Node9</title>
<g id="a_Node000009"><a xlink:href="maze_8h.html" target="_top" xlink:title=" ">
<polygon fill="white" stroke="#666666" points="320.75,-132 272.5,-132 272.5,-112 320.75,-112 320.75,-132"/>
<text text-anchor="middle" x="296.62" y="-118.5" font-family="Helvetica,sans-Serif" font-size="10.00">maze.h</text>
</a>
</g>
</g>
<!-- Node1&#45;&gt;Node9 -->
<g id="edge14_Node000001_Node000009" class="edge">
<title>Node1&#45;&gt;Node9</title>
<g id="a_edge14_Node000001_Node000009"><a xlink:title=" ">
<path fill="none" stroke="#63b8ff" d="M179.84,-229.92C210.3,-225.46 251.97,-214.57 277.62,-188 292.49,-172.61 295.82,-146.25 296.51,-132.29"/>
<polygon fill="#63b8ff" stroke="#63b8ff" points="179.75,-226.4 170.28,-231.14 180.64,-233.34 179.75,-226.4"/>
</a>
</g>
</g>
<!-- Node2&#45;&gt;Node3 -->
<g id="edge2_Node000002_Node000003" class="edge">
<title>Node2&#45;&gt;Node3</title>
<g id="a_edge2_Node000002_Node000003"><a xlink:title=" ">
<path fill="none" stroke="#63b8ff" d="M53.7,-159.29C61.87,-150.28 71.47,-139.7 78.19,-132.3"/>
<polygon fill="#63b8ff" stroke="#63b8ff" points="51.31,-156.72 47.18,-166.47 56.49,-161.42 51.31,-156.72"/>
</a>
</g>
</g>
<!-- Node3&#45;&gt;Node4 -->
<g id="edge3_Node000003_Node000004" class="edge">
<title>Node3&#45;&gt;Node4</title>
<g id="a_edge3_Node000003_Node000004"><a xlink:title=" ">
<path fill="none" stroke="#63b8ff" d="M95.5,-101.48C102.63,-87.48 113.73,-68.88 127.62,-56 144.89,-40 168.92,-27.97 187.03,-20.4"/>
<polygon fill="#63b8ff" stroke="#63b8ff" points="92.51,-99.64 91.32,-110.17 98.81,-102.68 92.51,-99.64"/>
</a>
</g>
</g>
<!-- Node6 -->
<g id="Node000006" class="node">
<title>Node6</title>
<g id="a_Node000006"><a xlink:href="grid_8h.html" target="_top" xlink:title=" ">
<polygon fill="white" stroke="#666666" points="250.62,-132 210.62,-132 210.62,-112 250.62,-112 250.62,-132"/>
<text text-anchor="middle" x="230.62" y="-118.5" font-family="Helvetica,sans-Serif" font-size="10.00">grid.h</text>
</a>
</g>
</g>
<!-- Node5&#45;&gt;Node6 -->
<g id="edge6_Node000005_Node000006" class="edge">
<title>Node5&#45;&gt;Node6</title>
<g id="a_edge6_Node000005_Node000006"><a xlink:title=" ">
<path fill="none" stroke="#63b8ff" d="M228.78,-156.13C229.24,-147.9 229.74,-138.85 230.11,-132.3"/>
<polygon fill="#63b8ff" stroke="#63b8ff" points="225.29,-155.9 228.23,-166.08 232.28,-156.29 225.29,-155.9"/>
</a>
</g>
</g>
<!-- Node5&#45;&gt;Node9 -->
<g id="edge12_Node000005_Node000009" class="edge">
<title>Node5&#45;&gt;Node9</title>
<g id="a_edge12_Node000005_Node000009"><a xlink:title=" ">
<path fill="none" stroke="#63b8ff" d="M248.48,-160.68C260.35,-151.39 274.79,-140.09 284.74,-132.3"/>
<polygon fill="#63b8ff" stroke="#63b8ff" points="246.55,-157.74 240.84,-166.66 250.87,-163.25 246.55,-157.74"/>
</a>
</g>
</g>
<!-- Node6&#45;&gt;Node4 -->
<g id="edge11_Node000006_Node000004" class="edge">
<title>Node6&#45;&gt;Node4</title>
<g id="a_edge11_Node000006_Node000004"><a xlink:title=" ">
<path fill="none" stroke="#63b8ff" d="M213.87,-102.92C207.83,-95.21 201.74,-85.76 198.62,-76 192.45,-56.65 201.38,-33.18 207.57,-20.41"/>
<polygon fill="#63b8ff" stroke="#63b8ff" points="211.15,-105.11 220.29,-110.47 216.48,-100.58 211.15,-105.11"/>
</a>
</g>
</g>
<!-- Node7 -->
<g id="Node000007" class="node">
<title>Node7</title>
<g id="a_Node000007"><a xlink:href="colored__grid_8h.html" target="_top" xlink:title=" ">
<polygon fill="white" stroke="#666666" points="284,-76 207.25,-76 207.25,-56 284,-56 284,-76"/>
<text text-anchor="middle" x="245.62" y="-62.5" font-family="Helvetica,sans-Serif" font-size="10.00">colored_grid.h</text>
</a>
</g>
</g>
<!-- Node6&#45;&gt;Node7 -->
<g id="edge7_Node000006_Node000007" class="edge">
<title>Node6&#45;&gt;Node7</title>
<g id="a_edge7_Node000006_Node000007"><a xlink:title=" ">
<path fill="none" stroke="#63b8ff" d="M236.26,-100.71C238.59,-92.32 241.18,-83.01 243.04,-76.3"/>
<polygon fill="#63b8ff" stroke="#63b8ff" points="232.95,-99.56 233.64,-110.14 239.69,-101.44 232.95,-99.56"/>
</a>
</g>
</g>
<!-- Node8 -->
<g id="Node000008" class="node">
<title>Node8</title>
<g id="a_Node000008"><a xlink:href="distance__grid_8h.html" target="_top" xlink:title=" ">
<polygon fill="white" stroke="#666666" points="383.62,-76 301.62,-76 301.62,-56 383.62,-56 383.62,-76"/>
<text text-anchor="middle" x="342.62" y="-62.5" font-family="Helvetica,sans-Serif" font-size="10.00">distance_grid.h</text>
</a>
</g>
</g>
<!-- Node6&#45;&gt;Node8 -->
<g id="edge9_Node000006_Node000008" class="edge">
<title>Node6&#45;&gt;Node8</title>
<g id="a_edge9_Node000006_Node000008"><a xlink:title=" ">
<path fill="none" stroke="#63b8ff" d="M260.46,-106.61C280.26,-97.07 305.68,-84.81 322.96,-76.48"/>
<polygon fill="#63b8ff" stroke="#63b8ff" points="258.98,-103.44 251.5,-110.94 262.03,-109.75 258.98,-103.44"/>
</a>
</g>
</g>
<!-- Node7&#45;&gt;Node4 -->
<g id="edge8_Node000007_Node000004" class="edge">
<title>Node7&#45;&gt;Node4</title>
<g id="a_edge8_Node000007_Node000004"><a xlink:title=" ">
<path fill="none" stroke="#63b8ff" d="M233.93,-45.87C228.63,-37.19 222.6,-27.32 218.31,-20.3"/>
<polygon fill="#63b8ff" stroke="#63b8ff" points="230.89,-47.59 239.09,-54.3 236.86,-43.94 230.89,-47.59"/>
</a>
</g>
</g>
<!-- Node8&#45;&gt;Node4 -->
<g id="edge10_Node000008_Node000004" class="edge">
<title>Node8&#45;&gt;Node4</title>
<g id="a_edge10_Node000008_Node000004"><a xlink:title=" ">
<path fill="none" stroke="#63b8ff" d="M309.57,-51.27C286.39,-41.64 255.98,-29.01 235.45,-20.48"/>
<polygon fill="#63b8ff" stroke="#63b8ff" points="308.01,-54.41 318.58,-55.01 310.69,-47.94 308.01,-54.41"/>
</a>
</g>
</g>
<!-- Node9&#45;&gt;Node4 -->
<g id="edge13_Node000009_Node000004" class="edge">
<title>Node9&#45;&gt;Node4</title>
<g id="a_edge13_Node000009_Node000004"><a xlink:title=" ">
<path fill="none" stroke="#63b8ff" d="M332.06,-112.15C367.2,-101.64 413.08,-82.2 392.62,-56 375.73,-34.36 301.49,-21.58 253.79,-15.46"/>
<polygon fill="#63b8ff" stroke="#63b8ff" points="331.25,-108.74 322.58,-114.83 333.15,-115.47 331.25,-108.74"/>
</a>
</g>
</g>
</g>
</svg>
