<?xml version="1.0" encoding="UTF-8" standalone="no"?>
<!DOCTYPE svg PUBLIC "-//W3C//DTD SVG 1.1//EN"
 "http://www.w3.org/Graphics/SVG/1.1/DTD/svg11.dtd">
<!-- Generated by graphviz version 12.2.1 (20241206.2353)
 -->
<!-- Title: enums.h Pages: 1 -->
<svg width="188pt" height="84pt"
 viewBox="0.00 0.00 188.00 84.00" xmlns="http://www.w3.org/2000/svg" xmlns:xlink="http://www.w3.org/1999/xlink">
<g id="graph0" class="graph" transform="scale(1 1) rotate(0) translate(4 80)">
<title>enums.h</title>
<!-- Node1 -->
<g id="Node000001" class="node">
<title>Node1</title>
<g id="a_Node000001"><a xlink:title="Enumerations for the maze builder program.">
<polygon fill="#999999" stroke="#666666" points="110.38,-76 56.88,-76 56.88,-56 110.38,-56 110.38,-76"/>
<text text-anchor="middle" x="83.62" y="-62.5" font-family="Helvetica,sans-Serif" font-size="10.00">enums.h</text>
</a>
</g>
</g>
<!-- Node2 -->
<g id="Node000002" class="node">
<title>Node2</title>
<g id="a_Node000002"><a xlink:title=" ">
<polygon fill="#e0e0e0" stroke="#999999" points="45.25,-20 0,-20 0,0 45.25,0 45.25,-20"/>
<text text-anchor="middle" x="22.62" y="-6.5" font-family="Helvetica,sans-Serif" font-size="10.00">cstdint</text>
</a>
</g>
</g>
<!-- Node1&#45;&gt;Node2 -->
<g id="edge1_Node000001_Node000002" class="edge">
<title>Node1&#45;&gt;Node2</title>
<g id="a_edge1_Node000001_Node000002"><a xlink:title=" ">
<path fill="none" stroke="#63b8ff" d="M73,-55.59C64.34,-47.93 51.89,-36.91 41.54,-27.75"/>
<polygon fill="#63b8ff" stroke="#63b8ff" points="44.07,-25.31 34.26,-21.3 39.43,-30.55 44.07,-25.31"/>
</a>
</g>
</g>
<!-- Node3 -->
<g id="Node000003" class="node">
<title>Node3</title>
<g id="a_Node000003"><a xlink:title=" ">
<polygon fill="#e0e0e0" stroke="#999999" points="103.62,-20 63.62,-20 63.62,0 103.62,0 103.62,-20"/>
<text text-anchor="middle" x="83.62" y="-6.5" font-family="Helvetica,sans-Serif" font-size="10.00">string</text>
</a>
</g>
</g>
<!-- Node1&#45;&gt;Node3 -->
<g id="edge2_Node000001_Node000003" class="edge">
<title>Node1&#45;&gt;Node3</title>
<g id="a_edge2_Node000001_Node000003"><a xlink:title=" ">
<path fill="none" stroke="#63b8ff" d="M83.62,-55.59C83.62,-49.01 83.62,-39.96 83.62,-31.73"/>
<polygon fill="#63b8ff" stroke="#63b8ff" points="87.13,-31.81 83.63,-21.81 80.13,-31.81 87.13,-31.81"/>
</a>
</g>
</g>
<!-- Node4 -->
<g id="Node000004" class="node">
<title>Node4</title>
<g id="a_Node000004"><a xlink:title=" ">
<polygon fill="#e0e0e0" stroke="#999999" points="180,-20 121.25,-20 121.25,0 180,0 180,-20"/>
<text text-anchor="middle" x="150.62" y="-6.5" font-family="Helvetica,sans-Serif" font-size="10.00">stdexcept</text>
</a>
</g>
</g>
<!-- Node1&#45;&gt;Node4 -->
<g id="edge3_Node000001_Node000004" class="edge">
<title>Node1&#45;&gt;Node4</title>
<g id="a_edge3_Node000001_Node000004"><a xlink:title=" ">
<path fill="none" stroke="#63b8ff" d="M95.3,-55.59C104.9,-47.85 118.75,-36.69 130.19,-27.47"/>
<polygon fill="#63b8ff" stroke="#63b8ff" points="132.32,-30.25 137.91,-21.25 127.93,-24.8 132.32,-30.25"/>
</a>
</g>
</g>
</g>
</svg>
