<?xml version="1.0" encoding="UTF-8" standalone="no"?>
<!DOCTYPE svg PUBLIC "-//W3C//DTD SVG 1.1//EN"
 "http://www.w3.org/Graphics/SVG/1.1/DTD/svg11.dtd">
<!-- Generated by graphviz version 12.2.1 (20241206.2353)
 -->
<!-- Title: enums.h Pages: 1 -->
<svg width="370pt" height="252pt"
 viewBox="0.00 0.00 369.75 252.00" xmlns="http://www.w3.org/2000/svg" xmlns:xlink="http://www.w3.org/1999/xlink">
<g id="graph0" class="graph" transform="scale(1 1) rotate(0) translate(4 248)">
<title>enums.h</title>
<!-- Node1 -->
<g id="Node000001" class="node">
<title>Node1</title>
<g id="a_Node000001"><a xlink:title="Enumerations for the maze builder program.">
<polygon fill="#999999" stroke="#666666" points="146.5,-244 93,-244 93,-224 146.5,-224 146.5,-244"/>
<text text-anchor="middle" x="119.75" y="-230.5" font-family="Helvetica,sans-Serif" font-size="10.00">enums.h</text>
</a>
</g>
</g>
<!-- Node2 -->
<g id="Node000002" class="node">
<title>Node2</title>
<g id="a_Node000002"><a xlink:href="configurator_8h.html" target="_top" xlink:title=" ">
<polygon fill="white" stroke="#666666" points="91.38,-188 16.12,-188 16.12,-168 91.38,-168 91.38,-188"/>
<text text-anchor="middle" x="53.75" y="-174.5" font-family="Helvetica,sans-Serif" font-size="10.00">configurator.h</text>
</a>
</g>
</g>
<!-- Node1&#45;&gt;Node2 -->
<g id="edge1_Node000001_Node000002" class="edge">
<title>Node1&#45;&gt;Node2</title>
<g id="a_edge1_Node000001_Node000002"><a xlink:title=" ">
<path fill="none" stroke="#63b8ff" d="M99.46,-216.4C88.17,-207.17 74.54,-196.01 65.11,-188.3"/>
<polygon fill="#63b8ff" stroke="#63b8ff" points="97.13,-219.01 107.08,-222.64 101.56,-213.59 97.13,-219.01"/>
</a>
</g>
</g>
<!-- Node3 -->
<g id="Node000003" class="node">
<title>Node3</title>
<g id="a_Node000003"><a xlink:href="factory_8h.html" target="_top" xlink:title=" ">
<polygon fill="white" stroke="#666666" points="53.5,-132 0,-132 0,-112 53.5,-112 53.5,-132"/>
<text text-anchor="middle" x="26.75" y="-118.5" font-family="Helvetica,sans-Serif" font-size="10.00">factory.h</text>
</a>
</g>
</g>
<!-- Node1&#45;&gt;Node3 -->
<g id="edge5_Node000001_Node000003" class="edge">
<title>Node1&#45;&gt;Node3</title>
<g id="a_edge5_Node000001_Node000003"><a xlink:title=" ">
<path fill="none" stroke="#63b8ff" d="M81.66,-228.78C55.81,-223.71 23.4,-212.55 6.75,-188 -5.18,-170.41 9.56,-145.42 19.35,-132.13"/>
<polygon fill="#63b8ff" stroke="#63b8ff" points="81.06,-232.23 91.51,-230.45 82.23,-225.33 81.06,-232.23"/>
</a>
</g>
</g>
<!-- Node4 -->
<g id="Node000004" class="node">
<title>Node4</title>
<g id="a_Node000004"><a xlink:href="maze__builder_8h.html" target="_top" xlink:title="This file includes all the headers in the maze builder library.">
<polygon fill="white" stroke="#666666" points="179.75,-20 97.75,-20 97.75,0 179.75,0 179.75,-20"/>
<text text-anchor="middle" x="138.75" y="-6.5" font-family="Helvetica,sans-Serif" font-size="10.00">maze_builder.h</text>
</a>
</g>
</g>
<!-- Node1&#45;&gt;Node4 -->
<g id="edge14_Node000001_Node000004" class="edge">
<title>Node1&#45;&gt;Node4</title>
<g id="a_edge14_Node000001_Node000004"><a xlink:title=" ">
<path fill="none" stroke="#63b8ff" d="M121.51,-212.45C125.5,-165.79 135.12,-53.36 137.95,-20.3"/>
<polygon fill="#63b8ff" stroke="#63b8ff" points="118.04,-211.97 120.67,-222.24 125.01,-212.57 118.04,-211.97"/>
</a>
</g>
</g>
<!-- Node5 -->
<g id="Node000005" class="node">
<title>Node5</title>
<g id="a_Node000005"><a xlink:href="grid_8h.html" target="_top" xlink:title=" ">
<polygon fill="white" stroke="#666666" points="243.75,-132 203.75,-132 203.75,-112 243.75,-112 243.75,-132"/>
<text text-anchor="middle" x="223.75" y="-118.5" font-family="Helvetica,sans-Serif" font-size="10.00">grid.h</text>
</a>
</g>
</g>
<!-- Node1&#45;&gt;Node5 -->
<g id="edge6_Node000001_Node000005" class="edge">
<title>Node1&#45;&gt;Node5</title>
<g id="a_edge6_Node000001_Node000005"><a xlink:title=" ">
<path fill="none" stroke="#63b8ff" d="M134.91,-214.87C146.17,-201.61 162.05,-183.36 176.75,-168 188.94,-155.27 203.72,-141.34 213.42,-132.41"/>
<polygon fill="#63b8ff" stroke="#63b8ff" points="132.37,-212.46 128.59,-222.36 137.72,-216.97 132.37,-212.46"/>
</a>
</g>
</g>
<!-- Node8 -->
<g id="Node000008" class="node">
<title>Node8</title>
<g id="a_Node000008"><a xlink:href="grid__interface_8h.html" target="_top" xlink:title=" ">
<polygon fill="white" stroke="#666666" points="268.12,-188 185.38,-188 185.38,-168 268.12,-168 268.12,-188"/>
<text text-anchor="middle" x="226.75" y="-174.5" font-family="Helvetica,sans-Serif" font-size="10.00">grid_interface.h</text>
</a>
</g>
</g>
<!-- Node1&#45;&gt;Node8 -->
<g id="edge12_Node000001_Node000008" class="edge">
<title>Node1&#45;&gt;Node8</title>
<g id="a_edge12_Node000001_Node000008"><a xlink:title=" ">
<path fill="none" stroke="#63b8ff" d="M148.52,-218.48C167.39,-208.96 191.53,-196.78 207.97,-188.48"/>
<polygon fill="#63b8ff" stroke="#63b8ff" points="147.09,-215.28 139.74,-222.91 150.24,-221.53 147.09,-215.28"/>
</a>
</g>
</g>
<!-- Node2&#45;&gt;Node3 -->
<g id="edge2_Node000002_Node000003" class="edge">
<title>Node2&#45;&gt;Node3</title>
<g id="a_edge2_Node000002_Node000003"><a xlink:title=" ">
<path fill="none" stroke="#63b8ff" d="M44.04,-157.58C39.73,-148.97 34.87,-139.24 31.4,-132.3"/>
<polygon fill="#63b8ff" stroke="#63b8ff" points="40.77,-158.86 48.37,-166.24 47.03,-155.73 40.77,-158.86"/>
</a>
</g>
</g>
<!-- Node2&#45;&gt;Node4 -->
<g id="edge4_Node000002_Node000004" class="edge">
<title>Node2&#45;&gt;Node4</title>
<g id="a_edge4_Node000002_Node000004"><a xlink:title=" ">
<path fill="none" stroke="#63b8ff" d="M60.84,-156.74C69.81,-132.15 86.43,-89.79 105.75,-56 113.25,-42.88 123.86,-29.04 131.01,-20.23"/>
<polygon fill="#63b8ff" stroke="#63b8ff" points="57.56,-155.53 57.49,-166.13 64.15,-157.89 57.56,-155.53"/>
</a>
</g>
</g>
<!-- Node3&#45;&gt;Node4 -->
<g id="edge3_Node000003_Node000004" class="edge">
<title>Node3&#45;&gt;Node4</title>
<g id="a_edge3_Node000003_Node000004"><a xlink:title=" ">
<path fill="none" stroke="#63b8ff" d="M35.93,-101.8C43.21,-87.95 54.36,-69.41 67.75,-56 82.8,-40.92 103.78,-28.4 119.02,-20.43"/>
<polygon fill="#63b8ff" stroke="#63b8ff" points="33,-99.85 31.64,-110.36 39.25,-102.99 33,-99.85"/>
</a>
</g>
</g>
<!-- Node5&#45;&gt;Node4 -->
<g id="edge11_Node000005_Node000004" class="edge">
<title>Node5&#45;&gt;Node4</title>
<g id="a_edge11_Node000005_Node000004"><a xlink:title=" ">
<path fill="none" stroke="#63b8ff" d="M203.84,-104.22C194.97,-96.19 184.75,-86.14 176.75,-76 162.34,-57.73 149.6,-33.44 143.17,-20.34"/>
<polygon fill="#63b8ff" stroke="#63b8ff" points="201.48,-106.8 211.31,-110.77 206.1,-101.54 201.48,-106.8"/>
</a>
</g>
</g>
<!-- Node6 -->
<g id="Node000006" class="node">
<title>Node6</title>
<g id="a_Node000006"><a xlink:href="colored__grid_8h.html" target="_top" xlink:title=" ">
<polygon fill="white" stroke="#666666" points="262.12,-76 185.38,-76 185.38,-56 262.12,-56 262.12,-76"/>
<text text-anchor="middle" x="223.75" y="-62.5" font-family="Helvetica,sans-Serif" font-size="10.00">colored_grid.h</text>
</a>
</g>
</g>
<!-- Node5&#45;&gt;Node6 -->
<g id="edge7_Node000005_Node000006" class="edge">
<title>Node5&#45;&gt;Node6</title>
<g id="a_edge7_Node000005_Node000006"><a xlink:title=" ">
<path fill="none" stroke="#63b8ff" d="M223.75,-100.13C223.75,-91.9 223.75,-82.85 223.75,-76.3"/>
<polygon fill="#63b8ff" stroke="#63b8ff" points="220.25,-100.08 223.75,-110.08 227.25,-100.08 220.25,-100.08"/>
</a>
</g>
</g>
<!-- Node7 -->
<g id="Node000007" class="node">
<title>Node7</title>
<g id="a_Node000007"><a xlink:href="distance__grid_8h.html" target="_top" xlink:title=" ">
<polygon fill="white" stroke="#666666" points="361.75,-76 279.75,-76 279.75,-56 361.75,-56 361.75,-76"/>
<text text-anchor="middle" x="320.75" y="-62.5" font-family="Helvetica,sans-Serif" font-size="10.00">distance_grid.h</text>
</a>
</g>
</g>
<!-- Node5&#45;&gt;Node7 -->
<g id="edge9_Node000005_Node000007" class="edge">
<title>Node5&#45;&gt;Node7</title>
<g id="a_edge9_Node000005_Node000007"><a xlink:title=" ">
<path fill="none" stroke="#63b8ff" d="M250.55,-106.08C267.55,-96.62 289.03,-84.66 303.72,-76.48"/>
<polygon fill="#63b8ff" stroke="#63b8ff" points="249,-102.94 241.97,-110.86 252.41,-109.05 249,-102.94"/>
</a>
</g>
</g>
<!-- Node6&#45;&gt;Node4 -->
<g id="edge8_Node000006_Node000004" class="edge">
<title>Node6&#45;&gt;Node4</title>
<g id="a_edge8_Node000006_Node000004"><a xlink:title=" ">
<path fill="none" stroke="#63b8ff" d="M199.42,-49.54C184.66,-40.17 166.31,-28.51 153.67,-20.48"/>
<polygon fill="#63b8ff" stroke="#63b8ff" points="197.35,-52.37 207.67,-54.78 201.1,-46.47 197.35,-52.37"/>
</a>
</g>
</g>
<!-- Node7&#45;&gt;Node4 -->
<g id="edge10_Node000007_Node000004" class="edge">
<title>Node7&#45;&gt;Node4</title>
<g id="a_edge10_Node000007_Node000004"><a xlink:title=" ">
<path fill="none" stroke="#63b8ff" d="M278.39,-52.43C245.51,-42.67 200.61,-29.35 170.7,-20.48"/>
<polygon fill="#63b8ff" stroke="#63b8ff" points="277.01,-55.67 287.6,-55.16 279.01,-48.96 277.01,-55.67"/>
</a>
</g>
</g>
<!-- Node8&#45;&gt;Node5 -->
<g id="edge13_Node000008_Node000005" class="edge">
<title>Node8&#45;&gt;Node5</title>
<g id="a_edge13_Node000008_Node000005"><a xlink:title=" ">
<path fill="none" stroke="#63b8ff" d="M225.59,-156.13C225.13,-147.9 224.63,-138.85 224.27,-132.3"/>
<polygon fill="#63b8ff" stroke="#63b8ff" points="222.09,-156.29 226.14,-166.08 229.08,-155.9 222.09,-156.29"/>
</a>
</g>
</g>
</g>
</svg>
