<?xml version="1.0" encoding="UTF-8" standalone="no"?>
<!DOCTYPE svg PUBLIC "-//W3C//DTD SVG 1.1//EN"
 "http://www.w3.org/Graphics/SVG/1.1/DTD/svg11.dtd">
<!-- Generated by graphviz version 12.2.1 (20241206.2353)
 -->
<!-- Title: enums.h Pages: 1 -->
<svg width="308pt" height="308pt"
 viewBox="0.00 0.00 308.12 308.00" xmlns="http://www.w3.org/2000/svg" xmlns:xlink="http://www.w3.org/1999/xlink">
<g id="graph0" class="graph" transform="scale(1 1) rotate(0) translate(4 304)">
<title>enums.h</title>
<!-- Node1 -->
<g id="Node000001" class="node">
<title>Node1</title>
<g id="a_Node000001"><a xlink:title="Enumerations for the maze builder program.">
<polygon fill="#999999" stroke="#666666" points="113.5,-300 60,-300 60,-280 113.5,-280 113.5,-300"/>
<text text-anchor="middle" x="86.75" y="-286.5" font-family="Helvetica,sans-Serif" font-size="10.00">enums.h</text>
</a>
</g>
</g>
<!-- Node2 -->
<g id="Node000002" class="node">
<title>Node2</title>
<g id="a_Node000002"><a xlink:href="configurator_8h.html" target="_top" xlink:title=" ">
<polygon fill="white" stroke="#666666" points="91.38,-244 16.12,-244 16.12,-224 91.38,-224 91.38,-244"/>
<text text-anchor="middle" x="53.75" y="-230.5" font-family="Helvetica,sans-Serif" font-size="10.00">configurator.h</text>
</a>
</g>
</g>
<!-- Node1&#45;&gt;Node2 -->
<g id="edge1_Node000001_Node000002" class="edge">
<title>Node1&#45;&gt;Node2</title>
<g id="a_edge1_Node000001_Node000002"><a xlink:title=" ">
<path fill="none" stroke="#63b8ff" d="M75.06,-269.87C69.75,-261.19 63.72,-251.32 59.43,-244.3"/>
<polygon fill="#63b8ff" stroke="#63b8ff" points="72.01,-271.59 80.21,-278.3 77.98,-267.94 72.01,-271.59"/>
</a>
</g>
</g>
<!-- Node3 -->
<g id="Node000003" class="node">
<title>Node3</title>
<g id="a_Node000003"><a xlink:href="factory_8h.html" target="_top" xlink:title=" ">
<polygon fill="white" stroke="#666666" points="53.5,-188 0,-188 0,-168 53.5,-168 53.5,-188"/>
<text text-anchor="middle" x="26.75" y="-174.5" font-family="Helvetica,sans-Serif" font-size="10.00">factory.h</text>
</a>
</g>
</g>
<!-- Node1&#45;&gt;Node3 -->
<g id="edge5_Node000001_Node000003" class="edge">
<title>Node1&#45;&gt;Node3</title>
<g id="a_edge5_Node000001_Node000003"><a xlink:title=" ">
<path fill="none" stroke="#63b8ff" d="M49.37,-277.6C33.28,-270.63 16.06,-259.91 6.75,-244 -3.86,-225.86 9.95,-201.52 19.36,-188.37"/>
<polygon fill="#63b8ff" stroke="#63b8ff" points="47.69,-280.7 58.28,-281.1 50.26,-274.19 47.69,-280.7"/>
</a>
</g>
</g>
<!-- Node4 -->
<g id="Node000004" class="node">
<title>Node4</title>
<g id="a_Node000004"><a xlink:href="maze__builder_8h.html" target="_top" xlink:title="This file includes all the headers in the maze builder library.">
<polygon fill="white" stroke="#666666" points="179.75,-20 97.75,-20 97.75,0 179.75,0 179.75,-20"/>
<text text-anchor="middle" x="138.75" y="-6.5" font-family="Helvetica,sans-Serif" font-size="10.00">maze_builder.h</text>
</a>
</g>
</g>
<!-- Node1&#45;&gt;Node4 -->
<g id="edge13_Node000001_Node000004" class="edge">
<title>Node1&#45;&gt;Node4</title>
<g id="a_edge13_Node000001_Node000004"><a xlink:title=" ">
<path fill="none" stroke="#63b8ff" d="M96.39,-269.44C106.13,-247.84 119.75,-211.79 119.75,-179 119.75,-179 119.75,-179 119.75,-121 119.75,-83.21 130.77,-39.17 136.03,-20.32"/>
<polygon fill="#63b8ff" stroke="#63b8ff" points="93.36,-267.67 92.26,-278.21 99.69,-270.65 93.36,-267.67"/>
</a>
</g>
</g>
<!-- Node5 -->
<g id="Node000005" class="node">
<title>Node5</title>
<g id="a_Node000005"><a xlink:href="grid__interface_8h.html" target="_top" xlink:title=" ">
<polygon fill="white" stroke="#666666" points="230.12,-244 147.38,-244 147.38,-224 230.12,-224 230.12,-244"/>
<text text-anchor="middle" x="188.75" y="-230.5" font-family="Helvetica,sans-Serif" font-size="10.00">grid_interface.h</text>
</a>
</g>
</g>
<!-- Node1&#45;&gt;Node5 -->
<g id="edge6_Node000001_Node000005" class="edge">
<title>Node1&#45;&gt;Node5</title>
<g id="a_edge6_Node000001_Node000005"><a xlink:title=" ">
<path fill="none" stroke="#63b8ff" d="M114.68,-274.21C132.59,-264.73 155.32,-252.7 170.84,-244.48"/>
<polygon fill="#63b8ff" stroke="#63b8ff" points="113.05,-271.11 105.85,-278.89 116.33,-277.3 113.05,-271.11"/>
</a>
</g>
</g>
<!-- Node2&#45;&gt;Node3 -->
<g id="edge2_Node000002_Node000003" class="edge">
<title>Node2&#45;&gt;Node3</title>
<g id="a_edge2_Node000002_Node000003"><a xlink:title=" ">
<path fill="none" stroke="#63b8ff" d="M44.04,-213.58C39.73,-204.97 34.87,-195.24 31.4,-188.3"/>
<polygon fill="#63b8ff" stroke="#63b8ff" points="40.77,-214.86 48.37,-222.24 47.03,-211.73 40.77,-214.86"/>
</a>
</g>
</g>
<!-- Node2&#45;&gt;Node4 -->
<g id="edge4_Node000002_Node000004" class="edge">
<title>Node2&#45;&gt;Node4</title>
<g id="a_edge4_Node000002_Node000004"><a xlink:title=" ">
<path fill="none" stroke="#63b8ff" d="M58.79,-212.61C68.9,-172.33 91.88,-84.04 105.75,-56 112.36,-42.63 122.96,-29.06 130.36,-20.37"/>
<polygon fill="#63b8ff" stroke="#63b8ff" points="55.43,-211.64 56.4,-222.19 62.22,-213.33 55.43,-211.64"/>
</a>
</g>
</g>
<!-- Node3&#45;&gt;Node4 -->
<g id="edge3_Node000003_Node000004" class="edge">
<title>Node3&#45;&gt;Node4</title>
<g id="a_edge3_Node000003_Node000004"><a xlink:title=" ">
<path fill="none" stroke="#63b8ff" d="M29.42,-156.51C33.67,-130.72 44.06,-86.13 67.75,-56 80.38,-39.94 100.43,-27.99 116.01,-20.45"/>
<polygon fill="#63b8ff" stroke="#63b8ff" points="25.97,-155.92 27.98,-166.32 32.9,-156.94 25.97,-155.92"/>
</a>
</g>
</g>
<!-- Node6 -->
<g id="Node000006" class="node">
<title>Node6</title>
<g id="a_Node000006"><a xlink:href="grid_8h.html" target="_top" xlink:title=" ">
<polygon fill="white" stroke="#666666" points="208.75,-188 168.75,-188 168.75,-168 208.75,-168 208.75,-188"/>
<text text-anchor="middle" x="188.75" y="-174.5" font-family="Helvetica,sans-Serif" font-size="10.00">grid.h</text>
</a>
</g>
</g>
<!-- Node5&#45;&gt;Node6 -->
<g id="edge7_Node000005_Node000006" class="edge">
<title>Node5&#45;&gt;Node6</title>
<g id="a_edge7_Node000005_Node000006"><a xlink:title=" ">
<path fill="none" stroke="#63b8ff" d="M188.75,-212.13C188.75,-203.9 188.75,-194.85 188.75,-188.3"/>
<polygon fill="#63b8ff" stroke="#63b8ff" points="185.25,-212.08 188.75,-222.08 192.25,-212.08 185.25,-212.08"/>
</a>
</g>
</g>
<!-- Node6&#45;&gt;Node4 -->
<g id="edge12_Node000006_Node000004" class="edge">
<title>Node6&#45;&gt;Node4</title>
<g id="a_edge12_Node000006_Node000004"><a xlink:title=" ">
<path fill="none" stroke="#63b8ff" d="M182.72,-156.97C171.86,-120.92 149.42,-46.42 141.55,-20.3"/>
<polygon fill="#63b8ff" stroke="#63b8ff" points="179.25,-157.58 185.48,-166.15 185.95,-155.57 179.25,-157.58"/>
</a>
</g>
</g>
<!-- Node7 -->
<g id="Node000007" class="node">
<title>Node7</title>
<g id="a_Node000007"><a xlink:href="distance__grid_8h.html" target="_top" xlink:title=" ">
<polygon fill="white" stroke="#666666" points="267.75,-132 185.75,-132 185.75,-112 267.75,-112 267.75,-132"/>
<text text-anchor="middle" x="226.75" y="-118.5" font-family="Helvetica,sans-Serif" font-size="10.00">distance_grid.h</text>
</a>
</g>
</g>
<!-- Node6&#45;&gt;Node7 -->
<g id="edge8_Node000006_Node000007" class="edge">
<title>Node6&#45;&gt;Node7</title>
<g id="a_edge8_Node000006_Node000007"><a xlink:title=" ">
<path fill="none" stroke="#63b8ff" d="M201.81,-158.44C208.02,-149.62 215.16,-139.47 220.21,-132.3"/>
<polygon fill="#63b8ff" stroke="#63b8ff" points="199.13,-156.16 196.24,-166.36 204.86,-160.19 199.13,-156.16"/>
</a>
</g>
</g>
<!-- Node7&#45;&gt;Node4 -->
<g id="edge11_Node000007_Node000004" class="edge">
<title>Node7&#45;&gt;Node4</title>
<g id="a_edge11_Node000007_Node000004"><a xlink:title=" ">
<path fill="none" stroke="#63b8ff" d="M212.27,-102.9C193.33,-79.22 160.83,-38.6 146.23,-20.35"/>
<polygon fill="#63b8ff" stroke="#63b8ff" points="209.32,-104.82 218.3,-110.44 214.79,-100.44 209.32,-104.82"/>
</a>
</g>
</g>
<!-- Node8 -->
<g id="Node000008" class="node">
<title>Node8</title>
<g id="a_Node000008"><a xlink:href="colored__grid_8h.html" target="_top" xlink:title=" ">
<polygon fill="white" stroke="#666666" points="300.12,-76 223.38,-76 223.38,-56 300.12,-56 300.12,-76"/>
<text text-anchor="middle" x="261.75" y="-62.5" font-family="Helvetica,sans-Serif" font-size="10.00">colored_grid.h</text>
</a>
</g>
</g>
<!-- Node7&#45;&gt;Node8 -->
<g id="edge9_Node000007_Node000008" class="edge">
<title>Node7&#45;&gt;Node8</title>
<g id="a_edge9_Node000007_Node000008"><a xlink:title=" ">
<path fill="none" stroke="#63b8ff" d="M238.97,-102.15C244.64,-93.4 251.13,-83.39 255.72,-76.3"/>
<polygon fill="#63b8ff" stroke="#63b8ff" points="236.17,-100.03 233.67,-110.32 242.05,-103.84 236.17,-100.03"/>
</a>
</g>
</g>
<!-- Node8&#45;&gt;Node4 -->
<g id="edge10_Node000008_Node000004" class="edge">
<title>Node8&#45;&gt;Node4</title>
<g id="a_edge10_Node000008_Node000004"><a xlink:title=" ">
<path fill="none" stroke="#63b8ff" d="M229.88,-51.01C208.02,-41.41 179.59,-28.93 160.34,-20.48"/>
<polygon fill="#63b8ff" stroke="#63b8ff" points="228.38,-54.17 238.94,-54.99 231.19,-47.76 228.38,-54.17"/>
</a>
</g>
</g>
</g>
</svg>
