<?xml version="1.0" encoding="UTF-8" standalone="no"?>
<!DOCTYPE svg PUBLIC "-//W3C//DTD SVG 1.1//EN"
 "http://www.w3.org/Graphics/SVG/1.1/DTD/svg11.dtd">
<!-- Generated by graphviz version 12.2.1 (20241206.2353)
 -->
<!-- Title: factory.h Pages: 1 -->
<svg width="458pt" height="196pt"
 viewBox="0.00 0.00 458.12 196.00" xmlns="http://www.w3.org/2000/svg" xmlns:xlink="http://www.w3.org/1999/xlink">
<g id="graph0" class="graph" transform="scale(1 1) rotate(0) translate(4 192)">
<title>factory.h</title>
<!-- Node1 -->
<g id="Node000001" class="node">
<title>Node1</title>
<g id="a_Node000001"><a xlink:title=" ">
<polygon fill="#999999" stroke="#666666" points="229.75,-188 176.25,-188 176.25,-168 229.75,-168 229.75,-188"/>
<text text-anchor="middle" x="203" y="-174.5" font-family="Helvetica,sans-Serif" font-size="10.00">factory.h</text>
</a>
</g>
</g>
<!-- Node2 -->
<g id="Node000002" class="node">
<title>Node2</title>
<g id="a_Node000002"><a xlink:title=" ">
<polygon fill="#e0e0e0" stroke="#999999" points="58,-132 0,-132 0,-112 58,-112 58,-132"/>
<text text-anchor="middle" x="29" y="-118.5" font-family="Helvetica,sans-Serif" font-size="10.00">functional</text>
</a>
</g>
</g>
<!-- Node1&#45;&gt;Node2 -->
<g id="edge1_Node000001_Node000002" class="edge">
<title>Node1&#45;&gt;Node2</title>
<g id="a_edge1_Node000001_Node000002"><a xlink:title=" ">
<path fill="none" stroke="#63b8ff" d="M175.81,-168.56C147.13,-159.66 101.64,-145.54 68.89,-135.38"/>
<polygon fill="#63b8ff" stroke="#63b8ff" points="70.35,-132.17 59.77,-132.55 68.28,-138.85 70.35,-132.17"/>
</a>
</g>
</g>
<!-- Node3 -->
<g id="Node000003" class="node">
<title>Node3</title>
<g id="a_Node000003"><a xlink:title=" ">
<polygon fill="#e0e0e0" stroke="#999999" points="127.62,-132 76.38,-132 76.38,-112 127.62,-112 127.62,-132"/>
<text text-anchor="middle" x="102" y="-118.5" font-family="Helvetica,sans-Serif" font-size="10.00">memory</text>
</a>
</g>
</g>
<!-- Node1&#45;&gt;Node3 -->
<g id="edge2_Node000001_Node000003" class="edge">
<title>Node1&#45;&gt;Node3</title>
<g id="a_edge2_Node000001_Node000003"><a xlink:title=" ">
<path fill="none" stroke="#63b8ff" d="M185.41,-167.59C170.08,-159.4 147.58,-147.37 129.81,-137.87"/>
<polygon fill="#63b8ff" stroke="#63b8ff" points="131.53,-134.82 121.06,-133.19 128.23,-140.99 131.53,-134.82"/>
</a>
</g>
</g>
<!-- Node4 -->
<g id="Node000004" class="node">
<title>Node4</title>
<g id="a_Node000004"><a xlink:title=" ">
<polygon fill="#e0e0e0" stroke="#999999" points="194.12,-132 145.88,-132 145.88,-112 194.12,-112 194.12,-132"/>
<text text-anchor="middle" x="170" y="-118.5" font-family="Helvetica,sans-Serif" font-size="10.00">random</text>
</a>
</g>
</g>
<!-- Node1&#45;&gt;Node4 -->
<g id="edge3_Node000001_Node000004" class="edge">
<title>Node1&#45;&gt;Node4</title>
<g id="a_edge3_Node000001_Node000004"><a xlink:title=" ">
<path fill="none" stroke="#63b8ff" d="M197.25,-167.59C192.95,-160.55 186.91,-150.67 181.61,-142"/>
<polygon fill="#63b8ff" stroke="#63b8ff" points="184.67,-140.3 176.47,-133.59 178.7,-143.95 184.67,-140.3"/>
</a>
</g>
</g>
<!-- Node5 -->
<g id="Node000005" class="node">
<title>Node5</title>
<g id="a_Node000005"><a xlink:title=" ">
<polygon fill="#e0e0e0" stroke="#999999" points="261.88,-132 212.12,-132 212.12,-112 261.88,-112 261.88,-132"/>
<text text-anchor="middle" x="237" y="-118.5" font-family="Helvetica,sans-Serif" font-size="10.00">optional</text>
</a>
</g>
</g>
<!-- Node1&#45;&gt;Node5 -->
<g id="edge4_Node000001_Node000005" class="edge">
<title>Node1&#45;&gt;Node5</title>
<g id="a_edge4_Node000001_Node000005"><a xlink:title=" ">
<path fill="none" stroke="#63b8ff" d="M208.92,-167.59C213.36,-160.55 219.58,-150.67 225.04,-142"/>
<polygon fill="#63b8ff" stroke="#63b8ff" points="227.97,-143.91 230.34,-133.58 222.05,-140.18 227.97,-143.91"/>
</a>
</g>
</g>
<!-- Node6 -->
<g id="Node000006" class="node">
<title>Node6</title>
<g id="a_Node000006"><a xlink:href="enums_8h.html" target="_top" xlink:title="Enumerations for the maze builder program.">
<polygon fill="white" stroke="#666666" points="356.25,-76 245.75,-76 245.75,-56 356.25,-56 356.25,-76"/>
<text text-anchor="middle" x="301" y="-62.5" font-family="Helvetica,sans-Serif" font-size="10.00">MazeBuilder/enums.h</text>
</a>
</g>
</g>
<!-- Node1&#45;&gt;Node6 -->
<g id="edge5_Node000001_Node000006" class="edge">
<title>Node1&#45;&gt;Node6</title>
<g id="a_edge5_Node000001_Node000006"><a xlink:title=" ">
<path fill="none" stroke="#63b8ff" d="M223.03,-167.58C237.87,-159.77 257.72,-147.47 271,-132 282.27,-118.87 290.15,-100.8 295,-87.04"/>
<polygon fill="#63b8ff" stroke="#63b8ff" points="298.26,-88.33 298.02,-77.74 291.61,-86.17 298.26,-88.33"/>
</a>
</g>
</g>
<!-- Node10 -->
<g id="Node000010" class="node">
<title>Node10</title>
<g id="a_Node000010"><a xlink:href="configurator_8h.html" target="_top" xlink:title=" ">
<polygon fill="white" stroke="#666666" points="450.12,-132 317.88,-132 317.88,-112 450.12,-112 450.12,-132"/>
<text text-anchor="middle" x="384" y="-118.5" font-family="Helvetica,sans-Serif" font-size="10.00">MazeBuilder/configurator.h</text>
</a>
</g>
</g>
<!-- Node1&#45;&gt;Node10 -->
<g id="edge9_Node000001_Node000010" class="edge">
<title>Node1&#45;&gt;Node10</title>
<g id="a_edge9_Node000001_Node000010"><a xlink:title=" ">
<path fill="none" stroke="#63b8ff" d="M230.1,-168.92C259.64,-160.1 307.3,-145.88 341.76,-135.6"/>
<polygon fill="#63b8ff" stroke="#63b8ff" points="342.42,-139.06 351,-132.85 340.42,-132.35 342.42,-139.06"/>
</a>
</g>
</g>
<!-- Node7 -->
<g id="Node000007" class="node">
<title>Node7</title>
<g id="a_Node000007"><a xlink:title=" ">
<polygon fill="#e0e0e0" stroke="#999999" points="257.62,-20 212.38,-20 212.38,0 257.62,0 257.62,-20"/>
<text text-anchor="middle" x="235" y="-6.5" font-family="Helvetica,sans-Serif" font-size="10.00">cstdint</text>
</a>
</g>
</g>
<!-- Node6&#45;&gt;Node7 -->
<g id="edge6_Node000006_Node000007" class="edge">
<title>Node6&#45;&gt;Node7</title>
<g id="a_edge6_Node000006_Node000007"><a xlink:title=" ">
<path fill="none" stroke="#63b8ff" d="M289.5,-55.59C280.04,-47.85 266.4,-36.69 255.13,-27.47"/>
<polygon fill="#63b8ff" stroke="#63b8ff" points="257.49,-24.88 247.54,-21.26 253.06,-30.3 257.49,-24.88"/>
</a>
</g>
</g>
<!-- Node8 -->
<g id="Node000008" class="node">
<title>Node8</title>
<g id="a_Node000008"><a xlink:title=" ">
<polygon fill="#e0e0e0" stroke="#999999" points="400,-20 360,-20 360,0 400,0 400,-20"/>
<text text-anchor="middle" x="380" y="-6.5" font-family="Helvetica,sans-Serif" font-size="10.00">string</text>
</a>
</g>
</g>
<!-- Node6&#45;&gt;Node8 -->
<g id="edge7_Node000006_Node000008" class="edge">
<title>Node6&#45;&gt;Node8</title>
<g id="a_edge7_Node000006_Node000008"><a xlink:title=" ">
<path fill="none" stroke="#63b8ff" d="M314.76,-55.59C326.36,-47.67 343.2,-36.16 356.86,-26.82"/>
<polygon fill="#63b8ff" stroke="#63b8ff" points="358.6,-29.87 364.88,-21.33 354.65,-24.09 358.6,-29.87"/>
</a>
</g>
</g>
<!-- Node9 -->
<g id="Node000009" class="node">
<title>Node9</title>
<g id="a_Node000009"><a xlink:title=" ">
<polygon fill="#e0e0e0" stroke="#999999" points="334.38,-20 275.62,-20 275.62,0 334.38,0 334.38,-20"/>
<text text-anchor="middle" x="305" y="-6.5" font-family="Helvetica,sans-Serif" font-size="10.00">stdexcept</text>
</a>
</g>
</g>
<!-- Node6&#45;&gt;Node9 -->
<g id="edge8_Node000006_Node000009" class="edge">
<title>Node6&#45;&gt;Node9</title>
<g id="a_edge8_Node000006_Node000009"><a xlink:title=" ">
<path fill="none" stroke="#63b8ff" d="M301.7,-55.59C302.18,-49.01 302.85,-39.96 303.46,-31.73"/>
<polygon fill="#63b8ff" stroke="#63b8ff" points="306.95,-32.04 304.2,-21.81 299.97,-31.52 306.95,-32.04"/>
</a>
</g>
</g>
<!-- Node10&#45;&gt;Node6 -->
<g id="edge11_Node000010_Node000006" class="edge">
<title>Node10&#45;&gt;Node6</title>
<g id="a_edge11_Node000010_Node000006"><a xlink:title=" ">
<path fill="none" stroke="#63b8ff" d="M369.54,-111.59C357.24,-103.59 339.32,-91.93 324.89,-82.54"/>
<polygon fill="#63b8ff" stroke="#63b8ff" points="327.13,-79.82 316.84,-77.3 323.31,-85.69 327.13,-79.82"/>
</a>
</g>
</g>
<!-- Node10&#45;&gt;Node8 -->
<g id="edge10_Node000010_Node000008" class="edge">
<title>Node10&#45;&gt;Node8</title>
<g id="a_edge10_Node000010_Node000008"><a xlink:title=" ">
<path fill="none" stroke="#63b8ff" d="M383.66,-111.62C383.02,-94.01 381.62,-55.59 380.75,-31.65"/>
<polygon fill="#63b8ff" stroke="#63b8ff" points="384.26,-31.73 380.4,-21.87 377.26,-31.99 384.26,-31.73"/>
</a>
</g>
</g>
</g>
</svg>
