<?xml version="1.0" encoding="UTF-8" standalone="no"?>
<!DOCTYPE svg PUBLIC "-//W3C//DTD SVG 1.1//EN"
 "http://www.w3.org/Graphics/SVG/1.1/DTD/svg11.dtd">
<!-- Generated by graphviz version 12.2.1 (20241206.2353)
 -->
<!-- Title: factory.h Pages: 1 -->
<svg width="542pt" height="196pt"
 viewBox="0.00 0.00 542.25 196.00" xmlns="http://www.w3.org/2000/svg" xmlns:xlink="http://www.w3.org/1999/xlink">
<g id="graph0" class="graph" transform="scale(1 1) rotate(0) translate(4 192)">
<title>factory.h</title>
<!-- Node1 -->
<g id="Node000001" class="node">
<title>Node1</title>
<g id="a_Node000001"><a xlink:title=" ">
<polygon fill="#999999" stroke="#666666" points="231.75,-188 178.25,-188 178.25,-168 231.75,-168 231.75,-188"/>
<text text-anchor="middle" x="205" y="-174.5" font-family="Helvetica,sans-Serif" font-size="10.00">factory.h</text>
</a>
</g>
</g>
<!-- Node2 -->
<g id="Node000002" class="node">
<title>Node2</title>
<g id="a_Node000002"><a xlink:title=" ">
<polygon fill="#e0e0e0" stroke="#999999" points="58,-132 0,-132 0,-112 58,-112 58,-132"/>
<text text-anchor="middle" x="29" y="-118.5" font-family="Helvetica,sans-Serif" font-size="10.00">functional</text>
</a>
</g>
</g>
<!-- Node1&#45;&gt;Node2 -->
<g id="edge1_Node000001_Node000002" class="edge">
<title>Node1&#45;&gt;Node2</title>
<g id="a_edge1_Node000001_Node000002"><a xlink:title=" ">
<path fill="none" stroke="#63b8ff" d="M177.89,-168.68C148.86,-159.78 102.51,-145.56 69.24,-135.35"/>
<polygon fill="#63b8ff" stroke="#63b8ff" points="70.53,-132.08 59.94,-132.49 68.48,-138.77 70.53,-132.08"/>
</a>
</g>
</g>
<!-- Node3 -->
<g id="Node000003" class="node">
<title>Node3</title>
<g id="a_Node000003"><a xlink:title=" ">
<polygon fill="#e0e0e0" stroke="#999999" points="200.62,-76 149.38,-76 149.38,-56 200.62,-56 200.62,-76"/>
<text text-anchor="middle" x="175" y="-62.5" font-family="Helvetica,sans-Serif" font-size="10.00">memory</text>
</a>
</g>
</g>
<!-- Node1&#45;&gt;Node3 -->
<g id="edge2_Node000001_Node000003" class="edge">
<title>Node1&#45;&gt;Node3</title>
<g id="a_edge2_Node000001_Node000003"><a xlink:title=" ">
<path fill="none" stroke="#63b8ff" d="M178.07,-173.08C154.3,-168.05 121.02,-156.78 105,-132 91.82,-111.62 116.59,-93.3 140.22,-81.34"/>
<polygon fill="#63b8ff" stroke="#63b8ff" points="141.6,-84.56 149.14,-77.12 138.61,-78.23 141.6,-84.56"/>
</a>
</g>
</g>
<!-- Node4 -->
<g id="Node000004" class="node">
<title>Node4</title>
<g id="a_Node000004"><a xlink:title=" ">
<polygon fill="#e0e0e0" stroke="#999999" points="162.12,-132 113.88,-132 113.88,-112 162.12,-112 162.12,-132"/>
<text text-anchor="middle" x="138" y="-118.5" font-family="Helvetica,sans-Serif" font-size="10.00">random</text>
</a>
</g>
</g>
<!-- Node1&#45;&gt;Node4 -->
<g id="edge3_Node000001_Node000004" class="edge">
<title>Node1&#45;&gt;Node4</title>
<g id="a_edge3_Node000001_Node000004"><a xlink:title=" ">
<path fill="none" stroke="#63b8ff" d="M193.33,-167.59C183.72,-159.85 169.87,-148.69 158.43,-139.47"/>
<polygon fill="#63b8ff" stroke="#63b8ff" points="160.7,-136.8 150.72,-133.25 156.3,-142.25 160.7,-136.8"/>
</a>
</g>
</g>
<!-- Node5 -->
<g id="Node000005" class="node">
<title>Node5</title>
<g id="a_Node000005"><a xlink:title=" ">
<polygon fill="#e0e0e0" stroke="#999999" points="229.88,-132 180.12,-132 180.12,-112 229.88,-112 229.88,-132"/>
<text text-anchor="middle" x="205" y="-118.5" font-family="Helvetica,sans-Serif" font-size="10.00">optional</text>
</a>
</g>
</g>
<!-- Node1&#45;&gt;Node5 -->
<g id="edge4_Node000001_Node000005" class="edge">
<title>Node1&#45;&gt;Node5</title>
<g id="a_edge4_Node000001_Node000005"><a xlink:title=" ">
<path fill="none" stroke="#63b8ff" d="M205,-167.59C205,-161.01 205,-151.96 205,-143.73"/>
<polygon fill="#63b8ff" stroke="#63b8ff" points="208.5,-143.81 205,-133.81 201.5,-143.81 208.5,-143.81"/>
</a>
</g>
</g>
<!-- Node6 -->
<g id="Node000006" class="node">
<title>Node6</title>
<g id="a_Node000006"><a xlink:href="enums_8h.html" target="_top" xlink:title="Enumerations for the maze builder program.">
<polygon fill="white" stroke="#666666" points="534.25,-76 423.75,-76 423.75,-56 534.25,-56 534.25,-76"/>
<text text-anchor="middle" x="479" y="-62.5" font-family="Helvetica,sans-Serif" font-size="10.00">MazeBuilder/enums.h</text>
</a>
</g>
</g>
<!-- Node1&#45;&gt;Node6 -->
<g id="edge5_Node000001_Node000006" class="edge">
<title>Node1&#45;&gt;Node6</title>
<g id="a_edge5_Node000001_Node000006"><a xlink:title=" ">
<path fill="none" stroke="#63b8ff" d="M231.99,-177.34C300.2,-177.57 476.69,-174.01 513,-132 525.35,-117.72 511.99,-98.18 498.57,-84.27"/>
<polygon fill="#63b8ff" stroke="#63b8ff" points="501.14,-81.89 491.51,-77.47 496.29,-86.93 501.14,-81.89"/>
</a>
</g>
</g>
<!-- Node9 -->
<g id="Node000009" class="node">
<title>Node9</title>
<g id="a_Node000009"><a xlink:href="configurator_8h.html" target="_top" xlink:title=" ">
<polygon fill="white" stroke="#666666" points="504.12,-132 371.88,-132 371.88,-112 504.12,-112 504.12,-132"/>
<text text-anchor="middle" x="438" y="-118.5" font-family="Helvetica,sans-Serif" font-size="10.00">MazeBuilder/configurator.h</text>
</a>
</g>
</g>
<!-- Node1&#45;&gt;Node9 -->
<g id="edge8_Node000001_Node000009" class="edge">
<title>Node1&#45;&gt;Node9</title>
<g id="a_edge8_Node000001_Node000009"><a xlink:title=" ">
<path fill="none" stroke="#63b8ff" d="M232.18,-170.7C269.86,-161.97 338.68,-146.02 386.3,-134.98"/>
<polygon fill="#63b8ff" stroke="#63b8ff" points="386.9,-138.44 395.85,-132.77 385.32,-131.62 386.9,-138.44"/>
</a>
</g>
</g>
<!-- Node10 -->
<g id="Node000010" class="node">
<title>Node10</title>
<g id="a_Node000010"><a xlink:href="maze_8h.html" target="_top" xlink:title=" ">
<polygon fill="white" stroke="#666666" points="353.62,-132 248.38,-132 248.38,-112 353.62,-112 353.62,-132"/>
<text text-anchor="middle" x="301" y="-118.5" font-family="Helvetica,sans-Serif" font-size="10.00">MazeBuilder/maze.h</text>
</a>
</g>
</g>
<!-- Node1&#45;&gt;Node10 -->
<g id="edge11_Node000001_Node000010" class="edge">
<title>Node1&#45;&gt;Node10</title>
<g id="a_edge11_Node000001_Node000010"><a xlink:title=" ">
<path fill="none" stroke="#63b8ff" d="M221.72,-167.59C236.22,-159.44 257.47,-147.48 274.32,-138"/>
<polygon fill="#63b8ff" stroke="#63b8ff" points="275.83,-141.17 282.83,-133.22 272.4,-135.07 275.83,-141.17"/>
</a>
</g>
</g>
<!-- Node7 -->
<g id="Node000007" class="node">
<title>Node7</title>
<g id="a_Node000007"><a xlink:title=" ">
<polygon fill="#e0e0e0" stroke="#999999" points="416,-20 376,-20 376,0 416,0 416,-20"/>
<text text-anchor="middle" x="396" y="-6.5" font-family="Helvetica,sans-Serif" font-size="10.00">string</text>
</a>
</g>
</g>
<!-- Node6&#45;&gt;Node7 -->
<g id="edge6_Node000006_Node000007" class="edge">
<title>Node6&#45;&gt;Node7</title>
<g id="a_edge6_Node000006_Node000007"><a xlink:title=" ">
<path fill="none" stroke="#63b8ff" d="M464.54,-55.59C452.24,-47.59 434.32,-35.93 419.89,-26.54"/>
<polygon fill="#63b8ff" stroke="#63b8ff" points="422.13,-23.82 411.84,-21.3 418.31,-29.69 422.13,-23.82"/>
</a>
</g>
</g>
<!-- Node8 -->
<g id="Node000008" class="node">
<title>Node8</title>
<g id="a_Node000008"><a xlink:title=" ">
<polygon fill="#e0e0e0" stroke="#999999" points="508.38,-20 449.62,-20 449.62,0 508.38,0 508.38,-20"/>
<text text-anchor="middle" x="479" y="-6.5" font-family="Helvetica,sans-Serif" font-size="10.00">stdexcept</text>
</a>
</g>
</g>
<!-- Node6&#45;&gt;Node8 -->
<g id="edge7_Node000006_Node000008" class="edge">
<title>Node6&#45;&gt;Node8</title>
<g id="a_edge7_Node000006_Node000008"><a xlink:title=" ">
<path fill="none" stroke="#63b8ff" d="M479,-55.59C479,-49.01 479,-39.96 479,-31.73"/>
<polygon fill="#63b8ff" stroke="#63b8ff" points="482.5,-31.81 479,-21.81 475.5,-31.81 482.5,-31.81"/>
</a>
</g>
</g>
<!-- Node9&#45;&gt;Node6 -->
<g id="edge10_Node000009_Node000006" class="edge">
<title>Node9&#45;&gt;Node6</title>
<g id="a_edge10_Node000009_Node000006"><a xlink:title=" ">
<path fill="none" stroke="#63b8ff" d="M445.14,-111.59C450.61,-104.39 458.32,-94.23 465.01,-85.43"/>
<polygon fill="#63b8ff" stroke="#63b8ff" points="467.77,-87.58 471.02,-77.5 462.19,-83.35 467.77,-87.58"/>
</a>
</g>
</g>
<!-- Node9&#45;&gt;Node7 -->
<g id="edge9_Node000009_Node000007" class="edge">
<title>Node9&#45;&gt;Node7</title>
<g id="a_edge9_Node000009_Node000007"><a xlink:title=" ">
<path fill="none" stroke="#63b8ff" d="M432.53,-111.59C427.49,-102.65 420.06,-88.72 415,-76 409.21,-61.43 404.29,-44.4 400.91,-31.42"/>
<polygon fill="#63b8ff" stroke="#63b8ff" points="404.36,-30.76 398.53,-21.91 397.57,-32.46 404.36,-30.76"/>
</a>
</g>
</g>
<!-- Node10&#45;&gt;Node3 -->
<g id="edge13_Node000010_Node000003" class="edge">
<title>Node10&#45;&gt;Node3</title>
<g id="a_edge13_Node000010_Node000003"><a xlink:title=" ">
<path fill="none" stroke="#63b8ff" d="M279.05,-111.59C259.3,-103.13 230.01,-90.58 207.53,-80.94"/>
<polygon fill="#63b8ff" stroke="#63b8ff" points="209.08,-77.8 198.51,-77.08 206.32,-84.23 209.08,-77.8"/>
</a>
</g>
</g>
<!-- Node10&#45;&gt;Node7 -->
<g id="edge12_Node000010_Node000007" class="edge">
<title>Node10&#45;&gt;Node7</title>
<g id="a_edge12_Node000010_Node000007"><a xlink:title=" ">
<path fill="none" stroke="#63b8ff" d="M309.1,-111.62C324.87,-93.36 359.96,-52.73 380.4,-29.07"/>
<polygon fill="#63b8ff" stroke="#63b8ff" points="383.04,-31.36 386.93,-21.5 377.75,-26.78 383.04,-31.36"/>
</a>
</g>
</g>
</g>
</svg>
