<?xml version="1.0" encoding="UTF-8" standalone="no"?>
<!DOCTYPE svg PUBLIC "-//W3C//DTD SVG 1.1//EN"
 "http://www.w3.org/Graphics/SVG/1.1/DTD/svg11.dtd">
<!-- Generated by graphviz version 12.2.1 (20241206.2353)
 -->
<!-- Title: grid_interface.h Pages: 1 -->
<svg width="256pt" height="196pt"
 viewBox="0.00 0.00 255.50 196.00" xmlns="http://www.w3.org/2000/svg" xmlns:xlink="http://www.w3.org/1999/xlink">
<g id="graph0" class="graph" transform="scale(1 1) rotate(0) translate(4 192)">
<title>grid_interface.h</title>
<!-- Node1 -->
<g id="Node000001" class="node">
<title>Node1</title>
<g id="a_Node000001"><a xlink:title=" ">
<polygon fill="#999999" stroke="#666666" points="214.75,-188 132,-188 132,-168 214.75,-168 214.75,-188"/>
<text text-anchor="middle" x="173.38" y="-174.5" font-family="Helvetica,sans-Serif" font-size="10.00">grid_interface.h</text>
</a>
</g>
</g>
<!-- Node2 -->
<g id="Node000002" class="node">
<title>Node2</title>
<g id="a_Node000002"><a xlink:href="grid_8h.html" target="_top" xlink:title=" ">
<polygon fill="white" stroke="#666666" points="143.38,-132 103.38,-132 103.38,-112 143.38,-112 143.38,-132"/>
<text text-anchor="middle" x="123.38" y="-118.5" font-family="Helvetica,sans-Serif" font-size="10.00">grid.h</text>
</a>
</g>
</g>
<!-- Node1&#45;&gt;Node2 -->
<g id="edge1_Node000001_Node000002" class="edge">
<title>Node1&#45;&gt;Node2</title>
<g id="a_edge1_Node000001_Node000002"><a xlink:title=" ">
<path fill="none" stroke="#63b8ff" d="M156.97,-159.29C148.63,-150.28 138.84,-139.7 131.98,-132.3"/>
<polygon fill="#63b8ff" stroke="#63b8ff" points="154.28,-161.52 163.64,-166.48 159.41,-156.77 154.28,-161.52"/>
</a>
</g>
</g>
<!-- Node6 -->
<g id="Node000006" class="node">
<title>Node6</title>
<g id="a_Node000006"><a xlink:href="maze_8h.html" target="_top" xlink:title=" ">
<polygon fill="white" stroke="#666666" points="247.5,-132 199.25,-132 199.25,-112 247.5,-112 247.5,-132"/>
<text text-anchor="middle" x="223.38" y="-118.5" font-family="Helvetica,sans-Serif" font-size="10.00">maze.h</text>
</a>
</g>
</g>
<!-- Node1&#45;&gt;Node6 -->
<g id="edge7_Node000001_Node000006" class="edge">
<title>Node1&#45;&gt;Node6</title>
<g id="a_edge7_Node000001_Node000006"><a xlink:title=" ">
<path fill="none" stroke="#63b8ff" d="M189.78,-159.29C198.12,-150.28 207.91,-139.7 214.77,-132.3"/>
<polygon fill="#63b8ff" stroke="#63b8ff" points="187.34,-156.77 183.11,-166.48 192.47,-161.52 187.34,-156.77"/>
</a>
</g>
</g>
<!-- Node3 -->
<g id="Node000003" class="node">
<title>Node3</title>
<g id="a_Node000003"><a xlink:href="colored__grid_8h.html" target="_top" xlink:title=" ">
<polygon fill="white" stroke="#666666" points="76.75,-76 0,-76 0,-56 76.75,-56 76.75,-76"/>
<text text-anchor="middle" x="38.38" y="-62.5" font-family="Helvetica,sans-Serif" font-size="10.00">colored_grid.h</text>
</a>
</g>
</g>
<!-- Node2&#45;&gt;Node3 -->
<g id="edge2_Node000002_Node000003" class="edge">
<title>Node2&#45;&gt;Node3</title>
<g id="a_edge2_Node000002_Node000003"><a xlink:title=" ">
<path fill="none" stroke="#63b8ff" d="M99.04,-105.54C84.29,-96.17 65.93,-84.51 53.3,-76.48"/>
<polygon fill="#63b8ff" stroke="#63b8ff" points="96.97,-108.37 107.29,-110.78 100.73,-102.47 96.97,-108.37"/>
</a>
</g>
</g>
<!-- Node4 -->
<g id="Node000004" class="node">
<title>Node4</title>
<g id="a_Node000004"><a xlink:href="maze__builder_8h.html" target="_top" xlink:title="This file includes all the headers in the maze builder library.">
<polygon fill="white" stroke="#666666" points="179.38,-20 97.38,-20 97.38,0 179.38,0 179.38,-20"/>
<text text-anchor="middle" x="138.38" y="-6.5" font-family="Helvetica,sans-Serif" font-size="10.00">maze_builder.h</text>
</a>
</g>
</g>
<!-- Node2&#45;&gt;Node4 -->
<g id="edge6_Node000002_Node000004" class="edge">
<title>Node2&#45;&gt;Node4</title>
<g id="a_edge6_Node000002_Node000004"><a xlink:title=" ">
<path fill="none" stroke="#63b8ff" d="M121.7,-100.37C121.06,-87.53 120.99,-70.7 123.38,-56 125.43,-43.32 130.55,-29.38 134.24,-20.43"/>
<polygon fill="#63b8ff" stroke="#63b8ff" points="118.19,-100.41 122.34,-110.16 125.18,-99.95 118.19,-100.41"/>
</a>
</g>
</g>
<!-- Node5 -->
<g id="Node000005" class="node">
<title>Node5</title>
<g id="a_Node000005"><a xlink:href="distance__grid_8h.html" target="_top" xlink:title=" ">
<polygon fill="white" stroke="#666666" points="214.38,-76 132.38,-76 132.38,-56 214.38,-56 214.38,-76"/>
<text text-anchor="middle" x="173.38" y="-62.5" font-family="Helvetica,sans-Serif" font-size="10.00">distance_grid.h</text>
</a>
</g>
</g>
<!-- Node2&#45;&gt;Node5 -->
<g id="edge4_Node000002_Node000005" class="edge">
<title>Node2&#45;&gt;Node5</title>
<g id="a_edge4_Node000002_Node000005"><a xlink:title=" ">
<path fill="none" stroke="#63b8ff" d="M139.78,-103.29C148.12,-94.28 157.91,-83.7 164.77,-76.3"/>
<polygon fill="#63b8ff" stroke="#63b8ff" points="137.34,-100.77 133.11,-110.48 142.47,-105.52 137.34,-100.77"/>
</a>
</g>
</g>
<!-- Node3&#45;&gt;Node4 -->
<g id="edge3_Node000003_Node000004" class="edge">
<title>Node3&#45;&gt;Node4</title>
<g id="a_edge3_Node000003_Node000004"><a xlink:title=" ">
<path fill="none" stroke="#63b8ff" d="M65.51,-50.35C83.11,-40.84 105.53,-28.74 120.82,-20.48"/>
<polygon fill="#63b8ff" stroke="#63b8ff" points="64.26,-47.04 57.13,-54.87 67.59,-53.2 64.26,-47.04"/>
</a>
</g>
</g>
<!-- Node5&#45;&gt;Node4 -->
<g id="edge5_Node000005_Node000004" class="edge">
<title>Node5&#45;&gt;Node4</title>
<g id="a_edge5_Node000005_Node000004"><a xlink:title=" ">
<path fill="none" stroke="#63b8ff" d="M161.16,-46.15C155.49,-37.4 149,-27.39 144.4,-20.3"/>
<polygon fill="#63b8ff" stroke="#63b8ff" points="158.08,-47.84 166.46,-54.32 163.95,-44.03 158.08,-47.84"/>
</a>
</g>
</g>
<!-- Node6&#45;&gt;Node4 -->
<g id="edge8_Node000006_Node000004" class="edge">
<title>Node6&#45;&gt;Node4</title>
<g id="a_edge8_Node000006_Node000004"><a xlink:title=" ">
<path fill="none" stroke="#63b8ff" d="M228.5,-100.75C230.78,-87.14 231.4,-69.32 223.38,-56 212.7,-38.26 192.42,-27.15 174.35,-20.41"/>
<polygon fill="#63b8ff" stroke="#63b8ff" points="225.12,-99.83 226.46,-110.34 231.97,-101.29 225.12,-99.83"/>
</a>
</g>
</g>
</g>
</svg>
