<?xml version="1.0" encoding="UTF-8" standalone="no"?>
<!DOCTYPE svg PUBLIC "-//W3C//DTD SVG 1.1//EN"
 "http://www.w3.org/Graphics/SVG/1.1/DTD/svg11.dtd">
<!-- Generated by graphviz version 12.2.1 (20241206.2353)
 -->
<!-- Title: grid.h Pages: 1 -->
<svg width="867pt" height="196pt"
 viewBox="0.00 0.00 866.62 196.00" xmlns="http://www.w3.org/2000/svg" xmlns:xlink="http://www.w3.org/1999/xlink">
<g id="graph0" class="graph" transform="scale(1 1) rotate(0) translate(4 192)">
<title>grid.h</title>
<!-- Node1 -->
<g id="Node000001" class="node">
<title>Node1</title>
<g id="a_Node000001"><a xlink:title=" ">
<polygon fill="#999999" stroke="#666666" points="682,-188 642,-188 642,-168 682,-168 682,-188"/>
<text text-anchor="middle" x="662" y="-174.5" font-family="Helvetica,sans-Serif" font-size="10.00">grid.h</text>
</a>
</g>
</g>
<!-- Node2 -->
<g id="Node000002" class="node">
<title>Node2</title>
<g id="a_Node000002"><a xlink:title=" ">
<polygon fill="#e0e0e0" stroke="#999999" points="315.5,-20 272.5,-20 272.5,0 315.5,0 315.5,-20"/>
<text text-anchor="middle" x="294" y="-6.5" font-family="Helvetica,sans-Serif" font-size="10.00">vector</text>
</a>
</g>
</g>
<!-- Node1&#45;&gt;Node2 -->
<g id="edge1_Node000001_Node000002" class="edge">
<title>Node1&#45;&gt;Node2</title>
<g id="a_edge1_Node000001_Node000002"><a xlink:title=" ">
<path fill="none" stroke="#63b8ff" d="M641.8,-177.05C586.69,-176.65 429.6,-171.83 307,-132 257.81,-116.02 231.34,-120.51 205,-76 189.05,-49.04 229.89,-29.98 261.41,-19.74"/>
<polygon fill="#63b8ff" stroke="#63b8ff" points="262.08,-23.2 270.62,-16.93 260.03,-16.51 262.08,-23.2"/>
</a>
</g>
</g>
<!-- Node3 -->
<g id="Node000003" class="node">
<title>Node3</title>
<g id="a_Node000003"><a xlink:title=" ">
<polygon fill="#e0e0e0" stroke="#999999" points="638.62,-20 587.38,-20 587.38,0 638.62,0 638.62,-20"/>
<text text-anchor="middle" x="613" y="-6.5" font-family="Helvetica,sans-Serif" font-size="10.00">memory</text>
</a>
</g>
</g>
<!-- Node1&#45;&gt;Node3 -->
<g id="edge2_Node000001_Node000003" class="edge">
<title>Node1&#45;&gt;Node3</title>
<g id="a_edge2_Node000001_Node000003"><a xlink:title=" ">
<path fill="none" stroke="#63b8ff" d="M669.37,-167.55C685.02,-146.26 718.32,-93.5 696,-56 685.86,-38.97 666.79,-27.99 649.48,-21.14"/>
<polygon fill="#63b8ff" stroke="#63b8ff" points="651.04,-17.99 640.45,-17.91 648.68,-24.57 651.04,-17.99"/>
</a>
</g>
</g>
<!-- Node4 -->
<g id="Node000004" class="node">
<title>Node4</title>
<g id="a_Node000004"><a xlink:title=" ">
<polygon fill="#e0e0e0" stroke="#999999" points="40,-20 0,-20 0,0 40,0 40,-20"/>
<text text-anchor="middle" x="20" y="-6.5" font-family="Helvetica,sans-Serif" font-size="10.00">string</text>
</a>
</g>
</g>
<!-- Node1&#45;&gt;Node4 -->
<g id="edge3_Node000001_Node000004" class="edge">
<title>Node1&#45;&gt;Node4</title>
<g id="a_edge3_Node000001_Node000004"><a xlink:title=" ">
<path fill="none" stroke="#63b8ff" d="M641.55,-175.91C580.07,-172.38 391.68,-159.92 238,-132 140.42,-114.27 83.89,-153.49 22,-76 12.08,-63.58 12.47,-45.17 14.82,-31.11"/>
<polygon fill="#63b8ff" stroke="#63b8ff" points="18.18,-32.12 16.87,-21.61 11.34,-30.65 18.18,-32.12"/>
</a>
</g>
</g>
<!-- Node5 -->
<g id="Node000005" class="node">
<title>Node5</title>
<g id="a_Node000005"><a xlink:title=" ">
<polygon fill="#e0e0e0" stroke="#999999" points="801,-132 743,-132 743,-112 801,-112 801,-132"/>
<text text-anchor="middle" x="772" y="-118.5" font-family="Helvetica,sans-Serif" font-size="10.00">functional</text>
</a>
</g>
</g>
<!-- Node1&#45;&gt;Node5 -->
<g id="edge4_Node000001_Node000005" class="edge">
<title>Node1&#45;&gt;Node5</title>
<g id="a_edge4_Node000001_Node000005"><a xlink:title=" ">
<path fill="none" stroke="#63b8ff" d="M681.16,-167.59C698.09,-159.28 723.05,-147.03 742.52,-137.47"/>
<polygon fill="#63b8ff" stroke="#63b8ff" points="743.9,-140.7 751.33,-133.15 740.81,-134.41 743.9,-140.7"/>
</a>
</g>
</g>
<!-- Node6 -->
<g id="Node000006" class="node">
<title>Node6</title>
<g id="a_Node000006"><a xlink:title=" ">
<polygon fill="#e0e0e0" stroke="#999999" points="858.62,-132 819.38,-132 819.38,-112 858.62,-112 858.62,-132"/>
<text text-anchor="middle" x="839" y="-118.5" font-family="Helvetica,sans-Serif" font-size="10.00">utility</text>
</a>
</g>
</g>
<!-- Node1&#45;&gt;Node6 -->
<g id="edge5_Node000001_Node000006" class="edge">
<title>Node1&#45;&gt;Node6</title>
<g id="a_edge5_Node000001_Node000006"><a xlink:title=" ">
<path fill="none" stroke="#63b8ff" d="M682.12,-170.92C708.71,-162.88 757.28,-148.17 808.15,-132.55"/>
<polygon fill="#63b8ff" stroke="#63b8ff" points="809.06,-135.94 817.59,-129.66 807,-129.25 809.06,-135.94"/>
</a>
</g>
</g>
<!-- Node7 -->
<g id="Node000007" class="node">
<title>Node7</title>
<g id="a_Node000007"><a xlink:title=" ">
<polygon fill="#e0e0e0" stroke="#999999" points="686.88,-76 637.12,-76 637.12,-56 686.88,-56 686.88,-76"/>
<text text-anchor="middle" x="662" y="-62.5" font-family="Helvetica,sans-Serif" font-size="10.00">optional</text>
</a>
</g>
</g>
<!-- Node1&#45;&gt;Node7 -->
<g id="edge6_Node000001_Node000007" class="edge">
<title>Node1&#45;&gt;Node7</title>
<g id="a_edge6_Node000001_Node000007"><a xlink:title=" ">
<path fill="none" stroke="#63b8ff" d="M662,-167.62C662,-150.01 662,-111.59 662,-87.65"/>
<polygon fill="#63b8ff" stroke="#63b8ff" points="665.5,-87.87 662,-77.87 658.5,-87.87 665.5,-87.87"/>
</a>
</g>
</g>
<!-- Node8 -->
<g id="Node000008" class="node">
<title>Node8</title>
<g id="a_Node000008"><a xlink:href="grid__interface_8h.html" target="_top" xlink:title=" ">
<polygon fill="white" stroke="#666666" points="455.88,-132 316.12,-132 316.12,-112 455.88,-112 455.88,-132"/>
<text text-anchor="middle" x="386" y="-118.5" font-family="Helvetica,sans-Serif" font-size="10.00">MazeBuilder/grid_interface.h</text>
</a>
</g>
</g>
<!-- Node1&#45;&gt;Node8 -->
<g id="edge7_Node000001_Node000008" class="edge">
<title>Node1&#45;&gt;Node8</title>
<g id="a_edge7_Node000001_Node000008"><a xlink:title=" ">
<path fill="none" stroke="#63b8ff" d="M641.71,-173.03C600.86,-165.04 507.37,-146.75 445.47,-134.64"/>
<polygon fill="#63b8ff" stroke="#63b8ff" points="446.27,-131.23 435.79,-132.74 444.93,-138.1 446.27,-131.23"/>
</a>
</g>
</g>
<!-- Node8&#45;&gt;Node2 -->
<g id="edge8_Node000008_Node000002" class="edge">
<title>Node8&#45;&gt;Node2</title>
<g id="a_edge8_Node000008_Node000002"><a xlink:title=" ">
<path fill="none" stroke="#63b8ff" d="M376.99,-111.53C368.54,-102.54 355.65,-88.59 345,-76 332.01,-60.64 317.94,-42.6 307.88,-29.43"/>
<polygon fill="#63b8ff" stroke="#63b8ff" points="310.8,-27.48 301.97,-21.63 305.22,-31.72 310.8,-27.48"/>
</a>
</g>
</g>
<!-- Node8&#45;&gt;Node3 -->
<g id="edge12_Node000008_Node000003" class="edge">
<title>Node8&#45;&gt;Node3</title>
<g id="a_edge12_Node000008_Node000003"><a xlink:title=" ">
<path fill="none" stroke="#63b8ff" d="M456.16,-112.85C507.04,-105.62 570.23,-93.48 590,-76 602.76,-64.72 608.44,-45.89 610.97,-31.4"/>
<polygon fill="#63b8ff" stroke="#63b8ff" points="614.43,-31.95 612.28,-21.57 607.49,-31.02 614.43,-31.95"/>
</a>
</g>
</g>
<!-- Node8&#45;&gt;Node4 -->
<g id="edge9_Node000008_Node000004" class="edge">
<title>Node8&#45;&gt;Node4</title>
<g id="a_edge9_Node000008_Node000004"><a xlink:title=" ">
<path fill="none" stroke="#63b8ff" d="M315.9,-120.71C226.71,-118.89 79.39,-110.55 39,-76 26.29,-65.12 21.84,-46.25 20.39,-31.64"/>
<polygon fill="#63b8ff" stroke="#63b8ff" points="23.89,-31.5 19.85,-21.71 16.9,-31.88 23.89,-31.5"/>
</a>
</g>
</g>
<!-- Node8&#45;&gt;Node7 -->
<g id="edge14_Node000008_Node000007" class="edge">
<title>Node8&#45;&gt;Node7</title>
<g id="a_edge14_Node000008_Node000007"><a xlink:title=" ">
<path fill="none" stroke="#63b8ff" d="M438.83,-111.58C486.94,-102.86 559.88,-89.27 623,-76 623.98,-75.79 624.98,-75.58 625.98,-75.37"/>
<polygon fill="#63b8ff" stroke="#63b8ff" points="626.37,-78.86 635.38,-73.28 624.86,-72.03 626.37,-78.86"/>
</a>
</g>
</g>
<!-- Node9 -->
<g id="Node000009" class="node">
<title>Node9</title>
<g id="a_Node000009"><a xlink:title=" ">
<polygon fill="#e0e0e0" stroke="#999999" points="265.62,-76 214.38,-76 214.38,-56 265.62,-56 265.62,-76"/>
<text text-anchor="middle" x="240" y="-62.5" font-family="Helvetica,sans-Serif" font-size="10.00">ostream</text>
</a>
</g>
</g>
<!-- Node8&#45;&gt;Node9 -->
<g id="edge10_Node000008_Node000009" class="edge">
<title>Node8&#45;&gt;Node9</title>
<g id="a_edge10_Node000008_Node000009"><a xlink:title=" ">
<path fill="none" stroke="#63b8ff" d="M360.57,-111.59C337.26,-102.97 302.5,-90.12 276.28,-80.42"/>
<polygon fill="#63b8ff" stroke="#63b8ff" points="277.64,-77.19 267.05,-77 275.21,-83.76 277.64,-77.19"/>
</a>
</g>
</g>
<!-- Node10 -->
<g id="Node000010" class="node">
<title>Node10</title>
<g id="a_Node000010"><a xlink:title=" ">
<polygon fill="#e0e0e0" stroke="#999999" points="411.62,-76 360.38,-76 360.38,-56 411.62,-56 411.62,-76"/>
<text text-anchor="middle" x="386" y="-62.5" font-family="Helvetica,sans-Serif" font-size="10.00">sstream</text>
</a>
</g>
</g>
<!-- Node8&#45;&gt;Node10 -->
<g id="edge11_Node000008_Node000010" class="edge">
<title>Node8&#45;&gt;Node10</title>
<g id="a_edge11_Node000008_Node000010"><a xlink:title=" ">
<path fill="none" stroke="#63b8ff" d="M386,-111.59C386,-105.01 386,-95.96 386,-87.73"/>
<polygon fill="#63b8ff" stroke="#63b8ff" points="389.5,-87.81 386,-77.81 382.5,-87.81 389.5,-87.81"/>
</a>
</g>
</g>
<!-- Node11 -->
<g id="Node000011" class="node">
<title>Node11</title>
<g id="a_Node000011"><a xlink:title=" ">
<polygon fill="#e0e0e0" stroke="#999999" points="425.62,-20 380.38,-20 380.38,0 425.62,0 425.62,-20"/>
<text text-anchor="middle" x="403" y="-6.5" font-family="Helvetica,sans-Serif" font-size="10.00">cstdint</text>
</a>
</g>
</g>
<!-- Node8&#45;&gt;Node11 -->
<g id="edge13_Node000008_Node000011" class="edge">
<title>Node8&#45;&gt;Node11</title>
<g id="a_edge13_Node000008_Node000011"><a xlink:title=" ">
<path fill="none" stroke="#63b8ff" d="M374.67,-111.51C361.23,-99.02 341.73,-76.28 351,-56 356.38,-44.23 366.52,-34.36 376.43,-26.9"/>
<polygon fill="#63b8ff" stroke="#63b8ff" points="378.22,-29.91 384.45,-21.35 374.24,-24.16 378.22,-29.91"/>
</a>
</g>
</g>
<!-- Node12 -->
<g id="Node000012" class="node">
<title>Node12</title>
<g id="a_Node000012"><a xlink:title=" ">
<polygon fill="#e0e0e0" stroke="#999999" points="466.5,-76 429.5,-76 429.5,-56 466.5,-56 466.5,-76"/>
<text text-anchor="middle" x="448" y="-62.5" font-family="Helvetica,sans-Serif" font-size="10.00">tuple</text>
</a>
</g>
</g>
<!-- Node8&#45;&gt;Node12 -->
<g id="edge15_Node000008_Node000012" class="edge">
<title>Node8&#45;&gt;Node12</title>
<g id="a_edge15_Node000008_Node000012"><a xlink:title=" ">
<path fill="none" stroke="#63b8ff" d="M396.8,-111.59C405.6,-103.93 418.25,-92.91 428.77,-83.75"/>
<polygon fill="#63b8ff" stroke="#63b8ff" points="430.94,-86.5 436.18,-77.29 426.34,-81.22 430.94,-86.5"/>
</a>
</g>
</g>
<!-- Node13 -->
<g id="Node000013" class="node">
<title>Node13</title>
<g id="a_Node000013"><a xlink:href="enums_8h.html" target="_top" xlink:title="Enumerations for the maze builder program.">
<polygon fill="white" stroke="#666666" points="158.25,-76 47.75,-76 47.75,-56 158.25,-56 158.25,-76"/>
<text text-anchor="middle" x="103" y="-62.5" font-family="Helvetica,sans-Serif" font-size="10.00">MazeBuilder/enums.h</text>
</a>
</g>
</g>
<!-- Node8&#45;&gt;Node13 -->
<g id="edge16_Node000008_Node000013" class="edge">
<title>Node8&#45;&gt;Node13</title>
<g id="a_edge16_Node000008_Node000013"><a xlink:title=" ">
<path fill="none" stroke="#63b8ff" d="M336.38,-111.53C288.34,-102.36 215.39,-88.45 163.87,-78.61"/>
<polygon fill="#63b8ff" stroke="#63b8ff" points="164.53,-75.18 154.05,-76.74 163.22,-82.05 164.53,-75.18"/>
</a>
</g>
</g>
<!-- Node15 -->
<g id="Node000015" class="node">
<title>Node15</title>
<g id="a_Node000015"><a xlink:href="cell_8h.html" target="_top" xlink:title=" ">
<polygon fill="white" stroke="#666666" points="581.12,-76 484.88,-76 484.88,-56 581.12,-56 581.12,-76"/>
<text text-anchor="middle" x="533" y="-62.5" font-family="Helvetica,sans-Serif" font-size="10.00">MazeBuilder/cell.h</text>
</a>
</g>
</g>
<!-- Node8&#45;&gt;Node15 -->
<g id="edge19_Node000008_Node000015" class="edge">
<title>Node8&#45;&gt;Node15</title>
<g id="a_edge19_Node000008_Node000015"><a xlink:title=" ">
<path fill="none" stroke="#63b8ff" d="M411.61,-111.59C435.07,-102.97 470.07,-90.12 496.47,-80.42"/>
<polygon fill="#63b8ff" stroke="#63b8ff" points="497.59,-83.73 505.77,-77 495.18,-77.16 497.59,-83.73"/>
</a>
</g>
</g>
<!-- Node13&#45;&gt;Node4 -->
<g id="edge17_Node000013_Node000004" class="edge">
<title>Node13&#45;&gt;Node4</title>
<g id="a_edge17_Node000013_Node000004"><a xlink:title=" ">
<path fill="none" stroke="#63b8ff" d="M88.54,-55.59C76.24,-47.59 58.32,-35.93 43.89,-26.54"/>
<polygon fill="#63b8ff" stroke="#63b8ff" points="46.13,-23.82 35.84,-21.3 42.31,-29.69 46.13,-23.82"/>
</a>
</g>
</g>
<!-- Node14 -->
<g id="Node000014" class="node">
<title>Node14</title>
<g id="a_Node000014"><a xlink:title=" ">
<polygon fill="#e0e0e0" stroke="#999999" points="132.38,-20 73.62,-20 73.62,0 132.38,0 132.38,-20"/>
<text text-anchor="middle" x="103" y="-6.5" font-family="Helvetica,sans-Serif" font-size="10.00">stdexcept</text>
</a>
</g>
</g>
<!-- Node13&#45;&gt;Node14 -->
<g id="edge18_Node000013_Node000014" class="edge">
<title>Node13&#45;&gt;Node14</title>
<g id="a_edge18_Node000013_Node000014"><a xlink:title=" ">
<path fill="none" stroke="#63b8ff" d="M103,-55.59C103,-49.01 103,-39.96 103,-31.73"/>
<polygon fill="#63b8ff" stroke="#63b8ff" points="106.5,-31.81 103,-21.81 99.5,-31.81 106.5,-31.81"/>
</a>
</g>
</g>
<!-- Node15&#45;&gt;Node2 -->
<g id="edge21_Node000015_Node000002" class="edge">
<title>Node15&#45;&gt;Node2</title>
<g id="a_edge21_Node000015_Node000002"><a xlink:title=" ">
<path fill="none" stroke="#63b8ff" d="M491.1,-55.53C444.35,-44.97 369.7,-28.1 326.94,-18.44"/>
<polygon fill="#63b8ff" stroke="#63b8ff" points="327.78,-15.04 317.25,-16.25 326.24,-21.87 327.78,-15.04"/>
</a>
</g>
</g>
<!-- Node15&#45;&gt;Node3 -->
<g id="edge20_Node000015_Node000003" class="edge">
<title>Node15&#45;&gt;Node3</title>
<g id="a_edge20_Node000015_Node000003"><a xlink:title=" ">
<path fill="none" stroke="#63b8ff" d="M546.93,-55.59C558.68,-47.67 575.73,-36.16 589.57,-26.82"/>
<polygon fill="#63b8ff" stroke="#63b8ff" points="591.37,-29.82 597.7,-21.33 587.46,-24.02 591.37,-29.82"/>
</a>
</g>
</g>
<!-- Node15&#45;&gt;Node11 -->
<g id="edge23_Node000015_Node000011" class="edge">
<title>Node15&#45;&gt;Node11</title>
<g id="a_edge23_Node000015_Node000011"><a xlink:title=" ">
<path fill="none" stroke="#63b8ff" d="M510.36,-55.59C489.88,-47.09 459.48,-34.46 436.25,-24.81"/>
<polygon fill="#63b8ff" stroke="#63b8ff" points="437.8,-21.66 427.22,-21.06 435.11,-28.13 437.8,-21.66"/>
</a>
</g>
</g>
<!-- Node16 -->
<g id="Node000016" class="node">
<title>Node16</title>
<g id="a_Node000016"><a xlink:title=" ">
<polygon fill="#e0e0e0" stroke="#999999" points="569.38,-20 486.62,-20 486.62,0 569.38,0 569.38,-20"/>
<text text-anchor="middle" x="528" y="-6.5" font-family="Helvetica,sans-Serif" font-size="10.00">unordered_map</text>
</a>
</g>
</g>
<!-- Node15&#45;&gt;Node16 -->
<g id="edge22_Node000015_Node000016" class="edge">
<title>Node15&#45;&gt;Node16</title>
<g id="a_edge22_Node000015_Node000016"><a xlink:title=" ">
<path fill="none" stroke="#63b8ff" d="M532.13,-55.59C531.52,-49.01 530.68,-39.96 529.92,-31.73"/>
<polygon fill="#63b8ff" stroke="#63b8ff" points="533.41,-31.44 529,-21.81 526.44,-32.09 533.41,-31.44"/>
</a>
</g>
</g>
</g>
</svg>
