<?xml version="1.0" encoding="UTF-8" standalone="no"?>
<!DOCTYPE svg PUBLIC "-//W3C//DTD SVG 1.1//EN"
 "http://www.w3.org/Graphics/SVG/1.1/DTD/svg11.dtd">
<!-- Generated by graphviz version 12.2.1 (20241206.2353)
 -->
<!-- Title: grid_interface.h Pages: 1 -->
<svg width="690pt" height="140pt"
 viewBox="0.00 0.00 690.00 140.00" xmlns="http://www.w3.org/2000/svg" xmlns:xlink="http://www.w3.org/1999/xlink">
<g id="graph0" class="graph" transform="scale(1 1) rotate(0) translate(4 136)">
<title>grid_interface.h</title>
<!-- Node1 -->
<g id="Node000001" class="node">
<title>Node1</title>
<g id="a_Node000001"><a xlink:title=" ">
<polygon fill="#999999" stroke="#666666" points="364.88,-132 282.12,-132 282.12,-112 364.88,-112 364.88,-132"/>
<text text-anchor="middle" x="323.5" y="-118.5" font-family="Helvetica,sans-Serif" font-size="10.00">grid_interface.h</text>
</a>
</g>
</g>
<!-- Node2 -->
<g id="Node000002" class="node">
<title>Node2</title>
<g id="a_Node000002"><a xlink:title=" ">
<polygon fill="#e0e0e0" stroke="#999999" points="43,-20 0,-20 0,0 43,0 43,-20"/>
<text text-anchor="middle" x="21.5" y="-6.5" font-family="Helvetica,sans-Serif" font-size="10.00">vector</text>
</a>
</g>
</g>
<!-- Node1&#45;&gt;Node2 -->
<g id="edge1_Node000001_Node000002" class="edge">
<title>Node1&#45;&gt;Node2</title>
<g id="a_edge1_Node000001_Node000002"><a xlink:title=" ">
<path fill="none" stroke="#63b8ff" d="M281.9,-119.51C234.11,-116.34 154.45,-106.49 93.5,-76 70.55,-64.52 49.41,-43.68 36.06,-28.69"/>
<polygon fill="#63b8ff" stroke="#63b8ff" points="38.96,-26.7 29.79,-21.39 33.65,-31.26 38.96,-26.7"/>
</a>
</g>
</g>
<!-- Node3 -->
<g id="Node000003" class="node">
<title>Node3</title>
<g id="a_Node000003"><a xlink:title=" ">
<polygon fill="#e0e0e0" stroke="#999999" points="334.5,-20 294.5,-20 294.5,0 334.5,0 334.5,-20"/>
<text text-anchor="middle" x="314.5" y="-6.5" font-family="Helvetica,sans-Serif" font-size="10.00">string</text>
</a>
</g>
</g>
<!-- Node1&#45;&gt;Node3 -->
<g id="edge2_Node000001_Node000003" class="edge">
<title>Node1&#45;&gt;Node3</title>
<g id="a_edge2_Node000001_Node000003"><a xlink:title=" ">
<path fill="none" stroke="#63b8ff" d="M317.45,-111.82C312.06,-103.04 304.56,-89.22 301.5,-76 298,-60.89 301.79,-43.68 306.16,-30.76"/>
<polygon fill="#63b8ff" stroke="#63b8ff" points="309.32,-32.3 309.61,-21.71 302.78,-29.81 309.32,-32.3"/>
</a>
</g>
</g>
<!-- Node4 -->
<g id="Node000004" class="node">
<title>Node4</title>
<g id="a_Node000004"><a xlink:title=" ">
<polygon fill="#e0e0e0" stroke="#999999" points="490.12,-76 438.88,-76 438.88,-56 490.12,-56 490.12,-76"/>
<text text-anchor="middle" x="464.5" y="-62.5" font-family="Helvetica,sans-Serif" font-size="10.00">ostream</text>
</a>
</g>
</g>
<!-- Node1&#45;&gt;Node4 -->
<g id="edge3_Node000001_Node000004" class="edge">
<title>Node1&#45;&gt;Node4</title>
<g id="a_edge3_Node000001_Node000004"><a xlink:title=" ">
<path fill="none" stroke="#63b8ff" d="M348.06,-111.59C370.47,-103.01 403.84,-90.23 429.12,-80.55"/>
<polygon fill="#63b8ff" stroke="#63b8ff" points="430.25,-83.87 438.33,-77.02 427.74,-77.33 430.25,-83.87"/>
</a>
</g>
</g>
<!-- Node5 -->
<g id="Node000005" class="node">
<title>Node5</title>
<g id="a_Node000005"><a xlink:title=" ">
<polygon fill="#e0e0e0" stroke="#999999" points="559.12,-76 507.88,-76 507.88,-56 559.12,-56 559.12,-76"/>
<text text-anchor="middle" x="533.5" y="-62.5" font-family="Helvetica,sans-Serif" font-size="10.00">sstream</text>
</a>
</g>
</g>
<!-- Node1&#45;&gt;Node5 -->
<g id="edge4_Node000001_Node000005" class="edge">
<title>Node1&#45;&gt;Node5</title>
<g id="a_edge4_Node000001_Node000005"><a xlink:title=" ">
<path fill="none" stroke="#63b8ff" d="M360.95,-111.52C394.23,-103.08 444.5,-90.27 496.42,-76.79"/>
<polygon fill="#63b8ff" stroke="#63b8ff" points="497.26,-80.19 506.05,-74.28 495.49,-73.41 497.26,-80.19"/>
</a>
</g>
</g>
<!-- Node6 -->
<g id="Node000006" class="node">
<title>Node6</title>
<g id="a_Node000006"><a xlink:title=" ">
<polygon fill="#e0e0e0" stroke="#999999" points="112.12,-20 60.88,-20 60.88,0 112.12,0 112.12,-20"/>
<text text-anchor="middle" x="86.5" y="-6.5" font-family="Helvetica,sans-Serif" font-size="10.00">memory</text>
</a>
</g>
</g>
<!-- Node1&#45;&gt;Node6 -->
<g id="edge5_Node000001_Node000006" class="edge">
<title>Node1&#45;&gt;Node6</title>
<g id="a_edge5_Node000001_Node000006"><a xlink:title=" ">
<path fill="none" stroke="#63b8ff" d="M281.71,-116.86C227.45,-110.7 136.69,-97.49 111.5,-76 98.41,-64.83 92.15,-45.99 89.17,-31.46"/>
<polygon fill="#63b8ff" stroke="#63b8ff" points="92.62,-30.9 87.55,-21.6 85.71,-32.03 92.62,-30.9"/>
</a>
</g>
</g>
<!-- Node7 -->
<g id="Node000007" class="node">
<title>Node7</title>
<g id="a_Node000007"><a xlink:title=" ">
<polygon fill="#e0e0e0" stroke="#999999" points="276.12,-20 230.88,-20 230.88,0 276.12,0 276.12,-20"/>
<text text-anchor="middle" x="253.5" y="-6.5" font-family="Helvetica,sans-Serif" font-size="10.00">cstdint</text>
</a>
</g>
</g>
<!-- Node1&#45;&gt;Node7 -->
<g id="edge6_Node000001_Node000007" class="edge">
<title>Node1&#45;&gt;Node7</title>
<g id="a_edge6_Node000001_Node000007"><a xlink:title=" ">
<path fill="none" stroke="#63b8ff" d="M317.53,-111.62C306.06,-93.6 280.74,-53.81 265.61,-30.02"/>
<polygon fill="#63b8ff" stroke="#63b8ff" points="268.59,-28.19 260.27,-21.63 262.68,-31.95 268.59,-28.19"/>
</a>
</g>
</g>
<!-- Node8 -->
<g id="Node000008" class="node">
<title>Node8</title>
<g id="a_Node000008"><a xlink:title=" ">
<polygon fill="#e0e0e0" stroke="#999999" points="627.38,-76 577.62,-76 577.62,-56 627.38,-56 627.38,-76"/>
<text text-anchor="middle" x="602.5" y="-62.5" font-family="Helvetica,sans-Serif" font-size="10.00">optional</text>
</a>
</g>
</g>
<!-- Node1&#45;&gt;Node8 -->
<g id="edge7_Node000001_Node000008" class="edge">
<title>Node1&#45;&gt;Node8</title>
<g id="a_edge7_Node000001_Node000008"><a xlink:title=" ">
<path fill="none" stroke="#63b8ff" d="M365.31,-114.33C411.95,-106.67 489.86,-93.21 566.07,-76.4"/>
<polygon fill="#63b8ff" stroke="#63b8ff" points="566.83,-79.82 575.82,-74.23 565.3,-72.99 566.83,-79.82"/>
</a>
</g>
</g>
<!-- Node9 -->
<g id="Node000009" class="node">
<title>Node9</title>
<g id="a_Node000009"><a xlink:title=" ">
<polygon fill="#e0e0e0" stroke="#999999" points="682,-76 645,-76 645,-56 682,-56 682,-76"/>
<text text-anchor="middle" x="663.5" y="-62.5" font-family="Helvetica,sans-Serif" font-size="10.00">tuple</text>
</a>
</g>
</g>
<!-- Node1&#45;&gt;Node9 -->
<g id="edge8_Node000001_Node000009" class="edge">
<title>Node1&#45;&gt;Node9</title>
<g id="a_edge8_Node000001_Node000009"><a xlink:title=" ">
<path fill="none" stroke="#63b8ff" d="M365.21,-117.4C423.5,-111.85 532.71,-99.56 633.73,-76.31"/>
<polygon fill="#63b8ff" stroke="#63b8ff" points="634.33,-79.77 643.27,-74.08 632.73,-72.95 634.33,-79.77"/>
</a>
</g>
</g>
<!-- Node10 -->
<g id="Node000010" class="node">
<title>Node10</title>
<g id="a_Node000010"><a xlink:href="enums_8h.html" target="_top" xlink:title="Enumerations for the maze builder program.">
<polygon fill="white" stroke="#666666" points="420.75,-76 310.25,-76 310.25,-56 420.75,-56 420.75,-76"/>
<text text-anchor="middle" x="365.5" y="-62.5" font-family="Helvetica,sans-Serif" font-size="10.00">MazeBuilder/enums.h</text>
</a>
</g>
</g>
<!-- Node1&#45;&gt;Node10 -->
<g id="edge9_Node000001_Node000010" class="edge">
<title>Node1&#45;&gt;Node10</title>
<g id="a_edge9_Node000001_Node000010"><a xlink:title=" ">
<path fill="none" stroke="#63b8ff" d="M330.82,-111.59C336.48,-104.32 344.49,-94.02 351.39,-85.15"/>
<polygon fill="#63b8ff" stroke="#63b8ff" points="353.96,-87.54 357.34,-77.49 348.44,-83.24 353.96,-87.54"/>
</a>
</g>
</g>
<!-- Node12 -->
<g id="Node000012" class="node">
<title>Node12</title>
<g id="a_Node000012"><a xlink:href="cell_8h.html" target="_top" xlink:title=" ">
<polygon fill="white" stroke="#666666" points="216.62,-76 120.38,-76 120.38,-56 216.62,-56 216.62,-76"/>
<text text-anchor="middle" x="168.5" y="-62.5" font-family="Helvetica,sans-Serif" font-size="10.00">MazeBuilder/cell.h</text>
</a>
</g>
</g>
<!-- Node1&#45;&gt;Node12 -->
<g id="edge12_Node000001_Node000012" class="edge">
<title>Node1&#45;&gt;Node12</title>
<g id="a_edge12_Node000001_Node000012"><a xlink:title=" ">
<path fill="none" stroke="#63b8ff" d="M296.5,-111.59C271.54,-102.9 234.2,-89.89 206.28,-80.16"/>
<polygon fill="#63b8ff" stroke="#63b8ff" points="207.73,-76.96 197.14,-76.98 205.43,-83.57 207.73,-76.96"/>
</a>
</g>
</g>
<!-- Node10&#45;&gt;Node3 -->
<g id="edge10_Node000010_Node000003" class="edge">
<title>Node10&#45;&gt;Node3</title>
<g id="a_edge10_Node000010_Node000003"><a xlink:title=" ">
<path fill="none" stroke="#63b8ff" d="M356.62,-55.59C349.6,-48.16 339.6,-37.58 331.11,-28.58"/>
<polygon fill="#63b8ff" stroke="#63b8ff" points="333.73,-26.27 324.32,-21.4 328.64,-31.07 333.73,-26.27"/>
</a>
</g>
</g>
<!-- Node11 -->
<g id="Node000011" class="node">
<title>Node11</title>
<g id="a_Node000011"><a xlink:title=" ">
<polygon fill="#e0e0e0" stroke="#999999" points="410.88,-20 352.12,-20 352.12,0 410.88,0 410.88,-20"/>
<text text-anchor="middle" x="381.5" y="-6.5" font-family="Helvetica,sans-Serif" font-size="10.00">stdexcept</text>
</a>
</g>
</g>
<!-- Node10&#45;&gt;Node11 -->
<g id="edge11_Node000010_Node000011" class="edge">
<title>Node10&#45;&gt;Node11</title>
<g id="a_edge11_Node000010_Node000011"><a xlink:title=" ">
<path fill="none" stroke="#63b8ff" d="M368.29,-55.59C370.28,-48.86 373.05,-39.53 375.53,-31.15"/>
<polygon fill="#63b8ff" stroke="#63b8ff" points="378.83,-32.33 378.31,-21.75 372.12,-30.34 378.83,-32.33"/>
</a>
</g>
</g>
<!-- Node12&#45;&gt;Node2 -->
<g id="edge14_Node000012_Node000002" class="edge">
<title>Node12&#45;&gt;Node2</title>
<g id="a_edge14_Node000012_Node000002"><a xlink:title=" ">
<path fill="none" stroke="#63b8ff" d="M142.89,-55.59C118.28,-46.55 80.97,-32.85 54.21,-23.02"/>
<polygon fill="#63b8ff" stroke="#63b8ff" points="55.47,-19.75 44.88,-19.59 53.06,-26.32 55.47,-19.75"/>
</a>
</g>
</g>
<!-- Node12&#45;&gt;Node6 -->
<g id="edge13_Node000012_Node000006" class="edge">
<title>Node12&#45;&gt;Node6</title>
<g id="a_edge13_Node000012_Node000006"><a xlink:title=" ">
<path fill="none" stroke="#63b8ff" d="M154.22,-55.59C142.06,-47.59 124.36,-35.93 110.1,-26.54"/>
<polygon fill="#63b8ff" stroke="#63b8ff" points="112.44,-23.89 102.16,-21.31 108.59,-29.73 112.44,-23.89"/>
</a>
</g>
</g>
<!-- Node12&#45;&gt;Node7 -->
<g id="edge16_Node000012_Node000007" class="edge">
<title>Node12&#45;&gt;Node7</title>
<g id="a_edge16_Node000012_Node000007"><a xlink:title=" ">
<path fill="none" stroke="#63b8ff" d="M183.31,-55.59C195.9,-47.59 214.25,-35.93 229.03,-26.54"/>
<polygon fill="#63b8ff" stroke="#63b8ff" points="230.74,-29.61 237.3,-21.29 226.98,-23.7 230.74,-29.61"/>
</a>
</g>
</g>
<!-- Node13 -->
<g id="Node000013" class="node">
<title>Node13</title>
<g id="a_Node000013"><a xlink:title=" ">
<polygon fill="#e0e0e0" stroke="#999999" points="212.88,-20 130.12,-20 130.12,0 212.88,0 212.88,-20"/>
<text text-anchor="middle" x="171.5" y="-6.5" font-family="Helvetica,sans-Serif" font-size="10.00">unordered_map</text>
</a>
</g>
</g>
<!-- Node12&#45;&gt;Node13 -->
<g id="edge15_Node000012_Node000013" class="edge">
<title>Node12&#45;&gt;Node13</title>
<g id="a_edge15_Node000012_Node000013"><a xlink:title=" ">
<path fill="none" stroke="#63b8ff" d="M169.02,-55.59C169.39,-49.01 169.89,-39.96 170.35,-31.73"/>
<polygon fill="#63b8ff" stroke="#63b8ff" points="173.84,-31.99 170.9,-21.81 166.85,-31.6 173.84,-31.99"/>
</a>
</g>
</g>
</g>
</svg>
