<?xml version="1.0" encoding="UTF-8" standalone="no"?>
<!DOCTYPE svg PUBLIC "-//W3C//DTD SVG 1.1//EN"
 "http://www.w3.org/Graphics/SVG/1.1/DTD/svg11.dtd">
<!-- Generated by graphviz version 12.2.1 (20241206.2353)
 -->
<!-- Title: grid.h Pages: 1 -->
<svg width="222pt" height="140pt"
 viewBox="0.00 0.00 222.38 140.00" xmlns="http://www.w3.org/2000/svg" xmlns:xlink="http://www.w3.org/1999/xlink">
<g id="graph0" class="graph" transform="scale(1 1) rotate(0) translate(4 136)">
<title>grid.h</title>
<!-- Node1 -->
<g id="Node000001" class="node">
<title>Node1</title>
<g id="a_Node000001"><a xlink:title=" ">
<polygon fill="#999999" stroke="#666666" points="124.38,-132 84.38,-132 84.38,-112 124.38,-112 124.38,-132"/>
<text text-anchor="middle" x="104.38" y="-118.5" font-family="Helvetica,sans-Serif" font-size="10.00">grid.h</text>
</a>
</g>
</g>
<!-- Node2 -->
<g id="Node000002" class="node">
<title>Node2</title>
<g id="a_Node000002"><a xlink:href="colored__grid_8h.html" target="_top" xlink:title=" ">
<polygon fill="white" stroke="#666666" points="76.75,-76 0,-76 0,-56 76.75,-56 76.75,-76"/>
<text text-anchor="middle" x="38.38" y="-62.5" font-family="Helvetica,sans-Serif" font-size="10.00">colored_grid.h</text>
</a>
</g>
</g>
<!-- Node1&#45;&gt;Node2 -->
<g id="edge1_Node000001_Node000002" class="edge">
<title>Node1&#45;&gt;Node2</title>
<g id="a_edge1_Node000001_Node000002"><a xlink:title=" ">
<path fill="none" stroke="#63b8ff" d="M84.09,-104.4C72.8,-95.17 59.16,-84.01 49.74,-76.3"/>
<polygon fill="#63b8ff" stroke="#63b8ff" points="81.75,-107.01 91.71,-110.64 86.18,-101.59 81.75,-107.01"/>
</a>
</g>
</g>
<!-- Node3 -->
<g id="Node000003" class="node">
<title>Node3</title>
<g id="a_Node000003"><a xlink:href="maze__builder_8h.html" target="_top" xlink:title="This file includes all the headers in the maze builder library.">
<polygon fill="white" stroke="#666666" points="145.38,-20 63.38,-20 63.38,0 145.38,0 145.38,-20"/>
<text text-anchor="middle" x="104.38" y="-6.5" font-family="Helvetica,sans-Serif" font-size="10.00">maze_builder.h</text>
</a>
</g>
</g>
<!-- Node1&#45;&gt;Node3 -->
<g id="edge5_Node000001_Node000003" class="edge">
<title>Node1&#45;&gt;Node3</title>
<g id="a_edge5_Node000001_Node000003"><a xlink:title=" ">
<path fill="none" stroke="#63b8ff" d="M104.38,-100.31C104.38,-76.36 104.38,-37.95 104.38,-20.35"/>
<polygon fill="#63b8ff" stroke="#63b8ff" points="100.88,-100.11 104.38,-110.11 107.88,-100.11 100.88,-100.11"/>
</a>
</g>
</g>
<!-- Node4 -->
<g id="Node000004" class="node">
<title>Node4</title>
<g id="a_Node000004"><a xlink:href="distance__grid_8h.html" target="_top" xlink:title=" ">
<polygon fill="white" stroke="#666666" points="214.38,-76 132.38,-76 132.38,-56 214.38,-56 214.38,-76"/>
<text text-anchor="middle" x="173.38" y="-62.5" font-family="Helvetica,sans-Serif" font-size="10.00">distance_grid.h</text>
</a>
</g>
</g>
<!-- Node1&#45;&gt;Node4 -->
<g id="edge3_Node000001_Node000004" class="edge">
<title>Node1&#45;&gt;Node4</title>
<g id="a_edge3_Node000001_Node000004"><a xlink:title=" ">
<path fill="none" stroke="#63b8ff" d="M125.23,-104.68C137.1,-95.39 151.54,-84.09 161.49,-76.3"/>
<polygon fill="#63b8ff" stroke="#63b8ff" points="123.3,-101.74 117.59,-110.66 127.62,-107.25 123.3,-101.74"/>
</a>
</g>
</g>
<!-- Node2&#45;&gt;Node3 -->
<g id="edge2_Node000002_Node000003" class="edge">
<title>Node2&#45;&gt;Node3</title>
<g id="a_edge2_Node000002_Node000003"><a xlink:title=" ">
<path fill="none" stroke="#63b8ff" d="M58.66,-48.4C69.95,-39.17 83.59,-28.01 93.01,-20.3"/>
<polygon fill="#63b8ff" stroke="#63b8ff" points="56.57,-45.59 51.04,-54.64 61,-51.01 56.57,-45.59"/>
</a>
</g>
</g>
<!-- Node4&#45;&gt;Node3 -->
<g id="edge4_Node000004_Node000003" class="edge">
<title>Node4&#45;&gt;Node3</title>
<g id="a_edge4_Node000004_Node000003"><a xlink:title=" ">
<path fill="none" stroke="#63b8ff" d="M152.52,-48.68C140.65,-39.39 126.21,-28.09 116.26,-20.3"/>
<polygon fill="#63b8ff" stroke="#63b8ff" points="150.13,-51.25 160.16,-54.66 154.45,-45.74 150.13,-51.25"/>
</a>
</g>
</g>
</g>
</svg>
