<?xml version="1.0" encoding="UTF-8" standalone="no"?>
<!DOCTYPE svg PUBLIC "-//W3C//DTD SVG 1.1//EN"
 "http://www.w3.org/Graphics/SVG/1.1/DTD/svg11.dtd">
<!-- Generated by graphviz version 12.2.1 (20241206.2353)
 -->
<!-- Title: grid.h Pages: 1 -->
<svg width="944pt" height="196pt"
 viewBox="0.00 0.00 943.50 196.00" xmlns="http://www.w3.org/2000/svg" xmlns:xlink="http://www.w3.org/1999/xlink">
<g id="graph0" class="graph" transform="scale(1 1) rotate(0) translate(4 192)">
<title>grid.h</title>
<!-- Node1 -->
<g id="Node000001" class="node">
<title>Node1</title>
<g id="a_Node000001"><a xlink:title=" ">
<polygon fill="#999999" stroke="#666666" points="283,-188 243,-188 243,-168 283,-168 283,-188"/>
<text text-anchor="middle" x="263" y="-174.5" font-family="Helvetica,sans-Serif" font-size="10.00">grid.h</text>
</a>
</g>
</g>
<!-- Node2 -->
<g id="Node000002" class="node">
<title>Node2</title>
<g id="a_Node000002"><a xlink:title=" ">
<polygon fill="#e0e0e0" stroke="#999999" points="58,-132 0,-132 0,-112 58,-112 58,-132"/>
<text text-anchor="middle" x="29" y="-118.5" font-family="Helvetica,sans-Serif" font-size="10.00">functional</text>
</a>
</g>
</g>
<!-- Node1&#45;&gt;Node2 -->
<g id="edge1_Node000001_Node000002" class="edge">
<title>Node1&#45;&gt;Node2</title>
<g id="a_edge1_Node000001_Node000002"><a xlink:title=" ">
<path fill="none" stroke="#63b8ff" d="M242.67,-172.38C208.87,-164.69 138.7,-148.68 69.54,-132.58"/>
<polygon fill="#63b8ff" stroke="#63b8ff" points="70.46,-129.2 59.93,-130.34 68.87,-136.02 70.46,-129.2"/>
</a>
</g>
</g>
<!-- Node3 -->
<g id="Node000003" class="node">
<title>Node3</title>
<g id="a_Node000003"><a xlink:title=" ">
<polygon fill="#e0e0e0" stroke="#999999" points="116.38,-132 75.62,-132 75.62,-112 116.38,-112 116.38,-132"/>
<text text-anchor="middle" x="96" y="-118.5" font-family="Helvetica,sans-Serif" font-size="10.00">future</text>
</a>
</g>
</g>
<!-- Node1&#45;&gt;Node3 -->
<g id="edge2_Node000001_Node000003" class="edge">
<title>Node1&#45;&gt;Node3</title>
<g id="a_edge2_Node000001_Node000003"><a xlink:title=" ">
<path fill="none" stroke="#63b8ff" d="M242.52,-170.38C213.73,-161.07 161.02,-144.02 127.29,-133.12"/>
<polygon fill="#63b8ff" stroke="#63b8ff" points="128.68,-129.89 118.09,-130.14 126.52,-136.55 128.68,-129.89"/>
</a>
</g>
</g>
<!-- Node4 -->
<g id="Node000004" class="node">
<title>Node4</title>
<g id="a_Node000004"><a xlink:title=" ">
<polygon fill="#e0e0e0" stroke="#999999" points="177.5,-132 134.5,-132 134.5,-112 177.5,-112 177.5,-132"/>
<text text-anchor="middle" x="156" y="-118.5" font-family="Helvetica,sans-Serif" font-size="10.00">mutex</text>
</a>
</g>
</g>
<!-- Node1&#45;&gt;Node4 -->
<g id="edge3_Node000001_Node000004" class="edge">
<title>Node1&#45;&gt;Node4</title>
<g id="a_edge3_Node000001_Node000004"><a xlink:title=" ">
<path fill="none" stroke="#63b8ff" d="M244.36,-167.59C227.97,-159.32 203.84,-147.14 184.94,-137.6"/>
<polygon fill="#63b8ff" stroke="#63b8ff" points="186.64,-134.54 176.13,-133.16 183.49,-140.79 186.64,-134.54"/>
</a>
</g>
</g>
<!-- Node5 -->
<g id="Node000005" class="node">
<title>Node5</title>
<g id="a_Node000005"><a xlink:title=" ">
<polygon fill="#e0e0e0" stroke="#999999" points="874.62,-20 823.38,-20 823.38,0 874.62,0 874.62,-20"/>
<text text-anchor="middle" x="849" y="-6.5" font-family="Helvetica,sans-Serif" font-size="10.00">memory</text>
</a>
</g>
</g>
<!-- Node1&#45;&gt;Node5 -->
<g id="edge4_Node000001_Node000005" class="edge">
<title>Node1&#45;&gt;Node5</title>
<g id="a_edge4_Node000001_Node000005"><a xlink:title=" ">
<path fill="none" stroke="#63b8ff" d="M283.39,-177.05C379.95,-176.83 789.5,-170.25 862,-76 871.97,-63.04 866.87,-44.46 860.36,-30.47"/>
<polygon fill="#63b8ff" stroke="#63b8ff" points="863.55,-29.01 855.8,-21.78 857.35,-32.26 863.55,-29.01"/>
</a>
</g>
</g>
<!-- Node6 -->
<g id="Node000006" class="node">
<title>Node6</title>
<g id="a_Node000006"><a xlink:title=" ">
<polygon fill="#e0e0e0" stroke="#999999" points="321.88,-76 272.12,-76 272.12,-56 321.88,-56 321.88,-76"/>
<text text-anchor="middle" x="297" y="-62.5" font-family="Helvetica,sans-Serif" font-size="10.00">optional</text>
</a>
</g>
</g>
<!-- Node1&#45;&gt;Node6 -->
<g id="edge5_Node000001_Node000006" class="edge">
<title>Node1&#45;&gt;Node6</title>
<g id="a_edge5_Node000001_Node000006"><a xlink:title=" ">
<path fill="none" stroke="#63b8ff" d="M265.9,-167.62C271.37,-149.92 283.33,-111.24 290.72,-87.32"/>
<polygon fill="#63b8ff" stroke="#63b8ff" points="294.05,-88.39 293.66,-77.8 287.36,-86.32 294.05,-88.39"/>
</a>
</g>
</g>
<!-- Node7 -->
<g id="Node000007" class="node">
<title>Node7</title>
<g id="a_Node000007"><a xlink:title=" ">
<polygon fill="#e0e0e0" stroke="#999999" points="370,-20 330,-20 330,0 370,0 370,-20"/>
<text text-anchor="middle" x="350" y="-6.5" font-family="Helvetica,sans-Serif" font-size="10.00">string</text>
</a>
</g>
</g>
<!-- Node1&#45;&gt;Node7 -->
<g id="edge6_Node000001_Node000007" class="edge">
<title>Node1&#45;&gt;Node7</title>
<g id="a_edge6_Node000001_Node000007"><a xlink:title=" ">
<path fill="none" stroke="#63b8ff" d="M253.35,-167.68C245.36,-159.24 234.58,-146 230,-132 219.49,-99.9 210.76,-83.76 230,-56 249.74,-27.52 289.88,-17.04 318.29,-13.19"/>
<polygon fill="#63b8ff" stroke="#63b8ff" points="318.6,-16.68 328.15,-12.09 317.82,-9.72 318.6,-16.68"/>
</a>
</g>
</g>
<!-- Node8 -->
<g id="Node000008" class="node">
<title>Node8</title>
<g id="a_Node000008"><a xlink:title=" ">
<polygon fill="#e0e0e0" stroke="#999999" points="349.62,-132 310.38,-132 310.38,-112 349.62,-112 349.62,-132"/>
<text text-anchor="middle" x="330" y="-118.5" font-family="Helvetica,sans-Serif" font-size="10.00">utility</text>
</a>
</g>
</g>
<!-- Node1&#45;&gt;Node8 -->
<g id="edge7_Node000001_Node000008" class="edge">
<title>Node1&#45;&gt;Node8</title>
<g id="a_edge7_Node000001_Node000008"><a xlink:title=" ">
<path fill="none" stroke="#63b8ff" d="M274.67,-167.59C284.28,-159.85 298.13,-148.69 309.57,-139.47"/>
<polygon fill="#63b8ff" stroke="#63b8ff" points="311.7,-142.25 317.28,-133.25 307.3,-136.8 311.7,-142.25"/>
</a>
</g>
</g>
<!-- Node9 -->
<g id="Node000009" class="node">
<title>Node9</title>
<g id="a_Node000009"><a xlink:title=" ">
<polygon fill="#e0e0e0" stroke="#999999" points="935.5,-20 892.5,-20 892.5,0 935.5,0 935.5,-20"/>
<text text-anchor="middle" x="914" y="-6.5" font-family="Helvetica,sans-Serif" font-size="10.00">vector</text>
</a>
</g>
</g>
<!-- Node1&#45;&gt;Node9 -->
<g id="edge8_Node000001_Node000009" class="edge">
<title>Node1&#45;&gt;Node9</title>
<g id="a_edge8_Node000001_Node000009"><a xlink:title=" ">
<path fill="none" stroke="#63b8ff" d="M283.23,-176.63C368.39,-174.88 697.76,-165.98 795,-132 837.36,-117.2 848.8,-109.18 879,-76 891.13,-62.67 900.5,-44.37 906.47,-30.58"/>
<polygon fill="#63b8ff" stroke="#63b8ff" points="909.57,-32.26 910.11,-21.67 903.09,-29.61 909.57,-32.26"/>
</a>
</g>
</g>
<!-- Node10 -->
<g id="Node000010" class="node">
<title>Node10</title>
<g id="a_Node000010"><a xlink:title=" ">
<polygon fill="#e0e0e0" stroke="#999999" points="497.38,-20 414.62,-20 414.62,0 497.38,0 497.38,-20"/>
<text text-anchor="middle" x="456" y="-6.5" font-family="Helvetica,sans-Serif" font-size="10.00">unordered_map</text>
</a>
</g>
</g>
<!-- Node1&#45;&gt;Node10 -->
<g id="edge9_Node000001_Node000010" class="edge">
<title>Node1&#45;&gt;Node10</title>
<g id="a_edge9_Node000001_Node000010"><a xlink:title=" ">
<path fill="none" stroke="#63b8ff" d="M259.48,-167.56C251.87,-145.36 236.62,-89.24 263,-56 271.81,-44.9 349.24,-29.44 403.3,-19.84"/>
<polygon fill="#63b8ff" stroke="#63b8ff" points="403.72,-23.32 412.96,-18.15 402.51,-16.43 403.72,-23.32"/>
</a>
</g>
</g>
<!-- Node11 -->
<g id="Node000011" class="node">
<title>Node11</title>
<g id="a_Node000011"><a xlink:href="grid__interface_8h.html" target="_top" xlink:title=" ">
<polygon fill="white" stroke="#666666" points="641.88,-132 502.12,-132 502.12,-112 641.88,-112 641.88,-132"/>
<text text-anchor="middle" x="572" y="-118.5" font-family="Helvetica,sans-Serif" font-size="10.00">MazeBuilder/grid_interface.h</text>
</a>
</g>
</g>
<!-- Node1&#45;&gt;Node11 -->
<g id="edge10_Node000001_Node000011" class="edge">
<title>Node1&#45;&gt;Node11</title>
<g id="a_edge10_Node000001_Node000011"><a xlink:title=" ">
<path fill="none" stroke="#63b8ff" d="M283.27,-173.46C327.88,-165.66 436.17,-146.74 506.71,-134.41"/>
<polygon fill="#63b8ff" stroke="#63b8ff" points="506.95,-137.92 516.2,-132.75 505.75,-131.03 506.95,-137.92"/>
</a>
</g>
</g>
<!-- Node11&#45;&gt;Node5 -->
<g id="edge15_Node000011_Node000005" class="edge">
<title>Node11&#45;&gt;Node5</title>
<g id="a_edge15_Node000011_Node000005"><a xlink:title=" ">
<path fill="none" stroke="#63b8ff" d="M642.19,-118.94C713.63,-115.23 817.52,-104.89 844,-76 854.76,-64.25 855.2,-45.77 853.42,-31.51"/>
<polygon fill="#63b8ff" stroke="#63b8ff" points="856.89,-31.09 851.74,-21.84 850,-32.29 856.89,-31.09"/>
</a>
</g>
</g>
<!-- Node11&#45;&gt;Node6 -->
<g id="edge17_Node000011_Node000006" class="edge">
<title>Node11&#45;&gt;Node6</title>
<g id="a_edge17_Node000011_Node000006"><a xlink:title=" ">
<path fill="none" stroke="#63b8ff" d="M519.39,-111.57C471.49,-102.84 398.85,-89.24 336,-76 335.02,-75.79 334.02,-75.58 333.02,-75.36"/>
<polygon fill="#63b8ff" stroke="#63b8ff" points="334.14,-72.03 323.62,-73.28 332.63,-78.86 334.14,-72.03"/>
</a>
</g>
</g>
<!-- Node11&#45;&gt;Node7 -->
<g id="edge12_Node000011_Node000007" class="edge">
<title>Node11&#45;&gt;Node7</title>
<g id="a_edge12_Node000011_Node000007"><a xlink:title=" ">
<path fill="none" stroke="#63b8ff" d="M501.64,-113.08C450.91,-105.99 388.14,-93.91 369,-76 356.92,-64.69 352.38,-46.17 350.74,-31.78"/>
<polygon fill="#63b8ff" stroke="#63b8ff" points="354.24,-31.72 350.04,-22 347.26,-32.22 354.24,-31.72"/>
</a>
</g>
</g>
<!-- Node11&#45;&gt;Node9 -->
<g id="edge11_Node000011_Node000009" class="edge">
<title>Node11&#45;&gt;Node9</title>
<g id="a_edge11_Node000011_Node000009"><a xlink:title=" ">
<path fill="none" stroke="#63b8ff" d="M642.09,-115.97C715.67,-109.67 825.63,-97.07 862,-76 880.52,-65.28 895.01,-45.21 903.94,-30.2"/>
<polygon fill="#63b8ff" stroke="#63b8ff" points="906.87,-32.13 908.7,-21.69 900.76,-28.71 906.87,-32.13"/>
</a>
</g>
</g>
<!-- Node12 -->
<g id="Node000012" class="node">
<title>Node12</title>
<g id="a_Node000012"><a xlink:title=" ">
<polygon fill="#e0e0e0" stroke="#999999" points="429.62,-76 378.38,-76 378.38,-56 429.62,-56 429.62,-76"/>
<text text-anchor="middle" x="404" y="-62.5" font-family="Helvetica,sans-Serif" font-size="10.00">ostream</text>
</a>
</g>
</g>
<!-- Node11&#45;&gt;Node12 -->
<g id="edge13_Node000011_Node000012" class="edge">
<title>Node11&#45;&gt;Node12</title>
<g id="a_edge13_Node000011_Node000012"><a xlink:title=" ">
<path fill="none" stroke="#63b8ff" d="M542.74,-111.59C514.35,-102.47 471.2,-88.6 440.57,-78.75"/>
<polygon fill="#63b8ff" stroke="#63b8ff" points="441.93,-75.52 431.34,-75.79 439.79,-82.18 441.93,-75.52"/>
</a>
</g>
</g>
<!-- Node13 -->
<g id="Node000013" class="node">
<title>Node13</title>
<g id="a_Node000013"><a xlink:title=" ">
<polygon fill="#e0e0e0" stroke="#999999" points="498.62,-76 447.38,-76 447.38,-56 498.62,-56 498.62,-76"/>
<text text-anchor="middle" x="473" y="-62.5" font-family="Helvetica,sans-Serif" font-size="10.00">sstream</text>
</a>
</g>
</g>
<!-- Node11&#45;&gt;Node13 -->
<g id="edge14_Node000011_Node000013" class="edge">
<title>Node11&#45;&gt;Node13</title>
<g id="a_edge14_Node000011_Node000013"><a xlink:title=" ">
<path fill="none" stroke="#63b8ff" d="M554.76,-111.59C539.66,-103.36 517.47,-91.26 500.02,-81.74"/>
<polygon fill="#63b8ff" stroke="#63b8ff" points="502.16,-78.92 491.71,-77.2 498.81,-85.07 502.16,-78.92"/>
</a>
</g>
</g>
<!-- Node14 -->
<g id="Node000014" class="node">
<title>Node14</title>
<g id="a_Node000014"><a xlink:title=" ">
<polygon fill="#e0e0e0" stroke="#999999" points="734.62,-20 689.38,-20 689.38,0 734.62,0 734.62,-20"/>
<text text-anchor="middle" x="712" y="-6.5" font-family="Helvetica,sans-Serif" font-size="10.00">cstdint</text>
</a>
</g>
</g>
<!-- Node11&#45;&gt;Node14 -->
<g id="edge16_Node000011_Node000014" class="edge">
<title>Node11&#45;&gt;Node14</title>
<g id="a_edge16_Node000011_Node000014"><a xlink:title=" ">
<path fill="none" stroke="#63b8ff" d="M586.26,-111.54C599.42,-102.68 619.37,-88.91 636,-76 656.22,-60.31 678.35,-41.13 693.49,-27.69"/>
<polygon fill="#63b8ff" stroke="#63b8ff" points="695.68,-30.43 700.8,-21.16 691.01,-25.21 695.68,-30.43"/>
</a>
</g>
</g>
<!-- Node15 -->
<g id="Node000015" class="node">
<title>Node15</title>
<g id="a_Node000015"><a xlink:title=" ">
<polygon fill="#e0e0e0" stroke="#999999" points="720.5,-76 683.5,-76 683.5,-56 720.5,-56 720.5,-76"/>
<text text-anchor="middle" x="702" y="-62.5" font-family="Helvetica,sans-Serif" font-size="10.00">tuple</text>
</a>
</g>
</g>
<!-- Node11&#45;&gt;Node15 -->
<g id="edge18_Node000011_Node000015" class="edge">
<title>Node11&#45;&gt;Node15</title>
<g id="a_edge18_Node000011_Node000015"><a xlink:title=" ">
<path fill="none" stroke="#63b8ff" d="M594.64,-111.59C616.37,-102.57 649.29,-88.9 672.94,-79.07"/>
<polygon fill="#63b8ff" stroke="#63b8ff" points="674.11,-82.38 682,-75.31 671.42,-75.91 674.11,-82.38"/>
</a>
</g>
</g>
<!-- Node16 -->
<g id="Node000016" class="node">
<title>Node16</title>
<g id="a_Node000016"><a xlink:href="enums_8h.html" target="_top" xlink:title="Enumerations for the maze builder program.">
<polygon fill="white" stroke="#666666" points="627.25,-76 516.75,-76 516.75,-56 627.25,-56 627.25,-76"/>
<text text-anchor="middle" x="572" y="-62.5" font-family="Helvetica,sans-Serif" font-size="10.00">MazeBuilder/enums.h</text>
</a>
</g>
</g>
<!-- Node11&#45;&gt;Node16 -->
<g id="edge19_Node000011_Node000016" class="edge">
<title>Node11&#45;&gt;Node16</title>
<g id="a_edge19_Node000011_Node000016"><a xlink:title=" ">
<path fill="none" stroke="#63b8ff" d="M572,-111.59C572,-105.01 572,-95.96 572,-87.73"/>
<polygon fill="#63b8ff" stroke="#63b8ff" points="575.5,-87.81 572,-77.81 568.5,-87.81 575.5,-87.81"/>
</a>
</g>
</g>
<!-- Node18 -->
<g id="Node000018" class="node">
<title>Node18</title>
<g id="a_Node000018"><a xlink:href="cell_8h.html" target="_top" xlink:title=" ">
<polygon fill="white" stroke="#666666" points="835.12,-76 738.88,-76 738.88,-56 835.12,-56 835.12,-76"/>
<text text-anchor="middle" x="787" y="-62.5" font-family="Helvetica,sans-Serif" font-size="10.00">MazeBuilder/cell.h</text>
</a>
</g>
</g>
<!-- Node11&#45;&gt;Node18 -->
<g id="edge22_Node000011_Node000018" class="edge">
<title>Node11&#45;&gt;Node18</title>
<g id="a_edge22_Node000011_Node000018"><a xlink:title=" ">
<path fill="none" stroke="#63b8ff" d="M609.45,-111.59C645.15,-102.63 699.1,-89.08 738.16,-79.27"/>
<polygon fill="#63b8ff" stroke="#63b8ff" points="738.94,-82.68 747.79,-76.85 737.24,-75.89 738.94,-82.68"/>
</a>
</g>
</g>
<!-- Node16&#45;&gt;Node7 -->
<g id="edge20_Node000016_Node000007" class="edge">
<title>Node16&#45;&gt;Node7</title>
<g id="a_edge20_Node000016_Node000007"><a xlink:title=" ">
<path fill="none" stroke="#63b8ff" d="M533.08,-55.53C489.93,-45.04 421.2,-28.32 381.36,-18.63"/>
<polygon fill="#63b8ff" stroke="#63b8ff" points="382.24,-15.24 371.7,-16.28 380.59,-22.04 382.24,-15.24"/>
</a>
</g>
</g>
<!-- Node17 -->
<g id="Node000017" class="node">
<title>Node17</title>
<g id="a_Node000017"><a xlink:title=" ">
<polygon fill="#e0e0e0" stroke="#999999" points="601.38,-20 542.62,-20 542.62,0 601.38,0 601.38,-20"/>
<text text-anchor="middle" x="572" y="-6.5" font-family="Helvetica,sans-Serif" font-size="10.00">stdexcept</text>
</a>
</g>
</g>
<!-- Node16&#45;&gt;Node17 -->
<g id="edge21_Node000016_Node000017" class="edge">
<title>Node16&#45;&gt;Node17</title>
<g id="a_edge21_Node000016_Node000017"><a xlink:title=" ">
<path fill="none" stroke="#63b8ff" d="M572,-55.59C572,-49.01 572,-39.96 572,-31.73"/>
<polygon fill="#63b8ff" stroke="#63b8ff" points="575.5,-31.81 572,-21.81 568.5,-31.81 575.5,-31.81"/>
</a>
</g>
</g>
<!-- Node18&#45;&gt;Node5 -->
<g id="edge23_Node000018_Node000005" class="edge">
<title>Node18&#45;&gt;Node5</title>
<g id="a_edge23_Node000018_Node000005"><a xlink:title=" ">
<path fill="none" stroke="#63b8ff" d="M797.8,-55.59C806.6,-47.93 819.25,-36.91 829.77,-27.75"/>
<polygon fill="#63b8ff" stroke="#63b8ff" points="831.94,-30.5 837.18,-21.29 827.34,-25.22 831.94,-30.5"/>
</a>
</g>
</g>
<!-- Node18&#45;&gt;Node9 -->
<g id="edge24_Node000018_Node000009" class="edge">
<title>Node18&#45;&gt;Node9</title>
<g id="a_edge24_Node000018_Node000009"><a xlink:title=" ">
<path fill="none" stroke="#63b8ff" d="M809.12,-55.59C829.15,-47.08 858.92,-34.42 881.62,-24.77"/>
<polygon fill="#63b8ff" stroke="#63b8ff" points="882.91,-28.02 890.74,-20.89 880.17,-21.58 882.91,-28.02"/>
</a>
</g>
</g>
<!-- Node18&#45;&gt;Node10 -->
<g id="edge25_Node000018_Node000010" class="edge">
<title>Node18&#45;&gt;Node10</title>
<g id="a_edge25_Node000018_Node000010"><a xlink:title=" ">
<path fill="none" stroke="#63b8ff" d="M738.52,-57.09C677.32,-47.11 572.43,-29.99 509.12,-19.67"/>
<polygon fill="#63b8ff" stroke="#63b8ff" points="509.73,-16.22 499.29,-18.06 508.6,-23.13 509.73,-16.22"/>
</a>
</g>
</g>
<!-- Node18&#45;&gt;Node14 -->
<g id="edge26_Node000018_Node000014" class="edge">
<title>Node18&#45;&gt;Node14</title>
<g id="a_edge26_Node000018_Node000014"><a xlink:title=" ">
<path fill="none" stroke="#63b8ff" d="M773.94,-55.59C763.03,-47.74 747.25,-36.38 734.34,-27.09"/>
<polygon fill="#63b8ff" stroke="#63b8ff" points="736.55,-24.37 726.39,-21.36 732.46,-30.05 736.55,-24.37"/>
</a>
</g>
</g>
</g>
</svg>
