<?xml version="1.0" encoding="UTF-8" standalone="no"?>
<!DOCTYPE svg PUBLIC "-//W3C//DTD SVG 1.1//EN"
 "http://www.w3.org/Graphics/SVG/1.1/DTD/svg11.dtd">
<!-- Generated by graphviz version 12.2.1 (20241206.2353)
 -->
<!-- Title: grid_interface.h Pages: 1 -->
<svg width="157pt" height="252pt"
 viewBox="0.00 0.00 156.75 252.00" xmlns="http://www.w3.org/2000/svg" xmlns:xlink="http://www.w3.org/1999/xlink">
<g id="graph0" class="graph" transform="scale(1 1) rotate(0) translate(4 248)">
<title>grid_interface.h</title>
<!-- Node1 -->
<g id="Node000001" class="node">
<title>Node1</title>
<g id="a_Node000001"><a xlink:title=" ">
<polygon fill="#999999" stroke="#666666" points="148.75,-244 66,-244 66,-224 148.75,-224 148.75,-244"/>
<text text-anchor="middle" x="107.38" y="-230.5" font-family="Helvetica,sans-Serif" font-size="10.00">grid_interface.h</text>
</a>
</g>
</g>
<!-- Node2 -->
<g id="Node000002" class="node">
<title>Node2</title>
<g id="a_Node000002"><a xlink:href="grid_8h.html" target="_top" xlink:title=" ">
<polygon fill="white" stroke="#666666" points="127.38,-188 87.38,-188 87.38,-168 127.38,-168 127.38,-188"/>
<text text-anchor="middle" x="107.38" y="-174.5" font-family="Helvetica,sans-Serif" font-size="10.00">grid.h</text>
</a>
</g>
</g>
<!-- Node1&#45;&gt;Node2 -->
<g id="edge1_Node000001_Node000002" class="edge">
<title>Node1&#45;&gt;Node2</title>
<g id="a_edge1_Node000001_Node000002"><a xlink:title=" ">
<path fill="none" stroke="#63b8ff" d="M107.38,-212.13C107.38,-203.9 107.38,-194.85 107.38,-188.3"/>
<polygon fill="#63b8ff" stroke="#63b8ff" points="103.88,-212.08 107.38,-222.08 110.88,-212.08 103.88,-212.08"/>
</a>
</g>
</g>
<!-- Node3 -->
<g id="Node000003" class="node">
<title>Node3</title>
<g id="a_Node000003"><a xlink:href="distance__grid_8h.html" target="_top" xlink:title=" ">
<polygon fill="white" stroke="#666666" points="114.38,-132 32.38,-132 32.38,-112 114.38,-112 114.38,-132"/>
<text text-anchor="middle" x="73.38" y="-118.5" font-family="Helvetica,sans-Serif" font-size="10.00">distance_grid.h</text>
</a>
</g>
</g>
<!-- Node2&#45;&gt;Node3 -->
<g id="edge2_Node000002_Node000003" class="edge">
<title>Node2&#45;&gt;Node3</title>
<g id="a_edge2_Node000002_Node000003"><a xlink:title=" ">
<path fill="none" stroke="#63b8ff" d="M95.33,-157.87C89.86,-149.19 83.65,-139.32 79.23,-132.3"/>
<polygon fill="#63b8ff" stroke="#63b8ff" points="92.36,-159.72 100.65,-166.31 98.28,-155.99 92.36,-159.72"/>
</a>
</g>
</g>
<!-- Node5 -->
<g id="Node000005" class="node">
<title>Node5</title>
<g id="a_Node000005"><a xlink:href="maze__builder_8h.html" target="_top" xlink:title="This file includes all the headers in the maze builder library.">
<polygon fill="white" stroke="#666666" points="145.38,-20 63.38,-20 63.38,0 145.38,0 145.38,-20"/>
<text text-anchor="middle" x="104.38" y="-6.5" font-family="Helvetica,sans-Serif" font-size="10.00">maze_builder.h</text>
</a>
</g>
</g>
<!-- Node2&#45;&gt;Node5 -->
<g id="edge6_Node000002_Node000005" class="edge">
<title>Node2&#45;&gt;Node5</title>
<g id="a_edge6_Node000002_Node000005"><a xlink:title=" ">
<path fill="none" stroke="#63b8ff" d="M116.08,-157.14C119.02,-149.45 121.91,-140.46 123.38,-132 130.53,-90.51 115.25,-40.82 107.96,-20.43"/>
<polygon fill="#63b8ff" stroke="#63b8ff" points="112.92,-155.62 112.36,-166.2 119.4,-158.28 112.92,-155.62"/>
</a>
</g>
</g>
<!-- Node4 -->
<g id="Node000004" class="node">
<title>Node4</title>
<g id="a_Node000004"><a xlink:href="colored__grid_8h.html" target="_top" xlink:title=" ">
<polygon fill="white" stroke="#666666" points="76.75,-76 0,-76 0,-56 76.75,-56 76.75,-76"/>
<text text-anchor="middle" x="38.38" y="-62.5" font-family="Helvetica,sans-Serif" font-size="10.00">colored_grid.h</text>
</a>
</g>
</g>
<!-- Node3&#45;&gt;Node4 -->
<g id="edge3_Node000003_Node000004" class="edge">
<title>Node3&#45;&gt;Node4</title>
<g id="a_edge3_Node000003_Node000004"><a xlink:title=" ">
<path fill="none" stroke="#63b8ff" d="M61.16,-102.15C55.49,-93.4 49,-83.39 44.4,-76.3"/>
<polygon fill="#63b8ff" stroke="#63b8ff" points="58.08,-103.84 66.46,-110.32 63.95,-100.03 58.08,-103.84"/>
</a>
</g>
</g>
<!-- Node3&#45;&gt;Node5 -->
<g id="edge5_Node000003_Node000005" class="edge">
<title>Node3&#45;&gt;Node5</title>
<g id="a_edge5_Node000003_Node000005"><a xlink:title=" ">
<path fill="none" stroke="#63b8ff" d="M79.11,-100.64C85.86,-76.72 96.76,-38.03 101.74,-20.35"/>
<polygon fill="#63b8ff" stroke="#63b8ff" points="75.77,-99.59 76.43,-110.16 82.51,-101.49 75.77,-99.59"/>
</a>
</g>
</g>
<!-- Node4&#45;&gt;Node5 -->
<g id="edge4_Node000004_Node000005" class="edge">
<title>Node4&#45;&gt;Node5</title>
<g id="a_edge4_Node000004_Node000005"><a xlink:title=" ">
<path fill="none" stroke="#63b8ff" d="M58.66,-48.4C69.95,-39.17 83.59,-28.01 93.01,-20.3"/>
<polygon fill="#63b8ff" stroke="#63b8ff" points="56.57,-45.59 51.04,-54.64 61,-51.01 56.57,-45.59"/>
</a>
</g>
</g>
</g>
</svg>
