<?xml version="1.0" encoding="UTF-8" standalone="no"?>
<!DOCTYPE svg PUBLIC "-//W3C//DTD SVG 1.1//EN"
 "http://www.w3.org/Graphics/SVG/1.1/DTD/svg11.dtd">
<!-- Generated by graphviz version 12.2.1 (20241206.2353)
 -->
<!-- Title: grid.h Pages: 1 -->
<svg width="1083pt" height="252pt"
 viewBox="0.00 0.00 1082.88 252.00" xmlns="http://www.w3.org/2000/svg" xmlns:xlink="http://www.w3.org/1999/xlink">
<g id="graph0" class="graph" transform="scale(1 1) rotate(0) translate(4 248)">
<title>grid.h</title>
<!-- Node1 -->
<g id="Node000001" class="node">
<title>Node1</title>
<g id="a_Node000001"><a xlink:title=" ">
<polygon fill="#999999" stroke="#666666" points="738,-244 698,-244 698,-224 738,-224 738,-244"/>
<text text-anchor="middle" x="718" y="-230.5" font-family="Helvetica,sans-Serif" font-size="10.00">grid.h</text>
</a>
</g>
</g>
<!-- Node2 -->
<g id="Node000002" class="node">
<title>Node2</title>
<g id="a_Node000002"><a xlink:href="enums_8h.html" target="_top" xlink:title="Enumerations for the maze builder program.">
<polygon fill="white" stroke="#666666" points="158.25,-132 47.75,-132 47.75,-112 158.25,-112 158.25,-132"/>
<text text-anchor="middle" x="103" y="-118.5" font-family="Helvetica,sans-Serif" font-size="10.00">MazeBuilder/enums.h</text>
</a>
</g>
</g>
<!-- Node1&#45;&gt;Node2 -->
<g id="edge1_Node000001_Node000002" class="edge">
<title>Node1&#45;&gt;Node2</title>
<g id="a_edge1_Node000001_Node000002"><a xlink:title=" ">
<path fill="none" stroke="#63b8ff" d="M697.66,-233.1C610.52,-233.26 268.77,-231.09 172,-188 148.84,-177.69 128.57,-156.25 116.1,-140.81"/>
<polygon fill="#63b8ff" stroke="#63b8ff" points="119.19,-139.1 110.31,-133.33 113.66,-143.38 119.19,-139.1"/>
</a>
</g>
</g>
<!-- Node3 -->
<g id="Node000003" class="node">
<title>Node3</title>
<g id="a_Node000003"><a xlink:title=" ">
<polygon fill="#e0e0e0" stroke="#999999" points="246.62,-76 201.38,-76 201.38,-56 246.62,-56 246.62,-76"/>
<text text-anchor="middle" x="224" y="-62.5" font-family="Helvetica,sans-Serif" font-size="10.00">cstdint</text>
</a>
</g>
</g>
<!-- Node1&#45;&gt;Node3 -->
<g id="edge27_Node000001_Node000003" class="edge">
<title>Node1&#45;&gt;Node3</title>
<g id="a_edge27_Node000001_Node000003"><a xlink:title=" ">
<path fill="none" stroke="#63b8ff" d="M697.54,-231.09C617.32,-223.21 325.34,-190.91 257,-132 243.37,-120.25 234.7,-101.5 229.69,-87.15"/>
<polygon fill="#63b8ff" stroke="#63b8ff" points="233.09,-86.32 226.76,-77.83 226.41,-88.42 233.09,-86.32"/>
</a>
</g>
</g>
<!-- Node4 -->
<g id="Node000004" class="node">
<title>Node4</title>
<g id="a_Node000004"><a xlink:title=" ">
<polygon fill="#e0e0e0" stroke="#999999" points="40,-76 0,-76 0,-56 40,-56 40,-76"/>
<text text-anchor="middle" x="20" y="-62.5" font-family="Helvetica,sans-Serif" font-size="10.00">string</text>
</a>
</g>
</g>
<!-- Node1&#45;&gt;Node4 -->
<g id="edge32_Node000001_Node000004" class="edge">
<title>Node1&#45;&gt;Node4</title>
<g id="a_edge32_Node000001_Node000004"><a xlink:title=" ">
<path fill="none" stroke="#63b8ff" d="M697.6,-232.43C607.75,-229.77 246.97,-217.41 138,-188 82.73,-173.08 53.18,-180.01 22,-132 13.53,-118.95 13.6,-101.11 15.47,-87.43"/>
<polygon fill="#63b8ff" stroke="#63b8ff" points="18.88,-88.23 17.23,-77.77 11.99,-86.98 18.88,-88.23"/>
</a>
</g>
</g>
<!-- Node6 -->
<g id="Node000006" class="node">
<title>Node6</title>
<g id="a_Node000006"><a xlink:href="grid__interface_8h.html" target="_top" xlink:title=" ">
<polygon fill="white" stroke="#666666" points="573.88,-188 434.12,-188 434.12,-168 573.88,-168 573.88,-188"/>
<text text-anchor="middle" x="504" y="-174.5" font-family="Helvetica,sans-Serif" font-size="10.00">MazeBuilder/grid_interface.h</text>
</a>
</g>
</g>
<!-- Node1&#45;&gt;Node6 -->
<g id="edge5_Node000001_Node000006" class="edge">
<title>Node1&#45;&gt;Node6</title>
<g id="a_edge5_Node000001_Node000006"><a xlink:title=" ">
<path fill="none" stroke="#63b8ff" d="M697.87,-227.92C664.8,-219.58 598.09,-202.74 552.24,-191.17"/>
<polygon fill="#63b8ff" stroke="#63b8ff" points="553.38,-187.85 542.83,-188.8 551.67,-194.64 553.38,-187.85"/>
</a>
</g>
</g>
<!-- Node7 -->
<g id="Node000007" class="node">
<title>Node7</title>
<g id="a_Node000007"><a xlink:title=" ">
<polygon fill="#e0e0e0" stroke="#999999" points="774,-20 716,-20 716,0 774,0 774,-20"/>
<text text-anchor="middle" x="745" y="-6.5" font-family="Helvetica,sans-Serif" font-size="10.00">functional</text>
</a>
</g>
</g>
<!-- Node1&#45;&gt;Node7 -->
<g id="edge28_Node000001_Node000007" class="edge">
<title>Node1&#45;&gt;Node7</title>
<g id="a_edge28_Node000001_Node000007"><a xlink:title=" ">
<path fill="none" stroke="#63b8ff" d="M721.28,-223.6C729.49,-199.47 750.83,-133.21 758,-76 759.11,-67.18 759.25,-64.8 758,-56 756.83,-47.76 754.52,-38.91 752.17,-31.26"/>
<polygon fill="#63b8ff" stroke="#63b8ff" points="755.54,-30.31 749.06,-21.92 748.89,-32.52 755.54,-30.31"/>
</a>
</g>
</g>
<!-- Node8 -->
<g id="Node000008" class="node">
<title>Node8</title>
<g id="a_Node000008"><a xlink:title=" ">
<polygon fill="#e0e0e0" stroke="#999999" points="367.62,-20 316.38,-20 316.38,0 367.62,0 367.62,-20"/>
<text text-anchor="middle" x="342" y="-6.5" font-family="Helvetica,sans-Serif" font-size="10.00">memory</text>
</a>
</g>
</g>
<!-- Node1&#45;&gt;Node8 -->
<g id="edge29_Node000001_Node000008" class="edge">
<title>Node1&#45;&gt;Node8</title>
<g id="a_edge29_Node000001_Node000008"><a xlink:title=" ">
<path fill="none" stroke="#63b8ff" d="M697.62,-233.58C638.94,-234.65 465.22,-233.45 331,-188 284.94,-172.4 273.7,-163.9 237,-132 207.37,-106.25 168.57,-87.49 192,-56 217.81,-21.31 269.43,-12.36 304.84,-10.55"/>
<polygon fill="#63b8ff" stroke="#63b8ff" points="304.78,-14.05 314.66,-10.23 304.55,-7.05 304.78,-14.05"/>
</a>
</g>
</g>
<!-- Node11 -->
<g id="Node000011" class="node">
<title>Node11</title>
<g id="a_Node000011"><a xlink:title=" ">
<polygon fill="#e0e0e0" stroke="#999999" points="829.5,-20 792.5,-20 792.5,0 829.5,0 829.5,-20"/>
<text text-anchor="middle" x="811" y="-6.5" font-family="Helvetica,sans-Serif" font-size="10.00">tuple</text>
</a>
</g>
</g>
<!-- Node1&#45;&gt;Node11 -->
<g id="edge33_Node000001_Node000011" class="edge">
<title>Node1&#45;&gt;Node11</title>
<g id="a_edge33_Node000001_Node000011"><a xlink:title=" ">
<path fill="none" stroke="#63b8ff" d="M725.98,-223.51C733.04,-214.75 743.25,-201.13 750,-188 777.68,-134.18 797.37,-65.01 806.04,-31.29"/>
<polygon fill="#63b8ff" stroke="#63b8ff" points="809.42,-32.23 808.45,-21.68 802.63,-30.53 809.42,-32.23"/>
</a>
</g>
</g>
<!-- Node12 -->
<g id="Node000012" class="node">
<title>Node12</title>
<g id="a_Node000012"><a xlink:title=" ">
<polygon fill="#e0e0e0" stroke="#999999" points="730.5,-76 687.5,-76 687.5,-56 730.5,-56 730.5,-76"/>
<text text-anchor="middle" x="709" y="-62.5" font-family="Helvetica,sans-Serif" font-size="10.00">vector</text>
</a>
</g>
</g>
<!-- Node1&#45;&gt;Node12 -->
<g id="edge35_Node000001_Node000012" class="edge">
<title>Node1&#45;&gt;Node12</title>
<g id="a_edge35_Node000001_Node000012"><a xlink:title=" ">
<path fill="none" stroke="#63b8ff" d="M717.49,-223.6C716.07,-197.46 712.06,-123.48 710.1,-87.36"/>
<polygon fill="#63b8ff" stroke="#63b8ff" points="713.62,-87.6 709.59,-77.81 706.63,-87.98 713.62,-87.6"/>
</a>
</g>
</g>
<!-- Node15 -->
<g id="Node000015" class="node">
<title>Node15</title>
<g id="a_Node000015"><a xlink:title=" ">
<polygon fill="#e0e0e0" stroke="#999999" points="669.38,-76 586.62,-76 586.62,-56 669.38,-56 669.38,-76"/>
<text text-anchor="middle" x="628" y="-62.5" font-family="Helvetica,sans-Serif" font-size="10.00">unordered_map</text>
</a>
</g>
</g>
<!-- Node1&#45;&gt;Node15 -->
<g id="edge34_Node000001_Node000015" class="edge">
<title>Node1&#45;&gt;Node15</title>
<g id="a_edge34_Node000001_Node000015"><a xlink:title=" ">
<path fill="none" stroke="#63b8ff" d="M712.9,-223.6C698.55,-197.12 657.57,-121.54 638.28,-85.96"/>
<polygon fill="#63b8ff" stroke="#63b8ff" points="641.61,-84.75 633.76,-77.63 635.45,-88.09 641.61,-84.75"/>
</a>
</g>
</g>
<!-- Node18 -->
<g id="Node000018" class="node">
<title>Node18</title>
<g id="a_Node000018"><a xlink:title=" ">
<polygon fill="#e0e0e0" stroke="#999999" points="946.62,-188 901.38,-188 901.38,-168 946.62,-168 946.62,-188"/>
<text text-anchor="middle" x="924" y="-174.5" font-family="Helvetica,sans-Serif" font-size="10.00">atomic</text>
</a>
</g>
</g>
<!-- Node1&#45;&gt;Node18 -->
<g id="edge26_Node000001_Node000018" class="edge">
<title>Node1&#45;&gt;Node18</title>
<g id="a_edge26_Node000001_Node000018"><a xlink:title=" ">
<path fill="none" stroke="#63b8ff" d="M738.13,-227.72C773.37,-218.49 846.6,-199.29 889.88,-187.94"/>
<polygon fill="#63b8ff" stroke="#63b8ff" points="890.73,-191.34 899.51,-185.42 888.95,-184.57 890.73,-191.34"/>
</a>
</g>
</g>
<!-- Node19 -->
<g id="Node000019" class="node">
<title>Node19</title>
<g id="a_Node000019"><a xlink:title=" ">
<polygon fill="#e0e0e0" stroke="#999999" points="1007.5,-188 964.5,-188 964.5,-168 1007.5,-168 1007.5,-188"/>
<text text-anchor="middle" x="986" y="-174.5" font-family="Helvetica,sans-Serif" font-size="10.00">mutex</text>
</a>
</g>
</g>
<!-- Node1&#45;&gt;Node19 -->
<g id="edge30_Node000001_Node000019" class="edge">
<title>Node1&#45;&gt;Node19</title>
<g id="a_edge30_Node000001_Node000019"><a xlink:title=" ">
<path fill="none" stroke="#63b8ff" d="M738.21,-229.91C777.72,-223.72 868.11,-208.8 952.99,-188.55"/>
<polygon fill="#63b8ff" stroke="#63b8ff" points="953.75,-191.96 962.65,-186.21 952.1,-185.16 953.75,-191.96"/>
</a>
</g>
</g>
<!-- Node20 -->
<g id="Node000020" class="node">
<title>Node20</title>
<g id="a_Node000020"><a xlink:title=" ">
<polygon fill="#e0e0e0" stroke="#999999" points="1074.88,-188 1025.12,-188 1025.12,-168 1074.88,-168 1074.88,-188"/>
<text text-anchor="middle" x="1050" y="-174.5" font-family="Helvetica,sans-Serif" font-size="10.00">optional</text>
</a>
</g>
</g>
<!-- Node1&#45;&gt;Node20 -->
<g id="edge31_Node000001_Node000020" class="edge">
<title>Node1&#45;&gt;Node20</title>
<g id="a_edge31_Node000001_Node000020"><a xlink:title=" ">
<path fill="none" stroke="#63b8ff" d="M738.45,-230.76C785.45,-225.43 904.95,-210.89 1013.69,-188.52"/>
<polygon fill="#63b8ff" stroke="#63b8ff" points="1014.3,-191.97 1023.37,-186.49 1012.86,-185.11 1014.3,-191.97"/>
</a>
</g>
</g>
<!-- Node2&#45;&gt;Node3 -->
<g id="edge2_Node000002_Node000003" class="edge">
<title>Node2&#45;&gt;Node3</title>
<g id="a_edge2_Node000002_Node000003"><a xlink:title=" ">
<path fill="none" stroke="#63b8ff" d="M124.08,-111.59C142.96,-103.17 170.92,-90.69 192.46,-81.07"/>
<polygon fill="#63b8ff" stroke="#63b8ff" points="193.67,-84.37 201.38,-77.1 190.82,-77.98 193.67,-84.37"/>
</a>
</g>
</g>
<!-- Node2&#45;&gt;Node4 -->
<g id="edge3_Node000002_Node000004" class="edge">
<title>Node2&#45;&gt;Node4</title>
<g id="a_edge3_Node000002_Node000004"><a xlink:title=" ">
<path fill="none" stroke="#63b8ff" d="M88.54,-111.59C76.24,-103.59 58.32,-91.93 43.89,-82.54"/>
<polygon fill="#63b8ff" stroke="#63b8ff" points="46.13,-79.82 35.84,-77.3 42.31,-85.69 46.13,-79.82"/>
</a>
</g>
</g>
<!-- Node5 -->
<g id="Node000005" class="node">
<title>Node5</title>
<g id="a_Node000005"><a xlink:title=" ">
<polygon fill="#e0e0e0" stroke="#999999" points="132.38,-76 73.62,-76 73.62,-56 132.38,-56 132.38,-76"/>
<text text-anchor="middle" x="103" y="-62.5" font-family="Helvetica,sans-Serif" font-size="10.00">stdexcept</text>
</a>
</g>
</g>
<!-- Node2&#45;&gt;Node5 -->
<g id="edge4_Node000002_Node000005" class="edge">
<title>Node2&#45;&gt;Node5</title>
<g id="a_edge4_Node000002_Node000005"><a xlink:title=" ">
<path fill="none" stroke="#63b8ff" d="M103,-111.59C103,-105.01 103,-95.96 103,-87.73"/>
<polygon fill="#63b8ff" stroke="#63b8ff" points="106.5,-87.81 103,-77.81 99.5,-87.81 106.5,-87.81"/>
</a>
</g>
</g>
<!-- Node6&#45;&gt;Node2 -->
<g id="edge14_Node000006_Node000002" class="edge">
<title>Node6&#45;&gt;Node2</title>
<g id="a_edge14_Node000006_Node000002"><a xlink:title=" ">
<path fill="none" stroke="#63b8ff" d="M433.69,-167.53C359.39,-157.53 243.05,-141.86 170.02,-132.02"/>
<polygon fill="#63b8ff" stroke="#63b8ff" points="170.56,-128.57 160.18,-130.7 169.63,-135.5 170.56,-128.57"/>
</a>
</g>
</g>
<!-- Node6&#45;&gt;Node3 -->
<g id="edge6_Node000006_Node000003" class="edge">
<title>Node6&#45;&gt;Node3</title>
<g id="a_edge6_Node000006_Node000003"><a xlink:title=" ">
<path fill="none" stroke="#63b8ff" d="M434.01,-173.25C389.32,-168.35 331.46,-157.21 286,-132 265.61,-120.69 247.89,-100.43 236.68,-85.52"/>
<polygon fill="#63b8ff" stroke="#63b8ff" points="239.56,-83.54 230.88,-77.46 233.88,-87.62 239.56,-83.54"/>
</a>
</g>
</g>
<!-- Node6&#45;&gt;Node4 -->
<g id="edge11_Node000006_Node000004" class="edge">
<title>Node6&#45;&gt;Node4</title>
<g id="a_edge11_Node000006_Node000004"><a xlink:title=" ">
<path fill="none" stroke="#63b8ff" d="M434.1,-174.51C311.72,-169.52 68.76,-156.63 39,-132 25.98,-121.22 21.59,-102.05 20.25,-87.32"/>
<polygon fill="#63b8ff" stroke="#63b8ff" points="23.76,-87.59 19.78,-77.77 16.77,-87.93 23.76,-87.59"/>
</a>
</g>
</g>
<!-- Node6&#45;&gt;Node7 -->
<g id="edge7_Node000006_Node000007" class="edge">
<title>Node6&#45;&gt;Node7</title>
<g id="a_edge7_Node000006_Node000007"><a xlink:title=" ">
<path fill="none" stroke="#63b8ff" d="M574.14,-168.16C629.82,-157.01 704.07,-131.98 740,-76 748.43,-62.87 749.23,-45.04 748.17,-31.38"/>
<polygon fill="#63b8ff" stroke="#63b8ff" points="751.69,-31.27 747.03,-21.75 744.74,-32.1 751.69,-31.27"/>
</a>
</g>
</g>
<!-- Node6&#45;&gt;Node8 -->
<g id="edge8_Node000006_Node000008" class="edge">
<title>Node6&#45;&gt;Node8</title>
<g id="a_edge8_Node000006_Node000008"><a xlink:title=" ">
<path fill="none" stroke="#63b8ff" d="M436.27,-167.51C384.51,-156.01 318.09,-130.82 294,-76 285.93,-57.64 301.84,-39.52 317.46,-27.09"/>
<polygon fill="#63b8ff" stroke="#63b8ff" points="319.25,-30.12 325.23,-21.37 315.1,-24.49 319.25,-30.12"/>
</a>
</g>
</g>
<!-- Node9 -->
<g id="Node000009" class="node">
<title>Node9</title>
<g id="a_Node000009"><a xlink:title=" ">
<polygon fill="#e0e0e0" stroke="#999999" points="529.62,-132 478.38,-132 478.38,-112 529.62,-112 529.62,-132"/>
<text text-anchor="middle" x="504" y="-118.5" font-family="Helvetica,sans-Serif" font-size="10.00">ostream</text>
</a>
</g>
</g>
<!-- Node6&#45;&gt;Node9 -->
<g id="edge9_Node000006_Node000009" class="edge">
<title>Node6&#45;&gt;Node9</title>
<g id="a_edge9_Node000006_Node000009"><a xlink:title=" ">
<path fill="none" stroke="#63b8ff" d="M504,-167.59C504,-161.01 504,-151.96 504,-143.73"/>
<polygon fill="#63b8ff" stroke="#63b8ff" points="507.5,-143.81 504,-133.81 500.5,-143.81 507.5,-143.81"/>
</a>
</g>
</g>
<!-- Node10 -->
<g id="Node000010" class="node">
<title>Node10</title>
<g id="a_Node000010"><a xlink:title=" ">
<polygon fill="#e0e0e0" stroke="#999999" points="598.62,-132 547.38,-132 547.38,-112 598.62,-112 598.62,-132"/>
<text text-anchor="middle" x="573" y="-118.5" font-family="Helvetica,sans-Serif" font-size="10.00">sstream</text>
</a>
</g>
</g>
<!-- Node6&#45;&gt;Node10 -->
<g id="edge10_Node000006_Node000010" class="edge">
<title>Node6&#45;&gt;Node10</title>
<g id="a_edge10_Node000006_Node000010"><a xlink:title=" ">
<path fill="none" stroke="#63b8ff" d="M516.02,-167.59C526.01,-159.77 540.46,-148.46 552.31,-139.19"/>
<polygon fill="#63b8ff" stroke="#63b8ff" points="554.21,-142.15 559.93,-133.23 549.89,-136.64 554.21,-142.15"/>
</a>
</g>
</g>
<!-- Node6&#45;&gt;Node11 -->
<g id="edge12_Node000006_Node000011" class="edge">
<title>Node6&#45;&gt;Node11</title>
<g id="a_edge12_Node000006_Node000011"><a xlink:title=" ">
<path fill="none" stroke="#63b8ff" d="M574.18,-171.52C614.56,-165.95 665.04,-154.7 705,-132 748.73,-107.16 783.39,-57.39 800.1,-30.05"/>
<polygon fill="#63b8ff" stroke="#63b8ff" points="802.93,-32.15 805.02,-21.77 796.91,-28.58 802.93,-32.15"/>
</a>
</g>
</g>
<!-- Node6&#45;&gt;Node12 -->
<g id="edge13_Node000006_Node000012" class="edge">
<title>Node6&#45;&gt;Node12</title>
<g id="a_edge13_Node000006_Node000012"><a xlink:title=" ">
<path fill="none" stroke="#63b8ff" d="M528.91,-167.56C550.32,-159.13 581.79,-145.98 608,-132 636.17,-116.97 666.78,-96.66 686.83,-82.77"/>
<polygon fill="#63b8ff" stroke="#63b8ff" points="688.6,-85.81 694.78,-77.2 684.58,-80.07 688.6,-85.81"/>
</a>
</g>
</g>
<!-- Node13 -->
<g id="Node000013" class="node">
<title>Node13</title>
<g id="a_Node000013"><a xlink:href="cell_8h.html" target="_top" xlink:title=" ">
<polygon fill="white" stroke="#666666" points="460.12,-132 363.88,-132 363.88,-112 460.12,-112 460.12,-132"/>
<text text-anchor="middle" x="412" y="-118.5" font-family="Helvetica,sans-Serif" font-size="10.00">MazeBuilder/cell.h</text>
</a>
</g>
</g>
<!-- Node6&#45;&gt;Node13 -->
<g id="edge15_Node000006_Node000013" class="edge">
<title>Node6&#45;&gt;Node13</title>
<g id="a_edge15_Node000006_Node000013"><a xlink:title=" ">
<path fill="none" stroke="#63b8ff" d="M487.97,-167.59C474.21,-159.51 454.1,-147.71 438.02,-138.27"/>
<polygon fill="#63b8ff" stroke="#63b8ff" points="439.85,-135.29 429.46,-133.25 436.31,-141.33 439.85,-135.29"/>
</a>
</g>
</g>
<!-- Node13&#45;&gt;Node3 -->
<g id="edge16_Node000013_Node000003" class="edge">
<title>Node13&#45;&gt;Node3</title>
<g id="a_edge16_Node000013_Node000003"><a xlink:title=" ">
<path fill="none" stroke="#63b8ff" d="M379.25,-111.59C345.23,-101.82 292.23,-86.6 257.82,-76.71"/>
<polygon fill="#63b8ff" stroke="#63b8ff" points="258.94,-73.4 248.37,-74 257.01,-80.12 258.94,-73.4"/>
</a>
</g>
</g>
<!-- Node13&#45;&gt;Node8 -->
<g id="edge17_Node000013_Node000008" class="edge">
<title>Node13&#45;&gt;Node8</title>
<g id="a_edge17_Node000013_Node000008"><a xlink:title=" ">
<path fill="none" stroke="#63b8ff" d="M410.31,-111.54C407.63,-98.29 401.48,-73.83 390,-56 383.04,-45.19 372.93,-35.2 363.78,-27.38"/>
<polygon fill="#63b8ff" stroke="#63b8ff" points="366.25,-24.88 356.28,-21.3 361.84,-30.32 366.25,-24.88"/>
</a>
</g>
</g>
<!-- Node13&#45;&gt;Node12 -->
<g id="edge20_Node000013_Node000012" class="edge">
<title>Node13&#45;&gt;Node12</title>
<g id="a_edge20_Node000013_Node000012"><a xlink:title=" ">
<path fill="none" stroke="#63b8ff" d="M460.62,-113.09C524.76,-102.6 633.67,-84.64 676,-76.09"/>
<polygon fill="#63b8ff" stroke="#63b8ff" points="676.55,-79.55 685.59,-74.02 675.07,-72.7 676.55,-79.55"/>
</a>
</g>
</g>
<!-- Node14 -->
<g id="Node000014" class="node">
<title>Node14</title>
<g id="a_Node000014"><a xlink:title=" ">
<polygon fill="#e0e0e0" stroke="#999999" points="380.75,-76 303.25,-76 303.25,-56 380.75,-56 380.75,-76"/>
<text text-anchor="middle" x="342" y="-62.5" font-family="Helvetica,sans-Serif" font-size="10.00">shared_mutex</text>
</a>
</g>
</g>
<!-- Node13&#45;&gt;Node14 -->
<g id="edge18_Node000013_Node000014" class="edge">
<title>Node13&#45;&gt;Node14</title>
<g id="a_edge18_Node000013_Node000014"><a xlink:title=" ">
<path fill="none" stroke="#63b8ff" d="M399.81,-111.59C389.67,-103.77 375.01,-92.46 362.99,-83.19"/>
<polygon fill="#63b8ff" stroke="#63b8ff" points="365.31,-80.56 355.25,-77.22 361.03,-86.1 365.31,-80.56"/>
</a>
</g>
</g>
<!-- Node13&#45;&gt;Node15 -->
<g id="edge19_Node000013_Node000015" class="edge">
<title>Node13&#45;&gt;Node15</title>
<g id="a_edge19_Node000013_Node000015"><a xlink:title=" ">
<path fill="none" stroke="#63b8ff" d="M449.62,-111.59C485.49,-102.63 539.69,-89.08 578.93,-79.27"/>
<polygon fill="#63b8ff" stroke="#63b8ff" points="579.76,-82.67 588.61,-76.85 578.06,-75.88 579.76,-82.67"/>
</a>
</g>
</g>
<!-- Node16 -->
<g id="Node000016" class="node">
<title>Node16</title>
<g id="a_Node000016"><a xlink:href="hash__funcs_8h.html" target="_top" xlink:title=" ">
<polygon fill="white" stroke="#666666" points="568.75,-76 437.25,-76 437.25,-56 568.75,-56 568.75,-76"/>
<text text-anchor="middle" x="503" y="-62.5" font-family="Helvetica,sans-Serif" font-size="10.00">MazeBuilder/hash_funcs.h</text>
</a>
</g>
</g>
<!-- Node13&#45;&gt;Node16 -->
<g id="edge21_Node000013_Node000016" class="edge">
<title>Node13&#45;&gt;Node16</title>
<g id="a_edge21_Node000013_Node000016"><a xlink:title=" ">
<path fill="none" stroke="#63b8ff" d="M427.85,-111.59C441.47,-103.51 461.36,-91.71 477.26,-82.27"/>
<polygon fill="#63b8ff" stroke="#63b8ff" points="478.91,-85.37 485.72,-77.25 475.34,-79.35 478.91,-85.37"/>
</a>
</g>
</g>
<!-- Node16&#45;&gt;Node7 -->
<g id="edge22_Node000016_Node000007" class="edge">
<title>Node16&#45;&gt;Node7</title>
<g id="a_edge22_Node000016_Node000007"><a xlink:title=" ">
<path fill="none" stroke="#63b8ff" d="M545.43,-55.53C590.23,-45.54 660.34,-29.89 704.42,-20.05"/>
<polygon fill="#63b8ff" stroke="#63b8ff" points="705.1,-23.49 714.1,-17.89 703.58,-16.66 705.1,-23.49"/>
</a>
</g>
</g>
<!-- Node16&#45;&gt;Node8 -->
<g id="edge23_Node000016_Node000008" class="edge">
<title>Node16&#45;&gt;Node8</title>
<g id="a_edge23_Node000016_Node000008"><a xlink:title=" ">
<path fill="none" stroke="#63b8ff" d="M474.96,-55.59C448.27,-46.64 407.97,-33.13 378.74,-23.32"/>
<polygon fill="#63b8ff" stroke="#63b8ff" points="380.15,-20.11 369.56,-20.24 377.93,-26.74 380.15,-20.11"/>
</a>
</g>
</g>
<!-- Node16&#45;&gt;Node11 -->
<g id="edge24_Node000016_Node000011" class="edge">
<title>Node16&#45;&gt;Node11</title>
<g id="a_edge24_Node000016_Node000011"><a xlink:title=" ">
<path fill="none" stroke="#63b8ff" d="M569.01,-55.57C633.71,-46.14 728.92,-31.68 781.07,-20.07"/>
<polygon fill="#63b8ff" stroke="#63b8ff" points="781.72,-23.52 790.66,-17.84 780.12,-16.7 781.72,-23.52"/>
</a>
</g>
</g>
<!-- Node17 -->
<g id="Node000017" class="node">
<title>Node17</title>
<g id="a_Node000017"><a xlink:title=" ">
<polygon fill="#e0e0e0" stroke="#999999" points="522.62,-20 483.38,-20 483.38,0 522.62,0 522.62,-20"/>
<text text-anchor="middle" x="503" y="-6.5" font-family="Helvetica,sans-Serif" font-size="10.00">utility</text>
</a>
</g>
</g>
<!-- Node16&#45;&gt;Node17 -->
<g id="edge25_Node000016_Node000017" class="edge">
<title>Node16&#45;&gt;Node17</title>
<g id="a_edge25_Node000016_Node000017"><a xlink:title=" ">
<path fill="none" stroke="#63b8ff" d="M503,-55.59C503,-49.01 503,-39.96 503,-31.73"/>
<polygon fill="#63b8ff" stroke="#63b8ff" points="506.5,-31.81 503,-21.81 499.5,-31.81 506.5,-31.81"/>
</a>
</g>
</g>
</g>
</svg>
