<?xml version="1.0" encoding="UTF-8" standalone="no"?>
<!DOCTYPE svg PUBLIC "-//W3C//DTD SVG 1.1//EN"
 "http://www.w3.org/Graphics/SVG/1.1/DTD/svg11.dtd">
<!-- Generated by graphviz version 12.2.1 (20241206.2353)
 -->
<!-- Title: C:/Users/zachm/Desktop/zmertens&#45;MazeBuilder/include/MazeBuilder/grid.h Pages: 1 -->
<svg width="576pt" height="220pt"
 viewBox="0.00 0.00 576.10 220.00" xmlns="http://www.w3.org/2000/svg" xmlns:xlink="http://www.w3.org/1999/xlink">
<g id="graph0" class="graph" transform="scale(1 1) rotate(0) translate(4 216)">
<title>C:/Users/zachm/Desktop/zmertens&#45;MazeBuilder/include/MazeBuilder/grid.h</title>
<!-- Node1 -->
<g id="Node000001" class="node">
<title>Node1</title>
<g id="a_Node000001"><a xlink:title=" ">
<polygon fill="#999999" stroke="#666666" points="243.3,-212 109.55,-212 109.55,-168 243.3,-168 243.3,-212"/>
<text text-anchor="start" x="117.55" y="-198.5" font-family="Helvetica,sans-Serif" font-size="10.00">C:/Users/zachm/Desktop</text>
<text text-anchor="start" x="117.55" y="-186.5" font-family="Helvetica,sans-Serif" font-size="10.00">/zmertens&#45;MazeBuilder</text>
<text text-anchor="middle" x="176.43" y="-174.5" font-family="Helvetica,sans-Serif" font-size="10.00">/include/MazeBuilder/grid.h</text>
</a>
</g>
</g>
<!-- Node2 -->
<g id="Node000002" class="node">
<title>Node2</title>
<g id="a_Node000002"><a xlink:title=" ">
<polygon fill="#e0e0e0" stroke="#999999" points="161.93,-20 118.93,-20 118.93,0 161.93,0 161.93,-20"/>
<text text-anchor="middle" x="140.43" y="-6.5" font-family="Helvetica,sans-Serif" font-size="10.00">vector</text>
</a>
</g>
</g>
<!-- Node1&#45;&gt;Node2 -->
<g id="edge1_Node000001_Node000002" class="edge">
<title>Node1&#45;&gt;Node2</title>
<g id="a_edge1_Node000001_Node000002"><a xlink:title=" ">
<path fill="none" stroke="#63b8ff" d="M109.34,-168.92C67.37,-152.01 18.36,-122.9 2.43,-76 -12.89,-30.88 61.49,-17.08 107.05,-12.86"/>
<polygon fill="#63b8ff" stroke="#63b8ff" points="107.29,-16.35 116.98,-12.06 106.73,-9.37 107.29,-16.35"/>
</a>
</g>
</g>
<!-- Node3 -->
<g id="Node000003" class="node">
<title>Node3</title>
<g id="a_Node000003"><a xlink:title=" ">
<polygon fill="#e0e0e0" stroke="#999999" points="395.05,-20 343.8,-20 343.8,0 395.05,0 395.05,-20"/>
<text text-anchor="middle" x="369.43" y="-6.5" font-family="Helvetica,sans-Serif" font-size="10.00">memory</text>
</a>
</g>
</g>
<!-- Node1&#45;&gt;Node3 -->
<g id="edge2_Node000001_Node000003" class="edge">
<title>Node1&#45;&gt;Node3</title>
<g id="a_edge2_Node000001_Node000003"><a xlink:title=" ">
<path fill="none" stroke="#63b8ff" d="M243.79,-181.71C305.12,-173.53 389.12,-157.88 409.43,-132 433.79,-100.96 404.8,-54.45 384.97,-29.09"/>
<polygon fill="#63b8ff" stroke="#63b8ff" points="387.7,-26.89 378.66,-21.36 382.27,-31.32 387.7,-26.89"/>
</a>
</g>
</g>
<!-- Node4 -->
<g id="Node000004" class="node">
<title>Node4</title>
<g id="a_Node000004"><a xlink:title=" ">
<polygon fill="#e0e0e0" stroke="#999999" points="63.05,-76 11.8,-76 11.8,-56 63.05,-56 63.05,-76"/>
<text text-anchor="middle" x="37.43" y="-62.5" font-family="Helvetica,sans-Serif" font-size="10.00">sstream</text>
</a>
</g>
</g>
<!-- Node1&#45;&gt;Node4 -->
<g id="edge3_Node000001_Node000004" class="edge">
<title>Node1&#45;&gt;Node4</title>
<g id="a_edge3_Node000001_Node000004"><a xlink:title=" ">
<path fill="none" stroke="#63b8ff" d="M112.18,-167.57C93.84,-158.9 75.13,-147.25 61.43,-132 50.11,-119.41 43.98,-101.01 40.76,-87"/>
<polygon fill="#63b8ff" stroke="#63b8ff" points="44.27,-86.7 38.91,-77.56 37.4,-88.04 44.27,-86.7"/>
</a>
</g>
</g>
<!-- Node5 -->
<g id="Node000005" class="node">
<title>Node5</title>
<g id="a_Node000005"><a xlink:title=" ">
<polygon fill="#e0e0e0" stroke="#999999" points="520.43,-20 480.43,-20 480.43,0 520.43,0 520.43,-20"/>
<text text-anchor="middle" x="500.43" y="-6.5" font-family="Helvetica,sans-Serif" font-size="10.00">string</text>
</a>
</g>
</g>
<!-- Node1&#45;&gt;Node5 -->
<g id="edge4_Node000001_Node000005" class="edge">
<title>Node1&#45;&gt;Node5</title>
<g id="a_edge4_Node000001_Node000005"><a xlink:title=" ">
<path fill="none" stroke="#63b8ff" d="M243.61,-180.49C345.9,-165.86 532.28,-131.97 564.43,-76 576.21,-55.49 552.46,-36.79 530.63,-24.77"/>
<polygon fill="#63b8ff" stroke="#63b8ff" points="532.39,-21.73 521.9,-20.27 529.19,-27.96 532.39,-21.73"/>
</a>
</g>
</g>
<!-- Node6 -->
<g id="Node000006" class="node">
<title>Node6</title>
<g id="a_Node000006"><a xlink:title=" ">
<polygon fill="#e0e0e0" stroke="#999999" points="168.43,-132 110.43,-132 110.43,-112 168.43,-112 168.43,-132"/>
<text text-anchor="middle" x="139.43" y="-118.5" font-family="Helvetica,sans-Serif" font-size="10.00">functional</text>
</a>
</g>
</g>
<!-- Node1&#45;&gt;Node6 -->
<g id="edge5_Node000001_Node000006" class="edge">
<title>Node1&#45;&gt;Node6</title>
<g id="a_edge5_Node000001_Node000006"><a xlink:title=" ">
<path fill="none" stroke="#63b8ff" d="M164.52,-167.75C159.93,-159.57 154.72,-150.27 150.24,-142.28"/>
<polygon fill="#63b8ff" stroke="#63b8ff" points="153.39,-140.75 145.45,-133.74 147.29,-144.17 153.39,-140.75"/>
</a>
</g>
</g>
<!-- Node7 -->
<g id="Node000007" class="node">
<title>Node7</title>
<g id="a_Node000007"><a xlink:title=" ">
<polygon fill="#e0e0e0" stroke="#999999" points="242.3,-132 186.55,-132 186.55,-112 242.3,-112 242.3,-132"/>
<text text-anchor="middle" x="214.43" y="-118.5" font-family="Helvetica,sans-Serif" font-size="10.00">algorithm</text>
</a>
</g>
</g>
<!-- Node1&#45;&gt;Node7 -->
<g id="edge6_Node000001_Node000007" class="edge">
<title>Node1&#45;&gt;Node7</title>
<g id="a_edge6_Node000001_Node000007"><a xlink:title=" ">
<path fill="none" stroke="#63b8ff" d="M188.66,-167.75C193.38,-159.57 198.73,-150.27 203.33,-142.28"/>
<polygon fill="#63b8ff" stroke="#63b8ff" points="206.29,-144.14 208.25,-133.73 200.23,-140.65 206.29,-144.14"/>
</a>
</g>
</g>
<!-- Node8 -->
<g id="Node000008" class="node">
<title>Node8</title>
<g id="a_Node000008"><a xlink:title=" ">
<polygon fill="#e0e0e0" stroke="#999999" points="157.3,-76 107.55,-76 107.55,-56 157.3,-56 157.3,-76"/>
<text text-anchor="middle" x="132.43" y="-62.5" font-family="Helvetica,sans-Serif" font-size="10.00">optional</text>
</a>
</g>
</g>
<!-- Node1&#45;&gt;Node8 -->
<g id="edge7_Node000001_Node000008" class="edge">
<title>Node1&#45;&gt;Node8</title>
<g id="a_edge7_Node000001_Node000008"><a xlink:title=" ">
<path fill="none" stroke="#63b8ff" d="M109.26,-167.63C93.12,-159.17 77.84,-147.61 68.43,-132 56.5,-112.21 78.95,-93.87 100.48,-81.75"/>
<polygon fill="#63b8ff" stroke="#63b8ff" points="101.93,-84.94 109.15,-77.18 98.67,-78.74 101.93,-84.94"/>
</a>
</g>
</g>
<!-- Node9 -->
<g id="Node000009" class="node">
<title>Node9</title>
<g id="a_Node000009"><a xlink:href="cell_8h_source.html" target="_top" xlink:title=" ">
<polygon fill="white" stroke="#666666" points="272.05,-76 232.8,-76 232.8,-56 272.05,-56 272.05,-76"/>
<text text-anchor="middle" x="252.43" y="-62.5" font-family="Helvetica,sans-Serif" font-size="10.00">cell.h</text>
</a>
</g>
</g>
<!-- Node1&#45;&gt;Node9 -->
<g id="edge8_Node000001_Node000009" class="edge">
<title>Node1&#45;&gt;Node9</title>
<g id="a_edge8_Node000001_Node000009"><a xlink:title=" ">
<path fill="none" stroke="#63b8ff" d="M132.44,-167.52C108.38,-152.81 86.26,-132.35 101.43,-112 115.76,-92.78 181.26,-78.78 221.13,-71.87"/>
<polygon fill="#63b8ff" stroke="#63b8ff" points="221.58,-75.34 230.87,-70.24 220.43,-68.44 221.58,-75.34"/>
</a>
</g>
</g>
<!-- Node12 -->
<g id="Node000012" class="node">
<title>Node12</title>
<g id="a_Node000012"><a xlink:href="enums_8h_source.html" target="_top" xlink:title=" ">
<polygon fill="white" stroke="#666666" points="555.68,-76 445.18,-76 445.18,-56 555.68,-56 555.68,-76"/>
<text text-anchor="middle" x="500.43" y="-62.5" font-family="Helvetica,sans-Serif" font-size="10.00">MazeBuilder/enums.h</text>
</a>
</g>
</g>
<!-- Node1&#45;&gt;Node12 -->
<g id="edge13_Node000001_Node000012" class="edge">
<title>Node1&#45;&gt;Node12</title>
<g id="a_edge13_Node000001_Node000012"><a xlink:title=" ">
<path fill="none" stroke="#63b8ff" d="M243.7,-186.12C300.12,-181.1 381.08,-167.67 442.43,-132 461.98,-120.63 478.47,-100.38 488.82,-85.49"/>
<polygon fill="#63b8ff" stroke="#63b8ff" points="491.52,-87.75 494.12,-77.48 485.68,-83.88 491.52,-87.75"/>
</a>
</g>
</g>
<!-- Node13 -->
<g id="Node000013" class="node">
<title>Node13</title>
<g id="a_Node000013"><a xlink:href="grid__interface_8h_source.html" target="_top" xlink:title=" ">
<polygon fill="white" stroke="#666666" points="400.3,-132 260.55,-132 260.55,-112 400.3,-112 400.3,-132"/>
<text text-anchor="middle" x="330.43" y="-118.5" font-family="Helvetica,sans-Serif" font-size="10.00">MazeBuilder/grid_interface.h</text>
</a>
</g>
</g>
<!-- Node1&#45;&gt;Node13 -->
<g id="edge15_Node000001_Node000013" class="edge">
<title>Node1&#45;&gt;Node13</title>
<g id="a_edge15_Node000001_Node000013"><a xlink:title=" ">
<path fill="none" stroke="#63b8ff" d="M226.43,-167.57C249.95,-157.49 277.33,-145.76 298.09,-136.86"/>
<polygon fill="#63b8ff" stroke="#63b8ff" points="299.37,-140.12 307.19,-132.96 296.62,-133.68 299.37,-140.12"/>
</a>
</g>
</g>
<!-- Node9&#45;&gt;Node2 -->
<g id="edge10_Node000009_Node000002" class="edge">
<title>Node9&#45;&gt;Node2</title>
<g id="a_edge10_Node000009_Node000002"><a xlink:title=" ">
<path fill="none" stroke="#63b8ff" d="M232.92,-55.59C215.68,-47.28 190.27,-35.03 170.44,-25.47"/>
<polygon fill="#63b8ff" stroke="#63b8ff" points="171.98,-22.33 161.45,-21.14 168.94,-28.63 171.98,-22.33"/>
</a>
</g>
</g>
<!-- Node9&#45;&gt;Node3 -->
<g id="edge9_Node000009_Node000003" class="edge">
<title>Node9&#45;&gt;Node3</title>
<g id="a_edge9_Node000009_Node000003"><a xlink:title=" ">
<path fill="none" stroke="#63b8ff" d="M272.54,-55.72C290.79,-47.29 317.96,-34.75 338.89,-25.09"/>
<polygon fill="#63b8ff" stroke="#63b8ff" points="340.2,-28.35 347.81,-20.98 337.27,-21.99 340.2,-28.35"/>
</a>
</g>
</g>
<!-- Node10 -->
<g id="Node000010" class="node">
<title>Node10</title>
<g id="a_Node000010"><a xlink:title=" ">
<polygon fill="#e0e0e0" stroke="#999999" points="262.8,-20 180.05,-20 180.05,0 262.8,0 262.8,-20"/>
<text text-anchor="middle" x="221.43" y="-6.5" font-family="Helvetica,sans-Serif" font-size="10.00">unordered_map</text>
</a>
</g>
</g>
<!-- Node9&#45;&gt;Node10 -->
<g id="edge11_Node000009_Node000010" class="edge">
<title>Node9&#45;&gt;Node10</title>
<g id="a_edge11_Node000009_Node000010"><a xlink:title=" ">
<path fill="none" stroke="#63b8ff" d="M247.03,-55.59C242.98,-48.55 237.31,-38.67 232.34,-30"/>
<polygon fill="#63b8ff" stroke="#63b8ff" points="235.53,-28.54 227.52,-21.61 229.46,-32.03 235.53,-28.54"/>
</a>
</g>
</g>
<!-- Node11 -->
<g id="Node000011" class="node">
<title>Node11</title>
<g id="a_Node000011"><a xlink:title=" ">
<polygon fill="#e0e0e0" stroke="#999999" points="326.05,-20 280.8,-20 280.8,0 326.05,0 326.05,-20"/>
<text text-anchor="middle" x="303.43" y="-6.5" font-family="Helvetica,sans-Serif" font-size="10.00">cstdint</text>
</a>
</g>
</g>
<!-- Node9&#45;&gt;Node11 -->
<g id="edge12_Node000009_Node000011" class="edge">
<title>Node9&#45;&gt;Node11</title>
<g id="a_edge12_Node000009_Node000011"><a xlink:title=" ">
<path fill="none" stroke="#63b8ff" d="M261.31,-55.59C268.33,-48.16 278.33,-37.58 286.82,-28.58"/>
<polygon fill="#63b8ff" stroke="#63b8ff" points="289.29,-31.07 293.61,-21.4 284.2,-26.27 289.29,-31.07"/>
</a>
</g>
</g>
<!-- Node12&#45;&gt;Node5 -->
<g id="edge14_Node000012_Node000005" class="edge">
<title>Node12&#45;&gt;Node5</title>
<g id="a_edge14_Node000012_Node000005"><a xlink:title=" ">
<path fill="none" stroke="#63b8ff" d="M500.43,-55.59C500.43,-49.01 500.43,-39.96 500.43,-31.73"/>
<polygon fill="#63b8ff" stroke="#63b8ff" points="503.93,-31.81 500.43,-21.81 496.93,-31.81 503.93,-31.81"/>
</a>
</g>
</g>
<!-- Node13&#45;&gt;Node2 -->
<g id="edge16_Node000013_Node000002" class="edge">
<title>Node13&#45;&gt;Node2</title>
<g id="a_edge16_Node000013_Node000002"><a xlink:title=" ">
<path fill="none" stroke="#63b8ff" d="M302.64,-111.64C280.46,-103.62 248.97,-91.01 223.43,-76 199.69,-62.05 175.18,-42.04 159.01,-27.92"/>
<polygon fill="#63b8ff" stroke="#63b8ff" points="161.45,-25.41 151.65,-21.38 156.8,-30.64 161.45,-25.41"/>
</a>
</g>
</g>
<!-- Node13&#45;&gt;Node3 -->
<g id="edge19_Node000013_Node000003" class="edge">
<title>Node13&#45;&gt;Node3</title>
<g id="a_edge19_Node000013_Node000003"><a xlink:title=" ">
<path fill="none" stroke="#63b8ff" d="M333.75,-111.62C340.06,-93.84 353.87,-54.88 362.34,-31"/>
<polygon fill="#63b8ff" stroke="#63b8ff" points="365.56,-32.38 365.61,-21.78 358.97,-30.04 365.56,-32.38"/>
</a>
</g>
</g>
<!-- Node13&#45;&gt;Node4 -->
<g id="edge18_Node000013_Node000004" class="edge">
<title>Node13&#45;&gt;Node4</title>
<g id="a_edge18_Node000013_Node000004"><a xlink:title=" ">
<path fill="none" stroke="#63b8ff" d="M279.06,-111.53C220.59,-100.76 126.5,-83.42 74.67,-73.86"/>
<polygon fill="#63b8ff" stroke="#63b8ff" points="75.32,-70.43 64.86,-72.05 74.06,-77.31 75.32,-70.43"/>
</a>
</g>
</g>
<!-- Node13&#45;&gt;Node5 -->
<g id="edge17_Node000013_Node000005" class="edge">
<title>Node13&#45;&gt;Node5</title>
<g id="a_edge17_Node000013_Node000005"><a xlink:title=" ">
<path fill="none" stroke="#63b8ff" d="M344.92,-111.62C374.28,-92.63 441.01,-49.45 476.77,-26.31"/>
<polygon fill="#63b8ff" stroke="#63b8ff" points="478.21,-29.55 484.7,-21.18 474.4,-23.67 478.21,-29.55"/>
</a>
</g>
</g>
<!-- Node13&#45;&gt;Node8 -->
<g id="edge21_Node000013_Node000008" class="edge">
<title>Node13&#45;&gt;Node8</title>
<g id="a_edge21_Node000013_Node000008"><a xlink:title=" ">
<path fill="none" stroke="#63b8ff" d="M295.94,-111.59C260.35,-101.89 205.05,-86.81 168.79,-76.92"/>
<polygon fill="#63b8ff" stroke="#63b8ff" points="169.76,-73.55 159.19,-74.3 167.92,-80.31 169.76,-73.55"/>
</a>
</g>
</g>
<!-- Node13&#45;&gt;Node9 -->
<g id="edge23_Node000013_Node000009" class="edge">
<title>Node13&#45;&gt;Node9</title>
<g id="a_edge23_Node000013_Node000009"><a xlink:title=" ">
<path fill="none" stroke="#63b8ff" d="M316.84,-111.59C305.39,-103.67 288.77,-92.16 275.27,-82.82"/>
<polygon fill="#63b8ff" stroke="#63b8ff" points="277.58,-80.16 267.37,-77.34 273.6,-85.91 277.58,-80.16"/>
</a>
</g>
</g>
<!-- Node13&#45;&gt;Node11 -->
<g id="edge20_Node000013_Node000011" class="edge">
<title>Node13&#45;&gt;Node11</title>
<g id="a_edge20_Node000013_Node000011"><a xlink:title=" ">
<path fill="none" stroke="#63b8ff" d="M328.13,-111.62C323.78,-93.92 314.29,-55.24 308.42,-31.32"/>
<polygon fill="#63b8ff" stroke="#63b8ff" points="311.87,-30.7 306.09,-21.82 305.07,-32.37 311.87,-30.7"/>
</a>
</g>
</g>
<!-- Node13&#45;&gt;Node12 -->
<g id="edge22_Node000013_Node000012" class="edge">
<title>Node13&#45;&gt;Node12</title>
<g id="a_edge22_Node000013_Node000012"><a xlink:title=" ">
<path fill="none" stroke="#63b8ff" d="M360.04,-111.59C387.66,-102.82 429.1,-89.66 459.81,-79.9"/>
<polygon fill="#63b8ff" stroke="#63b8ff" points="460.67,-83.3 469.14,-76.94 458.55,-76.63 460.67,-83.3"/>
</a>
</g>
</g>
</g>
</svg>
