<?xml version="1.0" encoding="UTF-8" standalone="no"?>
<!DOCTYPE svg PUBLIC "-//W3C//DTD SVG 1.1//EN"
 "http://www.w3.org/Graphics/SVG/1.1/DTD/svg11.dtd">
<!-- Generated by graphviz version 12.2.1 (20241206.2353)
 -->
<!-- Title: grid_interface.h Pages: 1 -->
<svg width="895pt" height="196pt"
 viewBox="0.00 0.00 894.62 196.00" xmlns="http://www.w3.org/2000/svg" xmlns:xlink="http://www.w3.org/1999/xlink">
<g id="graph0" class="graph" transform="scale(1 1) rotate(0) translate(4 192)">
<title>grid_interface.h</title>
<!-- Node1 -->
<g id="Node000001" class="node">
<title>Node1</title>
<g id="a_Node000001"><a xlink:title=" ">
<polygon fill="#999999" stroke="#666666" points="601.38,-188 518.62,-188 518.62,-168 601.38,-168 601.38,-188"/>
<text text-anchor="middle" x="560" y="-174.5" font-family="Helvetica,sans-Serif" font-size="10.00">grid_interface.h</text>
</a>
</g>
</g>
<!-- Node2 -->
<g id="Node000002" class="node">
<title>Node2</title>
<g id="a_Node000002"><a xlink:title=" ">
<polygon fill="#e0e0e0" stroke="#999999" points="187.62,-76 142.38,-76 142.38,-56 187.62,-56 187.62,-76"/>
<text text-anchor="middle" x="165" y="-62.5" font-family="Helvetica,sans-Serif" font-size="10.00">cstdint</text>
</a>
</g>
</g>
<!-- Node1&#45;&gt;Node2 -->
<g id="edge1_Node000001_Node000002" class="edge">
<title>Node1&#45;&gt;Node2</title>
<g id="a_edge1_Node000001_Node000002"><a xlink:title=" ">
<path fill="none" stroke="#63b8ff" d="M518.32,-176.36C435.31,-174.35 252.97,-166.07 202,-132 186.33,-121.52 176.53,-102.02 170.99,-87.1"/>
<polygon fill="#63b8ff" stroke="#63b8ff" points="174.37,-86.2 167.9,-77.82 167.73,-88.41 174.37,-86.2"/>
</a>
</g>
</g>
<!-- Node3 -->
<g id="Node000003" class="node">
<title>Node3</title>
<g id="a_Node000003"><a xlink:title=" ">
<polygon fill="#e0e0e0" stroke="#999999" points="572,-20 514,-20 514,0 572,0 572,-20"/>
<text text-anchor="middle" x="543" y="-6.5" font-family="Helvetica,sans-Serif" font-size="10.00">functional</text>
</a>
</g>
</g>
<!-- Node1&#45;&gt;Node3 -->
<g id="edge2_Node000001_Node000003" class="edge">
<title>Node1&#45;&gt;Node3</title>
<g id="a_edge2_Node000001_Node000003"><a xlink:title=" ">
<path fill="none" stroke="#63b8ff" d="M583.47,-167.5C627.46,-148.32 714.94,-102.77 681,-56 658.99,-25.67 615.97,-15.39 583.79,-12.1"/>
<polygon fill="#63b8ff" stroke="#63b8ff" points="584.24,-8.63 573.99,-11.31 583.67,-15.61 584.24,-8.63"/>
</a>
</g>
</g>
<!-- Node4 -->
<g id="Node000004" class="node">
<title>Node4</title>
<g id="a_Node000004"><a xlink:title=" ">
<polygon fill="#e0e0e0" stroke="#999999" points="279.62,-20 228.38,-20 228.38,0 279.62,0 279.62,-20"/>
<text text-anchor="middle" x="254" y="-6.5" font-family="Helvetica,sans-Serif" font-size="10.00">memory</text>
</a>
</g>
</g>
<!-- Node1&#45;&gt;Node4 -->
<g id="edge3_Node000001_Node000004" class="edge">
<title>Node1&#45;&gt;Node4</title>
<g id="a_edge3_Node000001_Node000004"><a xlink:title=" ">
<path fill="none" stroke="#63b8ff" d="M518.19,-177.23C450.19,-175.05 317.06,-159.67 256,-76 246.83,-63.43 246.95,-45.56 249.02,-31.73"/>
<polygon fill="#63b8ff" stroke="#63b8ff" points="252.45,-32.42 250.96,-21.93 245.59,-31.06 252.45,-32.42"/>
</a>
</g>
</g>
<!-- Node5 -->
<g id="Node000005" class="node">
<title>Node5</title>
<g id="a_Node000005"><a xlink:title=" ">
<polygon fill="#e0e0e0" stroke="#999999" points="817.62,-132 766.38,-132 766.38,-112 817.62,-112 817.62,-132"/>
<text text-anchor="middle" x="792" y="-118.5" font-family="Helvetica,sans-Serif" font-size="10.00">ostream</text>
</a>
</g>
</g>
<!-- Node1&#45;&gt;Node5 -->
<g id="edge4_Node000001_Node000005" class="edge">
<title>Node1&#45;&gt;Node5</title>
<g id="a_edge4_Node000001_Node000005"><a xlink:title=" ">
<path fill="none" stroke="#63b8ff" d="M600.68,-167.53C644.27,-157.39 712.87,-141.42 755,-131.61"/>
<polygon fill="#63b8ff" stroke="#63b8ff" points="755.71,-135.04 764.66,-129.36 754.13,-128.22 755.71,-135.04"/>
</a>
</g>
</g>
<!-- Node6 -->
<g id="Node000006" class="node">
<title>Node6</title>
<g id="a_Node000006"><a xlink:title=" ">
<polygon fill="#e0e0e0" stroke="#999999" points="886.62,-132 835.38,-132 835.38,-112 886.62,-112 886.62,-132"/>
<text text-anchor="middle" x="861" y="-118.5" font-family="Helvetica,sans-Serif" font-size="10.00">sstream</text>
</a>
</g>
</g>
<!-- Node1&#45;&gt;Node6 -->
<g id="edge5_Node000001_Node000006" class="edge">
<title>Node1&#45;&gt;Node6</title>
<g id="a_edge5_Node000001_Node000006"><a xlink:title=" ">
<path fill="none" stroke="#63b8ff" d="M601.85,-171.16C652.39,-163.84 740.2,-150.28 824.07,-132.49"/>
<polygon fill="#63b8ff" stroke="#63b8ff" points="824.55,-135.97 833.59,-130.44 823.08,-129.12 824.55,-135.97"/>
</a>
</g>
</g>
<!-- Node7 -->
<g id="Node000007" class="node">
<title>Node7</title>
<g id="a_Node000007"><a xlink:title=" ">
<polygon fill="#e0e0e0" stroke="#999999" points="40,-76 0,-76 0,-56 40,-56 40,-76"/>
<text text-anchor="middle" x="20" y="-62.5" font-family="Helvetica,sans-Serif" font-size="10.00">string</text>
</a>
</g>
</g>
<!-- Node1&#45;&gt;Node7 -->
<g id="edge6_Node000001_Node000007" class="edge">
<title>Node1&#45;&gt;Node7</title>
<g id="a_edge6_Node000001_Node000007"><a xlink:title=" ">
<path fill="none" stroke="#63b8ff" d="M518.35,-176.34C399.77,-174.06 66.6,-164.77 31,-132 19.02,-120.97 16.96,-102.12 17.49,-87.55"/>
<polygon fill="#63b8ff" stroke="#63b8ff" points="20.97,-87.91 18.32,-77.66 14,-87.33 20.97,-87.91"/>
</a>
</g>
</g>
<!-- Node8 -->
<g id="Node000008" class="node">
<title>Node8</title>
<g id="a_Node000008"><a xlink:title=" ">
<polygon fill="#e0e0e0" stroke="#999999" points="691.5,-20 654.5,-20 654.5,0 691.5,0 691.5,-20"/>
<text text-anchor="middle" x="673" y="-6.5" font-family="Helvetica,sans-Serif" font-size="10.00">tuple</text>
</a>
</g>
</g>
<!-- Node1&#45;&gt;Node8 -->
<g id="edge7_Node000001_Node000008" class="edge">
<title>Node1&#45;&gt;Node8</title>
<g id="a_edge7_Node000001_Node000008"><a xlink:title=" ">
<path fill="none" stroke="#63b8ff" d="M601.69,-168.78C625.38,-162.26 654.17,-150.98 674,-132 699.69,-107.41 708.21,-90.35 699,-56 696.53,-46.77 691.65,-37.48 686.78,-29.76"/>
<polygon fill="#63b8ff" stroke="#63b8ff" points="689.75,-27.9 681.23,-21.6 683.97,-31.83 689.75,-27.9"/>
</a>
</g>
</g>
<!-- Node9 -->
<g id="Node000009" class="node">
<title>Node9</title>
<g id="a_Node000009"><a xlink:title=" ">
<polygon fill="#e0e0e0" stroke="#999999" points="671.5,-76 628.5,-76 628.5,-56 671.5,-56 671.5,-76"/>
<text text-anchor="middle" x="650" y="-62.5" font-family="Helvetica,sans-Serif" font-size="10.00">vector</text>
</a>
</g>
</g>
<!-- Node1&#45;&gt;Node9 -->
<g id="edge8_Node000001_Node000009" class="edge">
<title>Node1&#45;&gt;Node9</title>
<g id="a_edge8_Node000001_Node000009"><a xlink:title=" ">
<path fill="none" stroke="#63b8ff" d="M567.67,-167.62C582.62,-149.36 615.85,-108.73 635.22,-85.07"/>
<polygon fill="#63b8ff" stroke="#63b8ff" points="637.76,-87.48 641.39,-77.53 632.35,-83.05 637.76,-87.48"/>
</a>
</g>
</g>
<!-- Node10 -->
<g id="Node000010" class="node">
<title>Node10</title>
<g id="a_Node000010"><a xlink:href="enums_8h.html" target="_top" xlink:title="Enumerations for the maze builder program.">
<polygon fill="white" stroke="#666666" points="150.25,-132 39.75,-132 39.75,-112 150.25,-112 150.25,-132"/>
<text text-anchor="middle" x="95" y="-118.5" font-family="Helvetica,sans-Serif" font-size="10.00">MazeBuilder/enums.h</text>
</a>
</g>
</g>
<!-- Node1&#45;&gt;Node10 -->
<g id="edge9_Node000001_Node000010" class="edge">
<title>Node1&#45;&gt;Node10</title>
<g id="a_edge9_Node000001_Node000010"><a xlink:title=" ">
<path fill="none" stroke="#63b8ff" d="M518.35,-172.5C446.16,-164.64 293.12,-147.76 164,-132 163.33,-131.92 162.65,-131.83 161.97,-131.75"/>
<polygon fill="#63b8ff" stroke="#63b8ff" points="162.58,-128.3 152.23,-130.54 161.72,-135.25 162.58,-128.3"/>
</a>
</g>
</g>
<!-- Node12 -->
<g id="Node000012" class="node">
<title>Node12</title>
<g id="a_Node000012"><a xlink:href="cell_8h.html" target="_top" xlink:title=" ">
<polygon fill="white" stroke="#666666" points="519.12,-132 422.88,-132 422.88,-112 519.12,-112 519.12,-132"/>
<text text-anchor="middle" x="471" y="-118.5" font-family="Helvetica,sans-Serif" font-size="10.00">MazeBuilder/cell.h</text>
</a>
</g>
</g>
<!-- Node1&#45;&gt;Node12 -->
<g id="edge13_Node000001_Node000012" class="edge">
<title>Node1&#45;&gt;Node12</title>
<g id="a_edge13_Node000001_Node000012"><a xlink:title=" ">
<path fill="none" stroke="#63b8ff" d="M544.5,-167.59C531.18,-159.51 511.72,-147.71 496.17,-138.27"/>
<polygon fill="#63b8ff" stroke="#63b8ff" points="498.28,-135.46 487.92,-133.26 494.65,-141.44 498.28,-135.46"/>
</a>
</g>
</g>
<!-- Node10&#45;&gt;Node2 -->
<g id="edge10_Node000010_Node000002" class="edge">
<title>Node10&#45;&gt;Node2</title>
<g id="a_edge10_Node000010_Node000002"><a xlink:title=" ">
<path fill="none" stroke="#63b8ff" d="M107.19,-111.59C117.33,-103.77 131.99,-92.46 144.01,-83.19"/>
<polygon fill="#63b8ff" stroke="#63b8ff" points="145.97,-86.1 151.75,-77.22 141.69,-80.56 145.97,-86.1"/>
</a>
</g>
</g>
<!-- Node10&#45;&gt;Node7 -->
<g id="edge11_Node000010_Node000007" class="edge">
<title>Node10&#45;&gt;Node7</title>
<g id="a_edge11_Node000010_Node000007"><a xlink:title=" ">
<path fill="none" stroke="#63b8ff" d="M81.94,-111.59C71.03,-103.74 55.25,-92.38 42.34,-83.09"/>
<polygon fill="#63b8ff" stroke="#63b8ff" points="44.55,-80.37 34.39,-77.36 40.46,-86.05 44.55,-80.37"/>
</a>
</g>
</g>
<!-- Node11 -->
<g id="Node000011" class="node">
<title>Node11</title>
<g id="a_Node000011"><a xlink:title=" ">
<polygon fill="#e0e0e0" stroke="#999999" points="124.38,-76 65.62,-76 65.62,-56 124.38,-56 124.38,-76"/>
<text text-anchor="middle" x="95" y="-62.5" font-family="Helvetica,sans-Serif" font-size="10.00">stdexcept</text>
</a>
</g>
</g>
<!-- Node10&#45;&gt;Node11 -->
<g id="edge12_Node000010_Node000011" class="edge">
<title>Node10&#45;&gt;Node11</title>
<g id="a_edge12_Node000010_Node000011"><a xlink:title=" ">
<path fill="none" stroke="#63b8ff" d="M95,-111.59C95,-105.01 95,-95.96 95,-87.73"/>
<polygon fill="#63b8ff" stroke="#63b8ff" points="98.5,-87.81 95,-77.81 91.5,-87.81 98.5,-87.81"/>
</a>
</g>
</g>
<!-- Node12&#45;&gt;Node2 -->
<g id="edge14_Node000012_Node000002" class="edge">
<title>Node12&#45;&gt;Node2</title>
<g id="a_edge14_Node000012_Node000002"><a xlink:title=" ">
<path fill="none" stroke="#63b8ff" d="M422.51,-112.44C360.18,-101.44 253.52,-82.62 199.11,-73.02"/>
<polygon fill="#63b8ff" stroke="#63b8ff" points="199.96,-69.62 189.5,-71.32 198.74,-76.51 199.96,-69.62"/>
</a>
</g>
</g>
<!-- Node12&#45;&gt;Node4 -->
<g id="edge15_Node000012_Node000004" class="edge">
<title>Node12&#45;&gt;Node4</title>
<g id="a_edge15_Node000012_Node000004"><a xlink:title=" ">
<path fill="none" stroke="#63b8ff" d="M422.69,-115.66C371.24,-109.02 294.31,-96.05 273,-76 260.95,-64.66 256.4,-46.14 254.76,-31.76"/>
<polygon fill="#63b8ff" stroke="#63b8ff" points="258.26,-31.71 254.05,-21.99 251.28,-32.21 258.26,-31.71"/>
</a>
</g>
</g>
<!-- Node12&#45;&gt;Node9 -->
<g id="edge18_Node000012_Node000009" class="edge">
<title>Node12&#45;&gt;Node9</title>
<g id="a_edge18_Node000012_Node000009"><a xlink:title=" ">
<path fill="none" stroke="#63b8ff" d="M502.18,-111.59C534.44,-101.86 584.59,-86.73 617.37,-76.84"/>
<polygon fill="#63b8ff" stroke="#63b8ff" points="618.17,-80.26 626.74,-74.02 616.15,-73.56 618.17,-80.26"/>
</a>
</g>
</g>
<!-- Node13 -->
<g id="Node000013" class="node">
<title>Node13</title>
<g id="a_Node000013"><a xlink:title=" ">
<polygon fill="#e0e0e0" stroke="#999999" points="509.75,-76 432.25,-76 432.25,-56 509.75,-56 509.75,-76"/>
<text text-anchor="middle" x="471" y="-62.5" font-family="Helvetica,sans-Serif" font-size="10.00">shared_mutex</text>
</a>
</g>
</g>
<!-- Node12&#45;&gt;Node13 -->
<g id="edge16_Node000012_Node000013" class="edge">
<title>Node12&#45;&gt;Node13</title>
<g id="a_edge16_Node000012_Node000013"><a xlink:title=" ">
<path fill="none" stroke="#63b8ff" d="M471,-111.59C471,-105.01 471,-95.96 471,-87.73"/>
<polygon fill="#63b8ff" stroke="#63b8ff" points="474.5,-87.81 471,-77.81 467.5,-87.81 474.5,-87.81"/>
</a>
</g>
</g>
<!-- Node14 -->
<g id="Node000014" class="node">
<title>Node14</title>
<g id="a_Node000014"><a xlink:title=" ">
<polygon fill="#e0e0e0" stroke="#999999" points="610.38,-76 527.62,-76 527.62,-56 610.38,-56 610.38,-76"/>
<text text-anchor="middle" x="569" y="-62.5" font-family="Helvetica,sans-Serif" font-size="10.00">unordered_map</text>
</a>
</g>
</g>
<!-- Node12&#45;&gt;Node14 -->
<g id="edge17_Node000012_Node000014" class="edge">
<title>Node12&#45;&gt;Node14</title>
<g id="a_edge17_Node000012_Node000014"><a xlink:title=" ">
<path fill="none" stroke="#63b8ff" d="M488.07,-111.59C502.88,-103.44 524.57,-91.48 541.77,-82"/>
<polygon fill="#63b8ff" stroke="#63b8ff" points="543.4,-85.1 550.47,-77.21 540.02,-78.97 543.4,-85.1"/>
</a>
</g>
</g>
<!-- Node15 -->
<g id="Node000015" class="node">
<title>Node15</title>
<g id="a_Node000015"><a xlink:href="hash__funcs_8h.html" target="_top" xlink:title=" ">
<polygon fill="white" stroke="#666666" points="413.75,-76 282.25,-76 282.25,-56 413.75,-56 413.75,-76"/>
<text text-anchor="middle" x="348" y="-62.5" font-family="Helvetica,sans-Serif" font-size="10.00">MazeBuilder/hash_funcs.h</text>
</a>
</g>
</g>
<!-- Node12&#45;&gt;Node15 -->
<g id="edge19_Node000012_Node000015" class="edge">
<title>Node12&#45;&gt;Node15</title>
<g id="a_edge19_Node000012_Node000015"><a xlink:title=" ">
<path fill="none" stroke="#63b8ff" d="M449.58,-111.59C430.38,-103.17 401.96,-90.69 380.06,-81.07"/>
<polygon fill="#63b8ff" stroke="#63b8ff" points="381.54,-77.9 370.98,-77.09 378.73,-84.31 381.54,-77.9"/>
</a>
</g>
</g>
<!-- Node15&#45;&gt;Node3 -->
<g id="edge20_Node000015_Node000003" class="edge">
<title>Node15&#45;&gt;Node3</title>
<g id="a_edge20_Node000015_Node000003"><a xlink:title=" ">
<path fill="none" stroke="#63b8ff" d="M381.97,-55.59C415.54,-46.3 466.92,-32.07 502.58,-22.19"/>
<polygon fill="#63b8ff" stroke="#63b8ff" points="503.4,-25.6 512.1,-19.56 501.53,-18.85 503.4,-25.6"/>
</a>
</g>
</g>
<!-- Node15&#45;&gt;Node4 -->
<g id="edge21_Node000015_Node000004" class="edge">
<title>Node15&#45;&gt;Node4</title>
<g id="a_edge21_Node000015_Node000004"><a xlink:title=" ">
<path fill="none" stroke="#63b8ff" d="M331.63,-55.59C317.43,-47.44 296.62,-35.48 280.12,-26"/>
<polygon fill="#63b8ff" stroke="#63b8ff" points="282.23,-23.18 271.81,-21.23 278.74,-29.25 282.23,-23.18"/>
</a>
</g>
</g>
<!-- Node15&#45;&gt;Node8 -->
<g id="edge22_Node000015_Node000008" class="edge">
<title>Node15&#45;&gt;Node8</title>
<g id="a_edge22_Node000015_Node000008"><a xlink:title=" ">
<path fill="none" stroke="#63b8ff" d="M404.98,-55.53C474.37,-44 588.99,-24.96 643.04,-15.98"/>
<polygon fill="#63b8ff" stroke="#63b8ff" points="643.43,-19.46 652.72,-14.37 642.28,-12.56 643.43,-19.46"/>
</a>
</g>
</g>
<!-- Node16 -->
<g id="Node000016" class="node">
<title>Node16</title>
<g id="a_Node000016"><a xlink:title=" ">
<polygon fill="#e0e0e0" stroke="#999999" points="367.62,-20 328.38,-20 328.38,0 367.62,0 367.62,-20"/>
<text text-anchor="middle" x="348" y="-6.5" font-family="Helvetica,sans-Serif" font-size="10.00">utility</text>
</a>
</g>
</g>
<!-- Node15&#45;&gt;Node16 -->
<g id="edge23_Node000015_Node000016" class="edge">
<title>Node15&#45;&gt;Node16</title>
<g id="a_edge23_Node000015_Node000016"><a xlink:title=" ">
<path fill="none" stroke="#63b8ff" d="M348,-55.59C348,-49.01 348,-39.96 348,-31.73"/>
<polygon fill="#63b8ff" stroke="#63b8ff" points="351.5,-31.81 348,-21.81 344.5,-31.81 351.5,-31.81"/>
</a>
</g>
</g>
</g>
</svg>
