<?xml version="1.0" encoding="UTF-8" standalone="no"?>
<!DOCTYPE svg PUBLIC "-//W3C//DTD SVG 1.1//EN"
 "http://www.w3.org/Graphics/SVG/1.1/DTD/svg11.dtd">
<!-- Generated by graphviz version 12.2.1 (20241206.2353)
 -->
<!-- Title: hash_funcs.h Pages: 1 -->
<svg width="179pt" height="84pt"
 viewBox="0.00 0.00 178.62 84.00" xmlns="http://www.w3.org/2000/svg" xmlns:xlink="http://www.w3.org/1999/xlink">
<g id="graph0" class="graph" transform="scale(1 1) rotate(0) translate(4 80)">
<title>hash_funcs.h</title>
<!-- Node1 -->
<g id="Node000001" class="node">
<title>Node1</title>
<g id="a_Node000001"><a xlink:title=" ">
<polygon fill="#999999" stroke="#666666" points="112.88,-76 38.38,-76 38.38,-56 112.88,-56 112.88,-76"/>
<text text-anchor="middle" x="75.62" y="-62.5" font-family="Helvetica,sans-Serif" font-size="10.00">hash_funcs.h</text>
</a>
</g>
</g>
<!-- Node2 -->
<g id="Node000002" class="node">
<title>Node2</title>
<g id="a_Node000002"><a xlink:title=" ">
<polygon fill="#e0e0e0" stroke="#999999" points="39.25,-20 0,-20 0,0 39.25,0 39.25,-20"/>
<text text-anchor="middle" x="19.62" y="-6.5" font-family="Helvetica,sans-Serif" font-size="10.00">utility</text>
</a>
</g>
</g>
<!-- Node1&#45;&gt;Node2 -->
<g id="edge1_Node000001_Node000002" class="edge">
<title>Node1&#45;&gt;Node2</title>
<g id="a_edge1_Node000001_Node000002"><a xlink:title=" ">
<path fill="none" stroke="#63b8ff" d="M65.87,-55.59C58,-48.01 46.73,-37.13 37.28,-28.02"/>
<polygon fill="#63b8ff" stroke="#63b8ff" points="39.99,-25.77 30.36,-21.35 35.13,-30.81 39.99,-25.77"/>
</a>
</g>
</g>
<!-- Node3 -->
<g id="Node000003" class="node">
<title>Node3</title>
<g id="a_Node000003"><a xlink:title=" ">
<polygon fill="#e0e0e0" stroke="#999999" points="94.12,-20 57.12,-20 57.12,0 94.12,0 94.12,-20"/>
<text text-anchor="middle" x="75.62" y="-6.5" font-family="Helvetica,sans-Serif" font-size="10.00">tuple</text>
</a>
</g>
</g>
<!-- Node1&#45;&gt;Node3 -->
<g id="edge2_Node000001_Node000003" class="edge">
<title>Node1&#45;&gt;Node3</title>
<g id="a_edge2_Node000001_Node000003"><a xlink:title=" ">
<path fill="none" stroke="#63b8ff" d="M75.62,-55.59C75.62,-49.01 75.62,-39.96 75.62,-31.73"/>
<polygon fill="#63b8ff" stroke="#63b8ff" points="79.13,-31.81 75.63,-21.81 72.13,-31.81 79.13,-31.81"/>
</a>
</g>
</g>
<!-- Node4 -->
<g id="Node000004" class="node">
<title>Node4</title>
<g id="a_Node000004"><a xlink:title=" ">
<polygon fill="#e0e0e0" stroke="#999999" points="170.62,-20 112.62,-20 112.62,0 170.62,0 170.62,-20"/>
<text text-anchor="middle" x="141.62" y="-6.5" font-family="Helvetica,sans-Serif" font-size="10.00">functional</text>
</a>
</g>
</g>
<!-- Node1&#45;&gt;Node4 -->
<g id="edge3_Node000001_Node000004" class="edge">
<title>Node1&#45;&gt;Node4</title>
<g id="a_edge3_Node000001_Node000004"><a xlink:title=" ">
<path fill="none" stroke="#63b8ff" d="M87.12,-55.59C96.59,-47.85 110.23,-36.69 121.5,-27.47"/>
<polygon fill="#63b8ff" stroke="#63b8ff" points="123.57,-30.3 129.09,-21.26 119.13,-24.88 123.57,-30.3"/>
</a>
</g>
</g>
</g>
</svg>
