<?xml version="1.0" encoding="UTF-8" standalone="no"?>
<!DOCTYPE svg PUBLIC "-//W3C//DTD SVG 1.1//EN"
 "http://www.w3.org/Graphics/SVG/1.1/DTD/svg11.dtd">
<!-- Generated by graphviz version 12.2.1 (20241206.2353)
 -->
<!-- Title: hash_funcs.h Pages: 1 -->
<svg width="316pt" height="308pt"
 viewBox="0.00 0.00 315.88 308.00" xmlns="http://www.w3.org/2000/svg" xmlns:xlink="http://www.w3.org/1999/xlink">
<g id="graph0" class="graph" transform="scale(1 1) rotate(0) translate(4 304)">
<title>hash_funcs.h</title>
<!-- Node1 -->
<g id="Node000001" class="node">
<title>Node1</title>
<g id="a_Node000001"><a xlink:title=" ">
<polygon fill="#999999" stroke="#666666" points="302.62,-300 228.12,-300 228.12,-280 302.62,-280 302.62,-300"/>
<text text-anchor="middle" x="265.38" y="-286.5" font-family="Helvetica,sans-Serif" font-size="10.00">hash_funcs.h</text>
</a>
</g>
</g>
<!-- Node2 -->
<g id="Node000002" class="node">
<title>Node2</title>
<g id="a_Node000002"><a xlink:href="cell_8h.html" target="_top" xlink:title=" ">
<polygon fill="white" stroke="#666666" points="261,-244 221.75,-244 221.75,-224 261,-224 261,-244"/>
<text text-anchor="middle" x="241.38" y="-230.5" font-family="Helvetica,sans-Serif" font-size="10.00">cell.h</text>
</a>
</g>
</g>
<!-- Node1&#45;&gt;Node2 -->
<g id="edge1_Node000001_Node000002" class="edge">
<title>Node1&#45;&gt;Node2</title>
<g id="a_edge1_Node000001_Node000002"><a xlink:title=" ">
<path fill="none" stroke="#63b8ff" d="M256.62,-269.29C252.82,-260.75 248.56,-251.16 245.51,-244.3"/>
<polygon fill="#63b8ff" stroke="#63b8ff" points="253.32,-270.49 260.58,-278.21 259.72,-267.65 253.32,-270.49"/>
</a>
</g>
</g>
<!-- Node8 -->
<g id="Node000008" class="node">
<title>Node8</title>
<g id="a_Node000008"><a xlink:href="lab_8h.html" target="_top" xlink:title=" ">
<polygon fill="white" stroke="#666666" points="307.88,-188 270.88,-188 270.88,-168 307.88,-168 307.88,-188"/>
<text text-anchor="middle" x="289.38" y="-174.5" font-family="Helvetica,sans-Serif" font-size="10.00">lab.h</text>
</a>
</g>
</g>
<!-- Node1&#45;&gt;Node8 -->
<g id="edge10_Node000001_Node000008" class="edge">
<title>Node1&#45;&gt;Node8</title>
<g id="a_edge10_Node000001_Node000008"><a xlink:title=" ">
<path fill="none" stroke="#63b8ff" d="M269.82,-268.64C275.04,-244.72 283.48,-206.03 287.33,-188.35"/>
<polygon fill="#63b8ff" stroke="#63b8ff" points="266.46,-267.63 267.74,-278.14 273.3,-269.12 266.46,-267.63"/>
</a>
</g>
</g>
<!-- Node3 -->
<g id="Node000003" class="node">
<title>Node3</title>
<g id="a_Node000003"><a xlink:href="grid__interface_8h.html" target="_top" xlink:title=" ">
<polygon fill="white" stroke="#666666" points="180.75,-188 98,-188 98,-168 180.75,-168 180.75,-188"/>
<text text-anchor="middle" x="139.38" y="-174.5" font-family="Helvetica,sans-Serif" font-size="10.00">grid_interface.h</text>
</a>
</g>
</g>
<!-- Node2&#45;&gt;Node3 -->
<g id="edge2_Node000002_Node000003" class="edge">
<title>Node2&#45;&gt;Node3</title>
<g id="a_edge2_Node000002_Node000003"><a xlink:title=" ">
<path fill="none" stroke="#63b8ff" d="M213.45,-218.21C195.53,-208.73 172.81,-196.7 157.28,-188.48"/>
<polygon fill="#63b8ff" stroke="#63b8ff" points="211.79,-221.3 222.27,-222.89 215.07,-215.11 211.79,-221.3"/>
</a>
</g>
</g>
<!-- Node6 -->
<g id="Node000006" class="node">
<title>Node6</title>
<g id="a_Node000006"><a xlink:href="maze__builder_8h.html" target="_top" xlink:title="This file includes all the headers in the maze builder library.">
<polygon fill="white" stroke="#666666" points="214.38,-20 132.38,-20 132.38,0 214.38,0 214.38,-20"/>
<text text-anchor="middle" x="173.38" y="-6.5" font-family="Helvetica,sans-Serif" font-size="10.00">maze_builder.h</text>
</a>
</g>
</g>
<!-- Node2&#45;&gt;Node6 -->
<g id="edge9_Node000002_Node000006" class="edge">
<title>Node2&#45;&gt;Node6</title>
<g id="a_edge9_Node000002_Node000006"><a xlink:title=" ">
<path fill="none" stroke="#63b8ff" d="M243.89,-212.14C247.09,-177.61 249.41,-107.29 223.38,-56 215.66,-40.8 200.48,-28.3 188.86,-20.36"/>
<polygon fill="#63b8ff" stroke="#63b8ff" points="240.42,-211.69 242.84,-222.01 247.38,-212.43 240.42,-211.69"/>
</a>
</g>
</g>
<!-- Node4 -->
<g id="Node000004" class="node">
<title>Node4</title>
<g id="a_Node000004"><a xlink:href="grid_8h.html" target="_top" xlink:title=" ">
<polygon fill="white" stroke="#666666" points="141.38,-132 101.38,-132 101.38,-112 141.38,-112 141.38,-132"/>
<text text-anchor="middle" x="121.38" y="-118.5" font-family="Helvetica,sans-Serif" font-size="10.00">grid.h</text>
</a>
</g>
</g>
<!-- Node3&#45;&gt;Node4 -->
<g id="edge3_Node000003_Node000004" class="edge">
<title>Node3&#45;&gt;Node4</title>
<g id="a_edge3_Node000003_Node000004"><a xlink:title=" ">
<path fill="none" stroke="#63b8ff" d="M132.61,-156.71C129.82,-148.32 126.71,-139.01 124.47,-132.3"/>
<polygon fill="#63b8ff" stroke="#63b8ff" points="129.28,-157.78 135.76,-166.16 135.92,-155.56 129.28,-157.78"/>
</a>
</g>
</g>
<!-- Node5 -->
<g id="Node000005" class="node">
<title>Node5</title>
<g id="a_Node000005"><a xlink:href="colored__grid_8h.html" target="_top" xlink:title=" ">
<polygon fill="white" stroke="#666666" points="76.75,-76 0,-76 0,-56 76.75,-56 76.75,-76"/>
<text text-anchor="middle" x="38.38" y="-62.5" font-family="Helvetica,sans-Serif" font-size="10.00">colored_grid.h</text>
</a>
</g>
</g>
<!-- Node4&#45;&gt;Node5 -->
<g id="edge4_Node000004_Node000005" class="edge">
<title>Node4&#45;&gt;Node5</title>
<g id="a_edge4_Node000004_Node000005"><a xlink:title=" ">
<path fill="none" stroke="#63b8ff" d="M97.62,-105.54C83.21,-96.17 65.28,-84.51 52.95,-76.48"/>
<polygon fill="#63b8ff" stroke="#63b8ff" points="95.36,-108.25 105.65,-110.77 99.18,-102.38 95.36,-108.25"/>
</a>
</g>
</g>
<!-- Node4&#45;&gt;Node6 -->
<g id="edge8_Node000004_Node000006" class="edge">
<title>Node4&#45;&gt;Node6</title>
<g id="a_edge8_Node000004_Node000006"><a xlink:title=" ">
<path fill="none" stroke="#63b8ff" d="M117.99,-100.4C116.76,-87.12 116.97,-69.81 123.38,-56 130.55,-40.53 145.8,-28.07 157.59,-20.22"/>
<polygon fill="#63b8ff" stroke="#63b8ff" points="114.5,-100.69 119.27,-110.15 121.44,-99.78 114.5,-100.69"/>
</a>
</g>
</g>
<!-- Node7 -->
<g id="Node000007" class="node">
<title>Node7</title>
<g id="a_Node000007"><a xlink:href="distance__grid_8h.html" target="_top" xlink:title=" ">
<polygon fill="white" stroke="#666666" points="214.38,-76 132.38,-76 132.38,-56 214.38,-56 214.38,-76"/>
<text text-anchor="middle" x="173.38" y="-62.5" font-family="Helvetica,sans-Serif" font-size="10.00">distance_grid.h</text>
</a>
</g>
</g>
<!-- Node4&#45;&gt;Node7 -->
<g id="edge6_Node000004_Node000007" class="edge">
<title>Node4&#45;&gt;Node7</title>
<g id="a_edge6_Node000004_Node000007"><a xlink:title=" ">
<path fill="none" stroke="#63b8ff" d="M138.16,-103.57C146.89,-94.5 157.22,-83.78 164.42,-76.3"/>
<polygon fill="#63b8ff" stroke="#63b8ff" points="135.9,-100.87 131.48,-110.5 140.94,-105.73 135.9,-100.87"/>
</a>
</g>
</g>
<!-- Node5&#45;&gt;Node6 -->
<g id="edge5_Node000005_Node000006" class="edge">
<title>Node5&#45;&gt;Node6</title>
<g id="a_edge5_Node000005_Node000006"><a xlink:title=" ">
<path fill="none" stroke="#63b8ff" d="M72.37,-51.4C96.49,-41.75 128.26,-29.05 149.68,-20.48"/>
<polygon fill="#63b8ff" stroke="#63b8ff" points="71.28,-48.07 63.3,-55.03 73.88,-54.57 71.28,-48.07"/>
</a>
</g>
</g>
<!-- Node7&#45;&gt;Node6 -->
<g id="edge7_Node000007_Node000006" class="edge">
<title>Node7&#45;&gt;Node6</title>
<g id="a_edge7_Node000007_Node000006"><a xlink:title=" ">
<path fill="none" stroke="#63b8ff" d="M173.38,-44.13C173.38,-35.9 173.38,-26.85 173.38,-20.3"/>
<polygon fill="#63b8ff" stroke="#63b8ff" points="169.88,-44.08 173.38,-54.08 176.88,-44.08 169.88,-44.08"/>
</a>
</g>
</g>
<!-- Node8&#45;&gt;Node6 -->
<g id="edge11_Node000008_Node000006" class="edge">
<title>Node8&#45;&gt;Node6</title>
<g id="a_edge11_Node000008_Node000006"><a xlink:title=" ">
<path fill="none" stroke="#63b8ff" d="M288.59,-156.31C286.6,-130.3 279.74,-85.49 256.38,-56 242.84,-38.91 220.96,-27.44 203.07,-20.35"/>
<polygon fill="#63b8ff" stroke="#63b8ff" points="285.09,-156.42 289.15,-166.21 292.08,-156.03 285.09,-156.42"/>
</a>
</g>
</g>
</g>
</svg>
