<?xml version="1.0" encoding="UTF-8" standalone="no"?>
<!DOCTYPE svg PUBLIC "-//W3C//DTD SVG 1.1//EN"
 "http://www.w3.org/Graphics/SVG/1.1/DTD/svg11.dtd">
<!-- Generated by graphviz version 12.2.1 (20241206.2353)
 -->
<!-- Title: Graphical Class Hierarchy Pages: 1 -->
<svg width="261pt" height="104pt"
 viewBox="0.00 0.00 260.50 104.00" xmlns="http://www.w3.org/2000/svg" xmlns:xlink="http://www.w3.org/1999/xlink">
<g id="graph0" class="graph" transform="scale(1 1) rotate(0) translate(4 100)">
<title>Graphical Class Hierarchy</title>
<!-- Node0 -->
<g id="Node000000" class="node">
<title>Node0</title>
<g id="a_Node000000"><a xlink:href="classmazes_1_1algos__interface.html" target="_top" xlink:title=" ">
<polygon fill="white" stroke="#666666" points="117.25,-58 0,-58 0,-38 117.25,-38 117.25,-58"/>
<text text-anchor="middle" x="58.62" y="-44.5" font-family="Helvetica,sans-Serif" font-size="10.00">mazes::algos_interface</text>
</a>
</g>
</g>
<!-- Node1 -->
<g id="Node000001" class="node">
<title>Node1</title>
<g id="a_Node000001"><a xlink:href="classmazes_1_1binary__tree.html" target="_top" xlink:title=" ">
<polygon fill="white" stroke="#666666" points="252.5,-96 153.25,-96 153.25,-76 252.5,-76 252.5,-96"/>
<text text-anchor="middle" x="202.88" y="-82.5" font-family="Helvetica,sans-Serif" font-size="10.00">mazes::binary_tree</text>
</a>
</g>
</g>
<!-- Node0&#45;&gt;Node1 -->
<g id="edge1_Node000000_Node000001" class="edge">
<title>Node0&#45;&gt;Node1</title>
<g id="a_edge1_Node000000_Node000001"><a xlink:title=" ">
<path fill="none" stroke="#63b8ff" d="M109.96,-61.45C127.3,-66.08 146.45,-71.19 162.76,-75.55"/>
<polygon fill="#63b8ff" stroke="#63b8ff" points="110.9,-58.07 100.33,-58.87 109.09,-64.84 110.9,-58.07"/>
</a>
</g>
</g>
<!-- Node2 -->
<g id="Node000002" class="node">
<title>Node2</title>
<g id="a_Node000002"><a xlink:href="classmazes_1_1dfs.html" target="_top" xlink:title=" ">
<polygon fill="white" stroke="#666666" points="235.25,-58 170.5,-58 170.5,-38 235.25,-38 235.25,-58"/>
<text text-anchor="middle" x="202.88" y="-44.5" font-family="Helvetica,sans-Serif" font-size="10.00">mazes::dfs</text>
</a>
</g>
</g>
<!-- Node0&#45;&gt;Node2 -->
<g id="edge2_Node000000_Node000002" class="edge">
<title>Node0&#45;&gt;Node2</title>
<g id="a_edge2_Node000000_Node000002"><a xlink:title=" ">
<path fill="none" stroke="#63b8ff" d="M128.99,-48C143.41,-48 157.93,-48 170.17,-48"/>
<polygon fill="#63b8ff" stroke="#63b8ff" points="129,-44.5 119,-48 129,-51.5 129,-44.5"/>
</a>
</g>
</g>
<!-- Node3 -->
<g id="Node000003" class="node">
<title>Node3</title>
<g id="a_Node000003"><a xlink:href="classmazes_1_1sidewinder.html" target="_top" xlink:title=" ">
<polygon fill="white" stroke="#666666" points="251.75,-20 154,-20 154,0 251.75,0 251.75,-20"/>
<text text-anchor="middle" x="202.88" y="-6.5" font-family="Helvetica,sans-Serif" font-size="10.00">mazes::sidewinder</text>
</a>
</g>
</g>
<!-- Node0&#45;&gt;Node3 -->
<g id="edge3_Node000000_Node000003" class="edge">
<title>Node0&#45;&gt;Node3</title>
<g id="a_edge3_Node000000_Node000003"><a xlink:title=" ">
<path fill="none" stroke="#63b8ff" d="M109.96,-34.55C127.3,-29.92 146.45,-24.81 162.76,-20.45"/>
<polygon fill="#63b8ff" stroke="#63b8ff" points="109.09,-31.16 100.33,-37.13 110.9,-37.93 109.09,-31.16"/>
</a>
</g>
</g>
</g>
</svg>
