<?xml version="1.0" encoding="UTF-8" standalone="no"?>
<!DOCTYPE svg PUBLIC "-//W3C//DTD SVG 1.1//EN"
 "http://www.w3.org/Graphics/SVG/1.1/DTD/svg11.dtd">
<!-- Generated by graphviz version 12.2.1 (20241206.2353)
 -->
<!-- Title: Graphical Class Hierarchy Pages: 1 -->
<svg width="366pt" height="66pt"
 viewBox="0.00 0.00 365.75 66.00" xmlns="http://www.w3.org/2000/svg" xmlns:xlink="http://www.w3.org/1999/xlink">
<g id="graph0" class="graph" transform="scale(1 1) rotate(0) translate(4 62)">
<title>Graphical Class Hierarchy</title>
<!-- Node0 -->
<g id="Node000000" class="node">
<title>Node0</title>
<g id="a_Node000000"><a xlink:href="classmazes_1_1grid__interface.html" target="_top" xlink:title="Interface for the grid class.">
<polygon fill="white" stroke="#666666" points="109.75,-39 0,-39 0,-19 109.75,-19 109.75,-39"/>
<text text-anchor="middle" x="54.88" y="-25.5" font-family="Helvetica,sans-Serif" font-size="10.00">mazes::grid_interface</text>
</a>
</g>
</g>
<!-- Node1 -->
<g id="Node000001" class="node">
<title>Node1</title>
<g id="a_Node000001"><a xlink:href="classmazes_1_1grid.html" target="_top" xlink:title="General purpose grid class for maze generation.">
<polygon fill="white" stroke="#666666" points="212.75,-39 145.75,-39 145.75,-19 212.75,-19 212.75,-39"/>
<text text-anchor="middle" x="179.25" y="-25.5" font-family="Helvetica,sans-Serif" font-size="10.00">mazes::grid</text>
</a>
</g>
</g>
<!-- Node0&#45;&gt;Node1 -->
<g id="edge4_Node000000_Node000001" class="edge">
<title>Node0&#45;&gt;Node1</title>
<g id="a_edge4_Node000000_Node000001"><a xlink:title=" ">
<path fill="none" stroke="#63b8ff" d="M121.36,-29C129.76,-29 138.05,-29 145.59,-29"/>
<polygon fill="#63b8ff" stroke="#63b8ff" points="121.42,-25.5 111.42,-29 121.42,-32.5 121.42,-25.5"/>
</a>
</g>
</g>
<!-- Node2 -->
<g id="Node000002" class="node">
<title>Node2</title>
<g id="a_Node000002"><a xlink:href="classmazes_1_1colored__grid.html" target="_top" xlink:title="Extension of the grid class to include color information.">
<polygon fill="white" stroke="#666666" points="355.12,-58 251.38,-58 251.38,-38 355.12,-38 355.12,-58"/>
<text text-anchor="middle" x="303.25" y="-44.5" font-family="Helvetica,sans-Serif" font-size="10.00">mazes::colored_grid</text>
</a>
</g>
</g>
<!-- Node1&#45;&gt;Node2 -->
<g id="edge5_Node000001_Node000002" class="edge">
<title>Node1&#45;&gt;Node2</title>
<g id="a_edge5_Node000001_Node000002"><a xlink:title=" ">
<path fill="none" stroke="#63b8ff" d="M224.08,-35.83C232.84,-37.19 242.1,-38.63 251.07,-40.03"/>
<polygon fill="#63b8ff" stroke="#63b8ff" points="224.86,-32.41 214.44,-34.32 223.78,-39.32 224.86,-32.41"/>
</a>
</g>
</g>
<!-- Node3 -->
<g id="Node000003" class="node">
<title>Node3</title>
<g id="a_Node000003"><a xlink:href="classmazes_1_1distance__grid.html" target="_top" xlink:title="A grid that can calculate distances between cells.">
<polygon fill="white" stroke="#666666" points="357.75,-20 248.75,-20 248.75,0 357.75,0 357.75,-20"/>
<text text-anchor="middle" x="303.25" y="-6.5" font-family="Helvetica,sans-Serif" font-size="10.00">mazes::distance_grid</text>
</a>
</g>
</g>
<!-- Node1&#45;&gt;Node3 -->
<g id="edge6_Node000001_Node000003" class="edge">
<title>Node1&#45;&gt;Node3</title>
<g id="a_edge6_Node000001_Node000003"><a xlink:title=" ">
<path fill="none" stroke="#63b8ff" d="M224.07,-22.17C231.92,-20.95 240.17,-19.67 248.26,-18.41"/>
<polygon fill="#63b8ff" stroke="#63b8ff" points="223.78,-18.68 214.44,-23.68 224.86,-25.59 223.78,-18.68"/>
</a>
</g>
</g>
</g>
</svg>
