<?xml version="1.0" encoding="UTF-8" standalone="no"?>
<!DOCTYPE svg PUBLIC "-//W3C//DTD SVG 1.1//EN"
 "http://www.w3.org/Graphics/SVG/1.1/DTD/svg11.dtd">
<!-- Generated by graphviz version 12.2.1 (20241206.2353)
 -->
<!-- Title: Graphical Class Hierarchy Pages: 1 -->
<svg width="255pt" height="104pt"
 viewBox="0.00 0.00 255.25 104.00" xmlns="http://www.w3.org/2000/svg" xmlns:xlink="http://www.w3.org/1999/xlink">
<g id="graph0" class="graph" transform="scale(1 1) rotate(0) translate(4 100)">
<title>Graphical Class Hierarchy</title>
<!-- Node0 -->
<g id="Node000000" class="node">
<title>Node0</title>
<g id="a_Node000000"><a xlink:href="classmazes_1_1algo__interface.html" target="_top" xlink:title="Interface for the maze generation algorithms.">
<polygon fill="white" stroke="#666666" points="112,-58 0,-58 0,-38 112,-38 112,-58"/>
<text text-anchor="middle" x="56" y="-44.5" font-family="Helvetica,sans-Serif" font-size="10.00">mazes::algo_interface</text>
</a>
</g>
</g>
<!-- Node1 -->
<g id="Node000001" class="node">
<title>Node1</title>
<g id="a_Node000001"><a xlink:href="classmazes_1_1binary__tree.html" target="_top" xlink:title="Binary tree algorithm for generating mazes.">
<polygon fill="white" stroke="#666666" points="247.25,-96 148,-96 148,-76 247.25,-76 247.25,-96"/>
<text text-anchor="middle" x="197.62" y="-82.5" font-family="Helvetica,sans-Serif" font-size="10.00">mazes::binary_tree</text>
</a>
</g>
</g>
<!-- Node0&#45;&gt;Node1 -->
<g id="edge1_Node000000_Node000001" class="edge">
<title>Node0&#45;&gt;Node1</title>
<g id="a_edge1_Node000000_Node000001"><a xlink:title=" ">
<path fill="none" stroke="#63b8ff" d="M106.4,-61.45C123.42,-66.08 142.22,-71.19 158.23,-75.55"/>
<polygon fill="#63b8ff" stroke="#63b8ff" points="107.55,-58.13 96.98,-58.88 105.71,-64.89 107.55,-58.13"/>
</a>
</g>
</g>
<!-- Node2 -->
<g id="Node000002" class="node">
<title>Node2</title>
<g id="a_Node000002"><a xlink:href="classmazes_1_1dfs.html" target="_top" xlink:title="Depth&#45;first search algorithm for generating mazes.">
<polygon fill="white" stroke="#666666" points="230,-58 165.25,-58 165.25,-38 230,-38 230,-58"/>
<text text-anchor="middle" x="197.62" y="-44.5" font-family="Helvetica,sans-Serif" font-size="10.00">mazes::dfs</text>
</a>
</g>
</g>
<!-- Node0&#45;&gt;Node2 -->
<g id="edge2_Node000000_Node000002" class="edge">
<title>Node0&#45;&gt;Node2</title>
<g id="a_edge2_Node000000_Node000002"><a xlink:title=" ">
<path fill="none" stroke="#63b8ff" d="M123.6,-48C137.95,-48 152.47,-48 164.75,-48"/>
<polygon fill="#63b8ff" stroke="#63b8ff" points="123.7,-44.5 113.7,-48 123.7,-51.5 123.7,-44.5"/>
</a>
</g>
</g>
<!-- Node3 -->
<g id="Node000003" class="node">
<title>Node3</title>
<g id="a_Node000003"><a xlink:href="classmazes_1_1sidewinder.html" target="_top" xlink:title="Sidewinder algorithm for generating mazes.">
<polygon fill="white" stroke="#666666" points="246.5,-20 148.75,-20 148.75,0 246.5,0 246.5,-20"/>
<text text-anchor="middle" x="197.62" y="-6.5" font-family="Helvetica,sans-Serif" font-size="10.00">mazes::sidewinder</text>
</a>
</g>
</g>
<!-- Node0&#45;&gt;Node3 -->
<g id="edge3_Node000000_Node000003" class="edge">
<title>Node0&#45;&gt;Node3</title>
<g id="a_edge3_Node000000_Node000003"><a xlink:title=" ">
<path fill="none" stroke="#63b8ff" d="M106.4,-34.55C123.42,-29.92 142.22,-24.81 158.23,-20.45"/>
<polygon fill="#63b8ff" stroke="#63b8ff" points="105.71,-31.11 96.98,-37.12 107.55,-37.87 105.71,-31.11"/>
</a>
</g>
</g>
</g>
</svg>
