<?xml version="1.0" encoding="UTF-8" standalone="no"?>
<!DOCTYPE svg PUBLIC "-//W3C//DTD SVG 1.1//EN"
 "http://www.w3.org/Graphics/SVG/1.1/DTD/svg11.dtd">
<!-- Generated by graphviz version 12.2.1 (20241206.2353)
 -->
<!-- Title: Graphical Class Hierarchy Pages: 1 -->
<svg width="263pt" height="104pt"
 viewBox="0.00 0.00 262.75 104.00" xmlns="http://www.w3.org/2000/svg" xmlns:xlink="http://www.w3.org/1999/xlink">
<g id="graph0" class="graph" transform="scale(1 1) rotate(0) translate(4 100)">
<title>Graphical Class Hierarchy</title>
<!-- Node0 -->
<g id="Node000000" class="node">
<title>Node0</title>
<g id="a_Node000000"><a xlink:href="classmazes_1_1grid__interface.html" target="_top" xlink:title=" ">
<polygon fill="white" stroke="#666666" points="109.75,-58 0,-58 0,-38 109.75,-38 109.75,-58"/>
<text text-anchor="middle" x="54.88" y="-44.5" font-family="Helvetica,sans-Serif" font-size="10.00">mazes::grid_interface</text>
</a>
</g>
</g>
<!-- Node1 -->
<g id="Node000001" class="node">
<title>Node1</title>
<g id="a_Node000001"><a xlink:href="classmazes_1_1colored__grid.html" target="_top" xlink:title=" ">
<polygon fill="white" stroke="#666666" points="252.12,-96 148.38,-96 148.38,-76 252.12,-76 252.12,-96"/>
<text text-anchor="middle" x="200.25" y="-82.5" font-family="Helvetica,sans-Serif" font-size="10.00">mazes::colored_grid</text>
</a>
</g>
</g>
<!-- Node0&#45;&gt;Node1 -->
<g id="edge4_Node000000_Node000001" class="edge">
<title>Node0&#45;&gt;Node1</title>
<g id="a_edge4_Node000000_Node000001"><a xlink:title=" ">
<path fill="none" stroke="#63b8ff" d="M106.11,-61.31C123.72,-65.98 143.23,-71.15 159.82,-75.55"/>
<polygon fill="#63b8ff" stroke="#63b8ff" points="107.46,-58.05 96.9,-58.87 105.66,-64.82 107.46,-58.05"/>
</a>
</g>
</g>
<!-- Node2 -->
<g id="Node000002" class="node">
<title>Node2</title>
<g id="a_Node000002"><a xlink:href="classmazes_1_1distance__grid.html" target="_top" xlink:title=" ">
<polygon fill="white" stroke="#666666" points="254.75,-58 145.75,-58 145.75,-38 254.75,-38 254.75,-58"/>
<text text-anchor="middle" x="200.25" y="-44.5" font-family="Helvetica,sans-Serif" font-size="10.00">mazes::distance_grid</text>
</a>
</g>
</g>
<!-- Node0&#45;&gt;Node2 -->
<g id="edge5_Node000000_Node000002" class="edge">
<title>Node0&#45;&gt;Node2</title>
<g id="a_edge5_Node000000_Node000002"><a xlink:title=" ">
<path fill="none" stroke="#63b8ff" d="M121.36,-48C129.42,-48 137.59,-48 145.44,-48"/>
<polygon fill="#63b8ff" stroke="#63b8ff" points="121.59,-44.5 111.59,-48 121.59,-51.5 121.59,-44.5"/>
</a>
</g>
</g>
<!-- Node3 -->
<g id="Node000003" class="node">
<title>Node3</title>
<g id="a_Node000003"><a xlink:href="classmazes_1_1grid.html" target="_top" xlink:title=" ">
<polygon fill="white" stroke="#666666" points="233.75,-20 166.75,-20 166.75,0 233.75,0 233.75,-20"/>
<text text-anchor="middle" x="200.25" y="-6.5" font-family="Helvetica,sans-Serif" font-size="10.00">mazes::grid</text>
</a>
</g>
</g>
<!-- Node0&#45;&gt;Node3 -->
<g id="edge6_Node000000_Node000003" class="edge">
<title>Node0&#45;&gt;Node3</title>
<g id="a_edge6_Node000000_Node000003"><a xlink:title=" ">
<path fill="none" stroke="#63b8ff" d="M106.54,-34.57C126.5,-29.28 148.84,-23.36 166.59,-18.66"/>
<polygon fill="#63b8ff" stroke="#63b8ff" points="105.66,-31.18 96.9,-37.13 107.46,-37.95 105.66,-31.18"/>
</a>
</g>
</g>
</g>
</svg>
