<?xml version="1.0" encoding="UTF-8" standalone="no"?>
<!DOCTYPE svg PUBLIC "-//W3C//DTD SVG 1.1//EN"
 "http://www.w3.org/Graphics/SVG/1.1/DTD/svg11.dtd">
<!-- Generated by graphviz version 12.2.1 (20241206.2353)
 -->
<!-- Title: Graphical Class Hierarchy Pages: 1 -->
<svg width="285pt" height="104pt"
 viewBox="0.00 0.00 284.50 104.00" xmlns="http://www.w3.org/2000/svg" xmlns:xlink="http://www.w3.org/1999/xlink">
<g id="graph0" class="graph" transform="scale(1 1) rotate(0) translate(4 100)">
<title>Graphical Class Hierarchy</title>
<!-- Node0 -->
<g id="Node000000" class="node">
<title>Node0</title>
<g id="a_Node000000"><a xlink:href="classmazes_1_1maze__algo__interface.html" target="_top" xlink:title=" ">
<polygon fill="white" stroke="#666666" points="141.25,-58 0,-58 0,-38 141.25,-38 141.25,-58"/>
<text text-anchor="middle" x="70.62" y="-44.5" font-family="Helvetica,sans-Serif" font-size="10.00">mazes::maze_algo_interface</text>
</a>
</g>
</g>
<!-- Node1 -->
<g id="Node000001" class="node">
<title>Node1</title>
<g id="a_Node000001"><a xlink:href="classmazes_1_1binary__tree.html" target="_top" xlink:title=" ">
<polygon fill="white" stroke="#666666" points="276.5,-96 177.25,-96 177.25,-76 276.5,-76 276.5,-96"/>
<text text-anchor="middle" x="226.88" y="-82.5" font-family="Helvetica,sans-Serif" font-size="10.00">mazes::binary_tree</text>
</a>
</g>
</g>
<!-- Node0&#45;&gt;Node1 -->
<g id="edge5_Node000000_Node000001" class="edge">
<title>Node0&#45;&gt;Node1</title>
<g id="a_edge5_Node000000_Node000001"><a xlink:title=" ">
<path fill="none" stroke="#63b8ff" d="M125.13,-61.18C144.21,-65.88 165.43,-71.11 183.46,-75.55"/>
<polygon fill="#63b8ff" stroke="#63b8ff" points="126.2,-57.84 115.65,-58.85 124.52,-64.64 126.2,-57.84"/>
</a>
</g>
</g>
<!-- Node2 -->
<g id="Node000002" class="node">
<title>Node2</title>
<g id="a_Node000002"><a xlink:href="classmazes_1_1dfs.html" target="_top" xlink:title=" ">
<polygon fill="white" stroke="#666666" points="259.25,-58 194.5,-58 194.5,-38 259.25,-38 259.25,-58"/>
<text text-anchor="middle" x="226.88" y="-44.5" font-family="Helvetica,sans-Serif" font-size="10.00">mazes::dfs</text>
</a>
</g>
</g>
<!-- Node0&#45;&gt;Node2 -->
<g id="edge6_Node000000_Node000002" class="edge">
<title>Node0&#45;&gt;Node2</title>
<g id="a_edge6_Node000000_Node000002"><a xlink:title=" ">
<path fill="none" stroke="#63b8ff" d="M152.83,-48C167.61,-48 182.18,-48 194.38,-48"/>
<polygon fill="#63b8ff" stroke="#63b8ff" points="153.04,-44.5 143.04,-48 153.04,-51.5 153.04,-44.5"/>
</a>
</g>
</g>
<!-- Node3 -->
<g id="Node000003" class="node">
<title>Node3</title>
<g id="a_Node000003"><a xlink:href="classmazes_1_1sidewinder.html" target="_top" xlink:title=" ">
<polygon fill="white" stroke="#666666" points="275.75,-20 178,-20 178,0 275.75,0 275.75,-20"/>
<text text-anchor="middle" x="226.88" y="-6.5" font-family="Helvetica,sans-Serif" font-size="10.00">mazes::sidewinder</text>
</a>
</g>
</g>
<!-- Node0&#45;&gt;Node3 -->
<g id="edge7_Node000000_Node000003" class="edge">
<title>Node0&#45;&gt;Node3</title>
<g id="a_edge7_Node000000_Node000003"><a xlink:title=" ">
<path fill="none" stroke="#63b8ff" d="M125.13,-34.82C144.21,-30.12 165.43,-24.89 183.46,-20.45"/>
<polygon fill="#63b8ff" stroke="#63b8ff" points="124.52,-31.36 115.65,-37.15 126.2,-38.16 124.52,-31.36"/>
</a>
</g>
</g>
</g>
</svg>
