<?xml version="1.0" encoding="UTF-8" standalone="no"?>
<!DOCTYPE svg PUBLIC "-//W3C//DTD SVG 1.1//EN"
 "http://www.w3.org/Graphics/SVG/1.1/DTD/svg11.dtd">
<!-- Generated by graphviz version 12.2.1 (20241206.2353)
 -->
<!-- Title: Graphical Class Hierarchy Pages: 1 -->
<svg width="506pt" height="28pt"
 viewBox="0.00 0.00 505.50 28.00" xmlns="http://www.w3.org/2000/svg" xmlns:xlink="http://www.w3.org/1999/xlink">
<g id="graph0" class="graph" transform="scale(1 1) rotate(0) translate(4 24)">
<title>Graphical Class Hierarchy</title>
<!-- Node0 -->
<g id="Node000000" class="node">
<title>Node0</title>
<g id="a_Node000000"><a xlink:href="classmazes_1_1grid__interface.html" target="_top" xlink:title="Interface for the grid class.">
<polygon fill="white" stroke="#666666" points="109.75,-20 0,-20 0,0 109.75,0 109.75,-20"/>
<text text-anchor="middle" x="54.88" y="-6.5" font-family="Helvetica,sans-Serif" font-size="10.00">mazes::grid_interface</text>
</a>
</g>
</g>
<!-- Node1 -->
<g id="Node000001" class="node">
<title>Node1</title>
<g id="a_Node000001"><a xlink:href="classmazes_1_1grid.html" target="_top" xlink:title="General purpose grid class for maze generation.">
<polygon fill="white" stroke="#666666" points="212.75,-20 145.75,-20 145.75,0 212.75,0 212.75,-20"/>
<text text-anchor="middle" x="179.25" y="-6.5" font-family="Helvetica,sans-Serif" font-size="10.00">mazes::grid</text>
</a>
</g>
</g>
<!-- Node0&#45;&gt;Node1 -->
<g id="edge4_Node000000_Node000001" class="edge">
<title>Node0&#45;&gt;Node1</title>
<g id="a_edge4_Node000000_Node000001"><a xlink:title=" ">
<path fill="none" stroke="#63b8ff" d="M121.36,-10C129.76,-10 138.05,-10 145.59,-10"/>
<polygon fill="#63b8ff" stroke="#63b8ff" points="121.42,-6.5 111.42,-10 121.42,-13.5 121.42,-6.5"/>
</a>
</g>
</g>
<!-- Node2 -->
<g id="Node000002" class="node">
<title>Node2</title>
<g id="a_Node000002"><a xlink:href="classmazes_1_1distance__grid.html" target="_top" xlink:title="A grid that can calculate distances between cells.">
<polygon fill="white" stroke="#666666" points="357.75,-20 248.75,-20 248.75,0 357.75,0 357.75,-20"/>
<text text-anchor="middle" x="303.25" y="-6.5" font-family="Helvetica,sans-Serif" font-size="10.00">mazes::distance_grid</text>
</a>
</g>
</g>
<!-- Node1&#45;&gt;Node2 -->
<g id="edge5_Node000001_Node000002" class="edge">
<title>Node1&#45;&gt;Node2</title>
<g id="a_edge5_Node000001_Node000002"><a xlink:title=" ">
<path fill="none" stroke="#63b8ff" d="M224.35,-10C232.11,-10 240.27,-10 248.26,-10"/>
<polygon fill="#63b8ff" stroke="#63b8ff" points="224.46,-6.5 214.46,-10 224.46,-13.5 224.46,-6.5"/>
</a>
</g>
</g>
<!-- Node3 -->
<g id="Node000003" class="node">
<title>Node3</title>
<g id="a_Node000003"><a xlink:href="classmazes_1_1colored__grid.html" target="_top" xlink:title="Extension of the grid class to include color information.">
<polygon fill="white" stroke="#666666" points="497.5,-20 393.75,-20 393.75,0 497.5,0 497.5,-20"/>
<text text-anchor="middle" x="445.62" y="-6.5" font-family="Helvetica,sans-Serif" font-size="10.00">mazes::colored_grid</text>
</a>
</g>
</g>
<!-- Node2&#45;&gt;Node3 -->
<g id="edge6_Node000002_Node000003" class="edge">
<title>Node2&#45;&gt;Node3</title>
<g id="a_edge6_Node000002_Node000003"><a xlink:title=" ">
<path fill="none" stroke="#63b8ff" d="M369.41,-10C377.48,-10 385.63,-10 393.44,-10"/>
<polygon fill="#63b8ff" stroke="#63b8ff" points="369.63,-6.5 359.63,-10 369.63,-13.5 369.63,-6.5"/>
</a>
</g>
</g>
</g>
</svg>
