<?xml version="1.0" encoding="UTF-8" standalone="no"?>
<!DOCTYPE svg PUBLIC "-//W3C//DTD SVG 1.1//EN"
 "http://www.w3.org/Graphics/SVG/1.1/DTD/svg11.dtd">
<!-- Generated by graphviz version 12.2.1 (20241206.2353)
 -->
<!-- Title: lab.h Pages: 1 -->
<svg width="384pt" height="140pt"
 viewBox="0.00 0.00 384.25 140.00" xmlns="http://www.w3.org/2000/svg" xmlns:xlink="http://www.w3.org/1999/xlink">
<g id="graph0" class="graph" transform="scale(1 1) rotate(0) translate(4 136)">
<title>lab.h</title>
<!-- Node1 -->
<g id="Node000001" class="node">
<title>Node1</title>
<g id="a_Node000001"><a xlink:title=" ">
<polygon fill="#999999" stroke="#666666" points="134.38,-132 97.38,-132 97.38,-112 134.38,-112 134.38,-132"/>
<text text-anchor="middle" x="115.88" y="-118.5" font-family="Helvetica,sans-Serif" font-size="10.00">lab.h</text>
</a>
</g>
</g>
<!-- Node2 -->
<g id="Node000002" class="node">
<title>Node2</title>
<g id="a_Node000002"><a xlink:title=" ">
<polygon fill="#e0e0e0" stroke="#999999" points="49.75,-76 0,-76 0,-56 49.75,-56 49.75,-76"/>
<text text-anchor="middle" x="24.88" y="-62.5" font-family="Helvetica,sans-Serif" font-size="10.00">optional</text>
</a>
</g>
</g>
<!-- Node1&#45;&gt;Node2 -->
<g id="edge1_Node000001_Node000002" class="edge">
<title>Node1&#45;&gt;Node2</title>
<g id="a_edge1_Node000001_Node000002"><a xlink:title=" ">
<path fill="none" stroke="#63b8ff" d="M100.02,-111.59C86.41,-103.51 66.51,-91.71 50.61,-82.27"/>
<polygon fill="#63b8ff" stroke="#63b8ff" points="52.54,-79.35 42.15,-77.25 48.97,-85.37 52.54,-79.35"/>
</a>
</g>
</g>
<!-- Node3 -->
<g id="Node000003" class="node">
<title>Node3</title>
<g id="a_Node000003"><a xlink:title=" ">
<polygon fill="#e0e0e0" stroke="#999999" points="102.5,-20 63.25,-20 63.25,0 102.5,0 102.5,-20"/>
<text text-anchor="middle" x="82.88" y="-6.5" font-family="Helvetica,sans-Serif" font-size="10.00">utility</text>
</a>
</g>
</g>
<!-- Node1&#45;&gt;Node3 -->
<g id="edge2_Node000001_Node000003" class="edge">
<title>Node1&#45;&gt;Node3</title>
<g id="a_edge2_Node000001_Node000003"><a xlink:title=" ">
<path fill="none" stroke="#63b8ff" d="M113.06,-111.62C107.75,-93.92 96.15,-55.24 88.97,-31.32"/>
<polygon fill="#63b8ff" stroke="#63b8ff" points="92.34,-30.38 86.12,-21.8 85.64,-32.39 92.34,-30.38"/>
</a>
</g>
</g>
<!-- Node4 -->
<g id="Node000004" class="node">
<title>Node4</title>
<g id="a_Node000004"><a xlink:title=" ">
<polygon fill="#e0e0e0" stroke="#999999" points="159.38,-20 122.38,-20 122.38,0 159.38,0 159.38,-20"/>
<text text-anchor="middle" x="140.88" y="-6.5" font-family="Helvetica,sans-Serif" font-size="10.00">tuple</text>
</a>
</g>
</g>
<!-- Node1&#45;&gt;Node4 -->
<g id="edge3_Node000001_Node000004" class="edge">
<title>Node1&#45;&gt;Node4</title>
<g id="a_edge3_Node000001_Node000004"><a xlink:title=" ">
<path fill="none" stroke="#63b8ff" d="M118.01,-111.62C122.03,-93.92 130.82,-55.24 136.26,-31.32"/>
<polygon fill="#63b8ff" stroke="#63b8ff" points="139.61,-32.36 138.41,-21.83 132.78,-30.81 139.61,-32.36"/>
</a>
</g>
</g>
<!-- Node5 -->
<g id="Node000005" class="node">
<title>Node5</title>
<g id="a_Node000005"><a xlink:title=" ">
<polygon fill="#e0e0e0" stroke="#999999" points="376.25,-76 293.5,-76 293.5,-56 376.25,-56 376.25,-76"/>
<text text-anchor="middle" x="334.88" y="-62.5" font-family="Helvetica,sans-Serif" font-size="10.00">unordered_map</text>
</a>
</g>
</g>
<!-- Node1&#45;&gt;Node5 -->
<g id="edge4_Node000001_Node000005" class="edge">
<title>Node1&#45;&gt;Node5</title>
<g id="a_edge4_Node000001_Node000005"><a xlink:title=" ">
<path fill="none" stroke="#63b8ff" d="M134.55,-116.4C167.68,-108.23 237.77,-90.94 285.6,-79.15"/>
<polygon fill="#63b8ff" stroke="#63b8ff" points="286.3,-82.58 295.17,-76.79 284.63,-75.79 286.3,-82.58"/>
</a>
</g>
</g>
<!-- Node6 -->
<g id="Node000006" class="node">
<title>Node6</title>
<g id="a_Node000006"><a xlink:href="hash__funcs_8h.html" target="_top" xlink:title=" ">
<polygon fill="white" stroke="#666666" points="275.62,-76 144.12,-76 144.12,-56 275.62,-56 275.62,-76"/>
<text text-anchor="middle" x="209.88" y="-62.5" font-family="Helvetica,sans-Serif" font-size="10.00">MazeBuilder/hash_funcs.h</text>
</a>
</g>
</g>
<!-- Node1&#45;&gt;Node6 -->
<g id="edge5_Node000001_Node000006" class="edge">
<title>Node1&#45;&gt;Node6</title>
<g id="a_edge5_Node000001_Node000006"><a xlink:title=" ">
<path fill="none" stroke="#63b8ff" d="M132.25,-111.59C146.45,-103.44 167.26,-91.48 183.76,-82"/>
<polygon fill="#63b8ff" stroke="#63b8ff" points="185.13,-85.25 192.06,-77.23 181.65,-79.18 185.13,-85.25"/>
</a>
</g>
</g>
<!-- Node6&#45;&gt;Node3 -->
<g id="edge9_Node000006_Node000003" class="edge">
<title>Node6&#45;&gt;Node3</title>
<g id="a_edge9_Node000006_Node000003"><a xlink:title=" ">
<path fill="none" stroke="#63b8ff" d="M187.75,-55.59C167.11,-46.82 136.13,-33.65 113.19,-23.89"/>
<polygon fill="#63b8ff" stroke="#63b8ff" points="114.62,-20.7 104.05,-20 111.88,-27.14 114.62,-20.7"/>
</a>
</g>
</g>
<!-- Node6&#45;&gt;Node4 -->
<g id="edge8_Node000006_Node000004" class="edge">
<title>Node6&#45;&gt;Node4</title>
<g id="a_edge8_Node000006_Node000004"><a xlink:title=" ">
<path fill="none" stroke="#63b8ff" d="M197.86,-55.59C187.86,-47.77 173.41,-36.46 161.57,-27.19"/>
<polygon fill="#63b8ff" stroke="#63b8ff" points="163.98,-24.64 153.95,-21.23 159.67,-30.15 163.98,-24.64"/>
</a>
</g>
</g>
<!-- Node7 -->
<g id="Node000007" class="node">
<title>Node7</title>
<g id="a_Node000007"><a xlink:title=" ">
<polygon fill="#e0e0e0" stroke="#999999" points="236.88,-20 178.88,-20 178.88,0 236.88,0 236.88,-20"/>
<text text-anchor="middle" x="207.88" y="-6.5" font-family="Helvetica,sans-Serif" font-size="10.00">functional</text>
</a>
</g>
</g>
<!-- Node6&#45;&gt;Node7 -->
<g id="edge6_Node000006_Node000007" class="edge">
<title>Node6&#45;&gt;Node7</title>
<g id="a_edge6_Node000006_Node000007"><a xlink:title=" ">
<path fill="none" stroke="#63b8ff" d="M209.53,-55.59C209.28,-49.01 208.95,-39.96 208.64,-31.73"/>
<polygon fill="#63b8ff" stroke="#63b8ff" points="212.14,-31.67 208.28,-21.81 205.15,-31.93 212.14,-31.67"/>
</a>
</g>
</g>
<!-- Node8 -->
<g id="Node000008" class="node">
<title>Node8</title>
<g id="a_Node000008"><a xlink:title=" ">
<polygon fill="#e0e0e0" stroke="#999999" points="306.5,-20 255.25,-20 255.25,0 306.5,0 306.5,-20"/>
<text text-anchor="middle" x="280.88" y="-6.5" font-family="Helvetica,sans-Serif" font-size="10.00">memory</text>
</a>
</g>
</g>
<!-- Node6&#45;&gt;Node8 -->
<g id="edge7_Node000006_Node000008" class="edge">
<title>Node6&#45;&gt;Node8</title>
<g id="a_edge7_Node000006_Node000008"><a xlink:title=" ">
<path fill="none" stroke="#63b8ff" d="M222.24,-55.59C232.52,-47.77 247.39,-36.46 259.59,-27.19"/>
<polygon fill="#63b8ff" stroke="#63b8ff" points="261.6,-30.05 267.44,-21.21 257.37,-24.48 261.6,-30.05"/>
</a>
</g>
</g>
</g>
</svg>
