<?xml version="1.0" encoding="UTF-8" standalone="no"?>
<!DOCTYPE svg PUBLIC "-//W3C//DTD SVG 1.1//EN"
 "http://www.w3.org/Graphics/SVG/1.1/DTD/svg11.dtd">
<!-- Generated by graphviz version 12.2.1 (20241206.2353)
 -->
<!-- Title: lab.h Pages: 1 -->
<svg width="359pt" height="140pt"
 viewBox="0.00 0.00 359.27 140.00" xmlns="http://www.w3.org/2000/svg" xmlns:xlink="http://www.w3.org/1999/xlink">
<g id="graph0" class="graph" transform="scale(1 1) rotate(0) translate(4 136)">
<title>lab.h</title>
<!-- Node1 -->
<g id="Node000001" class="node">
<title>Node1</title>
<g id="a_Node000001"><a xlink:title=" ">
<polygon fill="#999999" stroke="#666666" points="190.38,-132 153.38,-132 153.38,-112 190.38,-112 190.38,-132"/>
<text text-anchor="middle" x="171.88" y="-118.5" font-family="Helvetica,sans-Serif" font-size="10.00">lab.h</text>
</a>
</g>
</g>
<!-- Node2 -->
<g id="Node000002" class="node">
<title>Node2</title>
<g id="a_Node000002"><a xlink:title=" ">
<polygon fill="#e0e0e0" stroke="#999999" points="49.75,-76 0,-76 0,-56 49.75,-56 49.75,-76"/>
<text text-anchor="middle" x="24.88" y="-62.5" font-family="Helvetica,sans-Serif" font-size="10.00">optional</text>
</a>
</g>
</g>
<!-- Node1&#45;&gt;Node2 -->
<g id="edge1_Node000001_Node000002" class="edge">
<title>Node1&#45;&gt;Node2</title>
<g id="a_edge1_Node000001_Node000002"><a xlink:title=" ">
<path fill="none" stroke="#63b8ff" d="M152.96,-114.05C129.72,-105.51 89.8,-90.85 60.69,-80.16"/>
<polygon fill="#63b8ff" stroke="#63b8ff" points="62.13,-76.96 51.54,-76.79 59.72,-83.53 62.13,-76.96"/>
</a>
</g>
</g>
<!-- Node3 -->
<g id="Node000003" class="node">
<title>Node3</title>
<g id="a_Node000003"><a xlink:title=" ">
<polygon fill="#e0e0e0" stroke="#999999" points="111.5,-20 72.25,-20 72.25,0 111.5,0 111.5,-20"/>
<text text-anchor="middle" x="91.88" y="-6.5" font-family="Helvetica,sans-Serif" font-size="10.00">utility</text>
</a>
</g>
</g>
<!-- Node1&#45;&gt;Node3 -->
<g id="edge2_Node000001_Node000003" class="edge">
<title>Node1&#45;&gt;Node3</title>
<g id="a_edge2_Node000001_Node000003"><a xlink:title=" ">
<path fill="none" stroke="#63b8ff" d="M153.2,-115.36C135.43,-108.92 109.57,-96.54 96.88,-76 88.67,-62.73 87.85,-44.91 88.84,-31.29"/>
<polygon fill="#63b8ff" stroke="#63b8ff" points="92.28,-32.04 89.93,-21.71 85.33,-31.25 92.28,-32.04"/>
</a>
</g>
</g>
<!-- Node4 -->
<g id="Node000004" class="node">
<title>Node4</title>
<g id="a_Node000004"><a xlink:title=" ">
<polygon fill="#e0e0e0" stroke="#999999" points="320.38,-20 283.38,-20 283.38,0 320.38,0 320.38,-20"/>
<text text-anchor="middle" x="301.88" y="-6.5" font-family="Helvetica,sans-Serif" font-size="10.00">tuple</text>
</a>
</g>
</g>
<!-- Node1&#45;&gt;Node4 -->
<g id="edge3_Node000001_Node000004" class="edge">
<title>Node1&#45;&gt;Node4</title>
<g id="a_edge3_Node000001_Node000004"><a xlink:title=" ">
<path fill="none" stroke="#63b8ff" d="M190.57,-119.04C231.65,-114.31 327.65,-100.79 346.88,-76 359.36,-59.89 342.22,-40.6 325.62,-27.24"/>
<polygon fill="#63b8ff" stroke="#63b8ff" points="327.95,-24.61 317.86,-21.39 323.74,-30.2 327.95,-24.61"/>
</a>
</g>
</g>
<!-- Node5 -->
<g id="Node000005" class="node">
<title>Node5</title>
<g id="a_Node000005"><a xlink:title=" ">
<polygon fill="#e0e0e0" stroke="#999999" points="338.25,-76 255.5,-76 255.5,-56 338.25,-56 338.25,-76"/>
<text text-anchor="middle" x="296.88" y="-62.5" font-family="Helvetica,sans-Serif" font-size="10.00">unordered_map</text>
</a>
</g>
</g>
<!-- Node1&#45;&gt;Node5 -->
<g id="edge4_Node000001_Node000005" class="edge">
<title>Node1&#45;&gt;Node5</title>
<g id="a_edge4_Node000001_Node000005"><a xlink:title=" ">
<path fill="none" stroke="#63b8ff" d="M190.86,-112.8C210.43,-104.34 241.31,-91 264.71,-80.9"/>
<polygon fill="#63b8ff" stroke="#63b8ff" points="266.01,-84.15 273.8,-76.97 263.23,-77.72 266.01,-84.15"/>
</a>
</g>
</g>
<!-- Node6 -->
<g id="Node000006" class="node">
<title>Node6</title>
<g id="a_Node000006"><a xlink:href="hash__funcs_8h.html" target="_top" xlink:title=" ">
<polygon fill="white" stroke="#666666" points="237.62,-76 106.12,-76 106.12,-56 237.62,-56 237.62,-76"/>
<text text-anchor="middle" x="171.88" y="-62.5" font-family="Helvetica,sans-Serif" font-size="10.00">MazeBuilder/hash_funcs.h</text>
</a>
</g>
</g>
<!-- Node1&#45;&gt;Node6 -->
<g id="edge5_Node000001_Node000006" class="edge">
<title>Node1&#45;&gt;Node6</title>
<g id="a_edge5_Node000001_Node000006"><a xlink:title=" ">
<path fill="none" stroke="#63b8ff" d="M171.88,-111.59C171.88,-105.01 171.88,-95.96 171.88,-87.73"/>
<polygon fill="#63b8ff" stroke="#63b8ff" points="175.38,-87.81 171.88,-77.81 168.38,-87.81 175.38,-87.81"/>
</a>
</g>
</g>
<!-- Node6&#45;&gt;Node3 -->
<g id="edge6_Node000006_Node000003" class="edge">
<title>Node6&#45;&gt;Node3</title>
<g id="a_edge6_Node000006_Node000003"><a xlink:title=" ">
<path fill="none" stroke="#63b8ff" d="M157.94,-55.59C146.2,-47.67 129.14,-36.16 115.31,-26.82"/>
<polygon fill="#63b8ff" stroke="#63b8ff" points="117.42,-24.02 107.17,-21.33 113.5,-29.82 117.42,-24.02"/>
</a>
</g>
</g>
<!-- Node6&#45;&gt;Node4 -->
<g id="edge7_Node000006_Node000004" class="edge">
<title>Node6&#45;&gt;Node4</title>
<g id="a_edge7_Node000006_Node000004"><a xlink:title=" ">
<path fill="none" stroke="#63b8ff" d="M194.52,-55.59C216.25,-46.57 249.16,-32.9 272.82,-23.07"/>
<polygon fill="#63b8ff" stroke="#63b8ff" points="273.99,-26.38 281.88,-19.31 271.3,-19.91 273.99,-26.38"/>
</a>
</g>
</g>
<!-- Node7 -->
<g id="Node000007" class="node">
<title>Node7</title>
<g id="a_Node000007"><a xlink:title=" ">
<polygon fill="#e0e0e0" stroke="#999999" points="200.88,-20 142.88,-20 142.88,0 200.88,0 200.88,-20"/>
<text text-anchor="middle" x="171.88" y="-6.5" font-family="Helvetica,sans-Serif" font-size="10.00">functional</text>
</a>
</g>
</g>
<!-- Node6&#45;&gt;Node7 -->
<g id="edge8_Node000006_Node000007" class="edge">
<title>Node6&#45;&gt;Node7</title>
<g id="a_edge8_Node000006_Node000007"><a xlink:title=" ">
<path fill="none" stroke="#63b8ff" d="M171.88,-55.59C171.88,-49.01 171.88,-39.96 171.88,-31.73"/>
<polygon fill="#63b8ff" stroke="#63b8ff" points="175.38,-31.81 171.88,-21.81 168.38,-31.81 175.38,-31.81"/>
</a>
</g>
</g>
</g>
</svg>
