<?xml version="1.0" encoding="UTF-8" standalone="no"?>
<!DOCTYPE svg PUBLIC "-//W3C//DTD SVG 1.1//EN"
 "http://www.w3.org/Graphics/SVG/1.1/DTD/svg11.dtd">
<!-- Generated by graphviz version 12.2.1 (20241206.2353)
 -->
<!-- Title: maze.h Pages: 1 -->
<svg width="103pt" height="140pt"
 viewBox="0.00 0.00 102.75 140.00" xmlns="http://www.w3.org/2000/svg" xmlns:xlink="http://www.w3.org/1999/xlink">
<g id="graph0" class="graph" transform="scale(1 1) rotate(0) translate(4 136)">
<title>maze.h</title>
<!-- Node1 -->
<g id="Node000001" class="node">
<title>Node1</title>
<g id="a_Node000001"><a xlink:title=" ">
<polygon fill="#999999" stroke="#666666" points="77.88,-132 29.62,-132 29.62,-112 77.88,-112 77.88,-132"/>
<text text-anchor="middle" x="53.75" y="-118.5" font-family="Helvetica,sans-Serif" font-size="10.00">maze.h</text>
</a>
</g>
</g>
<!-- Node2 -->
<g id="Node000002" class="node">
<title>Node2</title>
<g id="a_Node000002"><a xlink:href="factory_8h.html" target="_top" xlink:title=" ">
<polygon fill="white" stroke="#666666" points="53.5,-76 0,-76 0,-56 53.5,-56 53.5,-76"/>
<text text-anchor="middle" x="26.75" y="-62.5" font-family="Helvetica,sans-Serif" font-size="10.00">factory.h</text>
</a>
</g>
</g>
<!-- Node1&#45;&gt;Node2 -->
<g id="edge1_Node000001_Node000002" class="edge">
<title>Node1&#45;&gt;Node2</title>
<g id="a_edge1_Node000001_Node000002"><a xlink:title=" ">
<path fill="none" stroke="#63b8ff" d="M44.04,-101.58C39.73,-92.97 34.87,-83.24 31.4,-76.3"/>
<polygon fill="#63b8ff" stroke="#63b8ff" points="40.77,-102.86 48.37,-110.24 47.03,-99.73 40.77,-102.86"/>
</a>
</g>
</g>
<!-- Node3 -->
<g id="Node000003" class="node">
<title>Node3</title>
<g id="a_Node000003"><a xlink:href="maze__builder_8h.html" target="_top" xlink:title="This file includes all the headers in the maze builder library.">
<polygon fill="white" stroke="#666666" points="94.75,-20 12.75,-20 12.75,0 94.75,0 94.75,-20"/>
<text text-anchor="middle" x="53.75" y="-6.5" font-family="Helvetica,sans-Serif" font-size="10.00">maze_builder.h</text>
</a>
</g>
</g>
<!-- Node1&#45;&gt;Node3 -->
<g id="edge3_Node000001_Node000003" class="edge">
<title>Node1&#45;&gt;Node3</title>
<g id="a_edge3_Node000001_Node000003"><a xlink:title=" ">
<path fill="none" stroke="#63b8ff" d="M59,-100.95C61.74,-88.13 64.25,-71.12 62.75,-56 61.51,-43.47 58.37,-29.27 56.15,-20.23"/>
<polygon fill="#63b8ff" stroke="#63b8ff" points="55.68,-99.76 56.77,-110.3 62.49,-101.38 55.68,-99.76"/>
</a>
</g>
</g>
<!-- Node2&#45;&gt;Node3 -->
<g id="edge2_Node000002_Node000003" class="edge">
<title>Node2&#45;&gt;Node3</title>
<g id="a_edge2_Node000002_Node000003"><a xlink:title=" ">
<path fill="none" stroke="#63b8ff" d="M36.46,-45.58C40.77,-36.97 45.63,-27.24 49.1,-20.3"/>
<polygon fill="#63b8ff" stroke="#63b8ff" points="33.47,-43.73 32.13,-54.24 39.73,-46.86 33.47,-43.73"/>
</a>
</g>
</g>
</g>
</svg>
