<?xml version="1.0" encoding="UTF-8" standalone="no"?>
<!DOCTYPE svg PUBLIC "-//W3C//DTD SVG 1.1//EN"
 "http://www.w3.org/Graphics/SVG/1.1/DTD/svg11.dtd">
<!-- Generated by graphviz version 12.2.1 (20241206.2353)
 -->
<!-- Title: maze.h Pages: 1 -->
<svg width="742pt" height="196pt"
 viewBox="0.00 0.00 741.88 196.00" xmlns="http://www.w3.org/2000/svg" xmlns:xlink="http://www.w3.org/1999/xlink">
<g id="graph0" class="graph" transform="scale(1 1) rotate(0) translate(4 192)">
<title>maze.h</title>
<!-- Node1 -->
<g id="Node000001" class="node">
<title>Node1</title>
<g id="a_Node000001"><a xlink:title=" ">
<polygon fill="#999999" stroke="#666666" points="215.38,-188 167.12,-188 167.12,-168 215.38,-168 215.38,-188"/>
<text text-anchor="middle" x="191.25" y="-174.5" font-family="Helvetica,sans-Serif" font-size="10.00">maze.h</text>
</a>
</g>
</g>
<!-- Node2 -->
<g id="Node000002" class="node">
<title>Node2</title>
<g id="a_Node000002"><a xlink:title=" ">
<polygon fill="#e0e0e0" stroke="#999999" points="158.25,-20 118.25,-20 118.25,0 158.25,0 158.25,-20"/>
<text text-anchor="middle" x="138.25" y="-6.5" font-family="Helvetica,sans-Serif" font-size="10.00">string</text>
</a>
</g>
</g>
<!-- Node1&#45;&gt;Node2 -->
<g id="edge1_Node000001_Node000002" class="edge">
<title>Node1&#45;&gt;Node2</title>
<g id="a_edge1_Node000001_Node000002"><a xlink:title=" ">
<path fill="none" stroke="#63b8ff" d="M187.93,-167.57C181.7,-149.76 167.9,-109.89 157.25,-76 152.55,-61.04 147.59,-44.03 143.92,-31.16"/>
<polygon fill="#63b8ff" stroke="#63b8ff" points="147.34,-30.42 141.25,-21.75 140.61,-32.32 147.34,-30.42"/>
</a>
</g>
</g>
<!-- Node3 -->
<g id="Node000003" class="node">
<title>Node3</title>
<g id="a_Node000003"><a xlink:title=" ">
<polygon fill="#e0e0e0" stroke="#999999" points="216.12,-76 166.38,-76 166.38,-56 216.12,-56 216.12,-76"/>
<text text-anchor="middle" x="191.25" y="-62.5" font-family="Helvetica,sans-Serif" font-size="10.00">optional</text>
</a>
</g>
</g>
<!-- Node1&#45;&gt;Node3 -->
<g id="edge2_Node000001_Node000003" class="edge">
<title>Node1&#45;&gt;Node3</title>
<g id="a_edge2_Node000001_Node000003"><a xlink:title=" ">
<path fill="none" stroke="#63b8ff" d="M191.25,-167.62C191.25,-150.01 191.25,-111.59 191.25,-87.65"/>
<polygon fill="#63b8ff" stroke="#63b8ff" points="194.75,-87.87 191.25,-77.87 187.75,-87.87 194.75,-87.87"/>
</a>
</g>
</g>
<!-- Node4 -->
<g id="Node000004" class="node">
<title>Node4</title>
<g id="a_Node000004"><a xlink:href="hash_8h.html" target="_top" xlink:title=" ">
<polygon fill="white" stroke="#666666" points="661.38,-132 559.12,-132 559.12,-112 661.38,-112 661.38,-132"/>
<text text-anchor="middle" x="610.25" y="-118.5" font-family="Helvetica,sans-Serif" font-size="10.00">MazeBuilder/hash.h</text>
</a>
</g>
</g>
<!-- Node1&#45;&gt;Node4 -->
<g id="edge3_Node000001_Node000004" class="edge">
<title>Node1&#45;&gt;Node4</title>
<g id="a_edge3_Node000001_Node000004"><a xlink:title=" ">
<path fill="none" stroke="#63b8ff" d="M215.59,-173.86C279.38,-165.64 453.02,-143.26 547.3,-131.11"/>
<polygon fill="#63b8ff" stroke="#63b8ff" points="547.7,-134.59 557.17,-129.84 546.81,-127.65 547.7,-134.59"/>
</a>
</g>
</g>
<!-- Node6 -->
<g id="Node000006" class="node">
<title>Node6</title>
<g id="a_Node000006"><a xlink:href="enums_8h.html" target="_top" xlink:title="Enumerations for the maze builder program.">
<polygon fill="white" stroke="#666666" points="110.5,-76 0,-76 0,-56 110.5,-56 110.5,-76"/>
<text text-anchor="middle" x="55.25" y="-62.5" font-family="Helvetica,sans-Serif" font-size="10.00">MazeBuilder/enums.h</text>
</a>
</g>
</g>
<!-- Node1&#45;&gt;Node6 -->
<g id="edge5_Node000001_Node000006" class="edge">
<title>Node1&#45;&gt;Node6</title>
<g id="a_edge5_Node000001_Node000006"><a xlink:title=" ">
<path fill="none" stroke="#63b8ff" d="M175.58,-167.5C161.67,-158.83 141.01,-145.37 124.25,-132 105.47,-117.01 85.66,-97.98 72.11,-84.38"/>
<polygon fill="#63b8ff" stroke="#63b8ff" points="74.76,-82.08 65.25,-77.42 69.77,-87 74.76,-82.08"/>
</a>
</g>
</g>
<!-- Node8 -->
<g id="Node000008" class="node">
<title>Node8</title>
<g id="a_Node000008"><a xlink:href="grid__interface_8h.html" target="_top" xlink:title=" ">
<polygon fill="white" stroke="#666666" points="437.12,-132 297.38,-132 297.38,-112 437.12,-112 437.12,-132"/>
<text text-anchor="middle" x="367.25" y="-118.5" font-family="Helvetica,sans-Serif" font-size="10.00">MazeBuilder/grid_interface.h</text>
</a>
</g>
</g>
<!-- Node1&#45;&gt;Node8 -->
<g id="edge8_Node000001_Node000008" class="edge">
<title>Node1&#45;&gt;Node8</title>
<g id="a_edge8_Node000001_Node000008"><a xlink:title=" ">
<path fill="none" stroke="#63b8ff" d="M215.72,-169.49C244.19,-160.76 291.65,-146.2 325.87,-135.7"/>
<polygon fill="#63b8ff" stroke="#63b8ff" points="326.5,-139.16 335.03,-132.88 324.45,-132.47 326.5,-139.16"/>
</a>
</g>
</g>
<!-- Node5 -->
<g id="Node000005" class="node">
<title>Node5</title>
<g id="a_Node000005"><a xlink:title=" ">
<polygon fill="#e0e0e0" stroke="#999999" points="733.88,-76 694.62,-76 694.62,-56 733.88,-56 733.88,-76"/>
<text text-anchor="middle" x="714.25" y="-62.5" font-family="Helvetica,sans-Serif" font-size="10.00">utility</text>
</a>
</g>
</g>
<!-- Node4&#45;&gt;Node5 -->
<g id="edge4_Node000004_Node000005" class="edge">
<title>Node4&#45;&gt;Node5</title>
<g id="a_edge4_Node000004_Node000005"><a xlink:title=" ">
<path fill="none" stroke="#63b8ff" d="M628.37,-111.59C644.22,-103.36 667.53,-91.26 685.87,-81.74"/>
<polygon fill="#63b8ff" stroke="#63b8ff" points="687.39,-84.89 694.65,-77.18 684.16,-78.68 687.39,-84.89"/>
</a>
</g>
</g>
<!-- Node6&#45;&gt;Node2 -->
<g id="edge6_Node000006_Node000002" class="edge">
<title>Node6&#45;&gt;Node2</title>
<g id="a_edge6_Node000006_Node000002"><a xlink:title=" ">
<path fill="none" stroke="#63b8ff" d="M69.71,-55.59C82.01,-47.59 99.93,-35.93 114.36,-26.54"/>
<polygon fill="#63b8ff" stroke="#63b8ff" points="115.94,-29.69 122.41,-21.3 112.12,-23.82 115.94,-29.69"/>
</a>
</g>
</g>
<!-- Node7 -->
<g id="Node000007" class="node">
<title>Node7</title>
<g id="a_Node000007"><a xlink:title=" ">
<polygon fill="#e0e0e0" stroke="#999999" points="84.62,-20 25.88,-20 25.88,0 84.62,0 84.62,-20"/>
<text text-anchor="middle" x="55.25" y="-6.5" font-family="Helvetica,sans-Serif" font-size="10.00">stdexcept</text>
</a>
</g>
</g>
<!-- Node6&#45;&gt;Node7 -->
<g id="edge7_Node000006_Node000007" class="edge">
<title>Node6&#45;&gt;Node7</title>
<g id="a_edge7_Node000006_Node000007"><a xlink:title=" ">
<path fill="none" stroke="#63b8ff" d="M55.25,-55.59C55.25,-49.01 55.25,-39.96 55.25,-31.73"/>
<polygon fill="#63b8ff" stroke="#63b8ff" points="58.75,-31.81 55.25,-21.81 51.75,-31.81 58.75,-31.81"/>
</a>
</g>
</g>
<!-- Node8&#45;&gt;Node2 -->
<g id="edge10_Node000008_Node000002" class="edge">
<title>Node8&#45;&gt;Node2</title>
<g id="a_edge10_Node000008_Node000002"><a xlink:title=" ">
<path fill="none" stroke="#63b8ff" d="M344.3,-111.66C323.08,-102.88 290.76,-89.17 263.25,-76 246.04,-67.76 242.17,-64.83 225.25,-56 205.65,-45.77 183.52,-34.33 166.48,-25.54"/>
<polygon fill="#63b8ff" stroke="#63b8ff" points="168.44,-22.61 157.95,-21.14 165.23,-28.83 168.44,-22.61"/>
</a>
</g>
</g>
<!-- Node8&#45;&gt;Node3 -->
<g id="edge15_Node000008_Node000003" class="edge">
<title>Node8&#45;&gt;Node3</title>
<g id="a_edge15_Node000008_Node000003"><a xlink:title=" ">
<path fill="none" stroke="#63b8ff" d="M336.59,-111.59C306.11,-102.24 259.37,-87.9 227.17,-78.02"/>
<polygon fill="#63b8ff" stroke="#63b8ff" points="228.47,-74.76 217.88,-75.17 226.41,-81.45 228.47,-74.76"/>
</a>
</g>
</g>
<!-- Node8&#45;&gt;Node6 -->
<g id="edge17_Node000008_Node000006" class="edge">
<title>Node8&#45;&gt;Node6</title>
<g id="a_edge17_Node000008_Node000006"><a xlink:title=" ">
<path fill="none" stroke="#63b8ff" d="M312.55,-111.53C259.13,-102.29 177.81,-88.21 120.93,-78.37"/>
<polygon fill="#63b8ff" stroke="#63b8ff" points="121.83,-74.97 111.38,-76.72 120.64,-81.87 121.83,-74.97"/>
</a>
</g>
</g>
<!-- Node9 -->
<g id="Node000009" class="node">
<title>Node9</title>
<g id="a_Node000009"><a xlink:title=" ">
<polygon fill="#e0e0e0" stroke="#999999" points="698.75,-20 655.75,-20 655.75,0 698.75,0 698.75,-20"/>
<text text-anchor="middle" x="677.25" y="-6.5" font-family="Helvetica,sans-Serif" font-size="10.00">vector</text>
</a>
</g>
</g>
<!-- Node8&#45;&gt;Node9 -->
<g id="edge9_Node000008_Node000009" class="edge">
<title>Node8&#45;&gt;Node9</title>
<g id="a_edge9_Node000008_Node000009"><a xlink:title=" ">
<path fill="none" stroke="#63b8ff" d="M437.61,-117.17C509.54,-111.97 615.13,-100.36 647.25,-76 661.49,-65.2 669.19,-46.04 673.22,-31.3"/>
<polygon fill="#63b8ff" stroke="#63b8ff" points="676.59,-32.26 675.45,-21.73 669.77,-30.67 676.59,-32.26"/>
</a>
</g>
</g>
<!-- Node10 -->
<g id="Node000010" class="node">
<title>Node10</title>
<g id="a_Node000010"><a xlink:title=" ">
<polygon fill="#e0e0e0" stroke="#999999" points="323.88,-76 272.62,-76 272.62,-56 323.88,-56 323.88,-76"/>
<text text-anchor="middle" x="298.25" y="-62.5" font-family="Helvetica,sans-Serif" font-size="10.00">ostream</text>
</a>
</g>
</g>
<!-- Node8&#45;&gt;Node10 -->
<g id="edge11_Node000008_Node000010" class="edge">
<title>Node8&#45;&gt;Node10</title>
<g id="a_edge11_Node000008_Node000010"><a xlink:title=" ">
<path fill="none" stroke="#63b8ff" d="M355.23,-111.59C345.24,-103.77 330.79,-92.46 318.94,-83.19"/>
<polygon fill="#63b8ff" stroke="#63b8ff" points="321.36,-80.64 311.32,-77.23 317.04,-86.15 321.36,-80.64"/>
</a>
</g>
</g>
<!-- Node11 -->
<g id="Node000011" class="node">
<title>Node11</title>
<g id="a_Node000011"><a xlink:title=" ">
<polygon fill="#e0e0e0" stroke="#999999" points="392.88,-76 341.62,-76 341.62,-56 392.88,-56 392.88,-76"/>
<text text-anchor="middle" x="367.25" y="-62.5" font-family="Helvetica,sans-Serif" font-size="10.00">sstream</text>
</a>
</g>
</g>
<!-- Node8&#45;&gt;Node11 -->
<g id="edge12_Node000008_Node000011" class="edge">
<title>Node8&#45;&gt;Node11</title>
<g id="a_edge12_Node000008_Node000011"><a xlink:title=" ">
<path fill="none" stroke="#63b8ff" d="M367.25,-111.59C367.25,-105.01 367.25,-95.96 367.25,-87.73"/>
<polygon fill="#63b8ff" stroke="#63b8ff" points="370.75,-87.81 367.25,-77.81 363.75,-87.81 370.75,-87.81"/>
</a>
</g>
</g>
<!-- Node12 -->
<g id="Node000012" class="node">
<title>Node12</title>
<g id="a_Node000012"><a xlink:title=" ">
<polygon fill="#e0e0e0" stroke="#999999" points="473.88,-20 422.62,-20 422.62,0 473.88,0 473.88,-20"/>
<text text-anchor="middle" x="448.25" y="-6.5" font-family="Helvetica,sans-Serif" font-size="10.00">memory</text>
</a>
</g>
</g>
<!-- Node8&#45;&gt;Node12 -->
<g id="edge13_Node000008_Node000012" class="edge">
<title>Node8&#45;&gt;Node12</title>
<g id="a_edge13_Node000008_Node000012"><a xlink:title=" ">
<path fill="none" stroke="#63b8ff" d="M406.67,-111.66C425.42,-105.02 446.14,-93.98 457.25,-76 465.59,-62.51 462.2,-44.47 457.37,-30.82"/>
<polygon fill="#63b8ff" stroke="#63b8ff" points="460.61,-29.5 453.58,-21.57 454.13,-32.15 460.61,-29.5"/>
</a>
</g>
</g>
<!-- Node13 -->
<g id="Node000013" class="node">
<title>Node13</title>
<g id="a_Node000013"><a xlink:title=" ">
<polygon fill="#e0e0e0" stroke="#999999" points="536.88,-20 491.62,-20 491.62,0 536.88,0 536.88,-20"/>
<text text-anchor="middle" x="514.25" y="-6.5" font-family="Helvetica,sans-Serif" font-size="10.00">cstdint</text>
</a>
</g>
</g>
<!-- Node8&#45;&gt;Node13 -->
<g id="edge14_Node000008_Node000013" class="edge">
<title>Node8&#45;&gt;Node13</title>
<g id="a_edge14_Node000008_Node000013"><a xlink:title=" ">
<path fill="none" stroke="#63b8ff" d="M404.53,-111.58C426.66,-104.56 454.21,-93.18 474.25,-76 488.7,-63.62 499.52,-44.67 506.24,-30.42"/>
<polygon fill="#63b8ff" stroke="#63b8ff" points="509.3,-32.17 510.13,-21.6 502.9,-29.34 509.3,-32.17"/>
</a>
</g>
</g>
<!-- Node14 -->
<g id="Node000014" class="node">
<title>Node14</title>
<g id="a_Node000014"><a xlink:title=" ">
<polygon fill="#e0e0e0" stroke="#999999" points="447.75,-76 410.75,-76 410.75,-56 447.75,-56 447.75,-76"/>
<text text-anchor="middle" x="429.25" y="-62.5" font-family="Helvetica,sans-Serif" font-size="10.00">tuple</text>
</a>
</g>
</g>
<!-- Node8&#45;&gt;Node14 -->
<g id="edge16_Node000008_Node000014" class="edge">
<title>Node8&#45;&gt;Node14</title>
<g id="a_edge16_Node000008_Node000014"><a xlink:title=" ">
<path fill="none" stroke="#63b8ff" d="M378.05,-111.59C386.85,-103.93 399.5,-92.91 410.02,-83.75"/>
<polygon fill="#63b8ff" stroke="#63b8ff" points="412.19,-86.5 417.43,-77.29 407.59,-81.22 412.19,-86.5"/>
</a>
</g>
</g>
<!-- Node15 -->
<g id="Node000015" class="node">
<title>Node15</title>
<g id="a_Node000015"><a xlink:href="cell_8h.html" target="_top" xlink:title=" ">
<polygon fill="white" stroke="#666666" points="638.38,-76 542.12,-76 542.12,-56 638.38,-56 638.38,-76"/>
<text text-anchor="middle" x="590.25" y="-62.5" font-family="Helvetica,sans-Serif" font-size="10.00">MazeBuilder/cell.h</text>
</a>
</g>
</g>
<!-- Node8&#45;&gt;Node15 -->
<g id="edge18_Node000008_Node000015" class="edge">
<title>Node8&#45;&gt;Node15</title>
<g id="a_edge18_Node000008_Node000015"><a xlink:title=" ">
<path fill="none" stroke="#63b8ff" d="M406.35,-111.53C443.57,-102.52 499.76,-88.91 540.23,-79.11"/>
<polygon fill="#63b8ff" stroke="#63b8ff" points="540.83,-82.57 549.73,-76.81 539.18,-75.77 540.83,-82.57"/>
</a>
</g>
</g>
<!-- Node15&#45;&gt;Node9 -->
<g id="edge20_Node000015_Node000009" class="edge">
<title>Node15&#45;&gt;Node9</title>
<g id="a_edge20_Node000015_Node000009"><a xlink:title=" ">
<path fill="none" stroke="#63b8ff" d="M605.4,-55.59C618.3,-47.59 637.08,-35.93 652.21,-26.54"/>
<polygon fill="#63b8ff" stroke="#63b8ff" points="654.04,-29.53 660.69,-21.28 650.35,-23.58 654.04,-29.53"/>
</a>
</g>
</g>
<!-- Node15&#45;&gt;Node12 -->
<g id="edge19_Node000015_Node000012" class="edge">
<title>Node15&#45;&gt;Node12</title>
<g id="a_edge19_Node000015_Node000012"><a xlink:title=" ">
<path fill="none" stroke="#63b8ff" d="M565.52,-55.59C542.95,-47.01 509.34,-34.23 483.88,-24.55"/>
<polygon fill="#63b8ff" stroke="#63b8ff" points="485.18,-21.3 474.59,-21.02 482.7,-27.84 485.18,-21.3"/>
</a>
</g>
</g>
<!-- Node15&#45;&gt;Node13 -->
<g id="edge22_Node000015_Node000013" class="edge">
<title>Node15&#45;&gt;Node13</title>
<g id="a_edge22_Node000015_Node000013"><a xlink:title=" ">
<path fill="none" stroke="#63b8ff" d="M577.01,-55.59C565.96,-47.74 549.97,-36.38 536.89,-27.09"/>
<polygon fill="#63b8ff" stroke="#63b8ff" points="539,-24.3 528.83,-21.36 534.95,-30 539,-24.3"/>
</a>
</g>
</g>
<!-- Node16 -->
<g id="Node000016" class="node">
<title>Node16</title>
<g id="a_Node000016"><a xlink:title=" ">
<polygon fill="#e0e0e0" stroke="#999999" points="637.62,-20 554.88,-20 554.88,0 637.62,0 637.62,-20"/>
<text text-anchor="middle" x="596.25" y="-6.5" font-family="Helvetica,sans-Serif" font-size="10.00">unordered_map</text>
</a>
</g>
</g>
<!-- Node15&#45;&gt;Node16 -->
<g id="edge21_Node000015_Node000016" class="edge">
<title>Node15&#45;&gt;Node16</title>
<g id="a_edge21_Node000015_Node000016"><a xlink:title=" ">
<path fill="none" stroke="#63b8ff" d="M591.3,-55.59C592.03,-49.01 593.03,-39.96 593.95,-31.73"/>
<polygon fill="#63b8ff" stroke="#63b8ff" points="597.42,-32.13 595.05,-21.8 590.47,-31.35 597.42,-32.13"/>
</a>
</g>
</g>
</g>
</svg>
