<?xml version="1.0" encoding="UTF-8" standalone="no"?>
<!DOCTYPE svg PUBLIC "-//W3C//DTD SVG 1.1//EN"
 "http://www.w3.org/Graphics/SVG/1.1/DTD/svg11.dtd">
<!-- Generated by graphviz version 12.2.1 (20241206.2353)
 -->
<!-- Title: progress.h Pages: 1 -->
<svg width="114pt" height="84pt"
 viewBox="0.00 0.00 114.12 84.00" xmlns="http://www.w3.org/2000/svg" xmlns:xlink="http://www.w3.org/1999/xlink">
<g id="graph0" class="graph" transform="scale(1 1) rotate(0) translate(4 80)">
<title>progress.h</title>
<!-- Node1 -->
<g id="Node000001" class="node">
<title>Node1</title>
<g id="a_Node000001"><a xlink:title=" ">
<polygon fill="#999999" stroke="#666666" points="84.5,-76 22.75,-76 22.75,-56 84.5,-56 84.5,-76"/>
<text text-anchor="middle" x="53.62" y="-62.5" font-family="Helvetica,sans-Serif" font-size="10.00">progress.h</text>
</a>
</g>
</g>
<!-- Node2 -->
<g id="Node000002" class="node">
<title>Node2</title>
<g id="a_Node000002"><a xlink:title=" ">
<polygon fill="#e0e0e0" stroke="#999999" points="45.25,-20 0,-20 0,0 45.25,0 45.25,-20"/>
<text text-anchor="middle" x="22.62" y="-6.5" font-family="Helvetica,sans-Serif" font-size="10.00">chrono</text>
</a>
</g>
</g>
<!-- Node1&#45;&gt;Node2 -->
<g id="edge1_Node000001_Node000002" class="edge">
<title>Node1&#45;&gt;Node2</title>
<g id="a_edge1_Node000001_Node000002"><a xlink:title=" ">
<path fill="none" stroke="#63b8ff" d="M48.23,-55.59C44.18,-48.55 38.51,-38.67 33.53,-30"/>
<polygon fill="#63b8ff" stroke="#63b8ff" points="36.73,-28.54 28.72,-21.61 30.66,-32.03 36.73,-28.54"/>
</a>
</g>
</g>
<!-- Node3 -->
<g id="Node000003" class="node">
<title>Node3</title>
<g id="a_Node000003"><a xlink:title=" ">
<polygon fill="#e0e0e0" stroke="#999999" points="106.12,-20 63.12,-20 63.12,0 106.12,0 106.12,-20"/>
<text text-anchor="middle" x="84.62" y="-6.5" font-family="Helvetica,sans-Serif" font-size="10.00">mutex</text>
</a>
</g>
</g>
<!-- Node1&#45;&gt;Node3 -->
<g id="edge2_Node000001_Node000003" class="edge">
<title>Node1&#45;&gt;Node3</title>
<g id="a_edge2_Node000001_Node000003"><a xlink:title=" ">
<path fill="none" stroke="#63b8ff" d="M59.02,-55.59C63.07,-48.55 68.74,-38.67 73.72,-30"/>
<polygon fill="#63b8ff" stroke="#63b8ff" points="76.59,-32.03 78.53,-21.61 70.52,-28.54 76.59,-32.03"/>
</a>
</g>
</g>
</g>
</svg>
