<?xml version="1.0" encoding="UTF-8" standalone="no"?>
<!DOCTYPE svg PUBLIC "-//W3C//DTD SVG 1.1//EN"
 "http://www.w3.org/Graphics/SVG/1.1/DTD/svg11.dtd">
<!-- Generated by graphviz version 12.2.1 (20241206.2353)
 -->
<!-- Title: randomizer.h Pages: 1 -->
<svg width="120pt" height="84pt"
 viewBox="0.00 0.00 120.12 84.00" xmlns="http://www.w3.org/2000/svg" xmlns:xlink="http://www.w3.org/1999/xlink">
<g id="graph0" class="graph" transform="scale(1 1) rotate(0) translate(4 80)">
<title>randomizer.h</title>
<!-- Node1 -->
<g id="Node000001" class="node">
<title>Node1</title>
<g id="a_Node000001"><a xlink:title=" ">
<polygon fill="#999999" stroke="#666666" points="89.62,-76 17.38,-76 17.38,-56 89.62,-56 89.62,-76"/>
<text text-anchor="middle" x="53.5" y="-62.5" font-family="Helvetica,sans-Serif" font-size="10.00">randomizer.h</text>
</a>
</g>
</g>
<!-- Node2 -->
<g id="Node000002" class="node">
<title>Node2</title>
<g id="a_Node000002"><a xlink:title=" ">
<polygon fill="#e0e0e0" stroke="#999999" points="43,-20 0,-20 0,0 43,0 43,-20"/>
<text text-anchor="middle" x="21.5" y="-6.5" font-family="Helvetica,sans-Serif" font-size="10.00">vector</text>
</a>
</g>
</g>
<!-- Node1&#45;&gt;Node2 -->
<g id="edge1_Node000001_Node000002" class="edge">
<title>Node1&#45;&gt;Node2</title>
<g id="a_edge1_Node000001_Node000002"><a xlink:title=" ">
<path fill="none" stroke="#63b8ff" d="M47.93,-55.59C43.75,-48.55 37.9,-38.67 32.76,-30"/>
<polygon fill="#63b8ff" stroke="#63b8ff" points="35.89,-28.42 27.78,-21.6 29.87,-31.99 35.89,-28.42"/>
</a>
</g>
</g>
<!-- Node3 -->
<g id="Node000003" class="node">
<title>Node3</title>
<g id="a_Node000003"><a xlink:title=" ">
<polygon fill="#e0e0e0" stroke="#999999" points="112.12,-20 60.88,-20 60.88,0 112.12,0 112.12,-20"/>
<text text-anchor="middle" x="86.5" y="-6.5" font-family="Helvetica,sans-Serif" font-size="10.00">memory</text>
</a>
</g>
</g>
<!-- Node1&#45;&gt;Node3 -->
<g id="edge2_Node000001_Node000003" class="edge">
<title>Node1&#45;&gt;Node3</title>
<g id="a_edge2_Node000001_Node000003"><a xlink:title=" ">
<path fill="none" stroke="#63b8ff" d="M59.25,-55.59C63.55,-48.55 69.59,-38.67 74.89,-30"/>
<polygon fill="#63b8ff" stroke="#63b8ff" points="77.8,-31.95 80.03,-21.59 71.83,-28.3 77.8,-31.95"/>
</a>
</g>
</g>
</g>
</svg>
