<?xml version="1.0" encoding="UTF-8" standalone="no"?>
<!DOCTYPE svg PUBLIC "-//W3C//DTD SVG 1.1//EN"
 "http://www.w3.org/Graphics/SVG/1.1/DTD/svg11.dtd">
<!-- Generated by graphviz version 12.2.1 (20241206.2353)
 -->
<!-- Title: wavefront_object_helper.h Pages: 1 -->
<svg width="242pt" height="84pt"
 viewBox="0.00 0.00 242.25 84.00" xmlns="http://www.w3.org/2000/svg" xmlns:xlink="http://www.w3.org/1999/xlink">
<g id="graph0" class="graph" transform="scale(1 1) rotate(0) translate(4 80)">
<title>wavefront_object_helper.h</title>
<!-- Node1 -->
<g id="Node000001" class="node">
<title>Node1</title>
<g id="a_Node000001"><a xlink:title=" ">
<polygon fill="#999999" stroke="#666666" points="184.62,-76 54.62,-76 54.62,-56 184.62,-56 184.62,-76"/>
<text text-anchor="middle" x="119.62" y="-62.5" font-family="Helvetica,sans-Serif" font-size="10.00">wavefront_object_helper.h</text>
</a>
</g>
</g>
<!-- Node2 -->
<g id="Node000002" class="node">
<title>Node2</title>
<g id="a_Node000002"><a xlink:title=" ">
<polygon fill="#e0e0e0" stroke="#999999" points="51.25,-20 0,-20 0,0 51.25,0 51.25,-20"/>
<text text-anchor="middle" x="25.62" y="-6.5" font-family="Helvetica,sans-Serif" font-size="10.00">memory</text>
</a>
</g>
</g>
<!-- Node1&#45;&gt;Node2 -->
<g id="edge1_Node000001_Node000002" class="edge">
<title>Node1&#45;&gt;Node2</title>
<g id="a_edge1_Node000001_Node000002"><a xlink:title=" ">
<path fill="none" stroke="#63b8ff" d="M103.25,-55.59C89.05,-47.44 68.24,-35.48 51.74,-26"/>
<polygon fill="#63b8ff" stroke="#63b8ff" points="53.85,-23.18 43.44,-21.23 50.37,-29.25 53.85,-23.18"/>
</a>
</g>
</g>
<!-- Node3 -->
<g id="Node000003" class="node">
<title>Node3</title>
<g id="a_Node000003"><a xlink:title=" ">
<polygon fill="#e0e0e0" stroke="#999999" points="109.62,-20 69.62,-20 69.62,0 109.62,0 109.62,-20"/>
<text text-anchor="middle" x="89.62" y="-6.5" font-family="Helvetica,sans-Serif" font-size="10.00">string</text>
</a>
</g>
</g>
<!-- Node1&#45;&gt;Node3 -->
<g id="edge2_Node000001_Node000003" class="edge">
<title>Node1&#45;&gt;Node3</title>
<g id="a_edge2_Node000001_Node000003"><a xlink:title=" ">
<path fill="none" stroke="#63b8ff" d="M114.4,-55.59C110.53,-48.63 105.12,-38.89 100.34,-30.29"/>
<polygon fill="#63b8ff" stroke="#63b8ff" points="103.44,-28.66 95.53,-21.62 97.32,-32.06 103.44,-28.66"/>
</a>
</g>
</g>
<!-- Node4 -->
<g id="Node000004" class="node">
<title>Node4</title>
<g id="a_Node000004"><a xlink:title=" ">
<polygon fill="#e0e0e0" stroke="#999999" points="171.12,-20 128.12,-20 128.12,0 171.12,0 171.12,-20"/>
<text text-anchor="middle" x="149.62" y="-6.5" font-family="Helvetica,sans-Serif" font-size="10.00">vector</text>
</a>
</g>
</g>
<!-- Node1&#45;&gt;Node4 -->
<g id="edge3_Node000001_Node000004" class="edge">
<title>Node1&#45;&gt;Node4</title>
<g id="a_edge3_Node000001_Node000004"><a xlink:title=" ">
<path fill="none" stroke="#63b8ff" d="M124.85,-55.59C128.72,-48.63 134.13,-38.89 138.91,-30.29"/>
<polygon fill="#63b8ff" stroke="#63b8ff" points="141.93,-32.06 143.72,-21.62 135.81,-28.66 141.93,-32.06"/>
</a>
</g>
</g>
<!-- Node5 -->
<g id="Node000005" class="node">
<title>Node5</title>
<g id="a_Node000005"><a xlink:title=" ">
<polygon fill="#e0e0e0" stroke="#999999" points="234.25,-20 189,-20 189,0 234.25,0 234.25,-20"/>
<text text-anchor="middle" x="211.62" y="-6.5" font-family="Helvetica,sans-Serif" font-size="10.00">cstdint</text>
</a>
</g>
</g>
<!-- Node1&#45;&gt;Node5 -->
<g id="edge4_Node000001_Node000005" class="edge">
<title>Node1&#45;&gt;Node5</title>
<g id="a_edge4_Node000001_Node000005"><a xlink:title=" ">
<path fill="none" stroke="#63b8ff" d="M135.65,-55.59C149.42,-47.51 169.53,-35.71 185.6,-26.27"/>
<polygon fill="#63b8ff" stroke="#63b8ff" points="187.32,-29.33 194.17,-21.25 183.77,-23.29 187.32,-29.33"/>
</a>
</g>
</g>
</g>
</svg>
